<svg width="92" height="93" xmlns="http://www.w3.org/2000/svg" xmlns:xlink="http://www.w3.org/1999/xlink" xml:space="preserve" overflow="hidden"><defs><clipPath id="clip0"><rect x="705" y="535" width="92" height="93"/></clipPath><linearGradient x1="30.0537" y1="47.274" x2="10.5814" y2="47.2038" gradientUnits="userSpaceOnUse" spreadMethod="pad" id="fill1"><stop offset="0" stop-color="#00295B"/><stop offset="1" stop-color="#004177"/></linearGradient></defs><g clip-path="url(#clip0)" transform="translate(-705 -535)"><path d="M0 0 92.0286 0 92.0286 92.0286 0 92.0286 0 0Z" fill="#013C58" transform="matrix(1 0 0 1.01087 705 535)"/><path d="M69.7016 83.4968C69.8212 83.4803 69.9382 83.4655 70.0583 83.487 70.2904 83.5286 70.5121 83.6666 70.6389 83.8673 70.7585 84.0567 70.789 84.2831 70.7296 84.4986 70.646 84.8017 70.4277 84.972 70.1617 85.1147 70.0235 85.1431 69.8968 85.1545 69.7565 85.1282 69.5478 85.0889 69.3637 84.9866 69.2475 84.8054 69.1178 84.6033 69.1012 84.3515 69.161 84.1233 69.2458 83.7999 69.4226 83.6579 69.7016 83.4968Z" fill="#FCFDFD" transform="matrix(1 0 0 1.01087 705 535)"/><path d="M62.3649 6.07521C62.5063 6.05559 62.6477 6.03603 62.7895 6.06365 63.0221 6.10901 63.2333 6.27508 63.3548 6.47542 63.4778 6.67831 63.5163 6.93496 63.4467 7.16306 63.3623 7.43941 63.182 7.601 62.936 7.73463 62.7941 7.7584 62.6646 7.77008 62.5217 7.74446 62.2873 7.70243 62.0737 7.57518 61.9465 7.37096 61.8184 7.16542 61.7953 6.92293 61.8553 6.69131 61.9328 6.39281 62.113 6.23371 62.3649 6.07521Z" fill="#FCFDFD" transform="matrix(1 0 0 1.01087 705 535)"/><path d="M78.6496 8.41028C78.8654 8.39294 79.1151 8.36784 79.3235 8.43729 79.6243 8.53755 79.8898 8.7529 80.029 9.03983 80.1487 9.28644 80.1736 9.58176 80.0785 9.84059 79.9656 10.1481 79.7236 10.357 79.4388 10.5 79.1687 10.557 78.9316 10.56 78.6568 10.5543L78.628 10.5366C78.3915 10.3942 78.2119 10.2598 78.0791 10.0117 77.9248 9.7234 77.8801 9.37793 77.9878 9.06589 78.1093 8.71418 78.33 8.56525 78.6496 8.41028Z" fill="#10A1BC" transform="matrix(1 0 0 1.01087 705 535)"/><path d="M21.1795 9.71342C21.4531 9.6852 21.7165 9.68538 21.975 9.79125 22.3102 9.92857 22.5792 10.1899 22.7089 10.5304 22.7251 10.5731 22.7391 10.6166 22.7509 10.6608 22.7627 10.7049 22.7721 10.7495 22.7792 10.7947 22.7863 10.8398 22.791 10.8852 22.7934 10.9308 22.7958 10.9764 22.7958 11.022 22.7934 11.0677 22.791 11.1133 22.7863 11.1586 22.7792 11.2039 22.7721 11.249 22.7627 11.2936 22.7509 11.3378 22.7391 11.3819 22.7252 11.4254 22.709 11.4681 22.6927 11.5108 22.6742 11.5525 22.6536 11.5933 22.455 11.9794 22.1481 12.1732 21.7489 12.3099 21.4547 12.3581 21.1916 12.3453 20.9166 12.2182 20.8762 12.1995 20.8368 12.1788 20.7985 12.156 20.7602 12.1333 20.7231 12.1088 20.6874 12.0823 20.6515 12.0557 20.6172 12.0274 20.5843 11.9975 20.5514 11.9675 20.5201 11.9359 20.4904 11.9027 20.4606 11.8695 20.4328 11.8349 20.4066 11.7989 20.3805 11.7629 20.3561 11.7256 20.3337 11.687 20.3114 11.6485 20.291 11.609 20.2727 11.5684 20.2544 11.5278 20.2381 11.4864 20.224 11.4442 20.2099 11.4028 20.1978 11.3609 20.1878 11.3183 20.1778 11.2758 20.1701 11.2329 20.1644 11.1896 20.1588 11.1462 20.1552 11.1027 20.154 11.059 20.1526 11.0153 20.1535 10.9717 20.1566 10.9281 20.1597 10.8845 20.165 10.8412 20.1724 10.7982 20.1799 10.7551 20.1894 10.7125 20.2011 10.6704 20.2128 10.6282 20.2265 10.5869 20.2423 10.5462 20.2582 10.5055 20.276 10.4656 20.2959 10.4266 20.4898 10.0465 20.7872 9.85137 21.1795 9.71342Z" fill="#FCFDFD" transform="matrix(1 0 0 1.01087 705 535)"/><path d="M11.59 70.5603C11.6092 70.5496 11.6287 70.5395 11.6475 70.5283 11.8171 70.4286 11.9635 70.2393 12.1189 70.1117 12.7257 69.6133 13.3288 69.5042 14.1003 69.5147 14.1016 69.9116 14.0881 70.3146 14.1103 70.7107 14.0976 71.2925 14.1397 71.8952 14.086 72.4731 13.5804 72.5132 13.0479 72.3497 12.5775 72.1831L12.0183 71.8482C11.8307 71.5724 11.6517 71.183 11.4003 70.9675 11.3907 70.9163 11.4234 70.8883 11.4488 70.8444 11.5189 70.759 11.549 70.6619 11.59 70.5603Z" fill="#FCFDFD" transform="matrix(1 0 0 1.01087 705 535)"/><path d="M25.8004 82.287C26.016 82.2778 26.2441 82.3391 26.4382 82.4298 26.4817 82.4501 26.524 82.4724 26.5652 82.4971 26.6063 82.5216 26.6461 82.5483 26.6845 82.577 26.7229 82.6056 26.7597 82.6363 26.795 82.6688 26.8303 82.7013 26.8637 82.7355 26.8954 82.7714 26.9272 82.8075 26.9569 82.845 26.9848 82.884 27.0125 82.9231 27.0383 82.9634 27.062 83.0051 27.0856 83.0468 27.1071 83.0897 27.1263 83.1336 27.1455 83.1776 27.1624 83.2223 27.177 83.268 27.192 83.3137 27.2046 83.3602 27.2148 83.4072 27.225 83.4542 27.2327 83.5016 27.238 83.5496 27.2433 83.5974 27.2462 83.6454 27.2466 83.6935 27.2468 83.7416 27.2447 83.7897 27.2401 83.8376 27.2355 83.8855 27.2284 83.933 27.2189 83.9802 27.2094 84.0274 27.1974 84.074 27.183 84.12 27.1687 84.1659 27.152 84.211 27.1331 84.2552 27.1141 84.2994 27.0928 84.3426 27.0693 84.3846 26.8427 84.793 26.5027 84.9613 26.0706 85.0741 25.7203 85.0757 25.4384 85.0536 25.1282 84.8662 25.0902 84.8435 25.0534 84.819 25.0179 84.7927 24.9824 84.7663 24.9483 84.7382 24.9156 84.7084 24.8829 84.6786 24.8518 84.6472 24.8222 84.6144 24.7926 84.5815 24.7649 84.5471 24.7387 84.5114 24.7126 84.4757 24.6884 84.4387 24.666 84.4006 24.6436 84.3624 24.6231 84.3233 24.6047 84.2831 24.5863 84.2429 24.5698 84.2018 24.5555 84.16 24.5412 84.1182 24.5289 84.0757 24.5189 84.0326 24.4339 83.6585 24.518 83.2505 24.7337 82.9345 24.9949 82.5516 25.3604 82.3782 25.8004 82.287Z" fill="#FCFDFD" transform="matrix(1 0 0 1.01087 705 535)"/><path d="M81.8042 70.4722C82.0862 70.4628 82.3378 70.4661 82.6 70.5892 82.6432 70.6094 82.6853 70.6317 82.7264 70.6561 82.7674 70.6806 82.807 70.7072 82.8452 70.7357 82.8835 70.7643 82.9202 70.7948 82.9553 70.8271 82.9905 70.8595 83.0239 70.8936 83.0555 70.9293 83.0872 70.9651 83.1169 71.0024 83.1447 71.0412 83.1725 71.08 83.1982 71.1202 83.2219 71.1616 83.2455 71.2031 83.267 71.2457 83.2863 71.2894 83.3056 71.333 83.3226 71.3776 83.3374 71.423 83.4572 71.7876 83.4369 72.2113 83.255 72.5525 83.0398 72.9563 82.7013 73.1409 82.278 73.268 81.962 73.269 81.6885 73.2486 81.4022 73.0959 81.3588 73.0731 81.3168 73.0482 81.276 73.0213 81.2352 72.9942 81.1958 72.9653 81.1579 72.9343 81.12 72.9034 81.0838 72.8706 81.0492 72.836 81.0146 72.8014 80.9819 72.765 80.951 72.7271 80.9201 72.6892 80.8912 72.6498 80.8643 72.6089 80.8373 72.568 80.8125 72.526 80.7899 72.4826 80.7671 72.4393 80.7467 72.3949 80.7286 72.3495 80.7103 72.3041 80.6945 72.2578 80.6809 72.2108 80.6688 72.1678 80.6587 72.1243 80.6509 72.0802 80.6431 72.0362 80.6375 71.9919 80.634 71.9473 80.6306 71.9027 80.6294 71.8581 80.6304 71.8134 80.6314 71.7687 80.6347 71.7242 80.6401 71.6798 80.6456 71.6354 80.6533 71.5914 80.6631 71.5478 80.6729 71.5042 80.6849 71.4612 80.699 71.4187 80.7131 71.3763 80.7293 71.3346 80.7475 71.2938 80.7658 71.253 80.786 71.2132 80.8082 71.1744 81.0304 70.7836 81.3799 70.5805 81.8042 70.4722Z" fill="#FCFDFD" transform="matrix(1 0 0 1.01087 705 535)"/><path d="M7.77669 63.9982C8.06892 63.9644 8.32652 63.9572 8.60719 64.0682 8.63002 64.0771 8.65259 64.0868 8.67493 64.0969 8.69726 64.1071 8.7193 64.1178 8.74107 64.1291 8.76283 64.1404 8.78428 64.1523 8.80543 64.1648 8.82657 64.1773 8.84738 64.1902 8.86784 64.2037 8.88831 64.2173 8.90841 64.2313 8.92814 64.2459 8.94787 64.2605 8.9672 64.2756 8.98614 64.2911 9.00514 64.3068 9.02365 64.3229 9.04172 64.3394 9.05978 64.356 9.07749 64.373 9.09465 64.3905 9.11182 64.408 9.12862 64.4258 9.14489 64.4443 9.16116 64.4626 9.17689 64.4814 9.19216 64.5006 9.20744 64.5198 9.22218 64.5394 9.23647 64.5593 9.25076 64.5793 9.26451 64.5996 9.27772 64.6203 9.29093 64.641 9.30351 64.662 9.31565 64.6833 9.32778 64.7046 9.33928 64.7263 9.35025 64.7483 9.36121 64.7702 9.37164 64.7924 9.38143 64.8149 9.39123 64.8375 9.4004 64.8602 9.40902 64.8831 9.42673 64.928 9.44219 64.9737 9.45522 65.0202 9.46825 65.0666 9.47886 65.1137 9.48703 65.1613 9.49521 65.2088 9.50096 65.2567 9.50429 65.3049 9.50761 65.353 9.50842 65.4012 9.50671 65.4495 9.50501 65.4977 9.50087 65.5457 9.49422 65.5936 9.48757 65.6414 9.4785 65.6887 9.46699 65.7355 9.45549 65.7825 9.44165 65.8287 9.42538 65.8741 9.40911 65.9195 9.3906 65.964 9.36975 66.0076 9.1679 66.4193 8.81691 66.6229 8.39791 66.765 8.09093 66.8129 7.83988 66.8182 7.54853 66.6956 7.50666 66.6781 7.46575 66.6586 7.42582 66.6371 7.38589 66.6155 7.34713 66.5919 7.30953 66.5665 7.27194 66.5411 7.23569 66.5138 7.20081 66.4848 7.16594 66.4558 7.13258 66.425 7.10075 66.3927 7.06892 66.3603 7.03878 66.3265 7.01031 66.2911 6.98185 66.2558 6.95522 66.2191 6.93042 66.1811 6.9056 66.1431 6.88274 66.1039 6.86183 66.0637 6.84091 66.0234 6.82205 65.9822 6.80524 65.94 6.66021 65.5785 6.67894 65.175 6.83623 64.8209 7.02848 64.388 7.3543 64.1683 7.77669 63.9982Z" fill="#FCFDFD" transform="matrix(1 0 0 1.01087 705 535)"/><path d="M7.13158 71.8457C6.99713 71.8157 6.90836 71.7814 6.80876 71.683 6.65012 71.5261 6.51934 71.3163 6.52443 71.0871 6.52771 70.9396 6.61213 70.7977 6.72331 70.7054 6.86595 70.587 7.05266 70.5309 7.23395 70.5084 7.74848 70.4445 8.32305 70.5259 8.84445 70.5333 9.75746 70.5462 10.6787 70.509 11.59 70.5603 11.549 70.6619 11.5189 70.759 11.4488 70.8444 11.4234 70.8883 11.3907 70.9163 11.4003 70.9675 11.6517 71.183 11.8307 71.5724 12.0183 71.8482 10.5372 71.7354 8.63323 71.8039 7.13158 71.8457Z" fill="#F5A201" transform="matrix(1 0 0 1.01087 705 535)"/><path d="M7.07859 70.8794C7.87969 70.7482 10.605 70.7718 11.4488 70.8444 11.4234 70.8883 11.3907 70.9163 11.4003 70.9675 10.9502 71.1151 7.63026 70.9791 7.07859 70.8794Z" fill="#F2EBCD" transform="matrix(1 0 0 1.01087 705 535)"/><path d="M9.29039 13.7972C10.3861 13.7378 11.4976 13.7948 12.5952 13.7939 13.3724 13.7932 14.2479 13.7062 15.0131 13.8099 15.2262 13.8387 15.5059 13.92 15.6254 14.1177 15.7132 14.263 15.7222 14.4063 15.6783 14.5662 15.6024 14.8421 15.4568 14.948 15.2158 15.0834 14.2939 15.168 13.3126 15.1047 12.3831 15.1073 11.5027 15.1099 10.6007 15.1708 9.72277 15.1277 9.46484 15.1151 9.20933 15.0773 9.03498 14.8646 8.92136 14.7261 8.88756 14.5517 8.90945 14.3767 8.9439 14.1012 9.07317 13.9552 9.29039 13.7972Z" fill="#10A1BC" transform="matrix(1 0 0 1.01087 705 535)"/><path d="M77.3019 77.716 81.0606 77.7072C81.5596 77.7045 82.118 77.6382 82.6106 77.6871 82.787 77.7047 82.9696 77.7606 83.1094 77.873 83.2447 77.982 83.3467 78.1401 83.3645 78.3153 83.3811 78.4803 83.3168 78.6322 83.2079 78.7538 83.0013 78.9843 82.7887 78.9779 82.5024 78.9937 81.7469 78.9965 76.9626 79.1192 76.6321 78.897 76.4705 78.7882 76.3708 78.6125 76.3413 78.4218 76.3119 78.232 76.342 78.0581 76.4699 77.9091 76.6562 77.6921 77.0442 77.7228 77.3019 77.716Z" fill="#10A1BC" transform="matrix(1 0 0 1.01087 705 535)"/><path d="M68.273 9.18363C69.8237 9.13554 71.3894 9.18003 72.9414 9.18408 73.5778 9.18578 74.9854 9.09969 75.5464 9.24285 75.6848 9.27817 75.8085 9.40282 75.8687 9.5308 75.9401 9.68286 75.9315 9.852 75.8698 10.0055 75.7707 10.252 75.6249 10.3621 75.3905 10.4698 74.6377 10.5217 68.6423 10.5819 68.3273 10.4808 68.113 10.4122 67.9273 10.2666 67.8359 10.0575 67.7677 9.90143 67.7621 9.73059 67.8295 9.5734 67.9152 9.3737 68.08 9.26496 68.273 9.18363Z" fill="#10A1BC" transform="matrix(1 0 0 1.01087 705 535)"/><path d="M45.7945 57.9831 51.8197 57.9796C52.7851 57.9787 53.7921 57.9184 54.7534 57.9789 54.8334 57.9839 54.8915 58.0104 54.9621 58.0455 55.0601 58.157 55.1035 58.2174 55.142 58.3606 55.1077 58.4816 55.0994 58.5105 54.9878 58.5837 54.8592 58.6682 54.6371 58.6863 54.4885 58.6941 53.706 58.735 52.9005 58.6819 52.1147 58.6836L45.7758 58.6844 42.0766 58.6835C41.5887 58.6824 41.0402 58.7413 40.5602 58.6939 40.4523 58.6833 40.3354 58.6478 40.2546 58.5733 40.171 58.4964 40.1486 58.4175 40.133 58.3097 40.1577 58.2172 40.1679 58.1637 40.2399 58.0949 40.4538 57.8905 45.1312 57.9822 45.7945 57.9831Z" fill="#FCFDFD" transform="matrix(1 0 0 1.01087 705 535)"/><path d="M45.7939 55.5969 51.8122 55.589C52.667 55.586 53.9506 55.5038 54.7421 55.5916 54.8582 55.6045 54.9333 55.6395 55.0266 55.7073 55.0871 55.7965 55.1235 55.8893 55.1041 56.0007 55.0843 56.1144 55.0063 56.1952 54.908 56.2474 54.7826 56.314 54.6091 56.3209 54.4705 56.326 53.7681 56.352 53.05 56.2924 52.3441 56.2961L45.7886 56.2955 42.4421 56.298C41.8646 56.3017 41.2374 56.3685 40.6649 56.3051 40.4933 56.2862 40.2401 56.2229 40.1503 56.0569 40.0918 55.949 40.1081 55.8943 40.1413 55.7878 40.261 55.6699 40.3708 55.6242 40.5377 55.5988 41.0953 55.5141 41.7591 55.589 42.3282 55.5943L45.7939 55.5969Z" fill="#FCFDFD" transform="matrix(1 0 0 1.01087 705 535)"/><path d="M12.0917 82.7765C13.7761 82.6934 15.5006 82.7675 17.188 82.7685 17.861 82.7689 19.9747 82.6738 20.5435 82.8266 20.6844 82.8646 20.7973 82.9742 20.8608 83.1027 20.9488 83.2808 20.9635 83.5146 20.8985 83.7023 20.8275 83.9076 20.6697 84.0206 20.4861 84.1188 19.6242 84.2274 18.2315 84.1227 17.3009 84.1158 15.619 84.1035 13.9099 84.1618 12.2313 84.0806 12.0445 84.0715 11.8911 84.0327 11.7659 83.8814 11.6533 83.7453 11.6307 83.578 11.66 83.408 11.7117 83.107 11.847 82.9459 12.0917 82.7765Z" fill="#10A1BC" transform="matrix(1 0 0 1.01087 705 535)"/><path d="M75.8364 11.9758C76.4056 11.9671 77.9836 11.8186 78.3923 12.1758 78.4631 12.315 78.5149 12.4435 78.5165 12.6023 78.5183 12.7837 78.4614 12.954 78.3327 13.0842 78.2212 13.1969 78.104 13.2408 77.9507 13.2667 77.2519 13.3849 76.4705 13.317 75.7603 13.3185L71.5715 13.3246C71.1021 13.3295 69.4344 13.4429 69.1494 13.148 69.0541 13.0493 69.0045 12.8646 68.9954 12.7313 68.9823 12.5402 69.041 12.3363 69.1793 12.1994 69.3021 12.0778 69.4441 12.0295 69.6127 12.0089 70.272 11.9284 71.0026 11.9913 71.6698 11.99L75.8364 11.9758Z" fill="#10A1BC" transform="matrix(1 0 0 1.01087 705 535)"/><path d="M9.18578 79.7249C11.0197 79.6558 12.8788 79.7157 14.7159 79.7191 15.6698 79.7209 17.1518 79.6403 18.0411 79.7604 18.2074 79.7829 18.357 79.8627 18.4506 80.0046 18.5495 80.1547 18.5604 80.3352 18.5256 80.5078 18.4697 80.7849 18.3672 80.9337 18.1341 81.0877 17.6723 81.1532 17.1458 81.1084 16.677 81.1072L13.8489 81.0991 10.9292 81.0962C10.4108 81.0961 9.85461 81.1359 9.34144 81.068 9.16529 81.0447 9.01368 80.9817 8.90896 80.8326 8.77671 80.6442 8.77376 80.3887 8.82595 80.1724 8.88046 79.9465 8.99499 79.8448 9.18578 79.7249Z" fill="#10A1BC" transform="matrix(1 0 0 1.01087 705 535)"/><path d="M75.1928 80.7152C76.8608 80.6613 78.5431 80.7079 80.2122 80.7095 81.5411 80.7108 82.8899 80.6578 84.2164 80.7125 84.3946 80.7199 84.6361 80.7255 84.7967 80.8032 84.9153 80.8606 84.9901 80.9498 85.0408 81.0687 85.1257 81.2683 85.1409 81.5538 85.0478 81.7532 84.9678 81.9245 84.8381 81.9967 84.6704 82.0658 82.7624 82.1152 80.841 82.0586 78.9318 82.0551 78.0062 82.0534 75.8939 82.1568 75.0791 81.9613 74.9543 81.9313 74.9147 81.9072 74.8477 81.7902 74.7371 81.5971 74.7177 81.3893 74.7817 81.1764 74.8503 80.9477 74.9857 80.8209 75.1928 80.7152Z" fill="#10A1BC" transform="matrix(1 0 0 1.01087 705 535)"/><path d="M7.21584 16.7638C7.82815 16.7341 8.44918 16.7582 9.06284 16.7593L12.3852 16.7571 15.5266 16.7541C16.0021 16.7534 16.4899 16.7161 16.9635 16.7426 17.1044 16.7506 17.2444 16.7741 17.3762 16.8255 17.5625 16.8981 17.721 17.0354 17.7919 17.2255 17.8565 17.399 17.8232 17.5779 17.737 17.7374 17.6388 17.9192 17.5422 17.9914 17.3472 18.0498 15.1543 18.1002 12.9418 18.0308 10.7469 18.0316L8.51987 18.0382C8.0939 18.0404 7.62457 18.0792 7.20469 18.0157 7.07274 17.9957 6.93612 17.9014 6.86234 17.791 6.7593 17.6369 6.75736 17.4516 6.79912 17.2764 6.86069 17.018 6.99754 16.8981 7.21584 16.7638Z" fill="#10A1BC" transform="matrix(1 0 0 1.01087 705 535)"/><path d="M66.4547 48.7952C66.6069 48.7397 66.7587 48.6808 66.9125 48.6297 66.9301 48.9612 67.0392 49.5964 66.8712 49.8849L66.8133 49.8979C65.8812 50.2335 64.9511 50.5906 63.9945 50.8507 61.7584 51.4589 58.2565 51.9189 55.9464 51.7115 55.8902 51.816 55.8782 52.0113 55.8306 52.1372 55.653 52.237 55.2269 52.1653 55.0101 52.1586L54.9982 50.7203C57.5967 50.9062 60.7805 50.5224 63.2634 49.7464 63.8001 49.7371 65.931 49.0535 66.4547 48.7952Z" fill="#00537A" transform="matrix(1 0 0 1.01087 705 535)"/><path d="M45.8038 46.5275 60.8811 46.5499 60.8799 47.2277C55.8475 47.2658 50.8151 47.2762 45.7826 47.2588 45.0779 47.2574 40.7397 47.3271 40.4231 47.2133 40.2493 47.1508 40.1476 47.0644 40.0672 46.9002 40.0713 46.8293 40.0602 46.7973 40.114 46.7379 40.2196 46.6217 40.4172 46.5747 40.5653 46.5552 41.1041 46.4843 41.701 46.5389 42.2454 46.5396 43.4317 46.546 44.6178 46.542 45.8038 46.5275Z" fill="#FCFDFD" transform="matrix(1 0 0 1.01087 705 535)"/><path d="M45.7965 33.4334C50.8324 33.4366 55.8736 33.3839 60.9088 33.4351 60.9109 33.6765 60.9191 33.9195 60.9085 34.1606L45.7866 34.16 42.3911 34.1583C41.8146 34.1576 41.1959 34.2018 40.6251 34.136 40.4597 34.117 40.2521 34.0835 40.1213 33.9725 40.0609 33.9213 40.0719 33.8663 40.0701 33.7932 40.0679 33.7064 40.0983 33.6107 40.1645 33.5522 40.2402 33.4851 40.3201 33.4561 40.4186 33.4427 40.9585 33.3694 41.5895 33.4312 42.1371 33.4313L45.7965 33.4334Z" fill="#FCFDFD" transform="matrix(1 0 0 1.01087 705 535)"/><path d="M45.7999 44.1337 55.5108 44.1342C57.2859 44.1353 59.0928 44.0686 60.8646 44.1551L60.865 44.8492 45.785 44.8718C45.208 44.873 40.5278 44.9489 40.263 44.7947 40.1671 44.7389 40.132 44.6637 40.1131 44.5577 40.0921 44.4403 40.1389 44.3055 40.2218 44.2239 40.3065 44.1405 40.4367 44.1367 40.5487 44.1281 41.1036 44.0853 41.6875 44.1293 42.2462 44.1301L45.7999 44.1337Z" fill="#FCFDFD" transform="matrix(1 0 0 1.01087 705 535)"/><path d="M45.7857 35.7758 55.3103 35.7882C57.1802 35.7839 59.0604 35.7372 60.9293 35.7807L60.9249 36.5315 50.7473 36.5167C49.0982 36.5141 47.4292 36.5737 45.7825 36.5158 44.5737 36.5052 43.3647 36.5016 42.1557 36.5051 41.6461 36.5051 41.1148 36.5474 40.609 36.5124 40.5061 36.5053 40.3794 36.4862 40.291 36.429 40.1837 36.3597 40.1642 36.2942 40.1333 36.1751 40.1503 36.053 40.1691 35.9661 40.2658 35.8804 40.4933 35.6788 45.13 35.7747 45.7857 35.7758Z" fill="#FCFDFD" transform="matrix(1 0 0 1.01087 705 535)"/><path d="M73.8368 26.9869C74.1178 27.0912 74.7109 27.7584 75.0276 27.9786 72.7368 30.4296 70.3161 32.7694 67.9576 35.1554 67.7708 35.367 67.5737 35.5669 67.375 35.7672 67.35 35.0446 67.3624 34.3172 67.3587 33.5939 68.0985 32.8877 68.7857 32.1131 69.5103 31.3888 70.962 29.938 72.4529 28.5021 73.8368 26.9869Z" fill="#FFBA42" transform="matrix(1 0 0 1.01087 705 535)"/><path d="M76.2078 28.6319C76.7112 28.8558 77.2267 29.0468 77.7544 29.2048 76.9202 30.1812 75.9695 31.0751 75.073 31.995L70.3537 36.8108C69.3662 37.8051 68.2861 38.8078 67.4037 39.8958 67.3868 39.4059 67.3768 38.9159 67.3736 38.4257L67.37 37.6743C69.0259 35.8367 70.7817 34.1142 72.5286 32.3658 73.5304 31.3631 74.4999 30.3289 75.5142 29.3386L76.2078 28.6319Z" fill="#F5A201" transform="matrix(1 0 0 1.01087 705 535)"/><path d="M75.5142 29.3386 75.5792 29.9214C75.1599 30.6415 74.4663 31.2473 73.9212 31.8784 73.2385 32.6686 72.6197 33.5157 71.9256 34.2967 71.4248 34.8602 70.8388 35.379 70.2838 35.8886 69.5343 36.564 68.7812 37.2354 68.0243 37.9025 67.8792 38.0291 67.4237 38.2964 67.3736 38.4257L67.37 37.6743C69.0259 35.8367 70.7817 34.1142 72.5286 32.3658 73.5304 31.3631 74.4999 30.3289 75.5142 29.3386Z" fill="#FFBA42" transform="matrix(1 0 0 1.01087 705 535)"/><path d="M43.9789 72.6613C43.8297 73.3098 43.6182 73.9474 43.2481 74.5058 42.9085 75.0181 42.3953 75.5077 41.7706 75.6192 41.331 75.6976 40.9421 75.5462 40.59 75.2893 39.6197 74.5813 39.1957 73.3335 39.0163 72.1954 38.7522 70.5218 38.9214 68.6361 39.9549 67.2316 40.2939 66.7709 40.7576 66.3419 41.3464 66.2637 41.8337 66.199 42.3163 66.3815 42.6929 66.6853 43.6051 67.4214 43.9374 68.7277 44.0622 69.8342L45.0315 69.8144C45.8834 69.822 47.8296 69.6079 48.4402 70.2065 48.6745 70.4362 48.791 70.7631 48.7908 71.088 48.7906 71.4908 48.5994 71.8719 48.3114 72.1474 47.6906 72.7416 46.7419 72.6445 45.9489 72.6255 45.6278 72.6153 45.3043 72.6235 44.9829 72.624 44.7282 72.6228 44.1947 72.5566 43.9789 72.6613Z" fill="#FFBA42" transform="matrix(1 0 0 1.01087 705 535)"/><path d="M44.0622 69.8342 45.0315 69.8144C45.8834 69.822 47.8296 69.6079 48.4402 70.2065 48.6745 70.4362 48.791 70.7631 48.7908 71.088 48.7906 71.4908 48.5994 71.8719 48.3114 72.1474 47.6906 72.7416 46.7419 72.6445 45.9489 72.6255 45.6278 72.6153 45.3043 72.6235 44.9829 72.624 44.7282 72.6228 44.1947 72.5566 43.9789 72.6613 43.4053 72.3897 41.2501 72.8434 40.7644 72.5619 40.6125 72.4739 40.5404 72.2505 40.4956 72.0924 40.3669 71.6372 40.2744 70.6662 40.5221 70.2498 40.9619 69.5104 43.1973 70.1201 44.0117 69.8554 44.029 69.8497 44.0454 69.8412 44.0622 69.8342Z" fill="#F5A201" transform="matrix(1 0 0 1.01087 705 535)"/><path d="M38.032 73.0322C38.2906 74.0035 38.6341 74.735 39.1814 75.5772 33.8172 75.614 28.4529 75.6197 23.0886 75.5944 21.7607 75.586 20.4329 75.5848 19.105 75.5906 18.4428 75.5922 17.7006 75.6588 17.0468 75.5654 16.6269 75.5053 16.2659 75.335 15.9571 75.0418 15.6126 74.7148 15.3725 74.2735 15.314 73.8006 15.3227 73.554 15.3158 73.3044 15.3162 73.0575 17.4911 73.0293 19.6695 73.0548 21.8448 73.0519L38.032 73.0322Z" fill="#F5A201" transform="matrix(1 0 0 1.01087 705 535)"/><path d="M15.316 69.2027C22.863 69.1949 30.4323 69.2729 37.9764 69.1824 37.7929 70.1225 37.711 70.9969 37.8146 71.9523 37.737 72.0225 37.7357 72.0165 37.6287 72.0221 36.7779 72.066 35.8933 72.0086 35.0386 72.0068L29.4194 71.9977 19.5183 71.9908C18.1084 71.9907 16.6957 72.0222 15.2862 72.0037L15.2829 69.882C15.2964 69.6557 15.3075 69.4293 15.316 69.2027Z" fill="#F5A201" transform="matrix(1 0 0 1.01087 705 535)"/><path d="M24.8319 65.9745C25.1412 65.9749 25.4734 65.9518 25.7785 65.9974 26.6279 66.0443 28.1148 66.0875 28.9318 65.9983 29.6224 65.9475 30.3234 65.9681 31.0161 65.9683L34.2327 65.9701 37.8278 65.9731C38.4455 65.9737 39.077 65.9475 39.6929 65.9808 39.2054 66.4503 38.8504 66.9309 38.53 67.5267 38.2908 68.0667 38.1183 68.6097 37.9764 69.1824 30.4323 69.2729 22.863 69.1949 15.316 69.2027 15.4201 68.5123 15.7004 67.9317 16.177 67.4215 16.8326 66.8387 17.6613 66.5242 18.3931 66.0561 18.9867 65.9607 19.6474 66.0137 20.2499 66.0145L23.2085 66.0063C23.7479 65.9661 24.2913 65.9764 24.8319 65.9745Z" fill="#FFD35B" transform="matrix(1 0 0 1.01087 705 535)"/><path d="M24.8319 65.9745C25.1412 65.9749 25.4734 65.9518 25.7785 65.9974 26.6279 66.0443 28.1148 66.0875 28.9318 65.9983 29.6224 65.9475 30.3234 65.9681 31.0161 65.9683L34.2327 65.9701 37.8278 65.9731C38.4455 65.9737 39.077 65.9475 39.6929 65.9808 39.2054 66.4503 38.8504 66.9309 38.53 67.5267 37.8425 67.4428 37.1108 67.4858 36.4173 67.4837 35.045 67.4782 33.6727 67.4804 32.3004 67.4903L20.498 67.4599C19.7282 67.4605 16.7195 67.5721 16.177 67.4215 16.8326 66.8387 17.6613 66.5242 18.3931 66.0561 18.9867 65.9607 19.6474 66.0137 20.2499 66.0145L23.2085 66.0063C23.7479 65.9661 24.2913 65.9764 24.8319 65.9745Z" fill="#F5A201" transform="matrix(1 0 0 1.01087 705 535)"/><path d="M63.2651 24.6865C64.0751 24.6876 65.5173 24.4854 66.131 25.0915 66.3526 25.3105 66.3946 25.7255 66.4188 26.0251 66.4816 26.8054 66.4292 27.6221 66.4296 28.4061L66.4488 32.7818 66.4547 48.7952C65.931 49.0535 63.8001 49.7371 63.2634 49.7464L63.239 34.8737C63.2303 31.4778 63.2389 28.0821 63.2651 24.6865Z" fill="#AABCC0" transform="matrix(1 0 0 1.01087 705 535)"/><path d="M49.1608 15.0293C49.7556 14.9489 51.0709 15.2573 51.6848 15.3682 56.8042 16.2936 61.2188 18.3221 65.3507 21.4661 67.568 23.1533 70.0466 25.4243 71.5219 27.8118L69.2068 30.1574C68.6186 30.7462 68.0052 31.3142 67.4579 31.9417 67.3815 31.3248 67.4022 30.6885 67.3993 30.0677 67.3941 29.1164 67.3944 28.1652 67.4004 27.2139 67.4031 26.5702 67.4746 25.8294 67.302 25.206 67.2058 24.8584 66.9982 24.5404 66.7412 24.2899 65.8496 23.4206 64.4331 23.6495 63.2928 23.6679 63.2422 23.0661 63.0883 22.4704 62.6581 22.0207 62.6238 21.9855 62.5882 21.9515 62.5515 21.9189 62.5147 21.8863 62.4769 21.855 62.4378 21.8251 62.3987 21.7951 62.3586 21.7667 62.3175 21.7399 62.2764 21.7129 62.2343 21.6875 62.1913 21.6637 62.1482 21.6397 62.1045 21.6175 62.0598 21.5969 62.0151 21.5762 61.9698 21.5572 61.9238 21.5398 61.8778 21.5225 61.8313 21.5069 61.7841 21.493 61.7369 21.4791 61.6894 21.4668 61.6413 21.4564 61.0242 21.3159 60.3054 21.3907 59.6733 21.3911 58.1661 21.3921 56.6511 21.4454 55.1453 21.416 53.5366 20.1545 52.7442 20.429 50.7927 20.4427 50.9438 19.7809 51.1062 19.1134 51.0571 18.4294 50.9586 17.061 50.1754 15.8978 49.1608 15.0293Z" fill="#66B7C8" transform="matrix(1 0 0 1.01087 705 535)"/><path d="M66.8133 49.8979 66.8712 49.8849C67.6014 50.1606 68.3317 50.4541 69.0762 50.6888 69.4245 50.7948 69.7747 50.8943 70.1269 50.9873 70.479 51.0803 70.8327 51.1666 71.188 51.2463 71.5433 51.3261 71.9 51.399 72.2581 51.4655 72.6161 51.5318 72.9753 51.5914 73.3356 51.6443 73.6959 51.6972 74.057 51.7433 74.419 51.7828 74.7811 51.8222 75.1438 51.8548 75.5069 51.8806 75.8702 51.9064 76.2338 51.9253 76.5978 51.9376 76.9617 51.9497 77.3258 51.9551 77.6899 51.9536L77.6894 62.8766 77.6977 66.0031C77.6988 66.5861 77.7653 67.2657 77.6352 67.8338 77.5477 68.2157 77.38 68.5999 77.2362 68.9649 76.4471 70.9686 75.2616 72.8646 73.737 74.3915 72.299 75.8318 70.5797 77.0174 68.7909 77.9779 68.2119 78.2887 67.3559 78.5676 66.8565 78.9374 66.9113 78.4109 66.8904 77.8486 66.8601 77.3201L66.8073 77.3123C66.8367 77.0907 66.8882 76.4623 66.7652 76.29L66.8276 76.2561C68.6675 75.2504 70.4721 74.1932 71.9744 72.7107 73.3643 71.3392 74.6146 69.7048 75.1434 67.7951 75.435 66.7422 75.3007 63.8384 75.3006 62.5895L75.314 54.4156C73.2068 54.2991 71.1113 53.988 69.1083 53.3041 68.3392 53.0416 67.5961 52.7118 66.8359 52.4251 66.8389 52.0798 66.8528 51.7304 66.8142 51.3869 66.7808 50.8999 66.8125 50.3874 66.8133 49.8979Z" fill="#F5A201" transform="matrix(1 0 0 1.01087 705 535)"/><path d="M66.8142 51.3869C67.6145 51.7211 68.4171 52.0751 69.2384 52.3549 70.7875 52.8827 72.4467 53.1534 74.0729 53.2955 74.8286 53.3616 75.5853 53.3644 76.3403 53.423L76.3259 62.995 76.344 65.6241C76.35 66.3549 76.4278 67.1466 76.2461 67.8587 75.702 69.9918 74.344 71.9395 72.8041 73.4757 71.5575 74.7192 68.5217 76.8189 66.8601 77.3201L66.8073 77.3123C66.8367 77.0907 66.8882 76.4623 66.7652 76.29L66.8276 76.2561C68.6675 75.2504 70.4721 74.1932 71.9744 72.7107 73.3643 71.3392 74.6146 69.7048 75.1434 67.7951 75.435 66.7422 75.3007 63.8384 75.3006 62.5895L75.314 54.4156C73.2068 54.2991 71.1113 53.988 69.1083 53.3041 68.3392 53.0416 67.5961 52.7118 66.8359 52.4251 66.8389 52.0798 66.8528 51.7304 66.8142 51.3869Z" fill="#EBC497" transform="matrix(1 0 0 1.01087 705 535)"/><path d="M66.8133 49.8979C66.8125 50.3874 66.7808 50.8999 66.8142 51.3869 66.8528 51.7304 66.8389 52.0798 66.8359 52.4251 64.234 53.6183 61.218 54.2083 58.3574 54.2381L58.3597 62.2101 58.3644 64.6346C58.3619 65.7413 58.3217 66.7601 58.6248 67.8376 59.1705 69.7778 60.3468 71.4571 61.7552 72.8724 63.076 74.1997 65.0543 75.5066 66.7652 76.29 66.8882 76.4623 66.8367 77.0907 66.8073 77.3123L66.8601 77.3201C66.8904 77.8486 66.9113 78.4109 66.8565 78.9374 66.8318 78.9414 66.8075 78.9497 66.7826 78.9491 66.4827 78.9421 65.9621 78.5919 65.6899 78.448 64.2697 77.6978 62.8979 76.9523 61.6186 75.9733 59.6432 74.4615 58.1687 72.7765 56.9315 70.6227 56.6311 70.0997 56.2921 69.556 56.1278 68.9712 55.8815 68.0943 56.0031 66.2214 56.0029 65.2458L55.9863 55.9433 55.9883 53.2964C55.9886 52.7917 56.0225 52.2487 55.9523 51.7495 55.9505 51.7369 55.9483 51.7242 55.9464 51.7115 58.2565 51.9189 61.7584 51.4589 63.9945 50.8507 64.9511 50.5906 65.8812 50.2335 66.8133 49.8979Z" fill="#FFBA42" transform="matrix(1 0 0 1.01087 705 535)"/><path d="M66.8142 51.3869C66.8528 51.7304 66.8389 52.0798 66.8359 52.4251 64.234 53.6183 61.218 54.2083 58.3574 54.2381L58.3597 62.2101 58.3644 64.6346C58.3619 65.7413 58.3217 66.7601 58.6248 67.8376 59.1705 69.7778 60.3468 71.4571 61.7552 72.8724 63.076 74.1997 65.0543 75.5066 66.7652 76.29 66.8882 76.4623 66.8367 77.0907 66.8073 77.3123 64.7568 76.5795 62.3957 74.8507 60.8671 73.3077 59.2737 71.6992 58.0697 69.7931 57.5304 67.5759 57.329 66.7478 57.3791 65.9213 57.3819 65.0764L57.3858 62.5924 57.388 53.3767C59.815 53.3236 62.3446 53.0979 64.6506 52.2933 65.3869 52.0364 66.0921 51.6819 66.8142 51.3869Z" fill="#FCFDFD" transform="matrix(1 0 0 1.01087 705 535)"/><path d="M78.6414 16.3757C80.0409 16.2965 81.4992 16.6882 82.6112 17.5585 82.6908 17.6204 82.7689 17.6843 82.8454 17.7501 82.9219 17.816 82.9967 17.8836 83.0698 17.953 83.143 18.0225 83.2143 18.0938 83.284 18.1668 83.3536 18.2399 83.4214 18.3146 83.4873 18.3909 83.5532 18.4673 83.6172 18.5452 83.6793 18.6247 83.7414 18.7043 83.8015 18.7852 83.8596 18.8677 83.9177 18.9502 83.9737 19.0341 84.0277 19.1194 84.0816 19.2047 84.1334 19.2911 84.1831 19.3789 84.2328 19.4667 84.2803 19.5558 84.3256 19.6459 84.3708 19.7361 84.4138 19.8273 84.4547 19.9196 84.4955 20.0119 84.5339 20.1051 84.5701 20.1993 84.6064 20.2935 84.6401 20.3885 84.6716 20.4844 84.7031 20.5802 84.7323 20.6767 84.759 20.774 84.7857 20.8713 84.81 20.9692 84.8318 21.0677 84.8538 21.1662 84.8733 21.2652 84.8903 21.3646 84.9072 21.4641 84.9217 21.5638 84.9338 21.664 85.1015 23.1674 84.6855 24.7933 83.7274 25.9761 82.688 27.2592 81.1726 27.9902 79.5473 28.1576 77.9372 28.2225 76.4431 27.7216 75.2129 26.6723 74.0682 25.696 73.3285 24.2099 73.2112 22.7144 73.0865 21.1247 73.5563 19.5332 74.6047 18.3171 75.6172 17.1427 77.1126 16.4874 78.6414 16.3757Z" fill="#FCFDFD" transform="matrix(1 0 0 1.01087 705 535)"/><path d="M78.372 17.5847C79.4336 17.4399 80.6208 17.6687 81.528 18.2422 82.6039 18.9222 83.4185 20.0974 83.6821 21.3409 83.6982 21.4181 83.7123 21.4958 83.7244 21.5737 83.7367 21.6516 83.747 21.7297 83.7554 21.8082 83.7637 21.8866 83.7702 21.9652 83.7747 22.0439 83.7792 22.1227 83.7817 22.2015 83.7823 22.2804 83.783 22.3593 83.7817 22.4381 83.7785 22.5169 83.7751 22.5957 83.7699 22.6744 83.7628 22.7529 83.7557 22.8314 83.7467 22.9098 83.7357 22.9879 83.7247 23.066 83.7119 23.1438 83.697 23.2213 83.6822 23.2988 83.6656 23.3758 83.647 23.4525 83.6284 23.5291 83.608 23.6053 83.5856 23.6809 83.5632 23.7566 83.539 23.8316 83.5131 23.9061 83.487 23.9805 83.4591 24.0543 83.4295 24.1274 83.3998 24.2005 83.3684 24.2728 83.3352 24.3443 83.302 24.4159 83.267 24.4865 83.2303 24.5564 83.1937 24.6262 83.1553 24.6951 83.1152 24.7631 83.0751 24.8309 83.0334 24.8979 82.99 24.9637 82.2533 26.0728 81.1217 26.6859 79.8397 26.9455L79.7849 26.9546C78.5648 27.1462 77.2981 26.7934 76.3111 26.0628 76.2469 26.0149 76.1839 25.9655 76.1222 25.9146 76.0605 25.8636 76 25.8111 75.9408 25.7572 75.8815 25.7033 75.8237 25.6479 75.7672 25.5912 75.7107 25.5344 75.6557 25.4763 75.6021 25.4169 75.5485 25.3574 75.4963 25.2966 75.4457 25.2345 75.3951 25.1725 75.3461 25.1092 75.2985 25.0448 75.251 24.9804 75.2051 24.9149 75.1608 24.8481 75.1164 24.7814 75.0738 24.7136 75.0329 24.6448 74.9919 24.576 74.9526 24.5062 74.9151 24.4355 74.8776 24.3647 74.8418 24.2932 74.8078 24.2207 74.7738 24.1482 74.7416 24.0749 74.7111 24.0009 74.6807 23.9267 74.6522 23.8519 74.6255 23.7764 74.5988 23.701 74.5739 23.6249 74.5509 23.5482 74.5279 23.4715 74.5068 23.3943 74.4876 23.3166 74.4684 23.2388 74.4511 23.1606 74.4358 23.082 74.4204 23.0035 74.407 22.9246 74.3955 22.8453 74.2202 21.6161 74.4776 20.4151 75.2284 19.4175 75.999 18.3937 77.1108 17.7707 78.372 17.5847Z" fill="#013C58" transform="matrix(1 0 0 1.01087 705 535)"/><path d="M79.2946 25.6743C78.8457 25.6674 78.453 25.6393 78.0235 25.4968 77.1451 25.2053 76.4645 24.6021 76.0603 23.7696 75.664 22.9536 75.5913 21.9361 75.899 21.079 76.2072 20.2199 76.9241 19.5288 77.7424 19.1476 78.63 18.734 79.5979 18.7549 80.508 19.0824 81.3867 19.5657 82.0901 20.2217 82.3812 21.2083 82.6328 22.0611 82.5404 23.0377 82.107 23.8158 81.6377 24.6587 80.7916 25.3061 79.8654 25.5686 79.6778 25.6217 79.4885 25.6551 79.2946 25.6743Z" fill="#66B7C8" transform="matrix(1 0 0 1.01087 705 535)"/><path d="M67.4085 41.7854C68.2715 40.67 69.3541 39.6589 70.3426 38.6528L74.6755 34.2059 74.6899 34.2648C74.8185 34.7784 75.0382 35.2757 75.2167 35.7746 75.5479 36.6998 75.8788 37.6381 76.161 38.5794 77.1797 41.978 77.6562 47.4592 76.9212 50.9152 73.9849 50.8178 70.0741 50.1233 67.4377 48.7929 67.4014 46.4572 67.3917 44.1213 67.4085 41.7854Z" fill="#66B7C8" transform="matrix(1 0 0 1.01087 705 535)"/><path d="M45.9271 14.1095C47.1258 14.1394 48.1632 14.3317 49.1608 15.0293 50.1754 15.8978 50.9586 17.061 51.0571 18.4294 51.1062 19.1134 50.9438 19.7809 50.7927 20.4427 52.7442 20.429 53.5366 20.1545 55.1453 21.416 56.1186 22.4693 56.1916 23.502 56.1823 24.8715 56.1721 25.5697 56.169 26.268 56.1728 26.9662L49.4646 26.9728C48.3188 26.9739 47.1625 27.0054 46.0177 26.9708L45.7926 26.9718 35.9998 26.9599C35.9989 26.1823 35.9928 25.404 36.0028 24.6265 36.0199 23.2737 36.2626 22.3067 37.2504 21.3424 38.6516 20.2963 39.8717 20.4473 41.5268 20.443 41.4968 20.1962 41.3962 19.9466 41.3295 19.7068 41.2096 19.2766 41.1737 18.7908 41.2075 18.3452 41.3078 17.0198 42.0323 16.0084 43.0092 15.1675 43.2258 15.0624 43.4349 14.8835 43.6478 14.7609 44.4122 14.3207 45.0576 14.1774 45.9271 14.1095Z" fill="#F5A201" transform="matrix(1 0 0 1.01087 705 535)"/><path d="M42.7519 20.4061C42.489 19.4272 42.6626 18.3069 43.1699 17.4317 43.6335 16.6318 44.3956 16.0135 45.2948 15.7787 46.1574 15.5534 47.098 15.719 47.8596 16.1722 48.6764 16.6583 49.318 17.4773 49.5471 18.4044 49.7108 19.067 49.668 19.7494 49.5618 20.4176L46.0026 20.3973 42.7519 20.4061Z" fill="#66B7C8" transform="matrix(1 0 0 1.01087 705 535)"/><path d="M79.4331 29.3451 80.1519 29.2305C80.9172 31.2094 81.7614 33.169 82.3656 35.2052 85.0474 44.2427 84.601 53.3072 80.7661 61.9464 80.2294 63.1554 79.5232 64.5794 78.765 65.656 78.692 60.7646 78.724 55.8594 78.7422 50.967 78.1348 50.9641 77.5278 50.9467 76.9212 50.9152 77.6562 47.4592 77.1797 41.978 76.161 38.5794 75.8788 37.6381 75.5479 36.6998 75.2167 35.7746 75.0382 35.2757 74.8185 34.7784 74.6899 34.2648L74.6755 34.2059 77.5259 31.3329C78.1682 30.6843 78.8402 30.0393 79.4331 29.3451Z" fill="#A8E8F9" transform="matrix(1 0 0 1.01087 705 535)"/><path d="M44.9829 72.624C45.3043 72.6235 45.6278 72.6153 45.9489 72.6255 45.9818 72.9704 46.0257 73.3121 46.0751 73.655 47.611 73.5974 49.1462 73.4557 50.6843 73.4005 52.8863 73.3396 55.0886 73.3299 57.2911 73.3715 57.6048 73.7425 57.9138 74.1178 58.2514 74.4674 58.5535 74.7933 58.8654 75.1096 59.1869 75.4164 59.5083 75.7232 59.839 76.0198 60.1786 76.3064 60.5182 76.593 60.8664 76.8689 61.2229 77.1342 61.5794 77.3994 61.9438 77.6535 62.3159 77.8964 63.0598 78.3799 63.8385 78.808 64.5946 79.2718 63.2035 80.1458 60.9475 81.0389 59.3779 81.5896 52.2541 84.089 44.9082 84.6393 37.5287 82.9551 37.0099 82.8351 36.4937 82.7043 35.9803 82.5628 35.4669 82.4212 34.9567 82.2691 34.4496 82.1063 33.9426 81.9436 33.4391 81.7704 32.9392 81.5866 32.4394 81.4028 31.9436 81.2088 31.4518 81.0044 30.9601 80.8 30.4728 80.5855 29.9899 80.3608 29.5071 80.1361 29.0292 79.9015 28.5561 79.6569 28.083 79.4124 27.6152 79.1581 27.1527 78.8939 26.6904 78.6299 26.2335 78.3563 25.7825 78.0732 25.1891 77.7026 24.339 77.2561 23.9011 76.7131L35.6652 76.7101C37.6492 76.7086 39.6379 76.6638 41.6214 76.7021 42.0494 76.6445 42.4512 76.5363 42.8338 76.3315 43.8643 75.7798 44.4699 74.7304 44.7948 73.6434 44.878 73.3038 44.938 72.9708 44.9829 72.624Z" fill="#A8E8F9" transform="matrix(1 0 0 1.01087 705 535)"/><path d="M44.9829 72.624C45.3043 72.6235 45.6278 72.6153 45.9489 72.6255 45.9818 72.9704 46.0257 73.3121 46.0751 73.655 47.611 73.5974 49.1462 73.4557 50.6843 73.4005 52.8863 73.3396 55.0886 73.3299 57.2911 73.3715 57.6048 73.7425 57.9138 74.1178 58.2514 74.4674 57.3201 74.9897 56.3335 75.2803 55.3172 75.5874 51.9687 76.5991 48.9447 77.0029 45.445 76.9477 44.1641 76.9275 42.8804 76.7296 41.6214 76.7021 42.0494 76.6445 42.4512 76.5363 42.8338 76.3315 43.8643 75.7798 44.4699 74.7304 44.7948 73.6434 44.878 73.3038 44.938 72.9708 44.9829 72.624Z" fill="#66B7C8" transform="matrix(1 0 0 1.01087 705 535)"/><path d="M44.9829 72.624C45.3043 72.6235 45.6278 72.6153 45.9489 72.6255 45.9818 72.9704 46.0257 73.3121 46.0751 73.655 45.6483 73.6557 45.2214 73.6479 44.7948 73.6434 44.878 73.3038 44.938 72.9708 44.9829 72.624Z" fill="#10A1BC" transform="matrix(1 0 0 1.01087 705 535)"/><path d="M66.8359 52.4251C67.5961 52.7118 68.3392 53.0416 69.1083 53.3041 71.1113 53.988 73.2068 54.2991 75.314 54.4156L75.3006 62.5895C75.3007 63.8384 75.435 66.7422 75.1434 67.7951 74.6146 69.7048 73.3643 71.3392 71.9744 72.7107 70.4721 74.1932 68.6675 75.2504 66.8276 76.2561L66.7652 76.29C65.0543 75.5066 63.076 74.1997 61.7552 72.8724 60.3468 71.4571 59.1705 69.7778 58.6248 67.8376 58.3217 66.7601 58.3619 65.7413 58.3644 64.6346L58.3597 62.2101 58.3574 54.2381C61.218 54.2083 64.234 53.6183 66.8359 52.4251Z" fill="#FFBA42" transform="matrix(1 0 0 1.01087 705 535)"/><path d="M66.8323 62.5145 71.0729 58.3535C71.6188 58.8738 72.1544 59.4044 72.6797 59.9454 71.4519 61.2828 70.1119 62.5172 68.8121 63.7834 68.1398 64.4383 67.512 65.1447 66.8263 65.7848 66.0302 66.5304 65.3137 67.3614 64.5107 68.1035 63.168 66.6114 61.7453 65.2119 60.3464 63.7741 60.7649 63.3175 61.2001 62.8653 61.6477 62.437 62.5917 63.1816 63.5216 64.1215 64.297 65.0422 65.1097 64.1596 65.9814 63.358 66.8323 62.5145Z" fill="#FCFDFD" transform="matrix(1 0 0 1.01087 705 535)"/><path d="M66.8359 52.4251C67.5961 52.7118 68.3392 53.0416 69.1083 53.3041 71.1113 53.988 73.2068 54.2991 75.314 54.4156L75.3006 62.5895C75.3007 63.8384 75.435 66.7422 75.1434 67.7951 74.6146 69.7048 73.3643 71.3392 71.9744 72.7107 70.4721 74.1932 68.6675 75.2504 66.8276 76.2561 66.8388 72.7661 66.787 69.2744 66.8263 65.7848 67.512 65.1447 68.1398 64.4383 68.8121 63.7834 70.1119 62.5172 71.4519 61.2828 72.6797 59.9454 72.1544 59.4044 71.6188 58.8738 71.0729 58.3535L66.8323 62.5145C66.7726 62.1632 66.815 61.7392 66.8165 61.3805L66.824 59.2111C66.8283 56.9561 66.7515 54.6768 66.8359 52.4251Z" fill="#F5A201" transform="matrix(1 0 0 1.01087 705 535)"/><path d="M28.9797 23.3678C28.98 23.3041 28.9833 23.2405 28.9895 23.177 28.9957 23.1135 29.0047 23.0505 29.0167 22.9878 29.0287 22.9252 29.0436 22.8633 29.0613 22.8021 29.079 22.7408 29.0994 22.6805 29.1226 22.6211 29.1459 22.5617 29.1718 22.5035 29.2005 22.4465 29.2291 22.3895 29.2602 22.334 29.2939 22.2799 29.3276 22.2257 29.3638 22.1733 29.4023 22.1225 29.4409 22.0718 29.4817 22.0228 29.5247 21.9758 29.7813 21.6977 30.0889 21.5326 30.4568 21.4543 31.215 21.2926 32.1385 21.3886 32.9157 21.3897 34.3609 21.4055 35.8059 21.3897 37.2504 21.3424 36.2626 22.3067 36.0199 23.2737 36.0028 24.6265 35.9928 25.404 35.9989 26.1823 35.9998 26.9599L45.7926 26.9718C45.7927 29.1232 45.752 31.2831 45.7965 33.4334L42.1371 33.4313C41.5895 33.4312 40.9585 33.3694 40.4186 33.4427 40.3201 33.4561 40.2402 33.4851 40.1645 33.5522 40.0983 33.6107 40.0679 33.7064 40.0701 33.7932 40.0719 33.8663 40.0609 33.9213 40.1213 33.9725 40.2521 34.0835 40.4597 34.117 40.6251 34.136 41.1959 34.2018 41.8146 34.1576 42.3911 34.1583L45.7866 34.16C45.776 34.6986 45.7758 35.2372 45.7857 35.7758 45.13 35.7747 40.4933 35.6788 40.2658 35.8804 40.1691 35.9661 40.1503 36.053 40.1333 36.1751 40.1642 36.2942 40.1837 36.3597 40.291 36.429 40.3794 36.4862 40.5061 36.5053 40.609 36.5124 41.1148 36.5474 41.6461 36.5051 42.1557 36.5051 43.3647 36.5016 44.5737 36.5052 45.7825 36.5158 45.7785 37.0279 45.7794 37.54 45.7852 38.0521 46.2312 38.0512 46.7003 38.0199 47.1428 38.0707 47.8766 38.0899 48.6119 38.0757 49.346 38.0731 49.6378 38.072 50.024 38.0256 50.3083 38.0862 50.4032 38.1064 50.4594 38.1413 50.5226 38.2121 50.6045 38.3038 50.6659 38.4147 50.6581 38.5407 50.6534 38.6174 50.6213 38.6556 50.5658 38.7077 50.4571 38.8096 50.2472 38.8412 50.1067 38.8555 49.6295 38.904 49.1317 38.8564 48.652 38.8557 47.6962 38.8636 46.7405 38.8657 45.7848 38.8623L45.7999 44.1337 42.2462 44.1301C41.6875 44.1293 41.1036 44.0853 40.5487 44.1281 40.4367 44.1367 40.3065 44.1405 40.2218 44.2239 40.1389 44.3055 40.0921 44.4403 40.1131 44.5577 40.132 44.6637 40.1671 44.7389 40.263 44.7947 40.5278 44.9489 45.208 44.873 45.785 44.8718 45.7894 45.4202 45.7698 45.9809 45.8038 46.5275 44.6178 46.542 43.4317 46.546 42.2454 46.5396 41.701 46.5389 41.1041 46.4843 40.5653 46.5552 40.4172 46.5747 40.2196 46.6217 40.114 46.7379 40.0602 46.7973 40.0713 46.8293 40.0672 46.9002 40.1476 47.0644 40.2493 47.1508 40.4231 47.2133 40.7397 47.3271 45.0779 47.2574 45.7826 47.2588L45.7768 48.8092 48.8474 48.8086C49.3293 48.8087 49.8604 48.7653 50.3371 48.82 50.422 48.8297 50.5191 48.8567 50.584 48.9148 50.6948 49.014 50.7039 49.1678 50.6922 49.3034 50.6175 49.4401 50.5378 49.4965 50.3898 49.5338 49.905 49.6563 49.2547 49.5479 48.7495 49.5457L45.7877 49.554 45.7939 55.5969 42.3282 55.5943C41.7591 55.589 41.0953 55.5141 40.5377 55.5988 40.3708 55.6242 40.261 55.6699 40.1413 55.7878 40.1081 55.8943 40.0918 55.949 40.1503 56.0569 40.2401 56.2229 40.4933 56.2862 40.6649 56.3051 41.2374 56.3685 41.8646 56.3017 42.4421 56.298L45.7886 56.2955 45.7945 57.9831C45.1312 57.9822 40.4538 57.8905 40.2399 58.0949 40.1679 58.1637 40.1577 58.2172 40.133 58.3097 40.1486 58.4175 40.171 58.4964 40.2546 58.5733 40.3354 58.6478 40.4523 58.6833 40.5602 58.6939 41.0402 58.7413 41.5887 58.6824 42.0766 58.6835L45.7758 58.6844C45.774 59.1935 45.7773 59.7026 45.7858 60.2118 46.7164 60.2057 48.1684 60.111 49.0468 60.224 49.4344 60.2381 50.1713 60.1217 50.4876 60.3314 50.5516 60.4257 50.6059 60.5167 50.591 60.6369 50.575 60.7657 50.5232 60.8051 50.4328 60.8835 49.8595 61.0505 46.9281 60.9325 46.1283 60.9411L45.8194 60.9954C45.7507 61.3725 45.7937 61.8137 45.7954 62.1988L45.8063 64.4585C45.8077 64.743 45.843 65.0772 45.7921 65.3548 45.8279 66.7796 45.776 68.2054 45.8053 69.6301L45.8688 69.6305C46.2065 69.6345 46.5343 69.7088 46.8698 69.7127 47.4637 69.7197 48.0667 69.6127 48.6659 69.6064 50.8019 69.5997 52.9379 69.6101 55.0737 69.6379 55.579 70.5153 56.0188 71.4326 56.5389 72.3004 56.7589 72.6674 57.1122 72.9891 57.2911 73.3715 55.0886 73.3299 52.8863 73.3396 50.6843 73.4005 49.1462 73.4557 47.611 73.5974 46.0751 73.655 46.0257 73.3121 45.9818 72.9704 45.9489 72.6255 46.7419 72.6445 47.6906 72.7416 48.3114 72.1474 48.5994 71.8719 48.7906 71.4908 48.7908 71.088 48.791 70.7631 48.6745 70.4362 48.4402 70.2065 47.8296 69.6079 45.8834 69.822 45.0315 69.8144 44.8568 68.8795 44.6311 68.0629 44.1503 67.2369 43.7373 66.7506 43.2391 66.3487 42.6379 66.1194 42.1201 65.9219 40.1674 65.7648 39.6929 65.9808 39.077 65.9475 38.4455 65.9737 37.8278 65.9731L34.2327 65.9701 31.0161 65.9683C30.3234 65.9681 29.6224 65.9475 28.9318 65.9983 28.9988 60.0316 28.9255 54.0574 28.911 48.0904L28.9139 43.539C28.9166 42.7847 29.0071 41.888 28.8705 41.1482 29.2097 40.1478 29.5322 39.1223 29.7208 38.0816 30.081 36.0937 30.0589 34.0608 30.2322 32.0534 29.8426 32.0538 29.4531 32.05 29.0636 32.0419 27.9239 31.9267 26.851 31.6981 25.7738 31.3053 25.4431 31.2164 24.9159 30.9489 24.6229 30.7628 24.6632 29.3057 24.5552 27.8312 24.5757 26.3697 24.5879 25.5031 24.7215 24.7325 25.3803 24.1014 26.3723 23.1513 27.7212 23.3458 28.9797 23.3678Z" fill="#00537A" transform="matrix(1 0 0 1.01087 705 535)"/><path d="M39.4383 53.9896C39.5699 53.933 39.6375 53.8749 39.779 53.9101 39.8434 53.9953 39.8964 54.044 39.8883 54.1591 39.8513 54.6874 38.122 56.0189 37.6161 56.3561 37.5741 56.3842 37.5338 56.4093 37.4892 56.4329 37.735 55.9725 38.1433 55.5243 38.4441 55.0904 38.7732 54.7213 39.1045 54.3544 39.4383 53.9896Z" fill="#013C58" transform="matrix(1 0 0 1.01087 705 535)"/><path d="M38.9631 42.812C39.0827 42.8404 39.0823 42.8457 39.19 42.7777 39.31 42.702 39.4025 42.575 39.5449 42.5664 39.623 42.6535 39.6496 42.6766 39.6508 42.8013 39.6559 43.314 37.9688 44.9022 37.5688 45.2678L37.4786 45.2877C37.4331 45.2026 37.4146 45.1269 37.3946 45.0328L37.357 44.9679C37.2902 44.8649 37.2856 44.7685 37.2728 44.65 37.9039 44.1144 38.3796 43.3978 38.9631 42.812Z" fill="#013C58" transform="matrix(1 0 0 1.01087 705 535)"/><path d="M39.5275 30.6789 39.5762 30.8165C39.7483 30.8863 39.9125 30.8871 40.0429 31.0321 40.087 31.1555 40.0945 31.2252 40.0864 31.3524 39.8578 31.7961 37.9231 33.6457 37.4815 34.0206L37.4149 34.0156 37.3839 33.825 37.3827 33.3319C37.9026 32.776 39.2086 31.5627 39.4398 30.9148 39.4839 30.8457 39.5026 30.757 39.5275 30.6789Z" fill="#013C58" transform="matrix(1 0 0 1.01087 705 535)"/><path d="M49.0468 60.224C49.4344 60.2381 50.1713 60.1217 50.4876 60.3314 50.5516 60.4257 50.6059 60.5167 50.591 60.6369 50.575 60.7657 50.5232 60.8051 50.4328 60.8835 49.8595 61.0505 46.9281 60.9325 46.1283 60.9411 45.3017 60.942 40.7028 61.0442 40.3146 60.8665 40.2024 60.8151 40.1726 60.7745 40.1281 60.6628 40.1524 60.5723 40.1796 60.5103 40.2433 60.4418 40.3322 60.346 40.4201 60.3006 40.5483 60.2814 41.1869 60.1864 42.2142 60.2635 42.8976 60.2616 44.9414 60.2557 47.006 60.3097 49.0468 60.224Z" fill="#FCFDFD" transform="matrix(1 0 0 1.01087 705 535)"/><path d="M45.7768 48.8092 48.8474 48.8086C49.3293 48.8087 49.8604 48.7653 50.3371 48.82 50.422 48.8297 50.5191 48.8567 50.584 48.9148 50.6948 49.014 50.7039 49.1678 50.6922 49.3034 50.6175 49.4401 50.5378 49.4965 50.3898 49.5338 49.905 49.6563 49.2547 49.5479 48.7495 49.5457L45.7877 49.554C45.127 49.5624 40.6121 49.6283 40.3258 49.5104 40.2192 49.4665 40.1104 49.3697 40.0794 49.2521 40.0545 49.1574 40.0645 49.0813 40.1378 49.0102 40.2688 48.8829 40.5209 48.8468 40.693 48.8286 41.2648 48.7681 41.8685 48.8147 42.4446 48.8148L45.7768 48.8092Z" fill="#FCFDFD" transform="matrix(1 0 0 1.01087 705 535)"/><path d="M47.1428 38.0707C47.8766 38.0899 48.6119 38.0757 49.346 38.0731 49.6378 38.072 50.024 38.0256 50.3083 38.0862 50.4032 38.1064 50.4594 38.1413 50.5226 38.2121 50.6045 38.3038 50.6659 38.4147 50.6581 38.5407 50.6534 38.6174 50.6213 38.6556 50.5658 38.7077 50.4571 38.8096 50.2472 38.8412 50.1067 38.8555 49.6295 38.904 49.1317 38.8564 48.652 38.8557 47.6962 38.8636 46.7405 38.8657 45.7848 38.8623 45.0469 38.8555 40.6154 38.9548 40.2972 38.7771 40.2161 38.7318 40.1677 38.6246 40.1593 38.5362 40.1485 38.4228 40.186 38.3032 40.271 38.2247 40.3713 38.132 40.5201 38.1192 40.6494 38.1067 41.246 38.0486 41.885 38.0885 42.4861 38.0888 44.0322 38.0895 45.5993 38.1459 47.1428 38.0707Z" fill="#FCFDFD" transform="matrix(1 0 0 1.01087 705 535)"/><path d="M28.3746 24.657 29.0109 24.6612 29.0636 32.0419C27.9239 31.9267 26.851 31.6981 25.7738 31.3053 25.7717 31.2647 25.7704 31.2242 25.77 31.1837 25.7602 30.0534 25.7783 28.9205 25.7805 27.7899 25.7818 27.1319 25.7142 26.3814 25.8297 25.7367 25.8783 25.4658 26.0253 25.2063 26.223 25.0161 26.7557 24.5036 27.6886 24.6601 28.3746 24.657Z" fill="#FCFDFD" transform="matrix(1 0 0 1.01087 705 535)"/><path d="M36.7586 43.735C37.2379 43.2238 38.3685 41.8795 39.0455 41.8438L39.1443 41.9414 39.1329 41.8617C39.2143 41.915 39.2663 41.9392 39.2862 42.0448 39.3408 42.3326 39.1163 42.5949 38.9631 42.812 38.3796 43.3978 37.9039 44.1144 37.2728 44.65 37.2856 44.7685 37.2902 44.8649 37.357 44.9679L37.3946 45.0328C37.4014 45.7384 37.601 48.0794 37.2533 48.5551 37.084 48.7867 36.8338 48.9495 36.5486 48.9934 35.9589 49.0839 33.1503 49.0818 32.5265 49.0105 32.3103 48.9859 31.9321 48.9187 31.7677 48.7621 31.4533 48.463 31.4491 47.8691 31.4475 47.4637 31.4449 46.7626 31.3712 45.0331 31.5163 44.4395 31.5586 44.2659 31.6636 44.1121 31.7918 43.9903 31.9259 43.8628 32.0826 43.7833 32.2636 43.7484 32.7737 43.65 33.3713 43.7083 33.8916 43.7128L36.7586 43.735Z" fill="#FCFDFD" transform="matrix(1 0 0 1.01087 705 535)"/><path d="M36.7586 43.735C37.2379 43.2238 38.3685 41.8795 39.0455 41.8438L39.1443 41.9414 39.1329 41.8617C39.2143 41.915 39.2663 41.9392 39.2862 42.0448 39.3408 42.3326 39.1163 42.5949 38.9631 42.812 38.3796 43.3978 37.9039 44.1144 37.2728 44.65 37.2856 44.7685 37.2902 44.8649 37.357 44.9679L36.0512 46.3199C35.7171 46.6646 34.5104 47.9968 34.1839 48.0999L34.0874 48.0617C33.8715 47.7018 32.6612 46.5864 32.2607 46.1303 32.4633 45.8596 32.6758 45.6014 32.896 45.345 33.2958 45.7499 33.6867 46.1634 34.0685 46.5855 34.9907 45.713 36.0182 44.7673 36.7586 43.735Z" fill="#FFBA42" transform="matrix(1 0 0 1.01087 705 535)"/><path d="M35.8833 46.0536C36.3546 45.5954 36.7727 45.0786 37.2728 44.65 37.2856 44.7685 37.2902 44.8649 37.357 44.9679L36.0512 46.3199C36.034 46.2463 36.0207 46.1716 36.0059 46.0974L35.8833 46.0536Z" fill="#9B521A" transform="matrix(1 0 0 1.01087 705 535)"/><path d="M34.0874 48.0617C34.553 47.3464 35.2776 46.6563 35.8833 46.0536L36.0059 46.0974C36.0207 46.1716 36.034 46.2463 36.0512 46.3199 35.7171 46.6646 34.5104 47.9968 34.1839 48.0999L34.0874 48.0617Z" fill="#F5A201" transform="matrix(1 0 0 1.01087 705 535)"/><path d="M37.0215 55.1832C37.4415 54.7371 38.3934 53.6315 38.8891 53.3922 39.0422 53.3183 39.2811 53.2525 39.4423 53.3382 39.538 53.389 39.5851 53.4762 39.5966 53.5818 39.6131 53.7337 39.5152 53.8685 39.4383 53.9896 39.1045 54.3544 38.7732 54.7213 38.4441 55.0904 38.1433 55.5243 37.735 55.9725 37.4892 56.4329 37.459 56.4719 37.4115 56.5244 37.3874 56.5666 37.3887 56.6172 37.3891 56.6677 37.3888 56.7183 37.3874 57.4711 37.4725 59.2913 37.302 59.8935 37.2555 60.0579 37.1521 60.2045 37.0287 60.3208 36.9163 60.4269 36.7893 60.506 36.6367 60.5383 36.1298 60.6453 35.5274 60.5963 35.0104 60.6002 34.2426 60.606 33.4705 60.6256 32.703 60.6086 32.3383 60.6006 31.9638 60.5593 31.7062 60.267 31.5584 60.0995 31.5063 59.8476 31.4801 59.6323 31.4268 59.1953 31.4642 58.7293 31.4677 58.2884 31.4705 57.4781 31.4817 56.6677 31.5014 55.8575 31.5758 55.7416 31.6513 55.6159 31.7459 55.515 31.886 55.3654 32.0847 55.2592 32.2853 55.2194 32.8183 55.1136 33.4547 55.1782 33.9978 55.1803L37.0215 55.1832Z" fill="#FCFDFD" transform="matrix(1 0 0 1.01087 705 535)"/><path d="M37.0215 55.1832C37.4415 54.7371 38.3934 53.6315 38.8891 53.3922 39.0422 53.3183 39.2811 53.2525 39.4423 53.3382 39.538 53.389 39.5851 53.4762 39.5966 53.5818 39.6131 53.7337 39.5152 53.8685 39.4383 53.9896 39.1045 54.3544 38.7732 54.7213 38.4441 55.0904 38.1433 55.5243 37.735 55.9725 37.4892 56.4329 37.459 56.4719 37.4115 56.5244 37.3874 56.5666L37.1277 56.8323C36.3943 57.5527 35.665 58.2772 34.9397 59.0057 34.7274 59.2252 34.5284 59.4813 34.2571 59.6263 34.1586 59.6183 34.1212 59.5766 34.0491 59.5129 33.4923 58.9177 32.931 58.3266 32.3651 57.7398 32.6743 57.5094 32.9069 57.2657 33.1386 56.9592 33.472 57.379 33.8224 57.7842 34.1899 58.1745 35.0974 57.1462 36.0702 56.1711 37.0215 55.1832Z" fill="#FFBA42" transform="matrix(1 0 0 1.01087 705 535)"/><path d="M38.4441 55.0904C38.1433 55.5243 37.735 55.9725 37.4892 56.4329 37.459 56.4719 37.4115 56.5244 37.3874 56.5666L37.1277 56.8323C37.0632 56.7498 36.9851 56.6737 36.9143 56.5961 37.3996 56.1231 37.8628 55.43 38.4441 55.0904Z" fill="#9B521A" transform="matrix(1 0 0 1.01087 705 535)"/><path d="M36.9143 56.5961C36.9851 56.6737 37.0632 56.7498 37.1277 56.8323 36.3943 57.5527 35.665 58.2772 34.9397 59.0057 34.7274 59.2252 34.5284 59.4813 34.2571 59.6263 34.1586 59.6183 34.1212 59.5766 34.0491 59.5129 34.3879 59.1672 34.7244 58.8192 35.0587 58.4692 35.6647 57.8353 36.2656 57.187 36.9143 56.5961Z" fill="#C86C13" transform="matrix(1 0 0 1.01087 705 535)"/><path d="M36.6093 32.506C36.8418 32.1345 38.459 30.5416 38.8267 30.3139 38.9342 30.2474 39.036 30.2255 39.1588 30.2711 39.3394 30.3382 39.4369 30.5221 39.5275 30.6789 39.5026 30.757 39.4839 30.8457 39.4398 30.9148 39.2086 31.5627 37.9026 32.776 37.3827 33.3319L37.3839 33.825 37.4149 34.0156C37.3374 35.0647 37.4731 36.1431 37.4385 37.1959 37.4274 37.5337 37.3573 37.9224 37.0898 38.1562 36.9269 38.2984 36.7225 38.3663 36.5117 38.3981 36.0695 38.4648 35.5653 38.4052 35.1141 38.4085 34.2803 38.4147 33.3986 38.4822 32.5691 38.4148 32.2183 38.3863 31.9434 38.2751 31.7184 37.9944 31.635 37.8904 31.5707 37.768 31.545 37.6365 31.44 37.0994 31.4483 33.8517 31.5131 33.233 31.542 32.957 31.6952 32.7076 31.9194 32.5448 32.2339 32.3163 36.0016 32.411 36.6093 32.506Z" fill="#FCFDFD" transform="matrix(1 0 0 1.01087 705 535)"/><path d="M36.6093 32.506C36.8418 32.1345 38.459 30.5416 38.8267 30.3139 38.9342 30.2474 39.036 30.2255 39.1588 30.2711 39.3394 30.3382 39.4369 30.5221 39.5275 30.6789 39.5026 30.757 39.4839 30.8457 39.4398 30.9148 39.2086 31.5627 37.9026 32.776 37.3827 33.3319L37.3839 33.825C36.8837 34.2398 34.3526 36.8406 34.2568 36.8825L34.1391 36.8451C33.7048 36.3027 32.6771 35.3131 32.1021 34.8807 32.3655 34.6231 32.6361 34.3765 32.9122 34.1327 33.2628 34.509 33.6278 34.8685 33.9955 35.228 34.4949 34.7448 34.9604 34.2305 35.4466 33.7346 35.8155 33.3586 36.3362 32.9481 36.6093 32.506Z" fill="#FFBA42" transform="matrix(1 0 0 1.01087 705 535)"/><path d="M34.1391 36.8451C34.1449 36.8267 34.1497 36.8079 34.1566 36.7899 34.3759 36.223 36.4425 34.2308 37.0101 33.6049 37.4359 33.1354 39.0048 31.1081 39.4398 30.9148 39.2086 31.5627 37.9026 32.776 37.3827 33.3319L37.3839 33.825C36.8837 34.2398 34.3526 36.8406 34.2568 36.8825L34.1391 36.8451Z" fill="#F5A201" transform="matrix(1 0 0 1.01087 705 535)"/><path d="M14.674 67.6007C13.8236 66.5966 13.1358 65.4271 12.4892 64.2859 12.1159 63.6371 11.7657 62.976 11.4388 62.3027 11.1118 61.6293 10.8089 60.9454 10.5299 60.2508 10.236 59.5009 10.0071 58.7283 9.77148 57.9587 9.5965 57.3849 9.43473 56.8074 9.28599 56.2263 9.13734 55.6451 9.002 55.061 8.87993 54.4736 8.75787 53.8863 8.64923 53.2965 8.55402 52.7043 8.45882 52.112 8.37714 51.5179 8.30899 50.9219 8.24083 50.326 8.18627 49.7288 8.14531 49.1303 8.10436 48.5319 8.07704 47.9328 8.06336 47.3331 8.04968 46.7334 8.04965 46.1336 8.06328 45.5339 8.07691 44.9342 8.10418 44.3351 8.14509 43.7367 8.28008 41.4695 8.66323 39.2611 9.22146 37.0615 9.28123 36.825 9.34315 36.5892 9.40741 36.354 9.47166 36.1188 9.53808 35.8841 9.60665 35.6502 9.67531 35.4163 9.74613 35.183 9.8192 34.9503 9.89226 34.7177 9.96749 34.4858 10.0449 34.2546 10.1222 34.0233 10.2019 33.7928 10.2837 33.5632 10.3654 33.3335 10.4494 33.1046 10.5355 32.8764 10.6216 32.6482 10.7098 32.4209 10.8001 32.1945 10.8906 31.9681 10.9831 31.7425 11.0778 31.5177 11.1724 31.293 11.2691 31.0693 11.368 30.8464 11.4669 30.6235 11.5678 30.4015 11.6709 30.1805 11.774 29.9595 11.8791 29.7396 11.9864 29.5206 12.0936 29.3016 12.2028 29.0836 12.3141 28.8667 12.4255 28.6498 12.5389 28.434 12.6543 28.2192 12.7697 28.0044 12.8871 27.7907 13.0066 27.5781 13.126 27.3656 13.2474 27.1541 13.3708 26.9438 13.4943 26.7336 13.6198 26.5245 13.7471 26.3166 13.8745 26.1087 14.0038 25.902 14.1351 25.6965 14.2664 25.491 14.3996 25.2868 14.5348 25.0838 14.6699 24.8809 14.807 24.6792 14.9459 24.4789 15.0849 24.2786 15.2257 24.0795 15.3684 23.8818 15.5111 23.6841 15.6557 23.4877 15.8021 23.2928 15.9485 23.0978 16.0967 22.9042 16.2468 22.712 16.3969 22.5199 16.5488 22.3292 16.7025 22.1398 16.8561 21.9504 17.0116 21.7626 17.1688 21.5763 17.326 21.3899 17.485 21.205 17.6457 21.0217 17.8065 20.8383 17.9689 20.6565 18.133 20.4762 18.2972 20.2958 18.463 20.1171 18.6305 19.9399 18.798 19.7628 18.9672 19.5872 19.1381 19.4132 19.3089 19.2393 19.4814 19.0669 19.6555 18.8961 19.8296 18.7255 20.0052 18.5564 20.1825 18.389 20.3598 18.2216 20.5386 18.0558 20.719 17.8918 20.8995 17.7278 21.0815 17.5655 21.2649 17.4049 21.4932 17.1989 21.724 16.9957 21.9572 16.7954 22.1905 16.5951 22.4262 16.3977 22.6644 16.2032 22.9025 16.0088 23.143 15.8172 23.386 15.6287 23.6289 15.4401 23.874 15.2546 24.1215 15.0721 24.3689 14.8896 24.6186 14.7102 24.8705 14.5339 25.1225 14.3575 25.3764 14.1844 25.6326 14.0143 25.8888 13.8442 26.147 13.6774 26.4074 13.5137 26.6676 13.3501 26.9299 13.1896 27.1942 13.0324 27.4584 12.8752 27.7245 12.7212 27.9926 12.5706 28.2607 12.42 28.5306 12.2727 28.8023 12.1287 29.0739 11.9847 29.3473 11.8442 29.6225 11.707 29.8977 11.5697 30.1745 11.4359 30.4529 11.3055 30.7314 11.1751 31.0115 11.0482 31.293 10.9248 31.5746 10.8013 31.8577 10.6813 32.1423 10.5649 32.4269 10.4484 32.7128 10.3354 33.0002 10.226 33.2876 10.1167 33.5762 10.0108 33.8662 9.90844 34.1562 9.80617 34.4474 9.70749 34.7397 9.6124 35.0322 9.51732 35.3257 9.42583 35.6204 9.33803 35.9151 9.25013 36.2107 9.16592 36.5075 9.0854 36.8042 9.00487 37.1019 8.92798 37.4005 8.85478 37.6992 8.78159 37.9986 8.71209 38.299 8.64628 38.5994 8.58049 38.9005 8.5184 39.2024 8.46004 39.5043 8.40168 39.8069 8.34705 40.1101 8.29615 40.4133 8.24526 40.7172 8.19812 41.0216 8.15473 41.326 8.11134 41.6309 8.07172 41.9363 8.03585 42.2417 7.99999 42.5474 7.96791 42.8536 7.93959 43.1598 7.91128 43.4663 7.88675 43.773 7.86601 44.0798 7.84527 44.3868 7.82832 44.694 7.81515 45.0012 7.80198 45.3084 7.79262 45.6159 7.78704 45.9233 7.78147 46.2308 7.77969 46.5382 7.78171 46.8457 7.78372 47.1531 7.78954 47.4604 7.79914 47.7678 7.80875 48.075 7.82215 48.382 7.83934 48.6152 7.85374 48.8482 7.87031 49.0811 7.88907 49.3139 7.90783 49.5466 7.92876 49.7791 7.95186 50.0116 7.97497 50.2438 8.00024 50.4759 8.0277 50.7078 8.05515 50.9396 8.08477 51.1711 8.11656 51.4025 8.14835 51.6337 8.18229 51.8645 8.2184 52.0954 8.25452 52.3258 8.29279 52.556 8.33321 52.786 8.37363 53.0157 8.4162 53.2451 8.46092 53.4744 8.50564 53.7033 8.5525 53.9317 8.60151 54.1601 8.65052 54.3881 8.70164 54.6156 8.75491 54.843 8.80818 55.07 8.86357 55.2964 8.92108 55.5229 8.97862 55.7488 9.03821 55.9741 9.09996 56.1995 9.1617 56.4241 9.2256 56.6483 9.29147 56.8724 9.35744 57.0959 9.42547 57.3188 9.49557 57.5416 9.56576 57.7638 9.63793 57.9854 9.71216 58.2069 9.78648 58.4276 9.86279 58.6477 9.94124 58.8678 10.0197 59.0871 10.1001 59.3057 10.1826 59.5243 10.2651 59.7421 10.3497 59.9591 10.4363 60.1761 10.5228 60.3922 10.6114 60.6076 10.7021 60.8229 10.7928 61.0373 10.8854 61.251 10.9801 61.4646 11.0747 61.6772 11.1713 61.889 11.2699 62.1009 11.3685 62.3117 11.4692 62.5217 11.5717 62.7316 11.6742 62.9405 11.7788 63.1484 11.8853 63.3564 11.9918 63.5634 12.1002 63.7693 12.2105 63.9752 12.3209 64.1801 12.4331 64.384 12.5473 64.5878 12.6616 64.7906 12.7776 64.9921 12.8956 65.1938 13.0136 65.3944 13.1334 65.5938 13.2552 65.7933 13.3769 65.9915 13.5004 66.1886 13.6259 66.3857 13.7513 66.5815 13.8785 66.7763 14.0077 66.971 14.1368 67.1645 14.2677 67.3568 14.4004 67.5491 14.5331 67.7401 14.6676 67.9299 14.8039 68.1196 14.9403 68.308 15.0783 68.4952 15.2181 68.6824 15.3579 68.8683 15.4994 69.0528 15.6428 70.3749 16.6701 71.6648 17.7468 72.7784 19.0031 72.5248 19.6004 72.2803 20.1966 72.1327 20.831 71.7136 22.6329 72.1599 24.6446 73.1319 26.1955 72.6115 26.7494 72.0635 27.2787 71.5219 27.8118 70.0466 25.4243 67.568 23.1533 65.3507 21.4661 61.2188 18.3221 56.8042 16.2936 51.6848 15.3682 51.0709 15.2573 49.7556 14.9489 49.1608 15.0293 48.1632 14.3317 47.1258 14.1394 45.9271 14.1095 45.0576 14.1774 44.4122 14.3207 43.6478 14.7609 43.4349 14.8835 43.2258 15.0624 43.0092 15.1675 42.0323 16.0084 41.3078 17.0198 41.2075 18.3452 41.1737 18.7908 41.2096 19.2766 41.3295 19.7068 41.3962 19.9466 41.4968 20.1962 41.5268 20.443 39.8717 20.4473 38.6516 20.2963 37.2504 21.3424 35.8059 21.3897 34.3609 21.4055 32.9157 21.3897 32.1385 21.3886 31.215 21.2926 30.4568 21.4543 30.0889 21.5326 29.7813 21.6977 29.5247 21.9758 29.4817 22.0228 29.4409 22.0718 29.4023 22.1225 29.3638 22.1733 29.3276 22.2257 29.2939 22.2799 29.2602 22.334 29.2291 22.3895 29.2005 22.4465 29.1718 22.5035 29.1459 22.5617 29.1226 22.6211 29.0994 22.6805 29.079 22.7408 29.0613 22.8021 29.0436 22.8633 29.0287 22.9252 29.0167 22.9878 29.0047 23.0505 28.9957 23.1135 28.9895 23.177 28.9833 23.2405 28.98 23.3041 28.9797 23.3678 27.7212 23.3458 26.3723 23.1513 25.3803 24.1014 24.7215 24.7325 24.5879 25.5031 24.5757 26.3697 24.5552 27.8312 24.6632 29.3057 24.6229 30.7628 24.9159 30.9489 25.4431 31.2164 25.7738 31.3053 26.851 31.6981 27.9239 31.9267 29.0636 32.0419 29.4531 32.05 29.8426 32.0538 30.2322 32.0534 30.0589 34.0608 30.081 36.0937 29.7208 38.0816 29.5322 39.1223 29.2097 40.1478 28.8705 41.1482 29.0071 41.888 28.9166 42.7847 28.9139 43.539L28.911 48.0904C28.9255 54.0574 28.9988 60.0316 28.9318 65.9983 28.1148 66.0875 26.6279 66.0443 25.7785 65.9974 25.4734 65.9518 25.1412 65.9749 24.8319 65.9745 24.2913 65.9764 23.7479 65.9661 23.2085 66.0063L20.2499 66.0145C19.6474 66.0137 18.9867 65.9607 18.3931 66.0561 17.804 66.0256 17.1837 65.9722 16.6038 66.1075 15.7523 66.3064 15.1241 66.8716 14.674 67.6007Z" fill="#A8E8F9" transform="matrix(1 0 0 1.01087 705 535)"/><path d="M19.2452 30.5905C19.5795 29.5287 22.9139 25.2627 23.8279 24.3287 26.2197 21.8846 28.4766 20.1584 31.4875 18.5425 32.7969 17.8399 34.1573 17.2027 35.5633 16.7175 36.5749 16.3683 37.6017 16.1059 38.641 15.8547 40.0589 15.512 41.5434 15.1793 43.0092 15.1675 42.0323 16.0084 41.3078 17.0198 41.2075 18.3452 41.1737 18.7908 41.2096 19.2766 41.3295 19.7068 41.3962 19.9466 41.4968 20.1962 41.5268 20.443 39.8717 20.4473 38.6516 20.2963 37.2504 21.3424 35.8059 21.3897 34.3609 21.4055 32.9157 21.3897 32.1385 21.3886 31.215 21.2926 30.4568 21.4543 30.0889 21.5326 29.7813 21.6977 29.5247 21.9758 29.4817 22.0228 29.4409 22.0718 29.4023 22.1225 29.3638 22.1733 29.3276 22.2257 29.2939 22.2799 29.2602 22.334 29.2291 22.3895 29.2005 22.4465 29.1718 22.5035 29.1459 22.5617 29.1226 22.6211 29.0994 22.6805 29.079 22.7408 29.0613 22.8021 29.0436 22.8633 29.0287 22.9252 29.0167 22.9878 29.0047 23.0505 28.9957 23.1135 28.9895 23.177 28.9833 23.2405 28.98 23.3041 28.9797 23.3678 27.7212 23.3458 26.3723 23.1513 25.3803 24.1014 24.7215 24.7325 24.5879 25.5031 24.5757 26.3697 24.5552 27.8312 24.6632 29.3057 24.6229 30.7628 24.0509 30.4395 23.5392 30.057 23.0452 29.624 22.7391 29.3559 22.0506 28.5822 21.7692 28.4519 21.0035 29.2727 20.2431 30.0479 19.2452 30.5905Z" fill="#66B7C8" transform="matrix(1 0 0 1.01087 705 535)"/><path d="M21.7692 28.4519C22.0506 28.5822 22.7391 29.3559 23.0452 29.624 23.5392 30.057 24.0509 30.4395 24.6229 30.7628 24.9159 30.9489 25.4431 31.2164 25.7738 31.3053 26.851 31.6981 27.9239 31.9267 29.0636 32.0419 29.4531 32.05 29.8426 32.0538 30.2322 32.0534 30.0589 34.0608 30.081 36.0937 29.7208 38.0816 29.5322 39.1223 29.2097 40.1478 28.8705 41.1482 29.0071 41.888 28.9166 42.7847 28.9139 43.539L28.911 48.0904C28.9255 54.0574 28.9988 60.0316 28.9318 65.9983 28.1148 66.0875 26.6279 66.0443 25.7785 65.9974 25.4734 65.9518 25.1412 65.9749 24.8319 65.9745 24.2913 65.9764 23.7479 65.9661 23.2085 66.0063 23.0068 65.553 22.4234 64.9228 22.1183 64.4902 21.6909 63.8838 21.2854 63.2179 20.9185 62.5725 20.5387 61.9042 20.2006 60.7559 19.6416 60.2535 19.4649 60.1856 19.2571 60.2497 19.0717 60.272 19.0151 60.2788 18.9524 60.3099 18.8988 60.3296 18.7273 60.6389 18.8204 61.6956 18.8113 62.0885 17.9045 62.0992 16.9978 62.094 16.0912 62.0731 16.0663 61.4876 16.0474 60.9015 15.9919 60.3179 15.5069 60.0697 14.9862 59.9088 14.5139 59.631 14.0804 60.0146 13.676 60.4426 13.267 60.8525 12.6787 60.2504 11.868 59.5739 11.4527 58.8445 11.8445 58.4115 12.2875 58.0177 12.7119 57.6164 12.3476 57.0447 12.1194 56.5586 11.9747 55.8956 11.4949 55.8756 11.0181 55.856 10.5406 55.8025 10.4892 54.8943 10.5116 53.9767 10.5091 53.067 11.0371 53.0634 11.5686 53.0823 12.0932 53.0138 12.2773 52.5384 12.487 52.0858 12.7145 51.6303 12.3627 51.1913 11.967 50.7854 11.5853 50.3726 12.1696 49.7307 12.8263 49.1409 13.4504 48.5372 13.8115 48.9406 14.1964 49.32 14.6052 49.675 15.0582 49.4235 15.5065 49.2153 15.9954 49.0416L15.9962 47.2808 17.2627 47.2774C17.1058 46.2773 16.6549 44.701 16.671 43.7675 14.0339 39.9179 13.418 36.588 13.0691 32.0059 14.9015 31.9856 17.7397 31.6499 19.2452 30.5905 20.2431 30.0479 21.0035 29.2727 21.7692 28.4519Z" fill="url(#fill1)" transform="matrix(1 0 0 1.01087 705 535)"/><path d="M16.671 43.7675C16.779 43.9126 16.8906 44.0552 17.0056 44.1949 17.1206 44.3347 17.2389 44.4715 17.3607 44.6054 17.4824 44.7393 17.6073 44.8701 17.7355 44.998 17.8635 45.1258 17.9947 45.2504 18.129 45.3718 18.2632 45.4931 18.4003 45.6111 18.5403 45.7258 18.6804 45.8405 18.8231 45.9517 18.9686 46.0593 19.1141 46.167 19.2621 46.2711 19.4126 46.3714 19.5632 46.4718 19.7161 46.5684 19.8714 46.6614 20.3643 46.959 21.5306 47.4077 21.8521 47.7982 22.3379 47.7174 24.3003 46.5977 24.8179 46.301L24.8431 53.0342 23.1107 53.0537C22.8795 52.5047 22.5776 51.9789 22.2967 51.454 22.7003 51.0476 23.1094 50.6471 23.5242 50.2522 22.7954 49.6297 22.1508 48.9025 21.4362 48.2602 21.0487 48.7587 20.6527 49.1866 20.1774 49.605 19.7432 49.3888 19.3108 49.2055 18.8427 49.0759L18.8487 47.2845 17.2627 47.2774C17.1058 46.2773 16.6549 44.701 16.671 43.7675Z" fill="#66B7C8" transform="matrix(1 0 0 1.01087 705 535)"/><path d="M23.1679 55.8886 24.8225 55.8351C24.8357 59.2146 24.7869 62.5955 24.8319 65.9745 24.2913 65.9764 23.7479 65.9661 23.2085 66.0063 23.0068 65.553 22.4234 64.9228 22.1183 64.4902 21.6909 63.8838 21.2854 63.2179 20.9185 62.5725 20.5387 61.9042 20.2006 60.7559 19.6416 60.2535 19.4649 60.1856 19.2571 60.2497 19.0717 60.272 19.518 60.0851 19.9549 59.9 20.3745 59.6567 20.822 60.0223 21.2077 60.4602 21.656 60.818 22.3163 60.2038 22.9636 59.5882 23.5678 58.9183 23.1807 58.5133 22.7608 58.1478 22.364 57.7538 22.7029 57.1445 22.954 56.551 23.1679 55.8886Z" fill="#66B7C8" transform="matrix(1 0 0 1.01087 705 535)"/><path d="M16.4366 47.6601C16.7374 47.6997 17.0425 47.6864 17.3451 47.6833 17.3451 48.7733 17.3305 49.8656 17.349 50.9553 16.2997 51.0625 15.4047 51.4401 14.7312 52.2791 14.6912 52.3298 14.6525 52.3816 14.615 52.4344 14.5775 52.487 14.5413 52.5406 14.5065 52.5951 14.4717 52.6496 14.4382 52.7049 14.4061 52.761 14.374 52.8171 14.3432 52.874 14.3139 52.9316 14.2846 52.9892 14.2567 53.0476 14.2302 53.1065 14.2037 53.1656 14.1787 53.2251 14.1551 53.2854 14.1316 53.3456 14.1095 53.4063 14.0889 53.4677 14.0683 53.529 14.0493 53.5907 14.0318 53.653 14.0142 53.7153 13.9982 53.7779 13.9838 53.8409 13.9693 53.9039 13.9564 53.9673 13.945 54.0309 13.9337 54.0947 13.9239 54.1586 13.9157 54.2226 13.9075 54.2868 13.9008 54.3511 13.8958 54.4156 13.8907 54.48 13.8872 54.5446 13.8854 54.6093 13.8835 54.6739 13.8831 54.7385 13.8844 54.8032 13.8857 54.8678 13.8886 54.9324 13.893 54.9969 13.8974 55.0614 13.9034 55.1258 13.9111 55.19 14.0238 56.1654 14.5199 57.0036 15.2938 57.6022 15.8697 58.0476 16.5162 58.2902 17.2341 58.3827 17.2223 58.9569 17.3413 61.2659 17.1652 61.6243L16.5339 61.6181C16.4676 61.0589 16.491 60.4849 16.4917 59.9227 15.7545 59.7278 15.1243 59.4572 14.4959 59.0246 14.0619 59.3609 13.6985 59.7681 13.3246 60.1675 12.8836 59.834 12.4332 59.3621 12.1259 58.9016 12.4571 58.4678 12.9002 58.0814 13.2883 57.6961 12.7157 57.0402 12.4863 56.2488 12.3221 55.4103L10.9719 55.3973C10.8908 54.7854 10.9328 54.1363 10.946 53.5198 11.4377 53.5188 11.9294 53.5223 12.4211 53.53 12.6001 52.7823 12.8788 52.1914 13.3433 51.5803 12.9671 51.1864 12.5837 50.7929 12.2442 50.3665 12.6069 49.9362 13.0528 49.5538 13.4454 49.1485 13.8083 49.5284 14.1675 49.907 14.5605 50.2563 15.1705 49.8473 15.7386 49.6044 16.4381 49.3885 16.4325 48.8124 16.432 48.2363 16.4366 47.6601Z" fill="#66B7C8" transform="matrix(1 0 0 1.01087 705 535)"/><path d="M16.4366 47.6601C17.06 47.572 17.7587 47.6343 18.3899 47.6464L18.3794 49.4038C19.0917 49.5409 19.6754 49.7614 20.3096 50.1101 20.7199 49.7327 21.1057 49.3303 21.4954 48.9321 21.948 49.3749 22.4594 49.7815 22.8909 50.2397 22.4921 50.635 22.0864 51.0253 21.6949 51.4277 22.2302 52.0559 22.5086 52.7904 22.7182 53.5789 23.3303 53.4828 23.9676 53.5012 24.5864 53.5055 24.5237 54.1232 24.5395 54.7484 24.5444 55.3686 23.9497 55.3831 23.3532 55.4092 22.7587 55.3779 22.6344 56.297 22.332 57.104 21.719 57.8086 22.1572 58.1126 22.5706 58.4817 22.9006 58.9026 22.4796 59.3265 22.0626 59.7974 21.5919 60.1661L20.3719 59.0304C19.7605 59.5076 19.1881 59.7795 18.43 59.945 18.4038 60.4963 18.3818 61.0478 18.3641 61.5994 17.9757 61.621 17.5513 61.6742 17.1652 61.6243 17.3413 61.2659 17.2223 58.9569 17.2341 58.3827 18.2212 58.3595 19.2141 58.0632 19.9503 57.3831 20.6922 56.6976 21.1516 55.6744 21.1805 54.6652 21.1822 54.6048 21.1825 54.5443 21.1813 54.4838 21.1801 54.4233 21.1774 54.3629 21.1731 54.3025 21.1689 54.2422 21.1632 54.182 21.1561 54.1219 21.1489 54.0619 21.1402 54.002 21.1301 53.9423 21.1199 53.8827 21.1083 53.8233 21.0953 53.7643 21.0823 53.7052 21.0677 53.6465 21.0518 53.5881 21.0359 53.5298 21.0185 53.4718 20.9997 53.4143 20.9809 53.3568 20.9607 53.2998 20.939 53.2433 20.9174 53.1868 20.8944 53.1309 20.87 53.0755 20.8456 53.0201 20.8199 52.9654 20.7929 52.9113 20.7658 52.8572 20.7374 52.8038 20.7077 52.7511 20.6779 52.6984 20.6469 52.6465 20.6147 52.5953 20.5824 52.5441 20.5489 52.4938 20.5141 52.4443 20.4793 52.3947 20.4434 52.3461 20.4063 52.2984 20.3691 52.2507 20.3308 52.2038 20.2913 52.1579 20.2519 52.1121 20.2113 52.0672 20.1696 52.0234 19.4306 51.2472 18.3873 50.9865 17.349 50.9553 17.3305 49.8656 17.3451 48.7733 17.3451 47.6833 17.0425 47.6864 16.7374 47.6997 16.4366 47.6601Z" fill="#10A1BC" transform="matrix(1 0 0 1.01087 705 535)"/><path d="M17.349 50.9553C18.3873 50.9865 19.4306 51.2472 20.1696 52.0234 20.2113 52.0672 20.2519 52.1121 20.2913 52.1579 20.3308 52.2038 20.3691 52.2507 20.4063 52.2984 20.4434 52.3461 20.4793 52.3947 20.5141 52.4443 20.5489 52.4938 20.5824 52.5441 20.6147 52.5953 20.6469 52.6465 20.6779 52.6984 20.7077 52.7511 20.7374 52.8038 20.7658 52.8572 20.7929 52.9113 20.8199 52.9654 20.8456 53.0201 20.87 53.0755 20.8944 53.1309 20.9174 53.1868 20.939 53.2433 20.9607 53.2998 20.9809 53.3568 20.9997 53.4143 21.0185 53.4718 21.0359 53.5298 21.0518 53.5881 21.0677 53.6465 21.0823 53.7052 21.0953 53.7643 21.1083 53.8233 21.1199 53.8827 21.1301 53.9423 21.1402 54.002 21.1489 54.0619 21.1561 54.1219 21.1632 54.182 21.1689 54.2422 21.1731 54.3025 21.1774 54.3629 21.1801 54.4233 21.1813 54.4838 21.1825 54.5443 21.1822 54.6048 21.1805 54.6652 21.1516 55.6744 20.6922 56.6976 19.9503 57.3831 19.2141 58.0632 18.2212 58.3595 17.2341 58.3827 16.5162 58.2902 15.8697 58.0476 15.2938 57.6022 14.5199 57.0036 14.0238 56.1654 13.9111 55.19 13.9034 55.1258 13.8974 55.0614 13.893 54.9969 13.8886 54.9324 13.8857 54.8678 13.8844 54.8032 13.8831 54.7385 13.8835 54.6739 13.8854 54.6093 13.8872 54.5446 13.8907 54.48 13.8958 54.4156 13.9008 54.3511 13.9075 54.2868 13.9157 54.2226 13.9239 54.1586 13.9337 54.0947 13.945 54.0309 13.9564 53.9673 13.9693 53.9039 13.9838 53.8409 13.9982 53.7779 14.0142 53.7153 14.0318 53.653 14.0493 53.5907 14.0683 53.529 14.0889 53.4677 14.1095 53.4064 14.1316 53.3457 14.1551 53.2854 14.1787 53.2251 14.2037 53.1656 14.2302 53.1065 14.2567 53.0476 14.2846 52.9892 14.3139 52.9316 14.3432 52.874 14.374 52.8171 14.4061 52.761 14.4382 52.7049 14.4717 52.6496 14.5065 52.5951 14.5413 52.5406 14.5775 52.487 14.615 52.4344 14.6525 52.3816 14.6912 52.3298 14.7312 52.2791 15.4047 51.4401 16.2997 51.0625 17.349 50.9553Z" fill="#013C58" transform="matrix(1 0 0 1.01087 705 535)"/><path d="M17.2925 57.9338C16.6947 57.8582 16.1635 57.6929 15.6641 57.3459 14.9677 56.8619 14.5155 56.1243 14.3738 55.2904 14.2251 54.4149 14.4059 53.4376 14.925 52.7089 15.4978 51.9049 16.3525 51.4916 17.3052 51.3382L17.3033 55.6124C17.305 56.3777 17.3495 57.1717 17.2925 57.9338Z" fill="#66B7C8" transform="matrix(1 0 0 1.01087 705 535)"/><path d="M17.3052 51.3382C18.2055 51.3239 19.1222 51.5644 19.7869 52.2016 20.4186 52.8072 20.7445 53.7436 20.761 54.6068 20.7767 55.4366 20.4175 56.2869 19.8385 56.8769 19.1447 57.5839 18.2591 57.8729 17.2925 57.9338 17.3495 57.1717 17.305 56.3777 17.3033 55.6124L17.3052 51.3382Z" fill="#10A1BC" transform="matrix(1 0 0 1.01087 705 535)"/><path d="M28.8705 41.1482C29.0071 41.888 28.9166 42.7847 28.9139 43.539L28.911 48.0904C28.9255 54.0574 28.9988 60.0316 28.9318 65.9983 28.1148 66.0875 26.6279 66.0443 25.7785 65.9974L25.7788 45.4481C27.2159 44.1731 28.0241 42.8417 28.8705 41.1482Z" fill="#FCFDFD" transform="matrix(1 0 0 1.01087 705 535)"/><path d="M21.7692 28.4519C21.8367 29.0915 21.7998 29.7642 21.7959 30.408 21.9432 30.559 22.11 30.7078 22.2414 30.8722 24.2585 32.493 26.1365 33.2119 28.7246 33.3413 28.6876 37.132 27.9726 41.0768 25.1674 43.8368 24.2272 44.7618 23.0964 45.4074 21.8341 45.7812 21.8492 46.4417 21.7813 47.1465 21.8521 47.7982 21.5306 47.4077 20.3643 46.959 19.8714 46.6614 19.7161 46.5684 19.5632 46.4717 19.4126 46.3714 19.2621 46.271 19.1141 46.167 18.9686 46.0593 18.8231 45.9517 18.6804 45.8405 18.5403 45.7258 18.4003 45.6111 18.2632 45.4931 18.129 45.3718 17.9947 45.2504 17.8635 45.1258 17.7355 44.998 17.6073 44.8701 17.4824 44.7393 17.3607 44.6054 17.2389 44.4715 17.1206 44.3347 17.0056 44.1949 16.8906 44.0552 16.779 43.9126 16.671 43.7675 14.0339 39.9179 13.418 36.588 13.0691 32.0059 14.9015 31.9856 17.7397 31.6499 19.2452 30.5905 20.2431 30.0479 21.0035 29.2727 21.7692 28.4519Z" fill="#F5A201" transform="matrix(1 0 0 1.01087 705 535)"/><path d="M21.6366 43.7787C20.6251 43.6817 19.6433 43.1231 18.9272 42.4221 18.8702 42.3652 18.8146 42.3069 18.7604 42.2472 18.7062 42.1876 18.6536 42.1266 18.6024 42.0643 18.5513 42.0021 18.5016 41.9386 18.4535 41.874 18.4054 41.8093 18.359 41.7435 18.3141 41.6765 18.2693 41.6096 18.2262 41.5416 18.1846 41.4725 18.1431 41.4034 18.1033 41.3334 18.0652 41.2623 18.0272 41.1913 17.9909 41.1194 17.9563 41.0466 17.9217 40.9738 17.889 40.9002 17.858 40.8258 17.827 40.7514 17.7979 40.6763 17.7707 40.6005 17.7435 40.5247 17.718 40.4482 17.6945 40.3712 17.6709 40.2941 17.6493 40.2164 17.6296 40.1383 17.6099 40.0602 17.5921 39.9817 17.5762 39.9027 17.5603 39.8237 17.5464 39.7443 17.5344 39.6646 17.5225 39.5849 17.5124 39.505 17.5043 39.4248 17.4962 39.3446 17.4901 39.2642 17.486 39.1838 17.4818 39.1033 17.4797 39.0228 17.4795 38.9422 17.479 38.8634 17.4805 38.7846 17.484 38.7057 17.4875 38.6269 17.4929 38.5482 17.5004 38.4697 17.5078 38.3912 17.5172 38.3129 17.5287 38.2349 17.5401 38.1568 17.5534 38.0792 17.5687 38.0018 17.5839 37.9244 17.6012 37.8475 17.6204 37.771 17.6396 37.6945 17.6607 37.6185 17.6837 37.5431 17.7067 37.4677 17.7316 37.3928 17.7584 37.3186 17.7852 37.2444 17.8137 37.1709 17.8442 37.0982 17.8747 37.0255 17.907 36.9535 17.9411 36.8824 17.9752 36.8113 18.0111 36.7411 18.0487 36.6718 18.0864 36.6025 18.1258 36.5342 18.1668 36.4669 18.2079 36.3996 18.2507 36.3333 18.2951 36.2682 18.3396 36.203 18.3856 36.1389 18.4332 36.0761 18.4809 36.0133 18.53 35.9516 18.5808 35.8912 18.6316 35.8309 18.6838 35.7719 18.7375 35.7141 18.7913 35.6563 18.8464 35.6 18.903 35.5451 19.6561 34.8044 20.7817 34.27 21.8497 34.279L21.8468 36.529C21.4646 36.5391 20.6819 36.5871 20.4336 36.914 20.2104 37.2077 20.3323 37.726 20.4172 38.0545 20.5989 38.7572 20.9673 39.5214 21.5251 40.0012 21.7195 39.9861 21.9122 39.9737 22.1042 39.9379L22.1712 39.9476C22.2948 40.1496 22.2712 40.2982 22.2485 40.5266 21.8546 40.5295 21.4679 40.5106 21.0753 40.4796 21.0748 40.9199 21.0579 41.3669 21.0848 41.8062 21.3507 41.827 21.6171 41.8385 21.8839 41.8407 21.8824 42.1514 21.941 43.5978 21.7918 43.76L21.7277 43.7788 21.6366 43.7787Z" fill="#FFD35B" transform="matrix(1 0 0 1.01087 705 535)"/><path d="M22.2374 34.2671C23.5259 34.4753 24.6999 35.0199 25.4754 36.1094 25.5209 36.1746 25.5649 36.2409 25.6072 36.3083 25.6496 36.3757 25.6903 36.4441 25.7292 36.5135 25.7681 36.583 25.8053 36.6533 25.8408 36.7245 25.8763 36.7957 25.9101 36.8678 25.942 36.9407 25.974 37.0136 26.0042 37.0872 26.0325 37.1616 26.0608 37.2359 26.0872 37.3109 26.1119 37.3866 26.1366 37.4623 26.1593 37.5385 26.1802 37.6153 26.2012 37.6922 26.2201 37.7694 26.2372 37.8471 26.2543 37.9249 26.2695 38.003 26.2827 38.0815 26.296 38.16 26.3073 38.2387 26.3167 38.3177 26.3261 38.3968 26.3335 38.476 26.339 38.5554 26.3444 38.6348 26.348 38.7143 26.3496 38.7938 26.3512 38.8734 26.3508 38.953 26.3485 39.0325 26.3461 39.1121 26.3418 39.1915 26.3355 39.2709 26.3293 39.3502 26.3212 39.4293 26.311 39.5083 26.3009 39.5872 26.2888 39.6658 26.2748 39.7442 26.0479 41.0244 25.2315 42.2378 24.1651 42.9725 23.4717 43.4503 22.6619 43.7911 21.8127 43.8226L21.7277 43.7788 21.7918 43.76C21.941 43.5978 21.8824 42.1514 21.8839 41.8407 21.6171 41.8385 21.3507 41.827 21.0848 41.8062 21.0579 41.3669 21.0748 40.9199 21.0753 40.4796 21.4679 40.5106 21.8546 40.5295 22.2485 40.5266 22.2712 40.2982 22.2948 40.1496 22.1712 39.9476L22.1042 39.9379C21.9122 39.9737 21.7195 39.9861 21.5251 40.0012 20.9673 39.5214 20.5989 38.7572 20.4172 38.0545 20.3323 37.726 20.2104 37.2077 20.4336 36.914 20.6819 36.5871 21.4646 36.5391 21.8468 36.529L21.8497 34.279C21.9794 34.278 22.1082 34.2796 22.2374 34.2671Z" fill="#FFBA42" transform="matrix(1 0 0 1.01087 705 535)"/><path d="M22.2787 40.5317 22.4458 40.5399C22.5559 40.6668 22.5624 41.0443 22.5488 41.2138 22.536 41.3736 22.5305 41.618 22.425 41.743L22.2474 41.8059C22.2417 41.4061 22.1837 40.917 22.2787 40.5317Z" fill="#F5A201" transform="matrix(1 0 0 1.01087 705 535)"/><path d="M22.7536 36.6908C22.9999 36.7897 23.1212 36.9115 23.2792 37.1196 23.2884 37.8882 22.8419 39.3168 22.2853 39.8619 22.2502 39.8964 22.2137 39.9233 22.1712 39.9476L22.1042 39.9379C22.5539 39 23.1046 38.1466 23.0422 37.0703L22.7536 36.6908Z" fill="#F5A201" transform="matrix(1 0 0 1.01087 705 535)"/><path d="M21.7692 28.4519C21.8367 29.0915 21.7998 29.7642 21.7959 30.408L21.7877 30.4482 21.7941 34.0024C20.4423 34.1835 19.1297 34.7587 18.2862 35.8682 17.4836 36.9237 17.1414 38.3204 17.3296 39.6282 17.3409 39.7129 17.3544 39.7973 17.3699 39.8815 17.3855 39.9655 17.4032 40.0492 17.423 40.1323 17.4427 40.2154 17.4646 40.2981 17.4885 40.3801 17.5124 40.4622 17.5384 40.5437 17.5664 40.6245 17.5944 40.7053 17.6244 40.7853 17.6564 40.8646 17.6884 40.9439 17.7223 41.0223 17.7583 41.0998 17.7942 41.1774 17.8322 41.2541 17.872 41.3297 17.9118 41.4054 17.9534 41.48 17.9969 41.5536 18.0405 41.6272 18.0858 41.6996 18.133 41.771 18.1801 41.8423 18.229 41.9124 18.2797 41.9812 18.3304 42.0501 18.3828 42.1176 18.4368 42.1839 18.4909 42.2501 18.5466 42.3149 18.604 42.3784 18.6612 42.4418 18.7201 42.5037 18.7806 42.5642 18.841 42.6247 18.9029 42.6837 18.9662 42.7411 19.0296 42.7984 19.0944 42.8541 19.1606 42.9083 19.2269 42.9624 19.2944 43.0148 19.3631 43.0656 20.0133 43.5455 20.6969 43.7864 21.4808 43.9502L21.7943 44.0024C21.905 44.2019 21.8834 45.4874 21.8196 45.7288 21.8165 45.7405 21.8118 45.7517 21.8078 45.7632L21.8341 45.7812C21.8492 46.4417 21.7813 47.1465 21.8521 47.7982 21.5306 47.4077 20.3643 46.959 19.8714 46.6614 19.7161 46.5684 19.5632 46.4717 19.4126 46.3714 19.2621 46.271 19.1141 46.167 18.9686 46.0593 18.8231 45.9517 18.6804 45.8405 18.5403 45.7258 18.4003 45.6111 18.2632 45.4931 18.129 45.3718 17.9947 45.2504 17.8635 45.1258 17.7355 44.998 17.6073 44.8701 17.4824 44.7393 17.3607 44.6054 17.2389 44.4715 17.1206 44.3347 17.0056 44.1949 16.8906 44.0552 16.779 43.9126 16.671 43.7675 14.0339 39.9179 13.418 36.588 13.0691 32.0059 14.9015 31.9856 17.7397 31.6499 19.2452 30.5905 20.2431 30.0479 21.0035 29.2727 21.7692 28.4519Z" fill="#00537A" transform="matrix(1 0 0 1.01087 705 535)"/><path d="M14.6344 33.308C17.5709 33.103 19.6403 32.6039 21.7877 30.4482L21.7941 34.0024C20.4423 34.1835 19.1297 34.7587 18.2862 35.8682 17.4836 36.9237 17.1414 38.3204 17.3296 39.6282 17.3409 39.7129 17.3544 39.7973 17.3699 39.8815 17.3855 39.9655 17.4032 40.0492 17.423 40.1323 17.4427 40.2154 17.4646 40.2981 17.4885 40.3801 17.5124 40.4622 17.5384 40.5437 17.5664 40.6245 17.5944 40.7053 17.6244 40.7853 17.6564 40.8646 17.6884 40.9439 17.7223 41.0223 17.7583 41.0998 17.7942 41.1774 17.8322 41.2541 17.872 41.3297 17.9118 41.4054 17.9534 41.48 17.9969 41.5536 18.0405 41.6272 18.0858 41.6996 18.133 41.771 18.1801 41.8423 18.229 41.9124 18.2797 41.9812 18.3304 42.0501 18.3828 42.1176 18.4368 42.1839 18.4909 42.2501 18.5466 42.3149 18.604 42.3784 18.6612 42.4418 18.7201 42.5037 18.7806 42.5642 18.841 42.6247 18.9029 42.6837 18.9662 42.7411 19.0296 42.7984 19.0944 42.8541 19.1606 42.9083 19.2269 42.9624 19.2944 43.0148 19.3631 43.0656 20.0133 43.5455 20.6969 43.7864 21.4808 43.9502L21.7943 44.0024C21.905 44.2019 21.8834 45.4874 21.8196 45.7288 21.8165 45.7405 21.8118 45.7517 21.8078 45.7632 20.9121 45.4184 20.1481 44.972 19.409 44.3588 16.0993 41.6133 15.013 37.404 14.6344 33.308Z" fill="#FFBA42" transform="matrix(1 0 0 1.01087 705 535)"/></g></svg>