<svg width="88" height="88" xmlns="http://www.w3.org/2000/svg" xmlns:xlink="http://www.w3.org/1999/xlink" xml:space="preserve" overflow="hidden"><defs><clipPath id="clip0"><rect x="168" y="254" width="88" height="88"/></clipPath><linearGradient x1="217.356" y1="313.194" x2="218.204" y2="314.259" gradientUnits="userSpaceOnUse" spreadMethod="pad" id="fill1"><stop offset="0" stop-color="#017FA8"/><stop offset="1" stop-color="#0FA0C1"/></linearGradient><linearGradient x1="191.525" y1="314.865" x2="191.753" y2="317.373" gradientUnits="userSpaceOnUse" spreadMethod="pad" id="fill2"><stop offset="0" stop-color="#003564"/><stop offset="1" stop-color="#055582"/></linearGradient><linearGradient x1="247.582" y1="290.879" x2="246.433" y2="296.579" gradientUnits="userSpaceOnUse" spreadMethod="pad" id="fill3"><stop offset="0" stop-color="#58DFF5"/><stop offset="1" stop-color="#7EFFFF"/></linearGradient><linearGradient x1="233.086" y1="270.755" x2="233.765" y2="273.854" gradientUnits="userSpaceOnUse" spreadMethod="pad" id="fill4"><stop offset="0" stop-color="#023566"/><stop offset="1" stop-color="#055684"/></linearGradient><linearGradient x1="190.171" y1="316.105" x2="193.978" y2="302.901" gradientUnits="userSpaceOnUse" spreadMethod="pad" id="fill5"><stop offset="0" stop-color="#E88811"/><stop offset="1" stop-color="#FDB642"/></linearGradient><linearGradient x1="178.715" y1="292.493" x2="182.151" y2="302.868" gradientUnits="userSpaceOnUse" spreadMethod="pad" id="fill6"><stop offset="0" stop-color="#D4E6EE"/><stop offset="1" stop-color="#FFFCFE"/></linearGradient></defs><g clip-path="url(#clip0)" transform="translate(-168 -254)"><path d="M168 254 256.027 254 256.027 342.027 168 342.027 168 254Z" fill="#013C58"/><path d="M185.365 268.597C185.783 269.049 186.285 269.433 186.667 269.916 186.866 270.154 187.073 270.384 187.288 270.608 187.139 271.093 187.002 271.59 186.92 272.091 186.573 271.716 186.192 271.367 185.835 271 185.408 270.538 184.921 270.12 184.474 269.675 184.759 269.31 185.039 268.926 185.365 268.597Z" fill="#38A9BE"/><path d="M180.41 330.545C181.057 328.686 181.567 326.773 182.077 324.872 182.584 325.397 183.124 325.885 183.624 326.417 183.933 326.736 184.369 327.239 184.762 327.44 185.121 327.764 185.474 328.095 185.82 328.434 183.984 329.011 182.158 329.742 180.41 330.545Z" fill="#38A9BE"/><path d="M180.7 265.641C181.544 265.908 182.39 266.168 183.239 266.421 184.279 266.721 185.321 266.996 186.335 267.381 186.045 267.804 185.682 268.191 185.365 268.597 185.039 268.926 184.759 269.31 184.474 269.675 184.071 270.172 183.664 270.671 183.223 271.135 182.79 270.322 182.449 269.443 182.074 268.601 181.632 267.607 181.157 266.628 180.7 265.641Z" fill="#F5A201"/><path d="M211.934 258.633C214.051 258.669 215.998 259.539 217.465 261.062 218.926 262.577 219.616 264.55 219.576 266.643 219.57 266.926 219.551 267.219 219.507 267.499 218.883 266.794 218.171 266.142 217.505 265.476 217.143 265.114 216.784 264.673 216.383 264.363 216.143 264.607 215.925 264.813 215.599 264.94 215.036 265.159 214.416 265.033 213.887 264.79 213.736 264.566 213.615 264.348 213.568 264.079 213.49 263.625 213.666 263.28 213.918 262.922 213.676 262.445 212.406 261.239 211.915 260.987 212.013 260.235 211.949 259.392 211.934 258.633Z" fill="#F5A201"/><path d="M213.918 262.922C214.502 262.307 215.282 261.969 216.128 261.952 216.399 261.946 216.669 261.981 216.938 262.018 216.892 262.889 216.861 263.606 216.383 264.363 216.143 264.607 215.925 264.813 215.599 264.94 215.036 265.159 214.416 265.033 213.887 264.79 213.736 264.566 213.615 264.348 213.568 264.079 213.49 263.625 213.666 263.28 213.918 262.922Z" fill="#00537A"/><path d="M204.688 268.003C204.541 267.377 204.443 266.724 204.435 266.08 204.434 266.021 204.435 265.962 204.436 265.903 204.437 265.844 204.439 265.785 204.441 265.727 204.443 265.668 204.447 265.609 204.451 265.55 204.455 265.491 204.459 265.433 204.465 265.374 204.47 265.315 204.476 265.257 204.483 265.198 204.49 265.14 204.497 265.081 204.506 265.023 204.514 264.964 204.523 264.906 204.533 264.848 204.542 264.79 204.553 264.732 204.564 264.674 204.575 264.616 204.587 264.559 204.599 264.501 204.612 264.443 204.625 264.386 204.639 264.329 204.653 264.272 204.667 264.214 204.683 264.158 204.698 264.101 204.714 264.044 204.731 263.987 204.747 263.931 204.765 263.875 204.783 263.819 204.801 263.763 204.82 263.707 204.839 263.651 204.859 263.595 204.879 263.54 204.899 263.485 204.92 263.43 204.942 263.375 204.964 263.32 204.986 263.266 205.009 263.211 205.032 263.157 205.056 263.103 205.08 263.05 205.105 262.996 205.129 262.943 205.155 262.89 205.181 262.837 205.207 262.784 205.234 262.731 205.261 262.679 205.288 262.627 205.316 262.575 205.345 262.524 205.374 262.472 205.403 262.421 205.433 262.37 205.463 262.319 205.493 262.269 205.524 262.219 205.555 262.169 205.587 262.119 205.619 262.07 205.652 262.021 205.685 261.972 205.718 261.923 205.752 261.875 205.786 261.827 205.82 261.779 205.855 261.732 205.89 261.685 205.926 261.638 205.962 261.591 205.998 261.545 206.035 261.499 206.072 261.453 206.11 261.408 206.148 261.363 206.186 261.318 206.225 261.273 206.264 261.229 206.303 261.185 206.343 261.142 206.383 261.099 206.423 261.056 206.464 261.013 206.505 260.971 207.976 259.468 209.832 258.664 211.934 258.633 211.949 259.392 212.013 260.235 211.915 260.987L211.852 261.233 211.755 261.16C211.414 261.285 210.468 262.399 210.3 262.743 210.277 262.791 210.26 262.838 210.243 262.889 209.853 263.205 209.504 263.57 209.134 263.909 208.048 264.903 206.989 265.927 205.898 266.914 205.513 267.263 205.112 267.711 204.688 268.003Z" fill="#FFBA42"/><path d="M204.688 268.003C205.112 267.711 205.513 267.263 205.898 266.914 206.989 265.927 208.048 264.903 209.134 263.909 209.504 263.57 209.853 263.205 210.243 262.889 210.132 263.508 210.09 264.068 210.471 264.613 210.743 265.002 211.146 265.28 211.52 265.562L211.749 265.584 211.854 265.568 211.848 267.287C210.62 267.28 209.392 267.293 208.165 267.326L208.24 267.534C208.535 268.523 208.362 270.503 208.718 271.262 208.797 271.429 208.925 271.534 209.083 271.622 209.165 271.669 209.249 271.709 209.335 271.745L211.849 271.832 211.877 271.841C211.88 272.294 211.89 272.749 211.884 273.203 211.89 273.436 211.919 273.692 211.858 273.918L211.766 273.962C210.734 273.917 209.793 273.661 208.876 273.186 206.692 272.055 205.417 270.313 204.688 268.003Z" fill="#F5A201"/><path d="M207.806 265.6C209.027 265.494 210.29 265.625 211.52 265.562L211.749 265.584 211.854 265.568 211.848 267.287C210.62 267.28 209.392 267.293 208.165 267.326 208.041 267.327 207.927 267.319 207.804 267.303 207.671 267.1 207.777 265.89 207.806 265.6Z" fill="#FFD35B"/><path d="M203.527 334.664 203.544 334.63C203.567 334.617 203.588 334.598 203.614 334.59 203.736 334.552 204.146 334.647 204.298 334.657 204.588 334.675 204.863 334.655 205.151 334.621 205.692 334.568 206.251 334.595 206.795 334.597L209.768 334.607C210.558 334.594 211.348 334.589 212.138 334.591 212.816 334.59 213.504 334.564 214.18 334.6 215.216 334.644 216.259 334.624 217.296 334.625 217.881 334.625 218.521 334.673 219.099 334.604 219.551 334.707 220.112 334.674 220.579 334.681L220.634 334.722C220.65 334.843 220.66 334.969 220.684 335.089 220.735 335.681 220.686 336.315 220.684 336.912L203.568 336.906C203.54 336.159 203.564 335.411 203.527 334.664Z" fill="#138AAA"/><path d="M211.915 260.987C212.406 261.239 213.676 262.445 213.918 262.922 213.666 263.28 213.49 263.625 213.568 264.079 213.615 264.348 213.736 264.566 213.887 264.79 214.416 265.033 215.036 265.159 215.599 264.94 215.925 264.813 216.143 264.607 216.383 264.363 216.784 264.673 217.143 265.114 217.505 265.476 218.171 266.142 218.883 266.794 219.507 267.499 218.894 269.954 218.037 271.616 215.789 272.963 214.844 273.529 212.861 274.21 211.766 273.962L211.858 273.918C211.919 273.692 211.89 273.436 211.884 273.203 211.89 272.749 211.88 272.294 211.877 271.841L211.849 271.832 209.335 271.745C209.249 271.709 209.165 271.669 209.083 271.622 208.925 271.534 208.797 271.429 208.718 271.262 208.362 270.503 208.535 268.523 208.24 267.534L208.165 267.326C209.392 267.293 210.62 267.28 211.848 267.287L211.854 265.568 211.749 265.584 211.52 265.562C211.146 265.28 210.743 265.002 210.471 264.613 210.09 264.068 210.132 263.508 210.243 262.889 210.26 262.838 210.277 262.791 210.3 262.743 210.468 262.399 211.414 261.285 211.755 261.16L211.852 261.233 211.915 260.987Z" fill="#C06617"/><path d="M210.243 262.889C210.26 262.838 210.277 262.791 210.3 262.743 210.468 262.399 211.414 261.285 211.755 261.16L211.852 261.233 211.859 261.418C212.409 262.078 212.99 262.914 212.904 263.82 212.866 264.223 212.697 264.597 212.37 264.846 212.23 264.953 212.076 265.022 211.913 265.084 211.89 265.245 211.869 265.406 211.854 265.568L211.749 265.584 211.52 265.562C211.146 265.28 210.743 265.002 210.471 264.613 210.09 264.068 210.132 263.508 210.243 262.889Z" fill="#00537A"/><path d="M211.593 262.054C211.718 261.872 211.704 261.663 211.811 261.479 211.93 262.319 212.01 264.259 211.913 265.084 211.89 265.245 211.869 265.406 211.854 265.568L211.749 265.584C211.595 265.218 211.589 264.866 211.619 264.477 211.772 263.856 211.621 262.718 211.593 262.054Z" fill="#38A9BE"/><path d="M211.593 262.054C211.621 262.718 211.772 263.856 211.619 264.477 211.485 264.398 211.362 264.303 211.25 264.194 211.006 263.96 210.849 263.674 210.856 263.329 210.867 262.801 211.229 262.393 211.593 262.054Z" fill="#56DDED"/><path d="M211.854 265.568C212.685 265.573 213.515 265.566 214.346 265.548 214.94 265.539 215.547 265.506 216.139 265.572 216.142 265.903 216.211 267.097 216.105 267.317L216.036 267.365C215.954 267.421 215.876 267.455 215.783 267.491 215.75 267.555 215.734 267.601 215.726 267.673 215.683 268.409 215.63 269.145 215.565 269.879 215.536 270.239 215.545 270.641 215.458 270.991 215.408 271.189 215.324 271.367 215.168 271.504 214.547 272.051 212.717 271.819 211.877 271.841L211.849 271.832 209.335 271.745C209.249 271.709 209.165 271.669 209.083 271.622 208.925 271.534 208.797 271.429 208.718 271.262 208.362 270.503 208.535 268.523 208.24 267.534L208.165 267.326C209.392 267.293 210.62 267.28 211.848 267.287L211.854 265.568Z" fill="#FFD35B"/><path d="M210.071 269.576C210.135 268.918 210.03 268.247 210.096 267.588 210.184 267.519 210.319 267.528 210.43 267.515 210.427 268.363 210.36 269.287 210.43 270.128 210.449 270.349 210.769 270.731 210.652 270.899 210.561 270.926 210.54 270.914 210.455 270.864 210.269 270.756 210.147 270.571 210.057 270.382L210.071 269.576Z" fill="#F5A201"/><path d="M211.854 265.568C212.685 265.573 213.515 265.566 214.346 265.548 214.94 265.539 215.547 265.506 216.139 265.572 216.142 265.903 216.211 267.097 216.105 267.317 215.646 267.212 215.037 267.283 214.563 267.289 213.66 267.306 212.756 267.316 211.853 267.318L211.852 267.443 211.845 267.482C211.4 267.488 210.864 267.441 210.43 267.515 210.319 267.528 210.184 267.519 210.096 267.588 210.03 268.247 210.135 268.918 210.071 269.576 210.012 268.902 210.045 268.202 210.044 267.525 209.443 267.516 208.841 267.53 208.24 267.534L208.165 267.326C209.392 267.293 210.62 267.28 211.848 267.287L211.854 265.568Z" fill="#FFBA42"/><path d="M211.853 267.318C212.756 267.316 213.66 267.306 214.563 267.289 215.037 267.283 215.646 267.212 216.105 267.317L216.036 267.365C215.954 267.421 215.876 267.455 215.783 267.491 215.75 267.555 215.734 267.601 215.726 267.673 215.683 268.409 215.63 269.145 215.565 269.879 215.536 270.239 215.545 270.641 215.458 270.991 215.408 271.189 215.324 271.367 215.168 271.504 214.547 272.051 212.717 271.819 211.877 271.841L211.849 271.832C211.874 271.719 211.875 271.589 211.886 271.474 211.835 270.145 211.861 268.812 211.845 267.482L211.852 267.443 211.853 267.318Z" fill="#FFBA42"/><path d="M211.853 267.318C212.756 267.316 213.66 267.306 214.563 267.289 215.037 267.283 215.646 267.212 216.105 267.317L216.036 267.365C215.954 267.421 215.876 267.455 215.783 267.491 215.75 267.555 215.734 267.601 215.726 267.673 215.714 267.612 215.723 267.529 215.663 267.498 215.385 267.356 214.298 267.457 213.927 267.463 213.945 268.134 213.981 268.826 213.939 269.495 213.948 269.839 214.05 270.457 213.789 270.729 213.714 270.808 213.612 270.868 213.517 270.917 213.03 270.951 212.396 270.875 211.941 271.048L211.94 271.092C211.936 271.228 211.919 271.342 211.886 271.474 211.835 270.145 211.861 268.812 211.845 267.482L211.852 267.443 211.853 267.318Z" fill="#F5A201"/><path d="M213.555 267.469C213.674 267.474 213.784 267.454 213.885 267.522 213.974 268.168 213.879 268.843 213.939 269.495 213.948 269.839 214.05 270.457 213.789 270.729 213.714 270.808 213.612 270.868 213.517 270.917 213.556 269.769 213.541 268.618 213.555 267.469Z" fill="#C06617"/><path d="M188.975 268.079C190.104 267.113 191.411 266.305 192.695 265.563 196.732 263.23 200.738 261.74 205.343 260.931 203.91 262.887 203.294 265.009 203.667 267.434 203.712 267.725 203.767 268.04 203.853 268.321 204.665 270.897 205.897 272.631 208.339 273.906 210.313 274.936 212.485 275.176 214.619 274.504 216.714 273.845 218.548 272.253 219.545 270.304 219.824 269.759 220.027 269.177 220.214 268.595 220.293 268.389 220.325 268.145 220.365 267.928 220.863 265.205 220.121 263.242 218.592 261.032 219.474 261.084 220.356 261.302 221.212 261.51 224.739 262.368 228.253 263.648 231.382 265.512 231.938 265.843 232.535 266.188 233.031 266.604 233.045 266.606 233.059 266.608 233.073 266.609 234.165 266.739 235.526 266.435 236.321 267.422 236.454 267.587 236.558 267.785 236.662 267.97 236.911 268.091 237.135 268.202 237.349 268.379 237.639 268.678 237.771 268.944 237.911 269.335 237.961 269.833 237.955 270.3 237.872 270.794 238.049 270.761 238.101 270.794 238.246 270.895 239.203 271.565 240.138 272.729 240.901 273.611 241.037 273.768 241.172 273.927 241.305 274.086 241.439 274.246 241.571 274.406 241.701 274.568 241.832 274.73 241.961 274.893 242.089 275.057 242.217 275.221 242.343 275.386 242.468 275.552 242.592 275.719 242.716 275.886 242.837 276.054 242.959 276.223 243.08 276.392 243.198 276.563 243.317 276.734 243.435 276.905 243.55 277.078 243.666 277.25 243.781 277.424 243.893 277.599 244.006 277.773 244.117 277.949 244.227 278.126 244.337 278.302 244.445 278.48 244.551 278.659 244.658 278.837 244.763 279.017 244.866 279.197 244.969 279.377 245.071 279.559 245.171 279.741 245.271 279.923 245.37 280.106 245.467 280.29 245.564 280.474 245.659 280.659 245.753 280.844 245.846 281.03 245.938 281.216 246.029 281.404 246.119 281.591 246.208 281.779 246.295 281.968 246.382 282.156 246.467 282.346 246.551 282.536 246.635 282.727 246.717 282.918 246.797 283.109 246.877 283.301 246.956 283.494 247.033 283.687 247.11 283.88 247.185 284.074 247.259 284.268 247.332 284.463 247.404 284.658 247.474 284.853 247.544 285.049 247.613 285.245 247.679 285.442 247.746 285.639 247.811 285.837 247.874 286.035 247.937 286.233 247.998 286.432 248.058 286.631 248.118 286.83 248.176 287.03 248.232 287.23 248.288 287.43 248.342 287.631 248.395 287.832 248.447 288.033 248.498 288.235 248.547 288.437 248.596 288.639 248.643 288.841 248.689 289.044 248.734 289.247 248.778 289.45 248.82 289.654 248.862 289.857 248.902 290.061 248.94 290.266 248.978 290.47 249.015 290.675 249.049 290.88 249.084 291.085 249.117 291.29 249.148 291.496 249.24 292.089 249.353 292.732 249.378 293.332 249.889 294.133 250.322 294.951 250.566 295.876 250.65 296.193 250.693 296.519 250.775 296.835 250.813 296.985 250.943 297.092 250.901 297.259 250.88 297.343 250.85 297.38 250.788 297.437 250.653 297.735 250.728 298.332 250.708 298.672 250.627 300.126 250.077 301.397 249.28 302.602 249.177 304.3 248.873 305.993 248.474 307.644 246.919 314.071 243.499 319.803 238.836 324.468 239.331 324.972 239.83 325.473 240.331 325.973 240.778 325.583 241.203 325.125 241.681 324.779 242.074 326.003 242.459 327.229 242.838 328.457 243.026 329.069 243.264 329.709 243.383 330.337L240.285 328.952C239.585 328.64 238.869 328.352 238.185 328.007 238.523 327.665 238.865 327.328 239.213 326.996 238.715 326.468 238.166 325.963 237.718 325.394 237.057 326.095 236.29 326.708 235.543 327.316 235.308 327.508 235.07 327.697 234.829 327.883 234.589 328.069 234.347 328.253 234.102 328.433 233.857 328.613 233.611 328.79 233.362 328.965 233.113 329.139 232.862 329.311 232.609 329.479 232.356 329.647 232.101 329.813 231.844 329.975 231.587 330.137 231.328 330.296 231.067 330.452 230.806 330.608 230.543 330.761 230.279 330.911 230.014 331.06 229.748 331.207 229.48 331.35 229.212 331.493 228.942 331.633 228.671 331.77 228.399 331.907 228.127 332.04 227.852 332.17 227.577 332.301 227.301 332.427 227.023 332.551 226.746 332.675 226.467 332.795 226.186 332.912 225.905 333.028 225.624 333.142 225.34 333.252 225.057 333.362 224.772 333.469 224.487 333.572 224.201 333.675 223.914 333.775 223.625 333.871 223.337 333.967 223.048 334.06 222.757 334.149 222.419 334.251 220.761 334.68 220.734 334.71 220.669 334.78 220.684 334.996 220.684 335.089 220.66 334.969 220.65 334.843 220.634 334.722L220.579 334.681C220.112 334.674 219.551 334.707 219.099 334.604 218.521 334.673 217.881 334.625 217.296 334.625 216.259 334.624 215.216 334.644 214.18 334.6 213.504 334.564 212.816 334.59 212.138 334.591 211.348 334.589 210.558 334.594 209.768 334.607L206.795 334.597C206.251 334.595 205.692 334.568 205.151 334.621 204.863 334.655 204.588 334.675 204.298 334.657 204.146 334.647 203.736 334.552 203.614 334.59 203.588 334.598 203.567 334.617 203.544 334.63L203.527 334.664C203.515 334.666 203.504 334.668 203.493 334.668 203.07 334.682 201.76 334.207 201.292 334.073 195.985 332.547 190.383 329.546 186.414 325.687 185.938 326.33 185.33 326.879 184.762 327.44 184.369 327.239 183.933 326.736 183.624 326.417 184.282 325.756 184.934 325.088 185.581 324.415 185.352 324.381 185.124 324.399 184.894 324.413 184.867 322.98 184.821 321.295 184.928 319.883 184.926 318.925 185.076 318.061 185.608 317.245 186.12 316.459 186.967 315.959 187.877 315.764L187.969 315.7C187.959 315.604 187.985 315.528 188.01 315.436 187.956 315.426 187.94 315.411 187.891 315.438 187.336 315.747 186.681 315.928 186.105 316.217 185.892 316.382 185.678 316.545 185.491 316.74 184.194 318.087 184.282 319.508 184.295 321.24 184.299 322.13 184.307 323.019 184.32 323.909 183.872 323.457 183.463 322.953 183.046 322.472 182.82 322.213 182.598 321.95 182.381 321.685 182.163 321.419 181.95 321.151 181.74 320.879 181.531 320.606 181.325 320.331 181.124 320.053 180.923 319.775 180.726 319.494 180.533 319.209 180.341 318.925 180.152 318.638 179.969 318.348 179.785 318.058 179.605 317.766 179.43 317.47 179.255 317.175 179.084 316.877 178.918 316.576 178.752 316.276 178.591 315.973 178.434 315.668 178.277 315.362 178.125 315.054 177.977 314.744 177.83 314.434 177.687 314.122 177.549 313.808 177.411 313.493 177.277 313.177 177.149 312.859 177.02 312.54 176.897 312.22 176.778 311.898 176.659 311.576 176.545 311.252 176.436 310.926 176.327 310.601 176.223 310.274 176.124 309.945 176.025 309.616 175.931 309.286 175.842 308.954 175.753 308.623 175.669 308.29 175.59 307.956 175.291 306.71 175.039 305.472 174.904 304.197 174.794 303.861 174.789 303.036 174.763 302.651 173.888 301.463 173.283 300.17 173.083 298.696 172.794 296.574 173.58 294.642 174.849 292.985 174.903 292.534 174.898 292.058 174.985 291.614 175.017 291.368 175.051 291.123 175.089 290.878 175.126 290.633 175.166 290.388 175.209 290.144 175.252 289.9 175.297 289.656 175.346 289.413 175.394 289.17 175.445 288.928 175.498 288.686 175.552 288.444 175.608 288.202 175.667 287.962 175.726 287.721 175.788 287.481 175.852 287.242 175.917 287.002 175.984 286.764 176.053 286.526 176.123 286.288 176.195 286.051 176.27 285.815 176.345 285.578 176.422 285.343 176.502 285.108 176.583 284.874 176.665 284.64 176.751 284.408 176.836 284.175 176.924 283.943 177.014 283.712 177.105 283.482 177.198 283.252 177.293 283.023 177.389 282.794 177.487 282.567 177.587 282.34 177.688 282.114 177.791 281.889 177.897 281.664 178.002 281.44 178.11 281.217 178.221 280.995 178.331 280.773 178.444 280.553 178.56 280.333 178.675 280.114 178.793 279.896 178.913 279.679 179.034 279.463 179.156 279.247 179.281 279.033 179.407 278.819 179.534 278.607 179.664 278.396 179.793 278.185 179.926 277.975 180.06 277.767 180.194 277.559 180.331 277.352 180.47 277.147 180.609 276.941 180.751 276.738 180.894 276.536 181.038 276.334 181.183 276.133 181.331 275.935 181.479 275.736 181.63 275.539 181.782 275.343 181.934 275.148 182.089 274.954 182.246 274.762 182.402 274.57 182.561 274.38 182.722 274.191 182.883 274.003 183.046 273.816 183.211 273.631 183.376 273.446 183.543 273.263 183.712 273.082 183.881 272.901 184.052 272.721 184.225 272.544 184.398 272.367 184.573 272.191 184.75 272.017 184.927 271.844 185.106 271.673 185.287 271.503 185.468 271.333 185.651 271.166 185.835 271 186.192 271.367 186.573 271.716 186.92 272.091 187.002 271.59 187.139 271.093 187.288 270.608 187.073 270.384 186.866 270.154 186.667 269.916 187.401 269.253 188.185 268.674 188.975 268.079Z" fill="#00537A"/><path d="M219.113 334.561C219.511 334.501 220.106 334.35 220.49 334.498 220.53 334.56 220.557 334.611 220.579 334.681 220.112 334.674 219.551 334.707 219.099 334.604L219.113 334.561Z" fill="#013C58"/><path d="M202.597 319.881C202.614 320.149 202.501 320.383 202.328 320.584 202.156 320.784 201.955 320.93 201.722 321.05 201.524 321.05 201.229 321.088 201.083 320.931 201.046 320.891 201.041 320.873 201.017 320.825 201.176 320.824 201.344 320.804 201.498 320.763 202.014 320.627 202.336 320.333 202.597 319.881Z" fill="#013C58"/><path d="M188.981 317.708C189.465 317.753 190.306 318.246 190.885 318.39 191.145 318.454 191.7 318.445 191.892 318.599L191.89 318.767C191.802 318.77 191.713 318.771 191.625 318.77 190.671 318.75 189.651 318.403 188.981 317.708Z" fill="#FEFDFD"/><path d="M195.362 301.537C195.748 301.622 196.144 301.621 196.537 301.621L196.534 302.357C196.227 302.409 195.828 302.468 195.531 302.364 195.404 302.32 195.313 302.247 195.265 302.117 195.199 301.941 195.272 301.691 195.362 301.537Z" fill="#013C58"/><path d="M217.492 313.059C218.02 313.494 218.531 314.02 219.006 314.514 218.819 314.458 218.724 314.351 218.592 314.215L218.128 314.409C218.374 314.65 218.673 314.878 218.79 315.209 218.189 314.648 217.542 314.009 217.037 313.359L217.492 313.059Z" fill="url(#fill1)"/><path d="M197.455 302.331C197.456 302.344 197.456 302.357 197.457 302.37 197.477 302.593 197.613 302.651 197.686 302.835 197.785 303.084 197.737 303.511 197.565 303.721 197.46 303.85 197.314 303.925 197.147 303.932 197.126 303.933 197.105 303.933 197.085 303.932 197.064 303.93 197.044 303.928 197.023 303.924 197.003 303.921 196.983 303.917 196.963 303.911 196.943 303.905 196.923 303.899 196.904 303.891 196.884 303.884 196.865 303.875 196.847 303.866 196.829 303.856 196.811 303.846 196.793 303.835 196.776 303.824 196.759 303.811 196.743 303.798 196.727 303.785 196.711 303.772 196.697 303.757 196.563 303.627 196.479 303.426 196.485 303.239 196.489 303.105 196.51 302.962 196.54 302.83 196.682 302.945 196.827 303.049 197.02 303.037 197.121 303.031 197.207 302.987 197.276 302.915 197.441 302.744 197.449 302.557 197.455 302.331Z" fill="#013C58"/><path d="M199.894 296.475 200.04 296.484C200.2 296.669 200.102 297.18 200.106 297.423 199.418 297.441 198.729 297.443 198.041 297.427L198.046 296.508C198.661 296.504 199.28 296.515 199.894 296.475Z" fill="#A8E8F9"/><path d="M195.791 315.331C197.052 315.726 198.253 316.436 198.882 317.643 199.097 318.055 199.285 318.627 199.282 319.095 199.39 319.75 199.485 323.861 199.335 324.219L199.174 324.289C199.194 322.958 199.206 321.626 199.209 320.295 199.222 319.893 199.204 319.505 199.137 319.109 199.012 318.578 198.842 318.044 198.561 317.574 197.961 316.566 196.861 315.831 195.735 315.548L195.791 315.331Z" fill="#013C58"/><path d="M237.8 271.241C238.068 271.239 238.347 271.37 238.543 271.552 238.744 271.739 238.833 272.067 238.832 272.333 238.83 272.808 238.515 273.215 238.188 273.531 238.153 273.565 238.116 273.597 238.079 273.629 238.075 273.619 238.071 273.608 238.066 273.597 237.951 273.34 237.784 273.273 237.532 273.178L237.436 272.982C237.479 272.664 237.414 272.344 237.482 272.026 237.548 271.85 237.545 271.618 237.564 271.43 237.677 271.376 237.725 271.347 237.8 271.241Z" fill="#F5A201"/><path d="M187.969 315.7 188.384 315.603C188.447 316.274 188.91 316.844 189.414 317.26 189.952 317.705 190.725 318.077 191.439 318.011 191.584 317.998 191.726 317.961 191.866 317.925 191.879 318.147 191.903 318.376 191.892 318.599 191.7 318.445 191.145 318.454 190.885 318.39 190.306 318.246 189.465 317.753 188.981 317.708 188.447 317.187 187.998 316.51 187.877 315.764L187.969 315.7Z" fill="#FFBA42"/><path d="M231.387 296.874C232.222 296.838 233.061 296.853 233.896 296.853 233.454 297.524 233.03 298.207 232.623 298.901 232.523 298.76 232.421 298.619 232.327 298.474 232.15 298.159 231.981 297.837 231.776 297.539 231.645 297.323 231.493 297.102 231.387 296.874Z" fill="#A8E8F9"/><path d="M187.44 320.284 187.476 320.342 187.485 320.307C187.578 320.725 187.516 321.277 187.517 321.71 187.519 322.593 187.539 323.48 187.511 324.362L186.787 324.362C186.752 323.013 186.786 321.653 186.788 320.303 187.008 320.306 187.221 320.299 187.44 320.284Z" fill="#013C58"/><path d="M228.471 272.089C228.621 271.828 228.794 271.583 229.062 271.431 229.284 271.305 229.469 271.275 229.714 271.338L229.829 271.39C229.92 271.604 229.875 271.794 229.846 272.018L230.153 272.017C230.153 272.317 230.177 272.642 230.126 272.937L230.001 273.039C229.909 273.116 229.866 273.15 229.855 273.274 229.834 273.512 229.921 273.763 229.933 274.001 229.576 273.836 229.227 273.61 228.954 273.325 228.599 272.956 228.46 272.591 228.471 272.089Z" fill="#FFBA42"/><path d="M229.846 272.018 230.153 272.017C230.153 272.317 230.177 272.642 230.126 272.937 230.048 272.912 229.986 272.897 229.924 272.84 229.784 272.712 229.846 272.207 229.846 272.018Z" fill="#3B789F"/><path d="M191.144 295.878C191.305 295.893 191.479 295.92 191.625 295.99 191.653 296.004 191.681 296.019 191.708 296.035 191.735 296.052 191.762 296.069 191.787 296.088 191.812 296.107 191.837 296.128 191.86 296.149 191.883 296.17 191.906 296.193 191.927 296.216 191.948 296.24 191.968 296.265 191.987 296.29 192.005 296.316 192.023 296.342 192.039 296.369 192.055 296.397 192.07 296.425 192.083 296.454 192.096 296.482 192.108 296.512 192.119 296.541 192.13 296.574 192.139 296.607 192.146 296.64 192.154 296.673 192.159 296.707 192.163 296.74 192.167 296.774 192.169 296.808 192.17 296.842 192.17 296.877 192.168 296.91 192.165 296.944 192.162 296.978 192.157 297.012 192.15 297.045 192.143 297.079 192.135 297.112 192.124 297.144 192.114 297.177 192.102 297.209 192.088 297.24 192.075 297.271 192.059 297.301 192.042 297.331 191.865 297.642 191.593 297.774 191.258 297.856 191.046 297.848 190.865 297.825 190.679 297.715 190.648 297.698 190.619 297.679 190.591 297.658 190.562 297.637 190.535 297.615 190.509 297.592 190.483 297.568 190.458 297.544 190.434 297.517 190.411 297.491 190.389 297.464 190.368 297.435 190.348 297.407 190.328 297.378 190.311 297.347 190.293 297.316 190.278 297.285 190.263 297.253 190.249 297.221 190.237 297.188 190.226 297.155 190.215 297.121 190.207 297.087 190.199 297.053 190.193 297.021 190.188 296.989 190.185 296.956 190.181 296.924 190.18 296.891 190.18 296.859 190.18 296.826 190.182 296.794 190.185 296.761 190.189 296.729 190.194 296.697 190.201 296.665 190.208 296.633 190.216 296.602 190.226 296.571 190.236 296.54 190.248 296.51 190.261 296.48 190.275 296.45 190.289 296.421 190.306 296.393 190.322 296.365 190.34 296.337 190.359 296.311 190.557 296.037 190.823 295.936 191.144 295.878Z" fill="#F5A201"/><path d="M196.535 320.283C196.799 320.317 197.055 320.322 197.321 320.321 197.32 321.634 197.282 322.963 197.347 324.274 197.113 324.291 196.865 324.292 196.636 324.347L196.565 324.352C196.493 323.902 196.533 323.393 196.532 322.938L196.535 320.283Z" fill="#013C58"/><path d="M195.17 315.43C195.358 315.477 195.542 315.523 195.735 315.548 195.703 316.408 195.256 317.166 194.639 317.746 193.837 318.499 192.951 318.669 191.89 318.767L191.892 318.599C191.903 318.376 191.879 318.147 191.866 317.925 192.959 317.642 193.86 317.593 194.654 316.673 194.889 316.4 195.057 316.039 195.024 315.673L195.17 315.43Z" fill="#F5A201"/><path d="M218.592 314.215C218.724 314.351 218.819 314.458 219.006 314.514 220.014 315.445 221.096 316.34 222.158 317.21 221.862 317.515 221.626 317.858 221.395 318.214 220.802 317.437 220.127 316.718 219.478 315.988 219.252 315.732 218.997 315.48 218.79 315.209 218.673 314.878 218.374 314.65 218.128 314.409L218.592 314.215Z" fill="#56DDED"/><path d="M235.617 296.808C235.544 295.971 236.438 294.151 236.911 293.461 238.351 291.358 240.126 290.54 242.57 290.088 242.577 290.241 242.567 290.424 242.624 290.567 240.793 290.706 239.068 291.501 237.86 292.902 237.156 293.719 236.58 294.704 236.265 295.738 236.157 296.091 236.099 296.466 235.986 296.814L235.957 296.863C235.82 296.898 235.742 296.858 235.617 296.808Z" fill="#56DDED"/><path d="M235.611 297.468 235.986 297.442C236.048 299.636 236.741 301.365 238.351 302.881 239.431 303.9 240.754 304.667 242.216 304.957L242.25 304.97 242.194 305.402C240.482 304.936 239.338 304.435 238.034 303.179 236.34 301.548 235.658 299.79 235.611 297.468Z" fill="#56DDED"/><path d="M192.5 296.46C193.966 296.448 195.432 296.488 196.898 296.487 197.895 296.487 198.897 296.431 199.894 296.475 199.28 296.515 198.661 296.504 198.046 296.508L198.041 297.427C196.202 297.49 194.34 297.421 192.498 297.428L192.5 296.46Z" fill="#138AAA"/><path d="M199.022 291.27C199.261 291.248 199.512 291.243 199.742 291.321 200.073 291.433 200.333 291.656 200.481 291.975 200.5 292.014 200.517 292.055 200.532 292.096 200.546 292.138 200.559 292.18 200.569 292.223 200.579 292.266 200.587 292.309 200.592 292.352 200.598 292.396 200.601 292.44 200.602 292.484 200.603 292.528 200.602 292.572 200.598 292.616 200.595 292.659 200.589 292.703 200.581 292.746 200.572 292.789 200.562 292.832 200.549 292.874 200.536 292.916 200.522 292.958 200.505 292.998 200.321 293.43 199.976 293.65 199.563 293.824 199.286 293.873 199.023 293.876 198.759 293.77 198.416 293.634 198.158 293.352 198.031 293.007 197.905 292.668 197.914 292.277 198.082 291.954 198.287 291.559 198.615 291.389 199.022 291.27Z" fill="#F5A201"/><path d="M233.604 278.964C233.664 278.934 233.725 278.909 233.777 278.867 234.081 279.556 234.513 280.162 234.86 280.826L234.686 281.236C234.437 281.88 234.101 282.579 233.949 283.25L233.728 283.776C233.335 282.897 233.05 281.961 232.708 281.061L232.612 280.792C233.003 280.226 233.297 279.578 233.604 278.964Z" fill="#A8E8F9"/><path d="M196.501 300.664C196.498 300.352 196.41 299.669 196.641 299.434 196.728 299.345 196.906 299.226 197.038 299.236 197.154 299.245 197.227 299.285 197.295 299.379 197.512 299.68 197.432 300.298 197.419 300.657 197.811 300.64 198.344 300.529 198.658 300.817 198.762 300.912 198.845 301.057 198.828 301.202 198.816 301.314 198.74 301.407 198.647 301.467 198.326 301.678 197.772 301.6 197.405 301.593 197.42 301.831 197.412 302.098 197.455 302.331 197.449 302.557 197.441 302.744 197.276 302.915 197.207 302.987 197.121 303.031 197.02 303.037 196.827 303.049 196.682 302.945 196.54 302.83L196.534 302.357 196.537 301.621C196.144 301.621 195.748 301.622 195.362 301.537 195.252 301.408 195.159 301.251 195.174 301.073 195.183 300.964 195.246 300.888 195.329 300.823 195.64 300.584 196.141 300.669 196.501 300.664Z" fill="#F5A201"/><path d="M230.845 297.523 230.985 297.559C231.106 297.772 230.967 298.209 230.952 298.453 228.871 298.379 226.771 298.465 224.687 298.454L224.684 297.559C226.731 297.535 228.802 297.635 230.845 297.523Z" fill="#38A9BE"/><path d="M220.405 278.309C220.741 278.588 221.084 278.853 221.434 279.114L221.432 280.425 220.588 279.83C219.78 280.589 219.01 281.386 218.231 282.175 217.896 282.515 217.539 282.837 217.212 283.184 217.217 282.739 217.221 282.297 217.257 281.853 218.144 281.041 219.068 280.153 219.866 279.254 219.592 279.107 219.296 278.97 219.052 278.777 219.495 278.588 219.946 278.452 220.405 278.309Z" fill="#38A9BE"/><path d="M218.156 312.55C218.159 312.036 218.227 311.515 218.266 311.001 218.346 309.929 218.43 308.861 218.541 307.79 218.729 305.977 218.89 304.182 219.143 302.375 219.245 305.772 219.136 309.172 219.19 312.57 218.115 312.633 216.98 312.606 215.901 312.576 216.457 312.43 217.553 312.533 218.156 312.55Z" fill="#A8E8F9"/><path d="M206.738 312.928C207.015 313.142 207.288 313.355 207.547 313.591 206.926 314.31 206.212 314.97 205.541 315.644 204.786 316.411 204.04 317.187 203.303 317.972 203.278 318 203.238 318.018 203.206 318.037 202.976 317.919 202.72 317.511 202.555 317.307 203.055 316.69 203.669 316.139 204.232 315.578 205.099 314.714 205.935 313.853 206.738 312.928Z" fill="#38A9BE"/><path d="M224.462 291.463C224.83 291.701 226.333 293.568 226.681 294.026L225.682 294.013C225.433 293.817 225.202 293.592 224.966 293.381 224.981 293.942 225.01 294.534 224.948 295.091 224.862 295.169 224.799 295.15 224.688 295.156L224.074 295.136C224.056 294.552 224.082 293.967 224.064 293.382 223.768 293.572 223.5 293.82 223.231 294.047 222.94 294.045 222.649 294.039 222.359 294.029 223.029 293.152 223.76 292.315 224.462 291.463Z" fill="#F5A201"/><path d="M223.139 318.456C223.388 318.211 223.735 317.942 224.104 317.941 224.213 317.94 224.258 317.96 224.336 318.034 224.347 318.146 224.316 318.221 224.247 318.308 224.111 318.48 223.905 318.668 223.727 318.799 223.872 319.072 223.984 319.313 224.029 319.624 224.083 319.992 224.037 320.385 223.8 320.685 223.59 320.952 223.262 321.102 222.929 321.138 222.562 321.179 222.182 321.079 221.894 320.845 221.635 320.634 221.484 320.332 221.46 320.001 221.458 319.975 221.456 319.95 221.456 319.924 221.455 319.899 221.455 319.873 221.455 319.848 221.456 319.822 221.457 319.797 221.459 319.771 221.461 319.746 221.464 319.721 221.467 319.695 221.47 319.67 221.474 319.645 221.478 319.62 221.483 319.594 221.488 319.569 221.493 319.545 221.499 319.52 221.505 319.495 221.512 319.471 221.519 319.446 221.527 319.422 221.535 319.398 221.543 319.373 221.552 319.349 221.562 319.326 221.571 319.302 221.581 319.278 221.592 319.255 221.602 319.232 221.613 319.209 221.625 319.186 221.637 319.164 221.649 319.142 221.662 319.12 221.675 319.098 221.688 319.076 221.702 319.054 221.716 319.033 221.731 319.012 221.746 318.992 221.761 318.971 221.776 318.951 221.792 318.931 221.809 318.911 221.825 318.892 221.842 318.873 222.265 318.406 222.548 318.501 223.102 318.461 223.114 318.46 223.127 318.458 223.139 318.456Z" fill="#F5A201"/><path d="M201.017 320.825C200.557 320.7 200.104 320.507 199.84 320.086 199.617 319.733 199.568 319.23 199.68 318.831 199.784 318.462 200.033 318.172 200.364 317.985 200.751 317.768 201.212 317.702 201.638 317.834 202.029 317.956 202.375 318.22 202.563 318.588 202.783 319.017 202.751 319.442 202.597 319.881 202.336 320.333 202.014 320.627 201.498 320.763 201.344 320.804 201.176 320.824 201.017 320.825Z" fill="#F5A201"/><path d="M201.438 276.476C202.423 277.572 203.46 278.606 204.508 279.641 205.367 280.49 206.26 281.317 206.991 282.282 206.994 282.705 207.006 283.13 206.987 283.552 206.287 282.678 205.377 281.888 204.584 281.093 203.284 279.79 202.009 278.464 200.68 277.19 200.922 276.938 201.173 276.704 201.438 276.476Z" fill="#38A9BE"/><path d="M199.861 286.06 199.913 286.11C200.892 287.037 201.809 288.051 202.766 289.004L205.204 291.477C205.581 291.855 205.995 292.212 206.353 292.607 206.445 292.709 206.502 292.745 206.506 292.885 206.394 293.139 206.17 293.279 205.954 293.438 205.493 293.1 205.094 292.664 204.693 292.259L203.063 290.605C201.81 289.327 200.525 288.086 199.255 286.824 199.452 286.566 199.663 286.318 199.861 286.06Z" fill="#38A9BE"/><path d="M212.215 314.185C214.062 315.817 215.726 317.634 217.426 319.415 218.66 320.708 219.934 321.963 221.161 323.265 220.98 323.455 220.796 323.642 220.607 323.825 218.719 321.589 216.578 319.515 214.52 317.434 214.068 316.977 213.616 316.518 213.157 316.068 212.842 315.758 212.504 315.464 212.223 315.121 212.18 314.811 212.202 314.497 212.215 314.185Z" fill="#F5A201"/><path d="M201.077 272.535C201.436 272.508 201.819 272.591 202.129 272.778 202.518 273.013 202.784 273.396 202.888 273.836 203 274.315 202.924 274.82 202.646 275.229 202.335 275.686 201.899 275.86 201.379 275.961 200.954 275.978 200.594 275.908 200.236 275.663 199.856 275.402 199.573 274.986 199.495 274.529 199.49 274.501 199.486 274.472 199.483 274.444 199.48 274.416 199.477 274.388 199.475 274.359 199.474 274.331 199.473 274.302 199.472 274.274 199.472 274.245 199.472 274.217 199.473 274.189 199.474 274.16 199.476 274.132 199.479 274.103 199.481 274.075 199.484 274.047 199.488 274.019 199.492 273.99 199.497 273.962 199.502 273.934 199.507 273.906 199.513 273.879 199.52 273.851 199.527 273.823 199.534 273.796 199.542 273.769 199.55 273.741 199.559 273.714 199.569 273.688 199.578 273.661 199.588 273.634 199.599 273.608 199.61 273.581 199.621 273.555 199.633 273.53 199.645 273.504 199.658 273.478 199.672 273.453 199.685 273.428 199.699 273.404 199.714 273.379 199.728 273.355 199.743 273.331 199.759 273.307 199.775 273.283 199.791 273.26 199.808 273.237 200.13 272.8 200.561 272.623 201.077 272.535Z" fill="#F5A201"/><path d="M205.151 301.665C205.285 301.672 205.382 301.655 205.493 301.733 205.591 302.168 205.607 302.626 205.649 303.07L205.853 305.103C205.936 305.891 206.048 306.677 206.122 307.466 206.224 308.547 206.283 309.633 206.373 310.715 206.425 311.339 206.529 311.965 206.564 312.589 206.06 312.6 205.554 312.595 205.049 312.596L205.109 304.684C205.115 303.681 205.192 302.666 205.151 301.665Z" fill="#A8E8F9"/><path d="M226.274 300.641C226.596 300.623 226.888 300.638 227.193 300.757 227.754 300.975 228.005 301.444 228.223 301.968 228.527 301.965 228.829 301.944 229.062 302.173 229.167 302.276 229.231 302.414 229.213 302.564 229.196 302.71 229.109 302.821 228.993 302.904 228.753 303.075 228.487 303.043 228.212 303.003 228.043 303.36 227.857 303.64 227.558 303.903 227.451 303.963 227.342 304.024 227.228 304.069 226.809 304.235 226.283 304.232 225.871 304.047 225.426 303.848 225.089 303.446 224.933 302.987 224.923 302.958 224.914 302.929 224.906 302.9 224.898 302.87 224.89 302.841 224.883 302.811 224.877 302.781 224.87 302.751 224.865 302.721 224.86 302.691 224.855 302.661 224.852 302.631 224.848 302.6 224.845 302.57 224.843 302.54 224.84 302.509 224.839 302.479 224.838 302.448 224.838 302.418 224.838 302.387 224.839 302.357 224.839 302.326 224.841 302.295 224.843 302.265 224.846 302.234 224.849 302.204 224.853 302.174 224.857 302.144 224.862 302.113 224.867 302.083 224.873 302.053 224.879 302.023 224.886 301.994 224.893 301.964 224.901 301.934 224.909 301.905 224.918 301.876 224.927 301.847 224.937 301.818 224.947 301.789 224.957 301.76 224.969 301.732 224.98 301.704 224.992 301.676 225.005 301.648 225.018 301.62 225.032 301.593 225.046 301.566 225.313 301.056 225.744 300.805 226.274 300.641Z" fill="#F5A201"/><path d="M196.314 310.87C196.718 311.336 197.009 311.833 197.363 312.331 197.409 313.272 197.385 314.223 197.385 315.165 197.101 315.166 196.805 315.149 196.523 315.171 195.956 315.164 195.365 315.195 194.802 315.123 194.456 315.003 194.023 314.978 193.659 314.966L193.447 314.876 193.406 314.821C193.36 314.49 193.353 314.173 193.428 313.847 194.366 313.219 195.126 312.349 195.442 311.255 195.834 311.261 196.031 311.126 196.314 310.87Z" fill="#F5A201"/><path d="M212.168 313.556C212.168 313.772 212.175 313.971 212.215 314.185 212.202 314.497 212.18 314.811 212.223 315.121 211.285 315.86 210.483 316.847 209.638 317.696 208.395 318.943 207.176 320.201 205.959 321.473 205.514 321.936 205.029 322.369 204.607 322.853 204.5 322.976 204.425 323.097 204.356 323.243 203.833 323.243 203.31 323.249 202.786 323.262 203.727 322.225 204.726 321.267 205.703 320.267L209.849 315.968C210.625 315.168 211.429 314.39 212.168 313.556Z" fill="#FFBA42"/><path d="M231.633 276.197C231.653 276.206 231.672 276.214 231.691 276.223 231.916 276.326 232.108 276.499 232.33 276.612 233.036 276.97 234.087 276.991 234.825 276.726 235.197 276.592 235.528 276.391 235.851 276.166 235.894 276.522 235.923 277.073 236.11 277.382 236.222 277.695 235.059 280.375 234.86 280.826 234.513 280.162 234.081 279.556 233.777 278.867 233.725 278.909 233.664 278.934 233.604 278.964 233.297 279.578 233.003 280.226 232.612 280.792 232.311 280.058 232.017 279.321 231.729 278.581 231.6 278.254 231.397 277.863 231.338 277.521 231.321 277.424 231.332 277.439 231.382 277.365 231.568 277.136 231.599 276.499 231.633 276.197Z" fill="#FEFDFD"/><path d="M231.633 276.197C231.653 276.206 231.672 276.214 231.691 276.223 231.916 276.326 232.108 276.499 232.33 276.612 233.036 276.97 234.087 276.991 234.825 276.726 235.197 276.592 235.528 276.391 235.851 276.166 235.894 276.522 235.923 277.073 236.11 277.382 235.876 277.464 235.638 277.657 235.426 277.789 235.034 278.036 234.49 278.288 234.033 278.374 233.138 278.543 232.095 277.835 231.382 277.365 231.568 277.136 231.599 276.499 231.633 276.197Z" fill="#FFBA42"/><path d="M188.609 315.089C188.976 315.038 189.722 314.837 190.048 314.929L190.045 314.969 190.23 315.16C190.679 315.309 191.099 315.481 191.578 315.512 192.277 315.557 192.921 315.332 193.447 314.876L193.659 314.966C194.023 314.978 194.456 315.003 194.802 315.123 194.924 315.211 195.085 315.304 195.17 315.43L195.024 315.673C195.057 316.039 194.889 316.4 194.654 316.673 193.86 317.593 192.959 317.642 191.866 317.925 191.726 317.961 191.584 317.998 191.439 318.011 190.725 318.077 189.952 317.705 189.414 317.26 188.91 316.844 188.447 316.274 188.384 315.603L187.969 315.7C187.959 315.604 187.985 315.528 188.01 315.436 188.205 315.313 188.411 315.207 188.609 315.089Z" fill="url(#fill2)"/><path d="M191.391 316.906C191.191 316.889 190.996 316.853 190.804 316.796 190.306 316.653 189.523 316.302 189.283 315.821 189.225 315.706 189.215 315.57 189.272 315.452 189.407 315.177 189.777 315.068 190.045 314.969L190.23 315.16C190.399 315.645 191.41 316.541 191.471 316.823 191.445 316.855 191.427 316.885 191.391 316.906Z" fill="#FEFDFD"/><path d="M188.384 315.603 188.486 315.613C188.706 315.923 188.918 316.26 189.194 316.524 189.658 316.967 190.458 317.288 191.083 317.395 191.147 317.406 191.211 317.416 191.275 317.424 191.339 317.431 191.403 317.438 191.468 317.442 191.532 317.447 191.597 317.45 191.661 317.452 191.726 317.453 191.79 317.453 191.855 317.451 191.919 317.45 191.984 317.446 192.048 317.441 192.113 317.437 192.177 317.43 192.241 317.422 192.305 317.414 192.369 317.404 192.433 317.393 192.496 317.382 192.559 317.369 192.622 317.354 192.685 317.34 192.748 317.324 192.81 317.307 192.872 317.289 192.934 317.27 192.995 317.25 193.057 317.229 193.117 317.207 193.177 317.183 193.237 317.16 193.297 317.135 193.356 317.108 193.415 317.082 193.473 317.054 193.53 317.024 193.588 316.995 193.645 316.964 193.701 316.932 193.757 316.9 193.812 316.866 193.866 316.831 193.92 316.796 193.974 316.76 194.026 316.723 194.436 316.428 194.736 316.085 195.024 315.673 195.057 316.039 194.889 316.4 194.654 316.673 193.86 317.593 192.959 317.642 191.866 317.925 191.726 317.961 191.584 317.998 191.439 318.011 190.725 318.077 189.952 317.705 189.414 317.26 188.91 316.844 188.447 316.274 188.384 315.603Z" fill="#FEFDFD"/><path d="M193.447 314.876 193.659 314.966C193.922 315.084 194.152 315.202 194.387 315.373 194.182 315.958 193.804 316.308 193.253 316.578 192.773 316.814 191.923 317.078 191.391 316.906 191.427 316.885 191.445 316.855 191.471 316.823 191.41 316.541 190.399 315.645 190.23 315.16 190.679 315.309 191.099 315.481 191.578 315.512 192.277 315.557 192.921 315.332 193.447 314.876Z" fill="#FEEABE"/><path d="M212.223 315.121C212.504 315.464 212.842 315.758 213.157 316.068 213.616 316.518 214.068 316.977 214.52 317.434 216.578 319.515 218.719 321.589 220.607 323.825 220.393 324.052 220.181 324.281 219.971 324.511 219.739 324.201 219.504 323.897 219.194 323.66 219.093 323.393 217.313 321.744 216.991 321.413 215.383 319.761 213.81 318.08 212.18 316.447L212.097 316.3C212.01 316.307 211.973 316.318 211.9 316.373 211.736 316.494 211.6 316.681 211.455 316.826 211.22 317.061 210.972 317.283 210.732 317.512 209.018 319.145 207.356 320.876 205.74 322.607 205.627 322.728 205.006 323.429 204.956 323.402 204.953 323.338 204.966 323.266 204.93 323.214 204.823 323.355 204.864 323.681 204.843 323.866 204.835 323.691 204.885 323.446 204.793 323.295 204.662 323.214 204.504 323.239 204.356 323.243 204.425 323.097 204.5 322.976 204.607 322.853 205.029 322.369 205.514 321.936 205.959 321.473 207.176 320.201 208.395 318.943 209.638 317.696 210.483 316.847 211.285 315.86 212.223 315.121Z" fill="#C06617"/><path d="M235.986 296.814C236.099 296.466 236.157 296.091 236.265 295.738 236.58 294.704 237.156 293.719 237.86 292.902 239.068 291.501 240.793 290.706 242.624 290.567 242.679 290.645 242.714 290.705 242.729 290.8 242.852 291.606 242.755 293.234 242.751 294.109 242.093 294.135 241.434 294.126 240.776 294.127 239.893 294.128 238.649 293.995 237.974 294.702 237.727 294.961 237.672 295.199 237.653 295.547 237.635 295.953 237.544 296.554 237.679 296.932L237.657 296.962C237.697 297.13 237.699 297.258 237.66 297.427 237.103 297.429 236.542 297.416 235.986 297.442L235.611 297.468C235.53 297.455 235.416 297.447 235.342 297.414 235.237 297.367 235.228 297.324 235.195 297.226 235.23 297.111 235.293 297.037 235.366 296.945 235.438 296.915 235.5 296.887 235.565 296.844 235.583 296.832 235.6 296.82 235.617 296.808 235.742 296.858 235.82 296.898 235.957 296.863L235.986 296.814Z" fill="#00537A"/><path d="M235.617 296.808C235.742 296.858 235.82 296.898 235.957 296.863L235.986 296.814 236.017 296.92C236.288 297.058 237.316 296.988 237.657 296.962 237.697 297.13 237.699 297.258 237.66 297.427 237.103 297.429 236.542 297.416 235.986 297.442L235.611 297.468C235.53 297.455 235.416 297.447 235.342 297.414 235.237 297.367 235.228 297.324 235.195 297.226 235.23 297.111 235.293 297.037 235.366 296.945 235.438 296.915 235.5 296.887 235.565 296.844 235.583 296.832 235.6 296.82 235.617 296.808Z" fill="#A8E8F9"/><path d="M242.598 289.783C242.737 289.842 242.79 289.894 242.885 290.011 242.922 290.056 242.902 290.043 242.945 290.06 245.159 290.117 247.094 290.835 248.642 292.454 248.907 292.732 249.143 293.029 249.378 293.332 249.889 294.133 250.322 294.951 250.566 295.876 250.65 296.193 250.693 296.519 250.775 296.835 250.813 296.985 250.943 297.092 250.901 297.259 250.88 297.343 250.85 297.38 250.788 297.437 250.642 297.433 250.495 297.421 250.349 297.411L249.74 297.409C249.8 297.302 249.791 297.071 249.799 296.946L249.593 296.928C249.226 296.984 248.805 296.986 248.433 296.967L248.419 296.921C248.427 296.904 248.437 296.888 248.444 296.87 248.59 296.491 248.512 295.513 248.33 295.153 248.254 295.046 248.174 294.943 248.084 294.848 247.769 294.516 247.34 294.294 246.899 294.187 246.104 293.995 244.075 294.142 243.119 294.112L242.751 294.109C242.755 293.234 242.852 291.606 242.729 290.8 242.714 290.705 242.679 290.645 242.624 290.567 242.567 290.424 242.577 290.241 242.57 290.088L242.598 289.783Z" fill="#138AAA"/><path d="M242.598 289.783C242.737 289.842 242.79 289.894 242.885 290.011 242.922 290.056 242.902 290.043 242.945 290.06 243.059 290.1 243.118 290.097 243.18 290.204L243.174 290.467C243.174 291.682 243.156 292.897 243.119 294.112L242.751 294.109C242.755 293.234 242.852 291.606 242.729 290.8 242.714 290.705 242.679 290.645 242.624 290.567 242.567 290.424 242.577 290.241 242.57 290.088L242.598 289.783Z" fill="#A8E8F9"/><path d="M242.945 290.06C245.159 290.117 247.094 290.835 248.642 292.454 248.907 292.732 249.143 293.029 249.378 293.332 249.889 294.133 250.322 294.951 250.566 295.876 250.65 296.193 250.693 296.519 250.775 296.835 250.813 296.985 250.943 297.092 250.901 297.259 250.88 297.343 250.85 297.38 250.788 297.437 250.642 297.433 250.495 297.421 250.349 297.411L249.74 297.409C249.8 297.302 249.791 297.071 249.799 296.946L249.593 296.928C249.562 296.572 249.462 294.639 249.551 294.412 249.409 294.012 248.784 293.22 248.492 292.89 247.103 291.316 245.231 290.603 243.174 290.467L243.18 290.204C243.118 290.097 243.059 290.1 242.945 290.06Z" fill="url(#fill3)"/><path d="M249.593 296.928C249.562 296.572 249.462 294.639 249.551 294.412 249.966 295.213 250.173 296.062 250.358 296.939L249.799 296.946 249.593 296.928Z" fill="#013C58"/><path d="M222.885 272.114C223.564 272.047 224.26 272.302 224.789 272.718 224.827 272.748 224.863 272.778 224.899 272.809 224.936 272.84 224.971 272.872 225.005 272.905 225.04 272.937 225.074 272.971 225.106 273.005 225.139 273.04 225.171 273.075 225.202 273.111 225.233 273.147 225.264 273.184 225.293 273.222 225.322 273.259 225.35 273.297 225.378 273.336 225.405 273.375 225.432 273.415 225.457 273.455 225.483 273.495 225.507 273.536 225.53 273.578 225.554 273.619 225.576 273.661 225.598 273.704 225.619 273.746 225.639 273.789 225.658 273.833 225.678 273.876 225.696 273.92 225.713 273.965 225.73 274.009 225.746 274.054 225.761 274.099 225.776 274.145 225.789 274.19 225.802 274.236 225.814 274.282 225.826 274.328 225.836 274.375 225.846 274.421 225.856 274.468 225.864 274.515 225.872 274.562 225.878 274.609 225.884 274.656 225.975 275.438 225.814 276.226 225.319 276.85 224.737 277.583 223.945 277.927 223.034 278.026 222.299 278.035 221.593 277.827 221.022 277.356 220.984 277.325 220.947 277.294 220.911 277.261 220.874 277.229 220.839 277.195 220.805 277.161 220.77 277.127 220.736 277.092 220.704 277.056 220.671 277.02 220.639 276.983 220.608 276.946 220.577 276.908 220.547 276.87 220.518 276.831 220.489 276.792 220.461 276.752 220.434 276.712 220.407 276.672 220.381 276.63 220.356 276.589 220.331 276.547 220.307 276.505 220.284 276.462 220.261 276.419 220.239 276.376 220.218 276.332 220.197 276.288 220.178 276.243 220.159 276.198 220.141 276.153 220.123 276.108 220.107 276.062 220.091 276.016 220.075 275.97 220.061 275.924 220.047 275.877 220.034 275.83 220.023 275.783 220.011 275.736 220 275.688 219.991 275.641 219.982 275.593 219.974 275.545 219.967 275.497 219.96 275.449 219.954 275.4 219.949 275.352 219.878 274.576 220.088 273.798 220.592 273.197 221.184 272.491 221.99 272.193 222.885 272.114Z" fill="#FEFDFD"/><path d="M222.66 273.035C222.78 273.025 222.846 273.013 222.957 273.069 222.975 273.123 222.987 273.169 222.995 273.226 222.997 273.244 222.999 273.262 223.002 273.281 223.307 273.461 223.767 273.419 224.043 273.65 224.29 273.856 224.284 274.162 224.301 274.454 223.862 274.376 223.158 274.11 222.717 274.21 222.632 274.23 222.663 274.213 222.612 274.289 222.769 274.556 223.399 274.625 223.684 274.745 223.973 274.867 224.206 275.034 224.321 275.335 224.421 275.599 224.412 275.905 224.283 276.158 224.04 276.635 223.487 276.73 223.025 276.891 223.027 277.002 223.026 277.077 222.991 277.184L222.899 277.228C222.419 277.171 222.811 276.999 222.606 276.874 222.346 276.716 221.991 276.823 221.76 276.533 221.644 276.388 221.612 276.204 221.635 276.025 221.97 275.511 222.734 276.24 223.19 275.981 223.241 275.951 223.236 275.917 223.25 275.864 223.041 275.544 222.213 275.565 221.858 275.346 221.64 275.212 221.547 275.019 221.488 274.777 221.416 274.478 221.407 274.157 221.583 273.892 221.794 273.574 222.177 273.441 222.534 273.368L222.597 273.356C222.677 273.262 222.654 273.155 222.66 273.035Z" fill="#38A9BE"/><path d="M227.506 309.159C227.173 308.507 227.048 307.54 227.114 306.816 227.2 305.878 227.584 304.978 228.321 304.371 229.307 303.56 230.751 303.176 232.014 303.302 232.982 303.398 233.927 303.836 234.543 304.601 235.204 305.421 235.452 306.399 235.337 307.436 235.306 307.718 235.22 307.993 235.194 308.272L235.188 308.342C235.008 308.629 234.817 308.917 234.594 309.173 234.537 308.738 234.489 308.31 234.488 307.871 233.158 308.14 231.922 308.242 230.737 307.466 230.161 307.088 229.698 306.603 229.296 306.048 228.921 307.097 228.544 308.137 228.293 309.225 228.267 309.027 228.272 308.819 228.094 308.693 228.024 308.644 227.986 308.656 227.904 308.652 227.681 308.76 227.598 308.936 227.506 309.159Z" fill="#013C58"/><path d="M230.663 271.319C231.177 271.311 231.7 271.292 232.214 271.323 232.771 271.357 233.326 271.438 233.886 271.432 234.706 271.422 235.617 271.172 236.431 271.308L236.77 271.312C237.034 271.348 237.303 271.377 237.564 271.43 237.545 271.618 237.548 271.85 237.482 272.026 237.414 272.344 237.479 272.664 237.436 272.982L237.532 273.178C237.784 273.273 237.951 273.34 238.066 273.597 238.071 273.608 238.075 273.619 238.079 273.629 237.883 273.771 237.692 273.902 237.478 274.017 237.26 274.28 237.123 274.61 236.953 274.906 236.666 275.404 236.276 275.787 235.851 276.166 235.528 276.391 235.197 276.592 234.825 276.726 234.087 276.991 233.036 276.97 232.33 276.612 232.108 276.499 231.916 276.326 231.691 276.223 231.672 276.214 231.653 276.206 231.633 276.197 231.399 276.01 231.166 275.82 230.936 275.627 230.503 275.155 230.127 274.617 229.933 274.001 229.921 273.763 229.834 273.512 229.855 273.274 229.866 273.15 229.909 273.116 230.001 273.039L230.126 272.937C230.177 272.642 230.153 272.317 230.153 272.017L229.846 272.018C229.875 271.794 229.92 271.604 229.829 271.39 230.104 271.355 230.386 271.342 230.663 271.319Z" fill="#FFD35B"/><path d="M237.532 273.178C237.784 273.273 237.951 273.34 238.066 273.597 238.071 273.608 238.075 273.619 238.079 273.629 237.883 273.771 237.692 273.902 237.478 274.017 237.493 273.732 237.544 273.467 237.532 273.178Z" fill="#FFBA42"/><path d="M232.975 274.878C233.327 274.99 233.659 275.093 234.025 274.976 234.188 274.925 234.308 274.87 234.469 274.944 234.495 275.047 234.476 275.039 234.429 275.127 234.248 275.249 234.077 275.34 233.859 275.377 233.615 275.418 233.337 275.423 233.134 275.259 232.994 275.146 232.99 275.043 232.975 274.878Z" fill="#A57F6F"/><path d="M230.663 271.319C231.177 271.311 231.7 271.292 232.214 271.323 232.771 271.357 233.326 271.438 233.886 271.432 234.706 271.422 235.617 271.172 236.431 271.308L236.77 271.312C237.034 271.348 237.303 271.377 237.564 271.43 237.545 271.618 237.548 271.85 237.482 272.026 237.238 271.987 237.001 271.974 236.754 271.965L236.763 272.896C236.693 273.065 236.626 273.226 236.532 273.383 236.139 273.385 234.979 273.463 234.682 273.42 234.575 273.404 234.468 273.365 234.39 273.288 234.089 272.991 234.125 272.256 234.069 271.851 233.849 271.852 233.628 271.85 233.408 271.859L233.399 271.9C233.333 272.193 233.281 273.152 233.022 273.3 232.735 273.463 231.329 273.448 231.013 273.328 230.854 273.267 230.777 273.132 230.701 272.99 230.681 272.647 230.701 272.294 230.704 271.951 230.521 271.979 230.338 271.998 230.153 272.017L229.846 272.018C229.875 271.794 229.92 271.604 229.829 271.39 230.104 271.355 230.386 271.342 230.663 271.319Z" fill="url(#fill4)"/><path d="M236.431 271.308 236.77 271.312C237.034 271.348 237.303 271.377 237.564 271.43 237.545 271.618 237.548 271.85 237.482 272.026 237.238 271.987 237.001 271.974 236.754 271.965 236.739 271.814 236.727 271.663 236.717 271.512 236.63 271.379 236.573 271.372 236.431 271.308Z" fill="#013C58"/><path d="M231.16 271.626C231.343 271.635 231.585 271.605 231.739 271.702 231.822 271.704 231.906 271.71 231.988 271.707 232.224 271.618 232.717 271.709 232.979 271.722 232.923 272.168 232.849 272.583 232.691 273.005 232.187 273.031 231.68 273.026 231.175 273.015 231.118 272.561 231.151 272.084 231.16 271.626Z" fill="#FFD35B"/><path d="M231.988 271.707C232.048 271.763 232.127 271.847 232.151 271.928 232.186 272.044 232.155 272.085 232.107 272.188 232.012 272.264 231.921 272.322 231.793 272.316 231.67 272.31 231.615 272.277 231.528 272.194 231.478 272.074 231.475 272.02 231.5 271.893 231.578 271.795 231.621 271.755 231.739 271.702 231.822 271.704 231.906 271.71 231.988 271.707Z" fill="#013C58"/><path d="M235.586 271.644C235.851 271.623 236.119 271.628 236.385 271.625 236.381 271.924 236.487 272.662 236.28 272.872 236.073 273.08 235.456 272.996 235.17 272.988 235.049 272.987 234.872 273.007 234.763 272.95 234.451 272.786 234.435 272.09 234.39 271.776 234.783 271.701 235.188 271.679 235.586 271.644Z" fill="#FFD35B"/><path d="M235.414 271.756C235.527 271.748 235.662 271.733 235.761 271.8 235.859 271.865 235.864 271.917 235.882 272.022 235.843 272.172 235.788 272.235 235.679 272.343 235.589 272.345 235.485 272.336 235.405 272.291 235.298 272.23 235.287 272.165 235.256 272.057 235.276 271.913 235.321 271.859 235.414 271.756Z" fill="#013C58"/><path d="M233.031 266.604C233.045 266.606 233.059 266.608 233.073 266.609 234.165 266.739 235.526 266.435 236.321 267.422 236.454 267.587 236.558 267.785 236.662 267.97 236.911 268.091 237.135 268.202 237.349 268.379 237.639 268.678 237.771 268.944 237.911 269.335 237.961 269.833 237.955 270.3 237.872 270.794 237.848 270.941 237.814 271.093 237.8 271.241 237.725 271.347 237.677 271.376 237.564 271.43 237.303 271.377 237.034 271.348 236.77 271.312L236.431 271.308C235.617 271.172 234.706 271.422 233.886 271.432 233.326 271.438 232.771 271.357 232.214 271.323 231.7 271.292 231.177 271.311 230.663 271.319 230.386 271.342 230.104 271.355 229.829 271.39L229.714 271.338C229.423 270.709 229.213 270.074 229.164 269.379 229.116 268.68 229.137 267.873 229.635 267.324 230.381 266.501 232.014 266.638 233.031 266.604Z" fill="#FEFDFD"/><path d="M235.323 268.168C236.006 268.571 236.389 268.982 236.592 269.767 236.72 270.265 236.773 270.798 236.77 271.312L236.431 271.308C235.617 271.172 234.706 271.422 233.886 271.432 233.326 271.438 232.771 271.357 232.214 271.323 231.7 271.292 231.177 271.311 230.663 271.319 230.22 270.012 230.249 270.105 230.296 268.754 231.268 269.277 232.278 269.465 233.355 269.143 234.056 268.933 234.695 268.533 235.323 268.168Z" fill="#FFD35B"/><path d="M229.296 306.048C229.698 306.603 230.161 307.088 230.737 307.466 231.922 308.242 233.158 308.14 234.488 307.871 234.489 308.31 234.537 308.738 234.594 309.173 234.817 308.917 235.008 308.629 235.188 308.342 235.361 308.495 235.443 308.608 235.456 308.844 235.477 309.228 235.285 309.685 235.086 310.009 234.903 310.095 234.735 310.127 234.549 310.189 234.183 311.412 233.785 312.062 232.843 312.922 232.841 312.934 232.84 312.946 232.839 312.958 232.723 314.077 233.037 314.496 232.006 315.351 231.878 315.457 231.687 315.604 231.509 315.587 231.12 315.552 230.426 314.783 230.223 314.461 230.149 314.345 230.162 314.28 230.162 314.149 230.27 313.837 230.165 313.252 230.147 312.918 229.504 312.403 228.939 311.837 228.629 311.056 228.552 310.862 228.492 310.526 228.361 310.371 228.236 310.224 227.954 310.217 227.801 310.078 227.562 309.861 227.515 309.464 227.506 309.159 227.598 308.936 227.681 308.76 227.904 308.652 227.986 308.656 228.024 308.644 228.094 308.693 228.272 308.819 228.267 309.027 228.293 309.225 228.544 308.137 228.921 307.097 229.296 306.048Z" fill="#FEFDFD"/><path d="M242.751 294.109 243.119 294.112C244.075 294.142 246.104 293.995 246.899 294.187 247.34 294.294 247.769 294.516 248.084 294.848 248.174 294.943 248.254 295.046 248.33 295.153 248.512 295.513 248.59 296.491 248.444 296.87 248.437 296.888 248.427 296.904 248.419 296.921 248.13 297.008 247.809 297.393 247.398 297.509 245.477 298.048 240.339 298.192 238.563 297.531 238.216 297.402 238.028 297.114 237.728 296.956 237.712 296.948 237.695 296.94 237.679 296.932 237.544 296.554 237.635 295.953 237.653 295.547 237.672 295.199 237.727 294.961 237.974 294.702 238.649 293.995 239.893 294.128 240.776 294.127 241.434 294.126 242.093 294.135 242.751 294.109Z" fill="#FEEABE"/><path d="M237.653 295.547C237.741 295.629 237.828 295.701 237.93 295.766 239.335 296.663 245.175 296.513 246.864 296.109 247.494 295.958 247.981 295.725 248.33 295.153 248.512 295.513 248.59 296.491 248.444 296.87 248.437 296.888 248.427 296.904 248.419 296.921 248.13 297.008 247.809 297.393 247.398 297.509 245.477 298.048 240.339 298.192 238.563 297.531 238.216 297.402 238.028 297.114 237.728 296.956 237.712 296.948 237.695 296.94 237.679 296.932 237.544 296.554 237.635 295.953 237.653 295.547Z" fill="#FFBA42"/><path d="M206.991 282.282C206.999 282.106 207.009 281.93 207.023 281.755 207.176 279.863 208.441 278.671 210.297 278.448 211.42 278.313 212.525 278.447 213.648 278.212 214.844 277.961 215.896 277.395 216.823 276.61 216.653 277.716 216.245 278.669 215.48 279.485 216.466 279.186 217.229 278.59 217.821 277.754 217.787 278.255 217.746 278.76 217.623 279.249 217.522 279.651 217.362 280.05 217.295 280.459 217.223 280.901 217.262 281.403 217.257 281.853 217.221 282.297 217.217 282.739 217.212 283.184L217.173 284.04C216.954 284.254 216.857 284.574 216.766 284.86 216.726 284.978 216.686 285.094 216.665 285.217 216.612 285.38 216.513 285.589 216.494 285.755 216.491 285.778 216.494 285.802 216.494 285.826 216.486 285.833 216.477 285.839 216.47 285.846 216.461 285.855 216.453 285.865 216.445 285.874 216.318 285.621 216.154 282.522 216.099 282.007 216.079 281.822 216.078 281.69 215.926 281.568 215.492 281.619 214.978 281.927 214.562 282.093 213.344 282.58 211.879 282.761 210.579 282.668 210.08 282.63 209.584 282.572 209.09 282.491 208.763 282.435 208.402 282.33 208.074 282.311 207.991 282.306 207.926 282.321 207.858 282.371 207.754 282.447 207.713 282.524 207.682 282.647 207.506 283.345 207.656 284.901 207.547 285.769 207.415 285.541 207.324 285.337 207.26 285.081L207.214 284.895C207.182 284.593 207.08 284.279 207.008 283.983L206.987 283.552C207.006 283.13 206.994 282.705 206.991 282.282Z" fill="#F5A201"/><path d="M207.547 285.769C207.656 284.901 207.506 283.345 207.682 282.647 207.713 282.524 207.754 282.447 207.858 282.371 207.926 282.321 207.991 282.306 208.074 282.311 208.402 282.33 208.763 282.435 209.09 282.491 209.584 282.572 210.08 282.63 210.579 282.668 211.879 282.761 213.344 282.58 214.562 282.093 214.978 281.927 215.492 281.619 215.926 281.568 216.078 281.69 216.079 281.822 216.099 282.007 216.154 282.522 216.318 285.621 216.445 285.874 216.453 285.865 216.461 285.855 216.47 285.846 216.477 285.839 216.486 285.833 216.494 285.826 216.494 285.802 216.491 285.778 216.494 285.755 216.513 285.589 216.612 285.38 216.665 285.217 216.686 285.094 216.726 284.978 216.766 284.86 216.857 284.574 216.954 284.254 217.173 284.04 217.535 284.151 217.747 284.31 217.932 284.647 218.164 285.072 218.21 285.667 218.074 286.13 217.969 286.489 217.74 286.783 217.409 286.959 217.161 287.09 216.92 287.11 216.644 287.089 216.361 288.763 215.784 289.741 214.453 290.79 214.055 291.014 213.657 291.196 213.213 291.311 211.804 291.677 210.615 291.426 209.386 290.708 208.144 289.67 207.685 288.718 207.318 287.174 206.945 287.097 206.655 287.02 206.378 286.734 206.056 286.402 205.924 285.943 205.939 285.489 205.957 284.933 206.127 284.457 206.543 284.08L207.008 283.983C207.08 284.279 207.182 284.593 207.214 284.895L207.26 285.081C207.324 285.337 207.415 285.541 207.547 285.769Z" fill="#FEFDFD"/><path d="M207.26 285.081C207.163 285.287 207.201 285.614 207.179 285.844 207.167 285.972 207.149 286.118 207.043 286.203L207.005 286.197C206.943 286.149 206.913 286.112 206.877 286.043 206.732 285.759 206.685 285.228 206.8 284.927 206.845 284.813 206.909 284.765 207.019 284.72 207.116 284.775 207.122 284.804 207.175 284.905L207.214 284.895 207.26 285.081Z" fill="#E9EDE9"/><path d="M216.766 284.86 216.835 284.869C216.943 284.788 217.013 284.694 217.151 284.706 217.335 284.931 217.297 285.295 217.271 285.571 217.248 285.812 217.189 286.154 216.989 286.316 216.975 286.327 216.959 286.335 216.944 286.345 216.855 286.311 216.855 286.315 216.821 286.231 216.695 285.92 216.781 285.552 216.665 285.217 216.686 285.094 216.726 284.978 216.766 284.86Z" fill="#E9EDE9"/><path d="M237.679 296.932C237.695 296.94 237.712 296.948 237.728 296.956 238.028 297.114 238.216 297.402 238.563 297.531 240.339 298.192 245.477 298.048 247.398 297.509 247.809 297.393 248.13 297.008 248.419 296.921L248.433 296.967C248.805 296.986 249.226 296.984 249.593 296.928L249.799 296.946C249.791 297.071 249.8 297.302 249.74 297.409L250.349 297.411C250.495 297.421 250.642 297.433 250.788 297.437 250.653 297.735 250.728 298.332 250.708 298.672 250.627 300.126 250.077 301.397 249.28 302.602 248.22 303.88 247.031 304.721 245.426 305.2 244.391 305.495 243.258 305.613 242.194 305.402L242.25 304.97 242.216 304.957C240.754 304.667 239.431 303.9 238.351 302.881 236.741 301.365 236.048 299.636 235.986 297.442 236.542 297.416 237.103 297.429 237.66 297.427 237.699 297.258 237.697 297.13 237.657 296.962L237.679 296.932Z" fill="#00537A"/><path d="M249.593 296.928 249.799 296.946C249.791 297.071 249.8 297.302 249.74 297.409L248.396 297.41C248.382 297.247 248.388 297.125 248.433 296.967 248.805 296.986 249.226 296.984 249.593 296.928Z" fill="#A8E8F9"/><path d="M242.25 304.97C243.461 305.011 244.298 305.102 245.489 304.733 245.492 304.901 245.47 305.038 245.426 305.2 244.391 305.495 243.258 305.613 242.194 305.402L242.25 304.97Z" fill="#A8E8F9"/><path d="M250.349 297.411C250.495 297.421 250.642 297.433 250.788 297.437 250.653 297.735 250.728 298.332 250.708 298.672 250.627 300.126 250.077 301.397 249.28 302.602 248.22 303.88 247.031 304.721 245.426 305.2 245.47 305.038 245.492 304.901 245.489 304.733 245.627 304.696 245.763 304.653 245.897 304.604 247.372 304.065 248.849 302.832 249.515 301.394 249.505 301.375 249.49 301.359 249.485 301.338 249.463 301.244 249.603 300.383 249.614 300.224 249.649 299.651 249.676 299.078 249.694 298.504 249.703 298.146 249.672 297.76 249.74 297.409L250.349 297.411Z" fill="#56DDED"/><path d="M249.74 297.409 250.349 297.411C250.4 298.78 250.166 300.175 249.515 301.394 249.505 301.375 249.49 301.359 249.485 301.338 249.463 301.244 249.603 300.383 249.614 300.224 249.649 299.651 249.676 299.078 249.694 298.504 249.703 298.146 249.672 297.76 249.74 297.409Z" fill="#013C58"/><path d="M237.624 300.354C238.026 300.408 238.448 300.608 238.836 300.731 240.886 301.381 244.589 301.368 246.676 300.824 247.295 300.663 247.856 300.402 248.421 300.11L248.409 300.389C248.405 300.942 248.381 301.432 247.957 301.844 247.718 302.076 247.411 302.221 247.088 302.293 246.517 302.42 245.872 302.364 245.289 302.362L242.711 302.352C241.901 302.342 241.089 302.356 240.278 302.358 239.784 302.359 239.249 302.402 238.764 302.296 238.466 302.231 238.18 302.102 237.958 301.889 237.559 301.507 237.623 301.017 237.624 300.512L237.624 300.354Z" fill="#F5A201"/><path d="M237.624 300.354C238.026 300.408 238.448 300.608 238.836 300.731 240.886 301.381 244.589 301.368 246.676 300.824 247.295 300.663 247.856 300.402 248.421 300.11L248.409 300.389C248.148 300.535 247.88 300.664 247.603 300.776 247.327 300.888 247.044 300.983 246.756 301.059 244.716 301.583 241.043 301.646 239.033 301.07 238.543 300.929 238.104 300.661 237.624 300.512L237.624 300.354Z" fill="#C06617"/><path d="M237.679 296.932C237.695 296.94 237.712 296.948 237.728 296.956 238.028 297.114 238.216 297.402 238.563 297.531 240.339 298.192 245.477 298.048 247.398 297.509 247.809 297.393 248.13 297.008 248.419 296.921L248.433 296.967C248.388 297.125 248.382 297.247 248.396 297.41 248.444 297.836 248.423 298.276 248.422 298.705L248.421 300.11C247.856 300.402 247.295 300.663 246.676 300.824 244.589 301.368 240.886 301.381 238.836 300.731 238.448 300.608 238.026 300.408 237.624 300.354L237.631 298.649C237.632 298.248 237.602 297.823 237.66 297.427 237.699 297.258 237.697 297.13 237.657 296.962L237.679 296.932Z" fill="#F5A201"/><path d="M186.186 315.109C186.18 314.953 186.176 314.797 186.174 314.641 186.139 311.7 186.166 306.102 188.352 303.884 189.281 302.941 190.61 302.495 191.917 302.484 193.138 302.475 194.349 302.837 195.23 303.713 197.3 305.773 197.361 309.591 197.363 312.331 197.009 311.833 196.718 311.336 196.314 310.87 196.031 311.126 195.834 311.261 195.442 311.255 195.126 312.349 194.366 313.219 193.428 313.847 193.353 314.173 193.36 314.49 193.406 314.821L193.447 314.876C192.921 315.332 192.277 315.557 191.578 315.512 191.099 315.481 190.679 315.309 190.23 315.16L190.045 314.969 190.048 314.929C189.722 314.837 188.976 315.038 188.609 315.089 187.801 315.082 186.994 315.106 186.186 315.109Z" fill="url(#fill5)"/><path d="M187.826 311.269 188.02 311.236 188.109 311.554C188.07 311.571 188.066 311.575 188.019 311.587 187.826 311.635 187.644 311.635 187.476 311.522L187.467 311.441C187.563 311.331 187.692 311.309 187.826 311.269Z" fill="#F5A201"/><path d="M187.826 311.269C187.713 311.261 187.602 311.251 187.501 311.192 187.282 311.065 187.141 310.82 187.093 310.575 187.039 310.295 187.079 309.988 187.253 309.756 187.411 309.547 187.618 309.535 187.857 309.493 187.876 310.051 187.869 310.696 188.02 311.236L187.826 311.269Z" fill="#FFD35B"/><path d="M195.489 308.798C195.681 308.737 195.872 308.686 196.068 308.639 196.438 309.128 196.619 309.658 196.533 310.278 196.503 310.494 196.433 310.687 196.314 310.87 196.031 311.126 195.834 311.261 195.442 311.255 195.613 310.435 195.5 309.627 195.489 308.798Z" fill="#FFD35B"/><path d="M188.399 306.195C188.664 306.635 188.96 307.03 189.362 307.355 190.937 308.627 193.517 309.008 195.489 308.798 195.5 309.627 195.613 310.435 195.442 311.255 195.126 312.349 194.366 313.219 193.428 313.847 193.353 314.173 193.36 314.49 193.406 314.821L193.447 314.876C192.921 315.332 192.277 315.557 191.578 315.512 191.099 315.481 190.679 315.309 190.23 315.16L190.045 314.969 190.048 314.929C190.142 314.67 190.079 314.293 190.067 314.02 190.056 314.015 190.044 314.01 190.034 314.005 189.106 313.528 188.436 312.511 188.109 311.554L188.02 311.236C187.869 310.696 187.876 310.051 187.857 309.493 187.84 308.387 188.143 307.262 188.399 306.195Z" fill="#FEFDFD"/><path d="M190.067 314.02C190.351 314.149 190.648 314.305 190.948 314.39 191.9 314.662 192.625 314.297 193.428 313.847 193.353 314.173 193.36 314.49 193.406 314.821L193.447 314.876C192.921 315.332 192.277 315.557 191.578 315.512 191.099 315.481 190.679 315.309 190.23 315.16L190.045 314.969 190.048 314.929C190.142 314.67 190.079 314.293 190.067 314.02Z" fill="#FFD35B"/><path d="M193.938 280.02C193.981 280.001 194.021 279.974 194.066 279.964 194.194 279.934 196.924 280.53 197.228 280.652 197.591 280.799 197.926 281.067 198.208 281.333 198.533 281.698 198.817 282.083 198.951 282.561 199.183 283.386 199.088 284.361 199.092 285.213L199.075 289.639 197.145 289.644C197.143 288.408 197.128 287.171 197.145 285.936 197.156 285.103 197.212 284.263 197.197 283.431 197.194 283.305 197.194 283.189 197.122 283.082 197.026 283.028 196.931 282.985 196.817 283.003 196.716 283.02 196.645 283.08 196.6 283.17 196.472 283.42 196.564 288.888 196.551 289.665 193.334 289.579 190.099 289.651 186.88 289.677L186.882 285.403C186.883 284.733 186.931 284.03 186.885 283.363 186.877 283.246 186.866 283.106 186.789 283.011 186.712 282.915 186.662 282.908 186.55 282.889 186.435 282.945 186.361 282.978 186.321 283.113 186.23 283.428 186.302 284.208 186.301 284.576 186.295 286.273 186.323 287.976 186.291 289.673L184.31 289.675 184.279 285.677C184.263 284.734 184.18 283.749 184.306 282.814 184.453 282.397 184.634 282.038 184.875 281.667 185.686 280.686 186.25 280.542 187.479 280.351 188.093 280.256 188.708 280.146 189.309 279.983 189.353 280.329 189.395 280.687 189.516 281.016 189.54 281.072 189.566 281.127 189.594 281.181 189.893 281.766 190.482 282.205 191.105 282.397 191.143 282.408 191.18 282.419 191.219 282.428 191.257 282.438 191.295 282.446 191.333 282.454 191.372 282.461 191.411 282.468 191.449 282.474 191.488 282.479 191.527 282.484 191.566 282.488 191.606 282.491 191.645 282.494 191.684 282.496 191.723 282.498 191.762 282.498 191.802 282.498 191.841 282.498 191.88 282.497 191.919 282.494 191.958 282.492 191.998 282.489 192.037 282.485 192.076 282.481 192.115 282.476 192.153 282.47 192.192 282.463 192.231 282.456 192.269 282.448 192.308 282.44 192.346 282.431 192.384 282.421 192.422 282.411 192.459 282.401 192.497 282.389 192.534 282.377 192.571 282.364 192.608 282.35 192.645 282.337 192.682 282.322 192.718 282.306 192.754 282.291 192.789 282.275 192.824 282.257 192.86 282.24 192.895 282.222 192.929 282.203 193.502 281.891 193.964 281.3 194.139 280.667 194.182 280.513 194.189 280.396 194.113 280.254 194.034 280.226 193.965 280.202 193.897 280.153L193.938 280.02Z" fill="#FFBA42"/><path d="M189.017 268.148C190.015 267.352 191.007 266.81 192.319 266.949 193.389 267.062 194.271 267.748 194.928 268.565 195.649 269.462 195.944 270.505 196.352 271.558 196.572 272.269 196.773 272.98 196.935 273.707 197.105 274.471 198.345 280.942 198.208 281.333 197.926 281.067 197.591 280.799 197.228 280.652 196.924 280.53 194.194 279.934 194.066 279.964 194.021 279.974 193.981 280.001 193.938 280.02L193.897 280.153C193.965 280.202 194.034 280.226 194.113 280.254 194.189 280.396 194.182 280.513 194.139 280.667 193.964 281.3 193.502 281.891 192.929 282.203 192.895 282.222 192.86 282.24 192.824 282.257 192.789 282.275 192.754 282.291 192.718 282.306 192.682 282.322 192.645 282.337 192.608 282.35 192.571 282.364 192.534 282.377 192.497 282.389 192.459 282.401 192.422 282.411 192.384 282.421 192.346 282.431 192.308 282.44 192.269 282.448 192.231 282.456 192.192 282.463 192.153 282.47 192.115 282.476 192.076 282.481 192.037 282.485 191.998 282.489 191.958 282.492 191.919 282.494 191.88 282.497 191.841 282.498 191.802 282.498 191.762 282.498 191.723 282.498 191.684 282.496 191.645 282.494 191.606 282.491 191.566 282.488 191.527 282.484 191.488 282.479 191.449 282.474 191.411 282.468 191.372 282.461 191.333 282.454 191.295 282.446 191.257 282.438 191.219 282.428 191.18 282.419 191.143 282.408 191.105 282.397 190.482 282.205 189.893 281.766 189.594 281.181 189.566 281.127 189.54 281.072 189.516 281.016 189.395 280.687 189.353 280.329 189.309 279.983 188.708 280.146 188.093 280.256 187.479 280.351 186.25 280.542 185.686 280.686 184.875 281.667 185.032 280.949 185.41 280.254 185.593 279.53 186.204 277.104 186.622 274.575 186.92 272.091 187.002 271.59 187.139 271.093 187.288 270.608 187.073 270.384 186.866 270.154 186.667 269.916 187.401 269.253 188.185 268.674 188.975 268.079L189.017 268.148Z" fill="#013C58"/><path d="M189.309 279.983C189.475 279.921 189.649 279.872 189.818 279.817 189.777 280.086 189.887 280.366 189.958 280.626 189.796 280.748 189.651 280.865 189.516 281.016 189.395 280.687 189.353 280.329 189.309 279.983Z" fill="#138AAA"/><path d="M188.975 268.079 189.017 268.148C188.204 268.858 187.698 269.611 187.288 270.608 187.073 270.384 186.866 270.154 186.667 269.916 187.401 269.253 188.185 268.674 188.975 268.079Z" fill="#138AAA"/><path d="M188.248 273.373C189.186 272.319 189.663 271.627 190.13 270.269 190.788 271.408 191.753 272.168 193.032 272.51 193.328 272.589 193.634 272.653 193.937 272.694 194.359 272.75 194.793 272.659 195.044 273.083 195.125 273.219 195.191 273.375 195.253 273.519 195.452 273.454 195.628 273.369 195.833 273.467 195.985 273.539 196.089 273.685 196.136 273.843 196.235 274.17 196.163 274.627 195.99 274.919 195.923 275.033 195.869 275.1 195.737 275.134 195.597 275.17 195.399 275.139 195.256 275.127 195.105 275.368 195.056 275.779 194.964 276.057 194.839 276.428 194.677 276.782 194.478 277.119 194.38 277.286 194.283 277.457 194.14 277.591 193.725 277.98 193.13 278.133 193.302 278.831 193.386 279.172 193.918 279.777 193.921 279.98 193.911 279.993 193.9 280.006 193.89 280.02 193.313 280.81 193.4 281.708 192.015 281.925 191.535 282 191.071 281.862 190.682 281.577 190.344 281.329 190.115 281.011 189.958 280.626 189.887 280.366 189.777 280.086 189.818 279.817 190.265 279.304 190.482 278.885 190.52 278.194 190.269 278.003 189.994 277.843 189.758 277.635 189.027 276.989 188.657 275.946 188.41 275.029 188.24 275.106 188.115 275.172 187.929 275.095 187.73 275.014 187.593 274.761 187.533 274.568 187.438 274.264 187.409 273.864 187.571 273.577 187.638 273.456 187.739 273.361 187.877 273.329 188.002 273.299 188.13 273.331 188.248 273.373Z" fill="#FEFDFD"/><path d="M232.843 312.922C232.883 313.312 232.869 313.72 232.851 314.111 233.664 314.195 234.467 314.388 235.263 314.57 236.264 314.991 237.108 315.648 237.571 316.656 238.621 319.03 238.573 321.659 238.582 324.205 238.667 324.293 238.75 324.382 238.836 324.468 239.331 324.972 239.83 325.473 240.331 325.973 240.778 325.583 241.203 325.125 241.681 324.779 242.074 326.003 242.459 327.229 242.838 328.457 243.026 329.069 243.264 329.709 243.383 330.337L240.285 328.952C239.585 328.64 238.869 328.352 238.185 328.007 238.523 327.665 238.865 327.328 239.213 326.996 238.715 326.468 238.166 325.963 237.718 325.394 237.625 325.254 237.505 325.134 237.392 325.01 237.573 324.813 237.776 324.634 237.971 324.45L237.115 324.443C237.104 323.753 237.119 323.064 237.159 322.375L236.227 322.351 236.263 324.456 228.483 324.453 226.887 324.479C226.878 323.672 226.886 322.864 226.886 322.057L226.212 322.049C226.234 322.855 226.225 323.664 226.228 324.471 225.758 324.475 225.289 324.472 224.819 324.46 224.819 322.491 224.563 319.679 225.041 317.843 225.383 316.529 226.102 315.581 227.264 314.891 228.08 314.446 229.238 314.203 230.162 314.149 230.162 314.28 230.149 314.345 230.223 314.461 230.426 314.783 231.12 315.552 231.509 315.587 231.687 315.604 231.878 315.457 232.006 315.351 233.037 314.496 232.723 314.077 232.839 312.958 232.84 312.946 232.841 312.934 232.843 312.922Z" fill="#FFBA42"/><path d="M232.843 312.922C232.883 313.312 232.869 313.72 232.851 314.111 233.664 314.195 234.467 314.388 235.263 314.57 234.57 316.623 232.904 317.986 231.699 319.708 231.227 319.187 230.738 318.682 230.271 318.158 229.291 317.056 228.319 315.922 227.264 314.891 228.08 314.446 229.238 314.203 230.162 314.149 230.162 314.28 230.149 314.345 230.223 314.461 230.426 314.783 231.12 315.552 231.509 315.587 231.687 315.604 231.878 315.457 232.006 315.351 233.037 314.496 232.723 314.077 232.839 312.958 232.84 312.946 232.841 312.934 232.843 312.922Z" fill="#38A9BE"/><path d="M238.199 278.038C238.79 278.314 241.76 279.532 241.933 280.036 242.176 280.747 242.038 284.755 242.04 285.776 242.043 287.095 242.109 288.441 242.052 289.756 236.652 289.715 231.253 289.703 225.854 289.721 225.86 287.832 225.888 285.938 225.849 284.049 223.457 286.261 221.228 288.669 218.907 290.956 218.444 291.412 217.359 292.618 216.911 292.906 216.843 292.926 216.802 292.955 216.747 292.997 216.733 293.007 216.684 293.047 216.668 293.054 216.555 293.1 216.288 292.915 216.158 292.867L216.119 292.853C216.197 292.761 216.225 292.678 216.243 292.559 216.246 292.538 216.248 292.517 216.251 292.496 216.529 292.095 216.978 291.711 217.324 291.359L219.885 288.793 223.581 285.122C224.26 284.442 224.906 283.678 225.65 283.072 225.683 282.866 225.712 282.66 225.738 282.454 225.557 282.179 225.389 281.897 225.233 281.607 225.077 281.318 224.934 281.022 224.804 280.72 224.674 280.418 224.557 280.111 224.453 279.799 224.35 279.487 224.26 279.172 224.183 278.852L224.135 278.816 224.192 278.761 224.179 278.82 224.171 278.752 224.194 278.749 224.217 278.71C224.222 278.799 224.212 278.767 224.237 278.827 224.396 279.205 224.486 279.625 224.632 280.011 224.947 280.845 225.349 281.627 225.806 282.39 225.8 281.777 225.703 280.728 225.855 280.173 225.926 279.913 226.098 279.699 226.306 279.532 226.964 279.004 228.4 278.529 229.217 278.082 229.921 279.016 230.508 280.1 231.118 281.1L230.662 281.423C231.477 281.989 232.234 282.674 233.002 283.303 233.235 283.493 233.571 283.687 233.757 283.912L233.816 283.903C233.93 283.842 234.017 283.765 234.113 283.68 235.056 282.937 235.821 282.052 236.888 281.455 236.713 281.337 236.546 281.226 236.394 281.079 236.634 280.572 236.975 280.102 237.262 279.619 237.574 279.094 237.849 278.538 238.199 278.038Z" fill="#38A9BE"/><path d="M226.926 281.596C227.104 281.622 227.255 281.653 227.368 281.81 227.444 281.916 227.464 282.046 227.431 282.172 227.378 282.373 227.241 282.477 227.066 282.573 226.995 282.564 226.909 282.56 226.842 282.536 226.71 282.488 226.581 282.364 226.528 282.233 226.522 282.22 226.518 282.207 226.514 282.193 226.51 282.18 226.507 282.166 226.504 282.152 226.501 282.139 226.5 282.125 226.498 282.111 226.497 282.097 226.497 282.083 226.497 282.069 226.497 282.055 226.498 282.041 226.5 282.027 226.501 282.013 226.504 282 226.507 281.986 226.51 281.972 226.513 281.959 226.518 281.945 226.522 281.932 226.527 281.919 226.533 281.906 226.61 281.732 226.76 281.663 226.926 281.596Z" fill="#FEFDFD"/><path d="M233.816 283.903C233.93 283.948 234.017 284.024 234.093 284.117 234.222 284.274 234.325 284.497 234.279 284.705 234.253 284.825 234.16 284.947 234.06 285.017 233.933 285.106 233.778 285.127 233.63 285.087 233.609 285.082 233.589 285.076 233.57 285.068 233.55 285.061 233.531 285.052 233.512 285.043 233.494 285.034 233.475 285.024 233.458 285.013 233.44 285.001 233.423 284.99 233.406 284.977 233.39 284.964 233.374 284.95 233.359 284.936 233.343 284.922 233.329 284.907 233.315 284.891 233.301 284.875 233.288 284.859 233.276 284.842 233.264 284.825 233.253 284.807 233.242 284.789 233.171 284.664 233.15 284.518 233.198 284.381 233.286 284.128 233.529 284.011 233.757 283.912L233.816 283.903Z" fill="#E9EDE9"/><path d="M226.286 283.343C226.42 283.434 226.538 283.64 226.643 283.766 227.414 284.691 228.365 285.057 229.527 285.163 229.487 285.447 229.449 285.726 229.438 286.013 229.103 285.933 228.787 285.893 228.443 285.879 228.499 285.639 228.534 285.396 228.573 285.153 227.808 284.917 226.726 284.298 226.299 283.6 226.235 283.496 226.262 283.458 226.286 283.343Z" fill="#FEFDFD"/><path d="M233.599 286.838C233.637 286.843 233.676 286.848 233.713 286.856 233.956 286.91 234.037 287.024 234.171 287.225 234.484 287.231 234.799 287.192 235.111 287.207 235.286 287.215 235.387 287.245 235.506 287.377 235.516 287.491 235.522 287.507 235.467 287.606 235.31 287.694 235.109 287.661 234.934 287.654L234.209 287.65C234.024 287.797 233.868 287.911 233.619 287.88 233.466 287.861 233.314 287.786 233.229 287.654 233.22 287.64 233.212 287.626 233.205 287.611 233.197 287.597 233.19 287.582 233.185 287.566 233.179 287.551 233.174 287.535 233.17 287.52 233.166 287.504 233.162 287.488 233.16 287.471 233.158 287.455 233.156 287.439 233.155 287.422 233.155 287.406 233.155 287.389 233.156 287.373 233.157 287.357 233.159 287.34 233.162 287.324 233.165 287.308 233.168 287.292 233.173 287.276 233.235 287.053 233.41 286.948 233.599 286.838Z" fill="#E9EDE9"/><path d="M234.946 283.521C236.384 283.488 237.833 283.542 239.272 283.566L239.267 284.87C237.849 284.886 236.429 284.869 235.01 284.867 234.945 284.428 234.959 283.965 234.946 283.521Z" fill="#E9EDE9"/><path d="M174.849 292.985C176.59 291.205 178.148 290.419 180.693 290.401 180.754 290.401 180.816 290.401 180.878 290.401 180.939 290.402 181.001 290.404 181.063 290.406 181.124 290.408 181.186 290.411 181.248 290.415 181.309 290.419 181.371 290.423 181.433 290.428 181.494 290.434 181.555 290.44 181.617 290.446 181.678 290.453 181.739 290.461 181.801 290.469 181.862 290.477 181.923 290.486 181.984 290.496 182.045 290.506 182.106 290.516 182.166 290.528 182.227 290.539 182.287 290.551 182.348 290.564 182.408 290.577 182.468 290.59 182.529 290.604 182.589 290.619 182.648 290.634 182.708 290.649 182.768 290.665 182.827 290.681 182.887 290.699 182.946 290.716 183.005 290.734 183.064 290.752 183.123 290.771 183.181 290.79 183.24 290.81 183.298 290.831 183.356 290.851 183.414 290.873 183.472 290.894 183.53 290.916 183.587 290.939 183.644 290.962 183.701 290.986 183.758 291.01 183.815 291.035 183.871 291.06 183.927 291.085 183.983 291.111 184.039 291.137 184.095 291.164 184.15 291.192 184.205 291.219 184.26 291.248 184.315 291.276 184.369 291.305 184.423 291.335 184.477 291.365 184.531 291.395 184.585 291.426 184.638 291.457 184.691 291.489 184.743 291.522 184.796 291.554 184.848 291.587 184.9 291.621 184.952 291.654 185.003 291.689 185.054 291.724 185.105 291.758 185.155 291.794 185.205 291.83 185.255 291.866 185.305 291.903 185.354 291.941 185.403 291.978 185.452 292.016 185.5 292.054 185.548 292.093 185.596 292.132 185.643 292.172 185.69 292.212 185.737 292.252 185.783 292.293 185.829 292.334 185.875 292.375 185.92 292.417 185.965 292.459 186.01 292.502 186.054 292.545 187.43 293.909 188.151 295.874 188.154 297.794 188.156 299.901 187.299 301.752 185.812 303.225 185.742 303.293 185.67 303.361 185.597 303.426 185.524 303.492 185.45 303.557 185.374 303.619 185.299 303.682 185.222 303.744 185.144 303.804 185.066 303.864 184.987 303.922 184.907 303.979 184.827 304.035 184.745 304.091 184.663 304.144 184.581 304.198 184.497 304.25 184.413 304.3 184.328 304.35 184.243 304.399 184.157 304.446 184.07 304.493 183.983 304.538 183.895 304.581 183.807 304.625 183.718 304.667 183.628 304.707 183.538 304.747 183.448 304.785 183.356 304.821 183.265 304.858 183.173 304.892 183.081 304.925 182.988 304.958 182.895 304.989 182.801 305.018 182.707 305.047 182.613 305.074 182.518 305.1 182.423 305.125 182.327 305.149 182.231 305.17 182.136 305.192 182.039 305.212 181.943 305.23 181.846 305.248 181.749 305.264 181.652 305.278 181.258 305.333 180.862 305.36 180.464 305.36 178.147 305.342 176.348 304.247 174.763 302.651 173.888 301.463 173.283 300.17 173.083 298.696 172.794 296.574 173.58 294.642 174.849 292.985Z" fill="#38A9BE"/><path d="M180.574 291.542C180.605 291.54 180.637 291.538 180.668 291.538 182.327 291.512 183.887 292.119 185.07 293.281 186.231 294.421 186.904 295.926 186.919 297.557 186.934 299.144 186.32 300.82 185.194 301.954 183.869 303.288 182.513 303.898 180.643 303.899 178.911 303.811 177.615 303.525 176.256 302.355 175.099 301.359 174.399 299.792 174.295 298.281 174.182 296.652 174.828 294.844 175.904 293.623 177.095 292.27 178.812 291.659 180.574 291.542Z" fill="#A8E8F9"/><path d="M180.12 292.186C180.318 292.171 180.526 292.171 180.724 292.177 182.218 292.221 183.751 292.897 184.776 293.989 185.724 295 186.24 296.554 186.198 297.929 186.154 299.344 185.473 300.71 184.444 301.668 183.265 302.766 181.826 303.241 180.239 303.178 179.035 303.054 177.732 302.432 176.87 301.587 176.756 301.598 176.682 301.679 176.613 301.772 176.536 301.875 176.557 301.907 176.576 302.028 175.618 301.146 174.991 299.859 174.859 298.562 174.704 297.035 175.112 295.435 176.093 294.237 177.115 292.989 178.542 292.351 180.12 292.186Z" fill="url(#fill6)"/><path d="M180.44 296.216C180.615 296.207 180.799 296.19 180.97 296.236 181.22 296.304 181.448 296.457 181.578 296.685 181.705 296.908 181.72 297.18 181.638 297.421 181.52 297.769 181.281 297.969 180.965 298.133 180.728 298.166 180.535 298.158 180.315 298.051 180.282 298.035 180.25 298.018 180.218 297.998 180.187 297.979 180.156 297.958 180.127 297.936 180.098 297.913 180.07 297.89 180.043 297.864 180.016 297.839 179.99 297.813 179.966 297.785 179.941 297.758 179.918 297.729 179.897 297.699 179.875 297.669 179.855 297.638 179.837 297.606 179.818 297.574 179.802 297.541 179.787 297.508 179.771 297.474 179.758 297.44 179.746 297.405 179.665 297.161 179.676 296.901 179.8 296.673 179.944 296.41 180.165 296.303 180.44 296.216Z" fill="#F5A201"/><path d="M184.193 294.953C184.253 295.012 184.302 295.094 184.348 295.165 185.004 296.173 185.374 297.484 185.132 298.681 184.897 298.494 184.649 298.328 184.4 298.16 183.91 297.849 183.413 297.518 182.884 297.28 182.873 296.966 182.838 296.667 182.787 296.357 183.267 295.9 183.736 295.432 184.193 294.953Z" fill="#138AAA"/><path d="M179.678 300.245C179.684 300.251 179.692 300.257 179.695 300.265 179.719 300.319 179.73 300.384 179.75 300.441 179.954 300.996 180.209 301.352 180.747 301.607 181.146 301.259 181.384 300.827 181.59 300.346 182.008 300.938 182.407 301.547 182.818 302.144 182.479 302.322 182.124 302.459 181.766 302.593 181.472 302.683 181.171 302.724 180.867 302.759L180.864 302.397C180.864 302.16 180.846 301.969 180.69 301.78L180.567 301.814C180.4 302.119 180.416 302.378 180.42 302.717 179.744 302.617 179.114 302.439 178.479 302.187 178.812 301.512 179.323 300.916 179.678 300.245Z" fill="#013C58"/><path d="M177.331 294.698C177.744 295.008 178.371 295.803 178.722 296.22 178.616 296.49 178.549 296.751 178.5 297.037 178.005 297.396 177.455 297.701 176.934 298.021 176.64 298.208 176.337 298.387 176.078 298.621 175.953 297.1 176.356 295.874 177.331 294.698Z" fill="#138AAA"/><path d="M180.518 292.822C180.64 292.772 180.723 292.8 180.845 292.83L180.719 292.878C180.634 293.147 180.629 294.69 180.712 294.939L180.795 294.97C180.739 295.005 180.765 294.997 180.7 295.003 180.241 295.046 179.787 295.12 179.463 295.472 179.333 295.614 179.223 295.759 179.058 295.862 178.798 295.817 177.885 294.637 177.517 294.363L177.468 294.327C177.945 293.825 178.568 293.436 179.195 293.147L179.267 293.184C179.68 293.035 180.088 292.909 180.518 292.822Z" fill="#F5A201"/><path d="M180.518 292.822C180.64 292.772 180.723 292.8 180.845 292.83L180.719 292.878C180.634 293.147 180.629 294.69 180.712 294.939L180.795 294.97C180.739 295.005 180.765 294.997 180.7 295.003 180.241 295.046 179.787 295.12 179.463 295.472 179.333 295.614 179.223 295.759 179.058 295.862 178.798 295.817 177.885 294.637 177.517 294.363L177.468 294.327C177.945 293.825 178.568 293.436 179.195 293.147L179.267 293.184C179.128 293.302 178.877 293.399 178.716 293.495 178.308 293.735 177.949 293.984 177.589 294.292 178.095 294.788 178.569 295.297 179.031 295.832 179.062 295.789 179.094 295.746 179.127 295.703 179.479 295.246 179.947 295.014 180.511 294.944 180.505 294.236 180.507 293.529 180.518 292.822Z" fill="#E9EDE9"/><path d="M180.845 292.83C182.097 293.035 183.099 293.676 184.042 294.503 183.531 294.971 183.035 295.445 182.555 295.943 182.182 295.427 181.737 295.093 181.098 294.988 180.996 294.971 180.897 294.962 180.795 294.97L180.712 294.939C180.629 294.69 180.634 293.147 180.719 292.878L180.845 292.83Z" fill="#F5A201"/><path d="M178.566 297.535 178.627 297.557C178.876 298.046 179.146 298.45 179.651 298.702 180.211 298.981 180.839 299.03 181.431 298.826 181.982 298.636 182.439 298.244 182.693 297.721 183.496 298.165 184.273 298.663 185.057 299.139 184.681 300.334 184.159 301.084 183.206 301.899 182.93 301.546 182.663 301.191 182.407 300.823 182.065 300.32 181.687 299.874 181.494 299.291 180.968 299.308 180.447 299.3 179.926 299.219 179.474 300.135 178.723 301.047 178.081 301.844 177.162 300.946 176.646 300.272 176.205 299.049 176.978 298.522 177.82 298.102 178.566 297.535Z" fill="#F5A201"/><path d="M204.843 323.866C204.864 323.681 204.823 323.355 204.93 323.214 204.966 323.266 204.953 323.338 204.956 323.402 205.006 323.429 205.627 322.728 205.74 322.607 207.356 320.876 209.018 319.145 210.732 317.512 210.972 317.283 211.22 317.061 211.455 316.826 211.6 316.681 211.736 316.494 211.9 316.373 211.973 316.318 212.01 316.307 212.097 316.3L212.18 316.447C213.81 318.08 215.383 319.761 216.991 321.413 217.313 321.744 219.093 323.393 219.194 323.66 219.122 324.195 219.147 324.752 219.144 325.292L219.131 327.922C219.169 330.112 219.001 332.383 219.113 334.561L219.099 334.604C218.521 334.673 217.881 334.625 217.296 334.625 216.259 334.624 215.216 334.644 214.18 334.6 213.504 334.564 212.816 334.59 212.138 334.591 211.348 334.589 210.558 334.594 209.768 334.607L206.795 334.597C206.251 334.595 205.692 334.568 205.151 334.621 205.051 334.615 204.96 334.602 204.862 334.581 204.751 334.296 204.834 328.497 204.836 327.665L204.843 323.866Z" fill="#FFBA42"/><path d="M210.38 323.526C210.747 323.519 211.114 323.523 211.48 323.538 211.726 323.558 211.965 323.563 212.211 323.56 212.222 323.992 212.316 325.988 212.162 326.213L212.09 326.253C211.52 326.254 210.95 326.249 210.38 326.236L210.38 323.526Z" fill="#FEFDFD"/><path d="M206.345 327.152C207.272 327.123 208.209 327.145 209.136 327.151L209.164 329.775 206.301 329.779C206.417 328.935 206.345 328.006 206.345 327.152Z" fill="#FEFDFD"/><path d="M206.337 323.54C207.283 323.536 208.229 323.538 209.175 323.545L209.177 326.244C208.235 326.27 207.283 326.236 206.34 326.242L206.337 323.54Z" fill="#FEFDFD"/><path d="M212.149 328.751C212.499 328.744 213.199 328.642 213.5 328.821 213.748 329.351 214.11 333.753 214.18 334.6 213.504 334.564 212.816 334.59 212.138 334.591 211.348 334.589 210.558 334.594 209.768 334.607 209.905 333.539 210.149 329.527 210.451 328.845 210.718 328.66 211.787 328.747 212.149 328.751Z" fill="#013C58"/><path d="M212.18 316.447C213.81 318.08 215.383 319.761 216.991 321.413 217.313 321.744 219.093 323.393 219.194 323.66 219.122 324.195 219.147 324.752 219.144 325.292L219.131 327.922C219.169 330.112 219.001 332.383 219.113 334.561L219.099 334.604C218.521 334.673 217.881 334.625 217.296 334.625 216.259 334.624 215.216 334.644 214.18 334.6 214.11 333.753 213.748 329.351 213.5 328.821 213.199 328.642 212.499 328.744 212.149 328.751 212.268 328.283 212.188 326.802 212.189 326.258L212.09 326.253 212.162 326.213C212.316 325.988 212.222 323.992 212.211 323.56 211.965 323.563 211.726 323.558 211.48 323.538 211.713 323.509 211.958 323.52 212.192 323.515 212.224 322.724 212.193 321.92 212.191 321.128L212.18 316.447Z" fill="#F5A201"/><path d="M212.192 323.515C212.72 323.513 213.25 323.504 213.778 323.512L213.774 326.252C213.246 326.254 212.716 326.245 212.189 326.258L212.09 326.253 212.162 326.213C212.316 325.988 212.222 323.992 212.211 323.56 211.965 323.563 211.726 323.558 211.48 323.538 211.713 323.509 211.958 323.52 212.192 323.515Z" fill="#E9EDE9"/><path d="M214.803 327.155C215.702 327.15 216.601 327.152 217.5 327.159 217.516 328.04 217.501 328.925 217.501 329.808 216.601 329.797 215.698 329.811 214.798 329.813 214.77 328.93 214.798 328.039 214.803 327.155Z" fill="#A8E8F9"/><path d="M214.818 323.514C215.702 323.503 216.586 323.501 217.47 323.507L217.474 326.205C216.592 326.22 215.708 326.216 214.826 326.221L214.818 323.514Z" fill="#A8E8F9"/><path d="M209.386 290.708C210.615 291.426 211.804 291.677 213.213 291.311 213.657 291.196 214.055 291.014 214.453 290.79 214.503 291.197 214.394 291.698 214.485 292.077 215.008 292.325 215.485 292.668 216.003 292.93 216.053 292.759 216.134 292.629 216.251 292.496 216.248 292.517 216.246 292.538 216.243 292.559 216.225 292.678 216.197 292.761 216.119 292.853L216.158 292.867C216.288 292.915 216.555 293.1 216.668 293.054 216.684 293.047 216.733 293.007 216.747 292.997 216.802 292.955 216.843 292.926 216.911 292.906 216.813 293.017 216.72 293.13 216.602 293.221L219.184 294.53C220.28 295.079 221.582 295.609 222.474 296.464 222.865 296.838 223.16 297.327 223.324 297.842 223.615 298.752 223.474 302.508 223.474 303.665L223.473 312.561 220.955 312.581C220.511 312.584 220.051 312.613 219.61 312.582L219.613 301.667C219.491 301.665 219.328 301.645 219.216 301.692 219.157 301.717 219.152 301.765 219.127 301.819 219.141 302.005 219.142 302.189 219.143 302.375 218.89 304.182 218.729 305.977 218.541 307.79 218.43 308.861 218.346 309.929 218.266 311.001 218.227 311.515 218.159 312.036 218.156 312.55 217.553 312.533 216.457 312.43 215.901 312.576 214.574 312.611 213.246 312.574 211.919 312.569L206.564 312.589C206.529 311.965 206.425 311.339 206.373 310.715 206.283 309.633 206.224 308.547 206.122 307.466 206.048 306.677 205.936 305.891 205.853 305.103L205.649 303.07C205.607 302.626 205.591 302.168 205.493 301.733 205.382 301.655 205.285 301.672 205.151 301.665 205.02 301.661 204.904 301.647 204.781 301.703 204.673 301.99 204.719 303.734 204.713 304.16 204.651 306.968 204.634 309.776 204.661 312.585L200.631 312.588 200.625 302.893C200.625 301.781 200.492 299.067 200.736 298.121 200.9 297.487 201.234 296.875 201.701 296.414 202.357 295.766 203.321 295.345 204.125 294.908 205.232 294.306 206.358 293.727 207.445 293.091 207.523 292.969 207.653 292.892 207.768 292.808 208.2 292.579 208.869 292.096 209.352 292.073 209.476 291.793 209.387 291.04 209.386 290.708Z" fill="#FEFDFD"/><path d="M213.427 295.628C213.603 295.786 213.784 295.94 213.953 296.106L213.855 296.37C213.642 296.188 213.442 295.99 213.24 295.796 213.316 295.758 213.368 295.689 213.427 295.628Z" fill="#00537A"/><path d="M207.445 293.091C207.523 292.969 207.653 292.892 207.768 292.808 208.413 293.811 209.128 295.295 209.923 296.126 210.066 295.989 210.209 295.828 210.375 295.719 210.436 295.776 210.473 295.802 210.553 295.826 210.301 296.128 209.998 296.397 209.716 296.671 209.258 296.032 208.856 295.354 208.437 294.688 208.103 294.158 207.754 293.637 207.445 293.091Z" fill="#138AAA"/><path d="M216.003 292.93C216.053 292.759 216.134 292.629 216.251 292.496 216.248 292.517 216.246 292.538 216.243 292.559 216.225 292.678 216.197 292.761 216.119 292.853L216.158 292.867C216.288 292.915 216.555 293.1 216.668 293.054 216.684 293.047 216.733 293.007 216.747 292.997 216.802 292.955 216.843 292.926 216.911 292.906 216.813 293.017 216.72 293.13 216.602 293.221L216.529 293.221C215.776 294.291 214.831 295.489 214.19 296.616L213.855 296.37 213.953 296.106C214.44 295.533 215.793 293.624 216.003 292.93Z" fill="#138AAA"/><path d="M209.386 290.708C210.615 291.426 211.804 291.677 213.213 291.311 213.657 291.196 214.055 291.014 214.453 290.79 214.503 291.197 214.394 291.698 214.485 292.077 215.008 292.325 215.485 292.668 216.003 292.93 215.793 293.624 214.44 295.533 213.953 296.106 213.784 295.94 213.603 295.786 213.427 295.628 213.368 295.689 213.316 295.758 213.24 295.796 212.973 296.118 212.78 296.516 212.599 296.891L211.276 296.876C211.132 296.568 210.938 296 210.669 295.804L210.553 295.826C210.473 295.802 210.436 295.776 210.375 295.719 210.209 295.828 210.066 295.989 209.923 296.126 209.128 295.295 208.413 293.811 207.768 292.808 208.2 292.579 208.869 292.096 209.352 292.073 209.476 291.793 209.387 291.04 209.386 290.708Z" fill="#FEFDFD"/><path d="M211.948 294.406C212.42 294.832 212.935 295.224 213.427 295.628 213.368 295.689 213.316 295.758 213.24 295.796 212.973 296.118 212.78 296.516 212.599 296.891L211.276 296.876C211.132 296.568 210.938 296 210.669 295.804L210.553 295.826C210.473 295.802 210.436 295.776 210.375 295.719 210.918 295.303 211.386 294.801 211.948 294.406Z" fill="#013C58"/><path d="M209.386 290.708C210.615 291.426 211.804 291.677 213.213 291.311 213.657 291.196 214.055 291.014 214.453 290.79 214.503 291.197 214.394 291.698 214.485 292.077 214.236 292.568 212.471 293.948 211.924 294.327 211.511 293.966 209.461 292.335 209.352 292.073 209.476 291.793 209.387 291.04 209.386 290.708Z" fill="#CBB29D"/><path d="M212.599 296.891 213.519 305.746C213.62 306.759 213.733 307.771 213.859 308.781 213.912 309.183 213.945 309.611 214.04 310.005 213.419 310.881 212.641 311.626 212.038 312.522 211.379 311.634 210.558 310.867 209.915 309.975 210.264 306.975 210.595 303.974 210.908 300.971 211.034 299.72 211.283 298.1 211.276 296.876L212.599 296.891Z" fill="#F5A201"/></g></svg>