<svg width="759" height="489" xmlns="http://www.w3.org/2000/svg" xmlns:xlink="http://www.w3.org/1999/xlink" xml:space="preserve" overflow="hidden"><g transform="translate(-582 -54)"><path d="M9.36782 9.36782 339.611 9.36782 339.611 54.3333 9.36782 54.3333Z" fill="#714486" fill-rule="evenodd" transform="matrix(1.00027 0 0 1 797.518 145.805)"/><path d="M9.36782 9.36782 339.611 9.36782 339.611 54.3333 9.36782 54.3333Z" fill="#714486" fill-rule="evenodd" transform="matrix(1.00027 0 0 1 797.518 145.805)"/><path d="M9.36782 9.36782 102.615 9.36782 102.615 54.3333 9.36782 54.3333Z" fill="#8C5BA3" fill-rule="evenodd" transform="matrix(1.00027 0 0 1 797.518 207.632)"/><path d="M9.36782 9.36782 102.615 9.36782 102.615 54.3333 9.36782 54.3333Z" fill="#8C5BA3" fill-rule="evenodd" transform="matrix(1.00027 0 0 1 797.518 207.632)"/><path d="M9.36782 9.36782 168.658 9.36782 168.658 54.3333 9.36782 54.3333Z" fill="#A871C1" fill-rule="evenodd" transform="matrix(1.00027 0 0 1 797.518 269.46)"/><path d="M9.36782 9.36782 168.658 9.36782 168.658 54.3333 9.36782 54.3333Z" fill="#A871C1" fill-rule="evenodd" transform="matrix(1.00027 0 0 1 797.518 269.46)"/><path d="M9.36782 9.36782 304.641 9.36782 304.641 54.3333 9.36782 54.3333Z" fill="#C388DE" fill-rule="evenodd" transform="matrix(1.00027 0 0 1 797.518 331.287)"/><path d="M9.36782 9.36782 304.641 9.36782 304.641 54.3333 9.36782 54.3333Z" fill="#C388DE" fill-rule="evenodd" transform="matrix(1.00027 0 0 1 797.518 331.287)"/><path d="M9.36782 9.36782 378.46 9.36782 378.46 54.3333 9.36782 54.3333Z" fill="#DE9FFB" fill-rule="evenodd" transform="matrix(1.00027 0 0 1 797.518 393.115)"/><path d="M9.36782 9.36782 378.46 9.36782 378.46 54.3333 9.36782 54.3333Z" fill="#DE9FFB" fill-rule="evenodd" transform="matrix(1.00027 0 0 1 797.518 393.115)"/><text fill="#2C2C2C" font-family="Arial,Arial_MSFontService,sans-serif" font-weight="400" font-size="12" transform="matrix(0.937037 0 0 0.936782 871.607 251)">24</text><text fill="#2C2C2C" font-family="Arial,Arial_MSFontService,sans-serif" font-weight="400" font-size="12" transform="matrix(0.937037 0 0 0.936782 871.607 251)">24</text><text fill="#8E8E8E" font-family="Arial,Arial_MSFontService,sans-serif" font-weight="400" font-size="12" transform="matrix(0.937037 0 0 0.936782 631.644 313)">RRPs </text><text fill="#8E8E8E" font-family="Arial,Arial_MSFontService,sans-serif" font-weight="400" font-size="12" transform="matrix(0.937037 0 0 0.936782 665.378 313)">2035 </text><text fill="#8E8E8E" font-family="Arial,Arial_MSFontService,sans-serif" font-weight="400" font-size="12" transform="matrix(0.937037 0 0 0.936782 694.426 313)">(</text><text fill="#8E8E8E" font-family="Arial,Arial_MSFontService,sans-serif" font-weight="400" font-size="12" transform="matrix(0.937037 0 0 0.936782 698.174 313)">Global</text><text fill="#8E8E8E" font-family="Arial,Arial_MSFontService,sans-serif" font-weight="400" font-size="12" transform="matrix(0.937037 0 0 0.936782 731.907 313)">)</text><text fill="#8E8E8E" font-family="Arial,Arial_MSFontService,sans-serif" font-weight="400" font-size="12" transform="matrix(0.937037 0 0 0.936782 631.644 313)">RRPs </text><text fill="#8E8E8E" font-family="Arial,Arial_MSFontService,sans-serif" font-weight="400" font-size="12" transform="matrix(0.937037 0 0 0.936782 665.378 313)">2035 </text><text fill="#8E8E8E" font-family="Arial,Arial_MSFontService,sans-serif" font-weight="400" font-size="12" transform="matrix(0.937037 0 0 0.936782 694.426 313)">(</text><text fill="#8E8E8E" font-family="Arial,Arial_MSFontService,sans-serif" font-weight="400" font-size="12" transform="matrix(0.937037 0 0 0.936782 698.174 313)">Global</text><text fill="#8E8E8E" font-family="Arial,Arial_MSFontService,sans-serif" font-weight="400" font-size="12" transform="matrix(0.937037 0 0 0.936782 731.907 313)">)</text><text fill="#8E8E8E" font-family="Arial,Arial_MSFontService,sans-serif" font-weight="400" font-size="12" transform="matrix(0.937037 0 0 0.936782 631.644 251)">RRPs </text><text fill="#8E8E8E" font-family="Arial,Arial_MSFontService,sans-serif" font-weight="400" font-size="12" transform="matrix(0.937037 0 0 0.936782 665.378 251)">2024 </text><text fill="#8E8E8E" font-family="Arial,Arial_MSFontService,sans-serif" font-weight="400" font-size="12" transform="matrix(0.937037 0 0 0.936782 694.426 251)">(</text><text fill="#8E8E8E" font-family="Arial,Arial_MSFontService,sans-serif" font-weight="400" font-size="12" transform="matrix(0.937037 0 0 0.936782 698.174 251)">Global</text><text fill="#8E8E8E" font-family="Arial,Arial_MSFontService,sans-serif" font-weight="400" font-size="12" transform="matrix(0.937037 0 0 0.936782 731.907 251)">)</text><text fill="#8E8E8E" font-family="Arial,Arial_MSFontService,sans-serif" font-weight="400" font-size="12" transform="matrix(0.937037 0 0 0.936782 631.644 251)">RRPs </text><text fill="#8E8E8E" font-family="Arial,Arial_MSFontService,sans-serif" font-weight="400" font-size="12" transform="matrix(0.937037 0 0 0.936782 665.378 251)">2024 </text><text fill="#8E8E8E" font-family="Arial,Arial_MSFontService,sans-serif" font-weight="400" font-size="12" transform="matrix(0.937037 0 0 0.936782 694.426 251)">(</text><text fill="#8E8E8E" font-family="Arial,Arial_MSFontService,sans-serif" font-weight="400" font-size="12" transform="matrix(0.937037 0 0 0.936782 698.174 251)">Global</text><text fill="#8E8E8E" font-family="Arial,Arial_MSFontService,sans-serif" font-weight="400" font-size="12" transform="matrix(0.937037 0 0 0.936782 731.907 251)">)</text><text fill="#2C2C2C" font-family="Arial,Arial_MSFontService,sans-serif" font-weight="400" font-size="12" transform="matrix(0.937037 0 0 0.936782 937.673 313)">41</text><text fill="#2C2C2C" font-family="Arial,Arial_MSFontService,sans-serif" font-weight="400" font-size="12" transform="matrix(0.937037 0 0 0.936782 937.673 313)">41</text><text fill="#8E8E8E" font-family="Arial,Arial_MSFontService,sans-serif" font-weight="400" font-size="12" transform="matrix(0.937037 0 0 0.936782 847.2 509)">Projected Market Share of Combustibles </text><text fill="#8E8E8E" font-family="Arial,Arial_MSFontService,sans-serif" font-weight="400" font-size="12" transform="matrix(0.937037 0 0 0.936782 881.524 532)">and RRPs in the Nicotine Market</text><text fill="#8E8E8E" font-family="Arial,Arial_MSFontService,sans-serif" font-weight="400" font-size="12" transform="matrix(0.937037 0 0 0.936782 604.18 363)">RRPs </text><text fill="#8E8E8E" font-family="Arial,Arial_MSFontService,sans-serif" font-weight="400" font-size="12" transform="matrix(0.937037 0 0 0.936782 637.913 363)">2035 </text><text fill="#8E8E8E" font-family="Arial,Arial_MSFontService,sans-serif" font-weight="400" font-size="12" transform="matrix(0.937037 0 0 0.936782 666.961 363)">(</text><text fill="#8E8E8E" font-family="Arial,Arial_MSFontService,sans-serif" font-weight="400" font-size="12" transform="matrix(0.937037 0 0 0.936782 670.709 363)">Developed </text><text fill="#8E8E8E" font-family="Arial,Arial_MSFontService,sans-serif" font-weight="400" font-size="12" transform="matrix(0.937037 0 0 0.936782 719.323 386)">Markets</text><text fill="#8E8E8E" font-family="Arial,Arial_MSFontService,sans-serif" font-weight="400" font-size="12" transform="matrix(0.937037 0 0 0.936782 759.615 386)">)</text><text fill="#2C2C2C" font-family="Arial,Arial_MSFontService,sans-serif" font-weight="400" font-size="12" transform="matrix(0.937037 0 0 0.936782 1108.67 189)">85</text><text fill="#2C2C2C" font-family="Arial,Arial_MSFontService,sans-serif" font-weight="400" font-size="12" transform="matrix(0.937037 0 0 0.936782 1108.67 189)">85</text><text fill="#2C2C2C" font-family="Arial,Arial_MSFontService,sans-serif" font-weight="400" font-size="12" transform="matrix(0.937037 0 0 0.936782 1073.69 374)">76</text><text fill="#2C2C2C" font-family="Arial,Arial_MSFontService,sans-serif" font-weight="400" font-size="12" transform="matrix(0.937037 0 0 0.936782 1073.69 374)">76</text><text fill="#8E8E8E" font-family="Arial,Arial_MSFontService,sans-serif" font-weight="400" font-size="12" transform="matrix(0.937037 0 0 0.936782 631.878 425)">Combustibles </text><text fill="#8E8E8E" font-family="Arial,Arial_MSFontService,sans-serif" font-weight="400" font-size="12" transform="matrix(0.937037 0 0 0.936782 707.779 425)">2024 </text><text fill="#8E8E8E" font-family="Arial,Arial_MSFontService,sans-serif" font-weight="400" font-size="12" transform="matrix(0.937037 0 0 0.936782 616.146 447)">(</text><text fill="#8E8E8E" font-family="Arial,Arial_MSFontService,sans-serif" font-weight="400" font-size="12" transform="matrix(0.937037 0 0 0.936782 619.894 447)">Developing Markets</text><text fill="#8E8E8E" font-family="Arial,Arial_MSFontService,sans-serif" font-weight="400" font-size="12" transform="matrix(0.937037 0 0 0.936782 721.094 447)">)</text><text fill="#8E8E8E" font-family="Arial,Arial_MSFontService,sans-serif" font-weight="400" font-size="12" transform="matrix(0.937037 0 0 0.936782 631.878 425)">Combustibles </text><text fill="#8E8E8E" font-family="Arial,Arial_MSFontService,sans-serif" font-weight="400" font-size="12" transform="matrix(0.937037 0 0 0.936782 707.779 425)">2024 </text><text fill="#8E8E8E" font-family="Arial,Arial_MSFontService,sans-serif" font-weight="400" font-size="12" transform="matrix(0.937037 0 0 0.936782 616.146 447)">(</text><text fill="#8E8E8E" font-family="Arial,Arial_MSFontService,sans-serif" font-weight="400" font-size="12" transform="matrix(0.937037 0 0 0.936782 619.894 447)">Developing Markets</text><text fill="#8E8E8E" font-family="Arial,Arial_MSFontService,sans-serif" font-weight="400" font-size="12" transform="matrix(0.937037 0 0 0.936782 721.094 447)">)</text><text fill="#8E8E8E" font-family="Arial,Arial_MSFontService,sans-serif" font-weight="400" font-size="12" transform="matrix(0.937037 0 0 0.936782 631.878 189)">Combustibles </text><text fill="#8E8E8E" font-family="Arial,Arial_MSFontService,sans-serif" font-weight="400" font-size="12" transform="matrix(0.937037 0 0 0.936782 707.779 189)">2020</text><text fill="#8E8E8E" font-family="Arial,Arial_MSFontService,sans-serif" font-weight="400" font-size="12" transform="matrix(0.937037 0 0 0.936782 631.878 189)">Combustibles </text><text fill="#8E8E8E" font-family="Arial,Arial_MSFontService,sans-serif" font-weight="400" font-size="12" transform="matrix(0.937037 0 0 0.936782 707.779 189)">2020</text><text fill="#2C2C2C" font-family="Arial,Arial_MSFontService,sans-serif" font-weight="400" font-size="12" transform="matrix(0.937037 0 0 0.936782 1147.53 436)">95</text><text fill="#2C2C2C" font-family="Arial,Arial_MSFontService,sans-serif" font-weight="400" font-size="12" transform="matrix(0.937037 0 0 0.936782 1147.53 436)">95</text><text fill="#8E8E8E" font-family="Arial,Arial_MSFontService,sans-serif" font-weight="400" font-size="12" transform="matrix(0.937037 0 0 0.936782 1241.67 464)">Market </text><text fill="#8E8E8E" font-family="Arial,Arial_MSFontService,sans-serif" font-weight="400" font-size="12" transform="matrix(0.937037 0 0 0.936782 1241.67 487)">Share </text><text fill="#8E8E8E" font-family="Arial,Arial_MSFontService,sans-serif" font-weight="400" font-size="12" transform="matrix(0.937037 0 0 0.936782 1275.41 487)">(%)</text><text fill="#8E8E8E" font-family="Arial,Arial_MSFontService,sans-serif" font-weight="400" font-size="12" transform="matrix(0.937037 0 0 0.936782 1241.67 464)">Market </text><text fill="#8E8E8E" font-family="Arial,Arial_MSFontService,sans-serif" font-weight="400" font-size="12" transform="matrix(0.937037 0 0 0.936782 1241.67 487)">Share </text><text fill="#8E8E8E" font-family="Arial,Arial_MSFontService,sans-serif" font-weight="400" font-size="12" transform="matrix(0.937037 0 0 0.936782 1275.41 487)">(%)</text><text fill="#8E8E8E" font-family="Arial,Arial_MSFontService,sans-serif" font-weight="400" font-size="12" transform="matrix(0.937037 0 0 0.936782 768.133 88)">Year and </text><text fill="#8E8E8E" font-family="Arial,Arial_MSFontService,sans-serif" font-weight="400" font-size="12" transform="matrix(0.937037 0 0 0.936782 775.789 110)">Region</text><text fill="#8E8E8E" font-family="Arial,Arial_MSFontService,sans-serif" font-weight="400" font-size="12" transform="matrix(0.937037 0 0 0.936782 847.2 509)">Projected Market Share of Combustibles </text><text fill="#8E8E8E" font-family="Arial,Arial_MSFontService,sans-serif" font-weight="400" font-size="12" transform="matrix(0.937037 0 0 0.936782 881.524 532)">and RRPs in the Nicotine Market</text><text fill="#8E8E8E" font-family="Arial,Arial_MSFontService,sans-serif" font-weight="400" font-size="12" transform="matrix(0.937037 0 0 0.936782 768.133 88)">Year and </text><text fill="#8E8E8E" font-family="Arial,Arial_MSFontService,sans-serif" font-weight="400" font-size="12" transform="matrix(0.937037 0 0 0.936782 775.789 110)">Region</text><text fill="#8E8E8E" font-family="Arial,Arial_MSFontService,sans-serif" font-weight="400" font-size="12" transform="matrix(0.937037 0 0 0.936782 604.18 363)">RRPs </text><text fill="#8E8E8E" font-family="Arial,Arial_MSFontService,sans-serif" font-weight="400" font-size="12" transform="matrix(0.937037 0 0 0.936782 637.913 363)">2035 </text><text fill="#8E8E8E" font-family="Arial,Arial_MSFontService,sans-serif" font-weight="400" font-size="12" transform="matrix(0.937037 0 0 0.936782 666.961 363)">(</text><text fill="#8E8E8E" font-family="Arial,Arial_MSFontService,sans-serif" font-weight="400" font-size="12" transform="matrix(0.937037 0 0 0.936782 670.709 363)">Developed </text><text fill="#8E8E8E" font-family="Arial,Arial_MSFontService,sans-serif" font-weight="400" font-size="12" transform="matrix(0.937037 0 0 0.936782 719.323 386)">Markets</text><text fill="#8E8E8E" font-family="Arial,Arial_MSFontService,sans-serif" font-weight="400" font-size="12" transform="matrix(0.937037 0 0 0.936782 759.615 386)">)</text><path d="M9.36782 9.36782 339.611 9.36782 339.611 54.3333 9.36782 54.3333Z" stroke="#2C2C2C" stroke-width="1.87356" stroke-linecap="round" stroke-linejoin="round" fill="none" fill-rule="evenodd" transform="matrix(1.00027 0 0 1 797.518 145.805)"/><path d="M9.36782 9.36782 339.611 9.36782 339.611 54.3333 9.36782 54.3333Z" stroke="#2C2C2C" stroke-width="1.87356" stroke-linecap="round" stroke-linejoin="round" fill="none" fill-rule="evenodd" transform="matrix(1.00027 0 0 1 797.518 145.805)"/><path d="M9.36782 9.36782 102.615 9.36782 102.615 54.3333 9.36782 54.3333Z" stroke="#2C2C2C" stroke-width="1.87356" stroke-linecap="round" stroke-linejoin="round" fill="none" fill-rule="evenodd" transform="matrix(1.00027 0 0 1 797.518 207.632)"/><path d="M9.36782 9.36782 102.615 9.36782 102.615 54.3333 9.36782 54.3333Z" stroke="#2C2C2C" stroke-width="1.87356" stroke-linecap="round" stroke-linejoin="round" fill="none" fill-rule="evenodd" transform="matrix(1.00027 0 0 1 797.518 207.632)"/><path d="M9.36782 9.36782 168.658 9.36782 168.658 54.3333 9.36782 54.3333Z" stroke="#2C2C2C" stroke-width="1.87356" stroke-linecap="round" stroke-linejoin="round" fill="none" fill-rule="evenodd" transform="matrix(1.00027 0 0 1 797.518 269.46)"/><path d="M9.36782 9.36782 168.658 9.36782 168.658 54.3333 9.36782 54.3333Z" stroke="#2C2C2C" stroke-width="1.87356" stroke-linecap="round" stroke-linejoin="round" fill="none" fill-rule="evenodd" transform="matrix(1.00027 0 0 1 797.518 269.46)"/><path d="M9.36782 9.36782 304.641 9.36782 304.641 54.3333 9.36782 54.3333Z" stroke="#2C2C2C" stroke-width="1.87356" stroke-linecap="round" stroke-linejoin="round" fill="none" fill-rule="evenodd" transform="matrix(1.00027 0 0 1 797.518 331.287)"/><path d="M9.36782 9.36782 304.641 9.36782 304.641 54.3333 9.36782 54.3333Z" stroke="#2C2C2C" stroke-width="1.87356" stroke-linecap="round" stroke-linejoin="round" fill="none" fill-rule="evenodd" transform="matrix(1.00027 0 0 1 797.518 331.287)"/><path d="M9.36782 9.36782 378.46 9.36782 378.46 54.3333 9.36782 54.3333Z" stroke="#2C2C2C" stroke-width="1.87356" stroke-linecap="round" stroke-linejoin="round" fill="none" fill-rule="evenodd" transform="matrix(1.00027 0 0 1 797.518 393.115)"/><path d="M9.36782 9.36782 378.46 9.36782 378.46 54.3333 9.36782 54.3333Z" stroke="#2C2C2C" stroke-width="1.87356" stroke-linecap="round" stroke-linejoin="round" fill="none" fill-rule="evenodd" transform="matrix(1.00027 0 0 1 797.518 393.115)"/><path d="M9.36782 357.851 9.36782 183.609 9.36782 11.2414" stroke="#434343" stroke-width="1.87356" stroke-linecap="round" stroke-linejoin="round" fill="none" fill-rule="evenodd" transform="matrix(1.00027 0 0 1 797.518 106.46)"/><path d="M15.4569 16.8621 9.36782 10.773 3.27874 16.8621" stroke="#434343" stroke-width="1.87356" stroke-linecap="round" stroke-linejoin="round" fill="none" fill-rule="evenodd" transform="matrix(1.00027 0 0 1 797.518 106.46)"/><path d="M9.36782 357.851 9.36782 183.609 9.36782 11.2414" stroke="#434343" stroke-width="1.87356" stroke-linecap="round" stroke-linejoin="round" fill="none" fill-rule="evenodd" transform="matrix(1.00027 0 0 1 797.518 106.46)"/><path d="M15.4569 16.8621 9.36782 10.773 3.27874 16.8621" stroke="#434343" stroke-width="1.87356" stroke-linecap="round" stroke-linejoin="round" fill="none" fill-rule="evenodd" transform="matrix(1.00027 0 0 1 797.518 106.46)"/><path d="M9.36782 9.36782 222.954 9.36782 434.667 9.36782" stroke="#434343" stroke-width="1.87356" stroke-linecap="round" stroke-linejoin="round" fill="none" fill-rule="evenodd" transform="matrix(1.00027 0 0 1 797.518 454.943)"/><path d="M429.046 15.4569 435.135 9.36782 429.046 3.27874" stroke="#434343" stroke-width="1.87356" stroke-linecap="round" stroke-linejoin="round" fill="none" fill-rule="evenodd" transform="matrix(1.00027 0 0 1 797.518 454.943)"/><path d="M9.36782 9.36782 222.954 9.36782 434.667 9.36782" stroke="#434343" stroke-width="1.87356" stroke-linecap="round" stroke-linejoin="round" fill="none" fill-rule="evenodd" transform="matrix(1.00027 0 0 1 797.518 454.943)"/><path d="M429.046 15.4569 435.135 9.36782 429.046 3.27874" stroke="#434343" stroke-width="1.87356" stroke-linecap="round" stroke-linejoin="round" fill="none" fill-rule="evenodd" transform="matrix(1.00027 0 0 1 797.518 454.943)"/></g></svg>