<svg width="91" height="92" xmlns="http://www.w3.org/2000/svg" xmlns:xlink="http://www.w3.org/1999/xlink" xml:space="preserve" overflow="hidden"><defs><clipPath id="clip0"><rect x="705" y="396" width="91" height="92"/></clipPath><linearGradient x1="76.9969" y1="62.4276" x2="55.3812" y2="49.8645" gradientUnits="userSpaceOnUse" spreadMethod="pad" id="fill1"><stop offset="0" stop-color="#032B51"/><stop offset="1" stop-color="#156483"/></linearGradient><linearGradient x1="69.2828" y1="60.2807" x2="65.6653" y2="56.7368" gradientUnits="userSpaceOnUse" spreadMethod="pad" id="fill2"><stop offset="0" stop-color="#06519D"/><stop offset="1" stop-color="#0C8BC9"/></linearGradient><linearGradient x1="72.8369" y1="27.0725" x2="62.0541" y2="20.8321" gradientUnits="userSpaceOnUse" spreadMethod="pad" id="fill3"><stop offset="0" stop-color="#F5F0DC"/><stop offset="1" stop-color="#FFFFFF"/></linearGradient><linearGradient x1="47.7213" y1="31.9611" x2="45.9175" y2="51.0337" gradientUnits="userSpaceOnUse" spreadMethod="pad" id="fill4"><stop offset="0" stop-color="#2583A1"/><stop offset="1" stop-color="#53B6D4"/></linearGradient><linearGradient x1="40.5864" y1="62.2972" x2="18.2117" y2="31.2056" gradientUnits="userSpaceOnUse" spreadMethod="pad" id="fill5"><stop offset="0" stop-color="#D25D11"/><stop offset="1" stop-color="#F59B31"/></linearGradient></defs><g clip-path="url(#clip0)" transform="translate(-705 -396)"><path d="M0 0 23.5606 0 91.0283 0 91.0283 91.0283 0 91.0283 0 23.6219 0 0Z" fill="#00537A" transform="matrix(1 0 0 1.01099 705 396)"/><path d="M79.2252 9.74963C79.7442 9.6786 80.3517 9.86937 80.7664 10.1801 81.2952 10.5763 81.6144 11.2044 81.7085 11.8503 81.8025 12.4951 81.6518 13.1348 81.2458 13.6509 80.7785 14.2444 80.1364 14.5145 79.4069 14.6089 78.8956 14.678 78.2969 14.4826 77.8845 14.1891 77.8526 14.1666 77.8214 14.1433 77.7907 14.1193 77.76 14.0953 77.7299 14.0704 77.7005 14.0449 77.6709 14.0194 77.6422 13.9931 77.614 13.9662 77.5858 13.9392 77.5582 13.9116 77.5315 13.8832 77.5046 13.855 77.4785 13.826 77.4532 13.7964 77.4278 13.7668 77.4031 13.7366 77.3792 13.7058 77.3553 13.675 77.3322 13.6436 77.3099 13.6117 77.2875 13.5797 77.2659 13.5471 77.2452 13.5141 77.2245 13.4812 77.2046 13.4477 77.1855 13.4136 77.1664 13.3796 77.1481 13.3452 77.1307 13.3103 77.1133 13.2754 77.0968 13.2401 77.0811 13.2043 77.0655 13.1687 77.0507 13.1326 77.0369 13.0962 77.023 13.0597 77.01 13.0229 76.9979 12.9858 76.9859 12.9488 76.9747 12.9113 76.9645 12.8737 76.9543 12.8361 76.945 12.7983 76.9367 12.7602 76.9283 12.7221 76.9209 12.6839 76.9145 12.6454 76.8055 11.9569 76.9876 11.1982 77.4139 10.6447 77.8782 10.0417 78.5054 9.83479 79.2252 9.74963Z" fill="#1C8AB6" transform="matrix(1 0 0 1.01099 705 396)"/><path d="M0 0 23.5606 0 23.5081 0.0350681C22.9543 0.400434 22.3299 0.679406 21.7479 1.00119 20.6367 1.61332 19.5465 2.26106 18.4776 2.9444 18.1363 3.1673 17.7977 3.39413 17.4618 3.62487 17.1259 3.85562 16.7926 4.09023 16.4621 4.3287 16.1315 4.56717 15.8037 4.80943 15.4788 5.05549 15.1539 5.30156 14.8319 5.55136 14.5128 5.80488 14.1937 6.05841 13.8775 6.3156 13.5643 6.57646 13.2511 6.83731 12.941 7.10175 12.634 7.3698 12.327 7.63784 12.023 7.9094 11.7223 8.18448 11.4216 8.45957 11.1241 8.73809 10.8298 9.02007 10.5355 9.30204 10.2445 9.58739 9.95684 9.87612 9.66909 10.1649 9.3848 10.4569 9.1039 10.7522 8.823 11.0475 8.54555 11.346 8.27155 11.6477 7.99755 11.9495 7.72709 12.2543 7.46017 12.5623 7.19323 12.8704 6.92991 13.1815 6.67019 13.4956 6.41046 13.8096 6.15442 14.1267 5.90205 14.4467 5.64967 14.7668 5.40104 15.0897 5.15616 15.4155 4.91127 15.7413 4.67019 16.07 4.43292 16.4014 3.84283 17.2112 3.33748 18.0688 2.80924 18.9189 2.39051 19.5927 1.94934 20.2569 1.53763 20.9336 1.16216 21.5507 0.474506 23.2525 0 23.6219L0 0Z" fill="#013C58" transform="matrix(1 0 0 1.01099 705 396)"/><path d="M73.3524 23.9457 73.3831 23.8851C73.5029 23.9647 73.5364 24.0696 73.6745 24.1149 74.3837 24.7295 75.3013 26.2858 75.7958 27.1136 76.2991 27.9562 76.804 28.7982 77.2509 29.6725 77.3852 29.9365 77.5163 30.2021 77.644 30.4694 77.7718 30.7367 77.8961 31.0056 78.0171 31.276 78.1381 31.5465 78.2556 31.8184 78.3698 32.0917 78.4839 32.3651 78.5946 32.6399 78.7019 32.916 78.8092 33.1922 78.9129 33.4696 79.0133 33.7484 79.1135 34.0271 79.2103 34.3071 79.3036 34.5883 79.3968 34.8694 79.4866 35.1517 79.5729 35.4352 79.6591 35.7186 79.7418 36.003 79.8208 36.2885 79.8998 36.574 79.9753 36.8604 80.0472 37.1478 80.1191 37.4352 80.1874 37.7235 80.252 38.0126 80.3166 38.3017 80.3777 38.5915 80.4351 38.8822 80.4925 39.1728 80.5462 39.4641 80.5963 39.7562 80.6464 40.0481 80.6928 40.3406 80.7356 40.6338 80.7784 40.9269 80.8174 41.2205 80.8528 41.5147 80.8881 41.8088 80.9199 42.1033 80.9479 42.3983 80.9759 42.6932 81.0001 42.9884 81.0208 43.2839 81.0415 43.5705 81.0586 43.8573 81.0723 44.1443 81.086 44.4313 81.0962 44.7184 81.103 45.0057 81.1097 45.2929 81.1129 45.5802 81.1126 45.8675 81.1123 46.1548 81.1086 46.4421 81.1013 46.7293 81.094 47.0166 81.0833 47.3037 81.069 47.5906 81.0547 47.8776 81.037 48.1644 81.0158 48.4509 80.9945 48.7374 80.9697 49.0236 80.9416 49.3096 80.9134 49.5956 80.8816 49.8811 80.8465 50.1662 80.8114 50.4514 80.7728 50.7361 80.7306 51.0203 80.6886 51.3045 80.643 51.5881 80.594 51.8713 80.545 52.1544 80.4926 52.4369 80.4367 52.7187 80.3808 53.0006 80.3215 53.2817 80.2589 53.5621 80.1961 53.8424 80.13 54.122 80.0604 54.4009 79.9909 54.6796 79.918 54.9575 79.8418 55.2345 79.7655 55.5115 79.6858 55.7875 79.6028 56.0627 79.5198 56.3377 79.4335 56.6117 79.3438 56.8847 79.2541 57.1577 79.1611 57.4295 79.0648 57.7002 78.9685 57.9709 78.869 58.2404 78.7661 58.5087 78.6633 58.777 78.5571 59.0439 78.4478 59.3096 78.3385 59.5753 78.2259 59.8396 78.1101 60.1027 77.9943 60.3656 77.8753 60.6271 77.7532 60.8872 77.6309 61.1472 77.5057 61.4058 77.3772 61.6628 77.2488 61.9198 77.1172 62.1752 76.9825 62.429 76.8479 62.6827 76.7102 62.9349 76.5694 63.1854 76.4286 63.4358 76.2847 63.6845 76.1379 63.9315 75.991 64.1785 75.8411 64.4236 75.6883 64.6669 75.5355 64.9102 75.3797 65.1516 75.221 65.3911 75.0623 65.6307 74.9007 65.8682 74.7363 66.1038 74.5717 66.3393 74.4044 66.5729 74.2343 66.8044 74.064 67.0359 73.8911 67.2653 73.7154 67.4926 73.5396 67.7199 73.3612 67.945 73.1799 68.168 72.9986 68.391 72.8147 68.6117 72.6281 68.8301 72.4338 69.0528 72.2367 69.2731 72.037 69.4908 71.8372 69.7087 71.6348 69.924 71.4297 70.1368 71.2247 70.3497 71.0169 70.5599 70.8067 70.7676 70.5964 70.9754 70.3836 71.1805 70.1682 71.3829 69.9528 71.5853 69.735 71.785 69.5148 71.9821 69.2946 72.1792 69.0719 72.3735 68.8468 72.5651 68.6217 72.7567 68.3943 72.9455 68.1646 73.1314 67.9348 73.3174 67.7029 73.5005 67.4687 73.6807 67.2344 73.8609 66.998 74.0383 66.7593 74.2127 66.5207 74.387 66.28 74.5585 66.0371 74.7269 65.7942 74.8954 65.5493 75.0608 65.3024 75.2232 65.0554 75.3856 64.8065 75.5449 64.5556 75.7012 64.3047 75.8574 64.052 76.0106 63.7973 76.1606 63.5426 76.3106 63.2862 76.4574 63.0279 76.6011 62.7696 76.7448 62.5096 76.8853 62.2478 77.0225 61.9861 77.1598 61.7227 77.2939 61.4576 77.4246 61.1925 77.5554 60.9258 77.6828 60.6576 77.807 60.3894 77.9311 60.1198 78.052 59.8486 78.1696 59.5774 78.2871 59.3047 78.4012 59.0308 78.512 58.7567 78.6227 58.4814 78.7301 58.2048 78.8341 57.928 78.9381 57.6502 79.0387 57.371 79.1358 57.0919 79.2329 56.8116 79.3266 56.5301 79.4168 56.2486 79.5071 55.9661 79.5937 55.6826 79.6769 55.3989 79.7602 55.1143 79.8399 54.8288 79.9161 54.5432 79.9923 54.2568 80.065 53.9694 80.134 53.682 80.2032 53.3939 80.2688 53.1049 80.3308 52.8159 80.3928 52.5262 80.4513 52.2357 80.5062 51.9453 80.561 51.6542 80.6122 51.3625 80.66 51.0709 80.7076 50.7786 80.7517 50.4858 80.7921 50.1931 80.8326 49.8999 80.8695 49.6061 80.9026 49.3124 80.9359 49.0184 80.9655 48.724 80.9914 48.4295 81.0174 48.1348 81.0397 47.8399 81.0584 47.698 81.0681 47.5465 81.0884 47.4064 81.0637 47.0363 80.995 46.5332 81.1186 46.2695 81.0347L46.2515 80.954C46.3033 80.8498 46.3682 80.7424 46.3843 80.6262 46.4161 80.3982 46.5024 80.1728 46.5594 79.9489 46.7141 79.3407 46.7696 78.6383 46.5727 78.0343 46.4394 77.7366 46.1955 77.4957 45.9827 77.2528 45.438 76.631 44.3345 75.5635 44.0061 74.9012L43.4691 74.6364C42.8294 74.1882 42.5008 73.6249 42.2915 72.8843 42.1469 71.8034 42.2276 70.6574 42.2353 69.5678 41.3132 69.5573 40.3884 69.5619 39.4663 69.5725 38.9038 69.5789 38.3187 69.6332 37.7601 69.557 37.4042 69.5085 37.0961 69.4025 36.7662 69.2634 36.4112 69.0308 36.0874 68.7732 35.8111 68.4486 35.2253 67.7607 35.0198 66.9712 35.0894 66.083 35.1511 65.9442 35.1735 65.7481 35.217 65.5986 35.2335 65.5416 35.2519 65.4852 35.2719 65.4292 35.2921 65.3733 35.3139 65.3181 35.3375 65.2636 35.361 65.2091 35.3864 65.1554 35.4133 65.1026 35.4402 65.0497 35.4688 64.9976 35.499 64.9465 35.5292 64.8953 35.561 64.8453 35.5944 64.7961 35.6277 64.747 35.6626 64.699 35.699 64.6521 35.7354 64.6052 35.7732 64.5594 35.8125 64.5149 35.8518 64.4703 35.8924 64.4271 35.9344 64.3851 36.8921 63.4129 38.0384 63.4195 39.3118 63.42L40.4419 63.4208 42.2781 63.4345C42.2719 62.0077 42.3034 60.5817 42.3101 59.155 42.3135 58.4405 42.3473 57.7038 42.2844 56.9925L42.2851 56.53C42.9972 56.676 43.7227 56.7606 44.4407 56.8732 45.0947 57.0333 45.8677 57.0046 46.5401 56.9826 47.0118 56.8492 48.2812 57.0363 48.6194 56.8151L48.6548 56.6399 48.6323 56.2149C48.8448 56.2032 49.0636 56.1586 49.2719 56.1165 53.2321 55.3171 56.9307 52.771 59.1438 49.4073 59.2622 49.2243 59.3769 49.0389 59.4881 48.8514 59.5993 48.6639 59.7068 48.4744 59.8107 48.2828 59.9147 48.0912 60.0147 47.8976 60.1112 47.7021 60.2077 47.5066 60.3003 47.3094 60.3892 47.1103 60.478 46.9113 60.563 46.7106 60.644 46.5083 60.7252 46.3059 60.8024 46.1021 60.8756 45.8967 60.9489 45.6915 61.0181 45.4848 61.0834 45.2769 61.1488 45.069 61.21 44.8598 61.2673 44.6495 61.3245 44.4391 61.3777 44.2277 61.4268 44.0154 61.4759 43.803 61.5209 43.5897 61.5618 43.3756 61.6027 43.1615 61.6394 42.9468 61.672 42.7312 61.7046 42.5156 61.7331 42.2996 61.7574 42.083 61.7816 41.8663 61.8018 41.6493 61.8177 41.4319 61.8336 41.2146 61.8455 40.997 61.853 40.7791 61.8606 40.5612 61.8638 40.3433 61.8631 40.1253 61.8623 39.9074 61.8572 39.6895 61.8479 39.4717 61.7958 38.438 61.62 37.437 61.4136 36.4243 61.1951 35.5631 60.9388 34.7391 60.6199 33.9095 61.8795 32.6339 63.188 31.3965 64.4712 30.1434 65.0654 29.5633 65.8946 28.6444 66.5369 28.172 66.5619 28.1613 66.5871 28.1514 66.6118 28.1401 66.9792 27.9728 67.476 27.3107 67.8004 27.015 68.1678 27.632 68.2913 28.4779 68.5206 29.1623 68.6336 29.4997 68.8411 29.8423 68.8934 30.1936 68.4536 31.0605 65.6896 33.3067 65.5813 33.7644L67.5751 31.7738C67.9499 31.4059 68.6069 30.8896 68.8648 30.4458 68.9065 30.3738 68.9274 30.339 69.0025 30.2938L68.999 30.4066 69.0516 30.3592C69.1734 30.5715 69.2523 30.8447 69.34 31.0745 69.563 31.2567 69.7922 31.4182 70.0325 31.5769 71.0466 32.2176 72.4477 33.6259 73.3844 34.4583 73.3602 32.6031 73.4013 30.7485 73.3744 28.8941 73.3489 27.7949 73.3376 26.6956 73.3405 25.596 73.3392 25.0498 73.3134 24.4898 73.3524 23.9457Z" fill="url(#fill1)" transform="matrix(1 0 0 1.01099 705 396)"/><path d="M67.305 62.6259 67.3113 62.5867C67.2372 62.5538 67.2258 62.5462 67.1713 62.4797 67.1824 62.3801 67.2447 62.3205 67.3055 62.2463 68.0279 61.3643 68.827 60.5252 69.5843 59.672 69.9517 59.258 70.2776 58.8092 70.6489 58.3988 70.803 58.2284 71.0973 57.8359 71.3342 57.8243 71.3669 57.8983 71.3987 57.9726 71.4296 58.0473L71.4878 58.0402C71.7979 58.7143 71.7499 59.5689 71.4995 60.2545 71.1588 61.1875 70.4318 61.9872 69.5232 62.394 68.8581 62.6917 68.0159 62.8163 67.305 62.6259Z" fill="#00537A" transform="matrix(1 0 0 1.01099 705 396)"/><path d="M67.305 62.6259C67.0778 62.6168 66.8177 62.5056 66.6144 62.4048 66.5593 62.3769 66.5049 62.3479 66.4512 62.3174 66.3975 62.2869 66.3446 62.2552 66.2925 62.2222 66.2403 62.1891 66.189 62.1548 66.1386 62.1192 66.0882 62.0837 66.0386 62.0469 65.99 62.0089 65.9414 61.971 65.8936 61.9319 65.8469 61.8915 65.8002 61.8512 65.7545 61.8098 65.7098 61.7672 65.6651 61.7246 65.6214 61.6811 65.5789 61.6364 65.5363 61.5917 65.4949 61.546 65.4545 61.4992 65.4142 61.4525 65.375 61.4048 65.3371 61.3562 65.2991 61.3075 65.2623 61.2579 65.2267 61.2075 65.1911 61.1571 65.1568 61.1058 65.1238 61.0537 65.0907 61.0016 65.059 60.9487 65.0285 60.895 64.998 60.8414 64.9689 60.787 64.941 60.7319 64.9132 60.6768 64.8868 60.621 64.8617 60.5646 64.8367 60.5082 64.813 60.4512 64.7907 60.3937 64.7684 60.3361 64.7476 60.2781 64.7281 60.2195 64.4414 59.3495 64.5493 58.3942 64.9674 57.585 65.3972 56.7536 66.1285 56.1053 67.0265 55.8252 67.9572 55.535 69.0733 55.6414 69.9337 56.1004 70.6945 56.5063 71.2377 57.2214 71.4878 58.0402L71.4296 58.0473C71.3987 57.9726 71.3669 57.8983 71.3342 57.8243 71.0973 57.8359 70.803 58.2284 70.6489 58.3988 70.2776 58.8092 69.9517 59.258 69.5843 59.672 68.827 60.5252 68.0279 61.3643 67.3055 62.2463 67.2447 62.3205 67.1824 62.3801 67.1713 62.4797 67.2258 62.5462 67.2372 62.5538 67.3113 62.5867L67.305 62.6259Z" fill="url(#fill2)" transform="matrix(1 0 0 1.01099 705 396)"/><path d="M55.716 65.8686C55.8082 65.8576 55.8194 65.8367 55.9002 65.8943 56.2 66.108 57.7473 68.8231 57.9847 69.3248 58.1007 69.5701 58.1925 69.8323 58.2274 70.1022 58.3025 70.6827 58.115 71.3503 57.7423 71.8034 57.2121 72.448 56.3619 72.6596 55.5666 72.7217 54.7533 72.7853 53.9158 72.7312 53.0999 72.7192 52.5221 72.7105 51.9432 72.7376 51.3659 72.7209 51.6575 74.1476 51.9696 75.5424 51.1188 76.85 50.5859 77.6691 49.9109 78.1569 48.9489 78.3505 48.1057 78.5202 47.3614 78.3793 46.5971 77.9939L46.5727 78.0343C46.4394 77.7366 46.1955 77.4957 45.9827 77.2528 45.438 76.631 44.3345 75.5635 44.0061 74.9012 44.4426 75.0595 44.8594 75.1738 45.3274 75.1771 45.3812 75.177 45.4351 75.1757 45.489 75.173 45.5428 75.1703 45.5965 75.1663 45.6502 75.1611 45.7038 75.1559 45.7573 75.1493 45.8106 75.1414 45.8639 75.1334 45.9169 75.1243 45.9698 75.1138 46.0227 75.1033 46.0752 75.0916 46.1276 75.0785 46.1799 75.0654 46.2318 75.0512 46.2834 75.0357 46.3351 75.0201 46.3862 75.0032 46.437 74.9852 46.4877 74.9671 46.538 74.9478 46.5879 74.9273 46.6378 74.9068 46.687 74.8851 46.7358 74.8621 46.7846 74.8392 46.8328 74.8151 46.8805 74.7899 46.928 74.7646 46.9749 74.7382 47.0213 74.7107 47.0676 74.6831 47.1133 74.6544 47.1582 74.6246 47.2031 74.5948 47.2472 74.564 47.2906 74.5321 47.3341 74.5002 47.3767 74.4672 47.4185 74.4332 47.4603 74.3992 47.5013 74.3642 47.5414 74.3281 47.5815 74.2921 47.6207 74.2552 47.659 74.2173 48.8834 72.9957 48.6239 71.3 48.6158 69.7235 50.0319 69.7456 51.5128 69.8166 52.9226 69.6882 53.7613 69.6118 54.5086 69.2371 55.0453 68.5827 55.7042 67.7794 55.8157 66.8713 55.716 65.8686Z" fill="#013C58" transform="matrix(1 0 0 1.01099 705 396)"/><path d="M66.5369 28.172C66.5619 28.1613 66.5871 28.1514 66.6118 28.1401 66.9792 27.9728 67.476 27.3107 67.8004 27.015 68.1678 27.632 68.2913 28.4779 68.5206 29.1623 68.6336 29.4997 68.8411 29.8423 68.8934 30.1936 68.4536 31.0605 65.6896 33.3067 65.5813 33.7644 65.2155 34.204 64.7712 34.6015 64.37 35.0104 64.0916 35.2942 63.8325 35.609 63.5402 35.8772 64.0822 36.5797 64.5408 37.4414 64.9222 38.2403 66.2383 40.9969 66.8288 43.8847 66.6757 46.9396 66.3686 47.135 65.2641 47.1844 65.1306 47.3348 64.6089 47.3992 64.1037 47.4146 63.5791 47.3917 63.0297 49.3186 62.1224 51.0152 61.0162 52.6737 60.781 53.0262 60.1975 53.5552 60.0614 53.8885L60.0764 53.945C59.5532 54.5033 58.6854 55.4536 58.0636 55.8665 57.5785 56.1886 57.1227 56.5607 56.6332 56.8841 56.4421 57.0103 56.0456 57.1985 55.9046 57.3628 55.8202 57.4613 55.8025 57.6373 55.7079 57.7449 55.5192 57.9595 55.2179 58.1566 54.9951 58.3403 54.5359 58.7192 54.078 59.1365 53.5893 59.476 53.2165 59.7349 52.7813 59.9476 52.384 60.169 51.9808 60.3937 51.5326 60.5895 51.085 60.7085 50.8166 60.7798 50.5288 60.8085 50.2688 60.9087 50.1901 60.9389 50.149 60.9706 50.1017 61.0426 50.08 61.2898 50.1171 61.5647 50.0578 61.8031 50.0243 62.3086 50.0438 62.8308 50.0635 63.337 49.5741 63.3411 49.085 63.35 48.5958 63.3637 48.6298 61.1226 48.6495 58.8813 48.6548 56.6399L48.6323 56.2149C48.8448 56.2032 49.0636 56.1586 49.2719 56.1165 53.2321 55.3171 56.9307 52.771 59.1438 49.4073 59.2622 49.2243 59.3769 49.0389 59.4881 48.8514 59.5993 48.6639 59.7068 48.4744 59.8107 48.2828 59.9147 48.0912 60.0147 47.8976 60.1112 47.7021 60.2077 47.5066 60.3003 47.3094 60.3892 47.1103 60.478 46.9113 60.563 46.7106 60.644 46.5083 60.7252 46.3059 60.8024 46.1021 60.8756 45.8967 60.9489 45.6915 61.0181 45.4848 61.0834 45.2769 61.1488 45.069 61.21 44.8598 61.2673 44.6495 61.3245 44.4391 61.3777 44.2277 61.4268 44.0154 61.4759 43.803 61.5209 43.5897 61.5618 43.3756 61.6027 43.1615 61.6394 42.9468 61.672 42.7312 61.7046 42.5156 61.7331 42.2996 61.7574 42.083 61.7816 41.8663 61.8018 41.6493 61.8177 41.4319 61.8336 41.2146 61.8455 40.997 61.853 40.7791 61.8606 40.5612 61.8638 40.3433 61.8631 40.1253 61.8623 39.9074 61.8572 39.6895 61.8479 39.4717 61.7958 38.438 61.62 37.437 61.4136 36.4243 61.1951 35.5631 60.9388 34.7391 60.6199 33.9095 61.8795 32.6339 63.188 31.3965 64.4712 30.1434 65.0654 29.5633 65.8946 28.6444 66.5369 28.172Z" fill="#00537A" transform="matrix(1 0 0 1.01099 705 396)"/><path d="M42.2851 56.53C42.9972 56.676 43.7227 56.7606 44.4407 56.8732 45.0947 57.0333 45.8677 57.0046 46.5401 56.9826 47.0118 56.8492 48.2812 57.0363 48.6194 56.8151L48.6548 56.6399C48.6495 58.8813 48.6298 61.1226 48.5958 63.3637 49.085 63.35 49.5741 63.3411 50.0635 63.337L51.7623 63.3231C52.874 63.3159 53.9503 63.2946 54.8018 64.1249 55.2843 64.5954 55.5772 65.2157 55.716 65.8686 55.8157 66.8713 55.7042 67.7794 55.0453 68.5827 54.5086 69.2371 53.7613 69.6118 52.9226 69.6882 51.5128 69.8166 50.0319 69.7456 48.6158 69.7235 48.6239 71.3 48.8834 72.9957 47.659 74.2173 47.6207 74.2552 47.5815 74.2921 47.5414 74.3281 47.5013 74.3642 47.4603 74.3992 47.4185 74.4332 47.3767 74.4672 47.3341 74.5002 47.2906 74.5321 47.2472 74.564 47.2031 74.5948 47.1582 74.6246 47.1133 74.6544 47.0676 74.6831 47.0213 74.7107 46.9749 74.7382 46.928 74.7646 46.8805 74.7899 46.8328 74.8152 46.7846 74.8393 46.7358 74.8621 46.687 74.8851 46.6378 74.9068 46.5879 74.9273 46.538 74.9478 46.4877 74.9671 46.437 74.9852 46.3862 75.0032 46.3351 75.0201 46.2834 75.0357 46.2318 75.0512 46.1799 75.0654 46.1276 75.0785 46.0752 75.0916 46.0227 75.1033 45.9698 75.1138 45.9169 75.1243 45.8639 75.1334 45.8106 75.1414 45.7573 75.1493 45.7038 75.1559 45.6502 75.1611 45.5965 75.1663 45.5428 75.1703 45.489 75.173 45.4351 75.1757 45.3812 75.177 45.3274 75.1771 44.8594 75.1738 44.4426 75.0595 44.0061 74.9012L43.4691 74.6364C42.8294 74.1882 42.5008 73.6249 42.2915 72.8843 42.1469 71.8034 42.2276 70.6574 42.2353 69.5678 41.3132 69.5573 40.3884 69.5619 39.4663 69.5725 38.9038 69.5789 38.3187 69.6332 37.7601 69.557 37.4042 69.5085 37.0961 69.4025 36.7662 69.2634 36.4112 69.0308 36.0874 68.7732 35.8111 68.4486 35.2253 67.7607 35.0198 66.9712 35.0894 66.083 35.1511 65.9442 35.1735 65.7481 35.217 65.5986 35.2335 65.5416 35.2519 65.4852 35.2719 65.4292 35.2921 65.3733 35.3139 65.3181 35.3375 65.2636 35.361 65.2091 35.3864 65.1554 35.4133 65.1026 35.4402 65.0497 35.4688 64.9976 35.499 64.9465 35.5292 64.8953 35.561 64.8453 35.5944 64.7961 35.6277 64.747 35.6626 64.699 35.699 64.6521 35.7354 64.6052 35.7732 64.5594 35.8125 64.5149 35.8518 64.4703 35.8924 64.4271 35.9344 64.3851 36.8921 63.4129 38.0384 63.4195 39.3118 63.42L40.4419 63.4208 42.2781 63.4345C42.2719 62.0077 42.3034 60.5817 42.3101 59.155 42.3135 58.4405 42.3473 57.7038 42.2844 56.9925L42.2851 56.53Z" fill="#FFBA42" transform="matrix(1 0 0 1.01099 705 396)"/><path d="M44.4407 56.8732C45.0947 57.0333 45.8677 57.0046 46.5401 56.9826 46.6143 57.8811 46.5463 58.8343 46.5427 59.7399L46.527 65.4744 50.7616 65.4691C51.4568 65.4684 52.2098 65.4092 52.8987 65.4996 53.1019 65.5262 53.3049 65.5716 53.4622 65.7112 53.6821 65.9065 53.7814 66.2293 53.7788 66.5162 53.7763 66.7836 53.6277 67.0559 53.438 67.2383 53.2905 67.38 53.1394 67.4578 52.9388 67.4969 52.2408 67.6331 51.4296 67.5553 50.7149 67.5563L46.5791 67.5627C46.5382 68.5103 46.5737 69.4656 46.5818 70.4139 46.5862 70.9273 46.6318 71.496 46.5278 72.0003 46.4692 72.2846 46.3511 72.5699 46.1449 72.7796 45.9444 72.9836 45.679 73.0736 45.3956 73.0707 45.0474 73.0672 44.8068 72.9082 44.5662 72.6727 44.3125 71.9844 44.4411 68.4017 44.4422 67.5177 42.9533 67.4833 41.458 67.5131 39.9684 67.5096 39.2935 67.508 38.5394 67.5639 37.8743 67.4578 37.7025 67.4304 37.5617 67.3775 37.4272 67.2647 37.1928 67.0685 37.058 66.7631 37.0324 66.4618 37.0144 66.2487 37.0689 66.048 37.2163 65.8893 37.4153 65.6749 37.7112 65.5824 37.9928 65.5425 38.8335 65.4233 39.7804 65.5057 40.6327 65.507 41.8972 65.5089 43.1631 65.4774 44.4278 65.4658 44.4504 62.6016 44.4547 59.7374 44.4407 56.8732Z" fill="#F5A201" transform="matrix(1 0 0 1.01099 705 396)"/><path d="M40.1933 80.8264C38.9 80.6781 37.6025 80.3966 36.343 80.07 36.1172 80.0094 35.8918 79.9466 35.6671 79.8814 35.4424 79.8163 35.2184 79.749 34.9951 79.6794 34.7717 79.6098 34.5491 79.5381 34.3272 79.4641 34.1053 79.39 33.8841 79.3138 33.6637 79.2354 33.4434 79.157 33.2237 79.0764 33.005 78.9936 32.7862 78.9109 32.5683 78.8259 32.3512 78.7388 32.1341 78.6516 31.9179 78.5624 31.7026 78.4709 31.4873 78.3794 31.2728 78.2859 31.0594 78.1902 30.846 78.0944 30.6334 77.9967 30.4219 77.8967 30.2105 77.7968 30 77.6948 29.7905 77.5907 29.581 77.4866 29.3726 77.3804 29.1652 77.272 28.9579 77.1637 28.7517 77.0534 28.5465 76.941 28.3414 76.8286 28.1373 76.7142 27.9345 76.5977 27.7315 76.4813 27.5298 76.3629 27.3294 76.2424 27.1288 76.122 26.9295 75.9995 26.7315 75.875 26.5333 75.7506 26.3365 75.6241 26.141 75.4958 25.9455 75.3674 25.7512 75.2371 25.5582 75.1049 25.3652 74.9727 25.1736 74.8386 24.9833 74.7025 24.7929 74.5664 24.604 74.4285 24.4166 74.2887 24.229 74.1488 24.0428 74.0072 23.8581 73.8637 23.6734 73.7202 23.4901 73.5749 23.3083 73.4276 23.1265 73.2805 22.9462 73.1315 22.7673 72.9808 22.5884 72.83 22.4111 72.6775 22.2353 72.5231 22.0594 72.3689 21.8851 72.2129 21.7124 72.0551 21.5397 71.8973 21.3685 71.7378 21.199 71.5767 21.0295 71.4155 20.8616 71.2527 20.6952 71.0881 20.5289 70.9236 20.3643 70.7574 20.2013 70.5897 20.0384 70.4218 19.8771 70.2524 19.7175 70.0815 19.5578 69.9104 19.4 69.7378 19.2438 69.5637 19.0876 69.3895 18.9332 69.2139 18.7805 69.0366 18.6278 68.8594 18.4769 68.6807 18.3278 68.5004 18.1787 68.3202 18.0314 68.1385 17.8859 67.9553 16.2001 65.8312 14.6578 63.5058 13.4551 61.0724 13.3636 60.8852 13.2738 60.6972 13.1855 60.5084 13.0973 60.3196 13.0108 60.13 12.9259 59.9396 12.841 59.7493 12.7579 59.5582 12.6764 59.3664 12.5949 59.1746 12.5151 58.9821 12.4371 58.7889 12.359 58.5957 12.2826 58.4018 12.2079 58.2073 12.1333 58.0127 12.0603 57.8175 11.9891 57.6216 11.9179 57.4258 11.8484 57.2293 11.7807 57.0322 11.7129 56.8352 11.6469 56.6375 11.5826 56.4392 11.5184 56.241 11.4559 56.0422 11.3952 55.8428 11.3344 55.6435 11.2753 55.4437 11.2182 55.2432 11.1609 55.0429 11.1055 54.842 11.0518 54.6406 10.9982 54.4393 10.9462 54.2374 10.8961 54.0352 10.846 53.8329 10.7976 53.6301 10.7511 53.427 10.7046 53.2239 10.6598 53.0203 10.6169 52.8164 10.5739 52.6125 10.5329 52.4082 10.4935 52.2036 10.4541 51.9989 10.4166 51.7939 10.3809 51.5886 10.3452 51.3833 10.3113 51.1777 10.2792 50.9718 10.2471 50.7659 10.2169 50.5597 10.1884 50.3532 10.1599 50.1468 10.1333 49.9401 10.1085 49.7333 10.0837 49.5263 10.0607 49.3192 10.0396 49.1119 10.0184 48.9045 9.99916 48.697 9.98164 48.4894 9.96413 48.2817 9.94848 48.0739 9.93471 47.8659 9.92093 47.658 9.90893 47.45 9.8987 47.2418 9.88857 47.0337 9.8803 46.8254 9.87381 46.6171 9.86732 46.4089 9.8627 46.2006 9.85995 45.9921 9.85719 45.7838 9.85621 45.5754 9.8571 45.367 9.85799 45.1586 9.86075 44.9502 9.86528 44.7419 9.86981 44.5335 9.87621 44.3253 9.88448 44.117 9.89275 43.9088 9.90279 43.7007 9.9147 43.4926 9.92662 43.2845 9.9404 43.0766 9.95595 42.8688 9.9716 42.661 9.98902 42.4533 10.0082 42.2458 10.0275 42.0383 10.0486 41.831 10.0715 41.6238 10.1073 41.3316 10.1465 41.0398 10.1895 40.7485 10.2323 40.4572 10.2787 40.1664 10.3287 39.8763 10.3787 39.5861 10.4323 39.2966 10.4893 39.0078 10.5463 38.7188 10.6069 38.4307 10.671 38.1433 10.7351 37.8559 10.8028 37.5694 10.8739 37.2837 10.945 36.9979 11.0196 36.7131 11.0976 36.4293 11.1758 36.1453 11.2573 35.8624 11.3423 35.5805 11.4272 35.2986 11.5157 35.0178 11.6075 34.738 11.6994 34.4583 11.7947 34.1797 11.8933 33.9023 11.992 33.6248 12.094 33.3487 12.1995 33.0738 12.3049 32.7988 12.4136 32.5253 12.5257 32.253 12.6378 31.9807 12.7533 31.7098 12.8721 31.4404 12.9907 31.171 13.1128 30.903 13.238 30.6365 13.3633 30.3701 13.4918 30.1052 13.6236 29.8419 13.7554 29.5786 13.8903 29.3169 14.0285 29.0569 14.1666 28.7969 14.308 28.5386 14.4524 28.2821 14.5969 28.0254 14.7445 27.7706 14.8952 27.5177 15.0459 27.2648 15.1997 27.0137 15.3565 26.7645 15.5134 26.5154 15.6732 26.2681 15.8361 26.0228 15.999 25.7775 16.1649 25.5342 16.3337 25.2931 16.5025 25.0518 16.6743 24.8127 16.8489 24.5756 17.0236 24.3386 17.2012 24.1037 17.3816 23.871 17.5621 23.6384 17.7453 23.4079 17.9313 23.1797 18.1174 22.9515 18.3062 22.7255 18.4978 22.5019 18.6893 22.2784 18.8837 22.0572 19.0806 21.8383 19.2776 21.6195 19.4773 21.4031 19.6795 21.1891 19.8818 20.9752 20.0867 20.7637 20.2942 20.5547 20.5015 20.3458 20.7115 20.1394 20.9241 19.9355 21.1366 19.7317 21.3516 19.5305 21.5689 19.332 21.7863 19.1335 22.0062 18.9375 22.2283 18.7444 22.4506 18.5512 22.6751 18.3607 22.902 18.173 23.1288 17.9854 23.3579 17.8005 23.5893 17.6183 23.8147 17.4376 24.0422 17.2596 24.2719 17.0845 24.5017 16.9094 24.7336 16.7371 24.9675 16.5677 25.2015 16.3982 25.4375 16.2317 25.6757 16.0682 25.9137 15.9045 26.1537 15.7439 26.3958 15.5862 26.6379 15.4285 26.8818 15.2738 27.1277 15.1222 27.3735 14.9704 27.6211 14.8218 27.8707 14.6762 28.1202 14.5307 28.3714 14.3882 28.6245 14.2487 28.8775 14.1093 29.1322 13.973 29.3885 13.8399 29.6449 13.7068 29.9029 13.5768 30.1625 13.4501 30.422 13.3233 30.6831 13.1997 30.9458 13.0794 31.2084 12.959 31.4724 12.8419 31.7379 12.728 32.0035 12.6142 32.2703 12.5037 32.5385 12.3964 32.8067 12.2891 33.0762 12.1852 33.347 12.0844 33.6178 11.9838 33.8898 11.8866 34.163 11.7926 34.4362 11.6986 34.7104 11.6081 34.9858 11.5209 35.2613 11.4337 35.5377 11.35 35.8152 11.2696 36.0926 11.1892 36.371 11.1122 36.6504 11.0387 36.9298 10.9652 37.21 10.8951 37.4911 10.8285 37.7722 10.7619 38.0541 10.6987 38.3367 10.639 38.6193 10.5794 38.9027 10.5232 39.1867 10.4705 39.4707 10.4178 39.7554 10.3685 40.0406 10.3228 40.3259 10.2771 40.6116 10.235 40.8979 10.1963 41.1842 10.1577 41.4708 10.1225 41.7581 10.0909 42.0452 10.0593 42.3327 10.0312 42.6205 10.0067 42.9084 9.98218 43.1965 9.9612 43.4848 9.94377 43.7731 9.92635 44.0617 9.91248 44.3503 9.90217 44.6391 9.89186 44.9279 9.8851 45.2167 9.8819 45.5055 9.8787 45.7944 9.87906 46.0832 9.88288 46.3721 9.88679 46.6609 9.89426 46.9495 9.90528 47.2382 9.9163 47.5267 9.93088 47.815 9.94902 48.1033 9.96706 48.3914 9.98875 48.6792 10.014 48.9669 10.0392 49.2544 10.068 49.5414 10.1002 56.3786 10.9141 62.9446 13.9368 68.2215 18.3215 69.1267 19.0736 70.5884 20.3349 71.2945 21.2315 71.6805 21.6657 72.0877 22.0885 72.457 22.5366 72.8793 23.0491 73.2659 23.5915 73.6745 24.1149 73.5364 24.0696 73.5029 23.9647 73.3831 23.8851L73.3524 23.9457C73.3134 24.4898 73.3392 25.0498 73.3405 25.596 73.3376 26.6956 73.3489 27.7949 73.3744 28.8941 73.4013 30.7485 73.3602 32.6031 73.3844 34.4583 72.4477 33.6259 71.0466 32.2176 70.0325 31.5769 69.7922 31.4182 69.563 31.2567 69.34 31.0745 69.2523 30.8447 69.1734 30.5715 69.0516 30.3592L68.999 30.4066 69.0025 30.2938C68.9274 30.339 68.9065 30.3738 68.8648 30.4458 68.6069 30.8896 67.9499 31.4059 67.5751 31.7738L65.5813 33.7644C65.6896 33.3067 68.4536 31.0605 68.8934 30.1936 68.8411 29.8423 68.6336 29.4997 68.5206 29.1623 68.2913 28.4779 68.1678 27.632 67.8004 27.015 67.476 27.3107 66.9792 27.9728 66.6118 28.1401 66.5871 28.1514 66.5619 28.1613 66.5369 28.172 66.963 27.7036 67.4083 27.2163 67.8763 26.7905 67.9953 27.1647 68.8921 30.0624 69.0248 30.1204 69.1115 30.1583 69.2028 30.1591 69.2958 30.1655 69.4356 30.1684 69.5799 30.1649 69.7189 30.1777 69.7005 27.6973 69.7387 25.2194 69.7422 22.7391 67.5153 22.7913 65.2859 22.7218 63.0588 22.7603L63.1277 22.8376C63.5548 23.1577 63.9433 23.5343 64.3388 23.8923 64.189 24.2168 64.1282 24.6768 63.7646 24.8126 63.5009 25.1042 63.2279 25.3832 62.9487 25.6598 61.6135 26.9651 60.2002 28.2109 58.9738 29.6206 55.1791 25.6667 50.8117 23.2673 45.2457 23.1495 45.0937 23.1479 44.9417 23.1479 44.7896 23.1499 44.6376 23.1519 44.4856 23.1557 44.3337 23.1614 44.1818 23.167 44.03 23.1745 43.8782 23.1839 43.7265 23.1932 43.5748 23.2045 43.4234 23.2175 43.2719 23.2306 43.1207 23.2455 42.9695 23.2623 42.8184 23.279 42.6676 23.2976 42.5169 23.318 42.3662 23.3384 42.2159 23.3607 42.0657 23.3848 41.9156 23.4088 41.7658 23.4348 41.6164 23.4625 41.4669 23.4903 41.3178 23.5198 41.1691 23.5512 41.0202 23.5825 40.8719 23.6158 40.724 23.6507 40.5759 23.6858 40.4285 23.7226 40.2814 23.7611 40.1344 23.7997 39.9878 23.8401 39.8418 23.8822 39.6957 23.9243 39.5502 23.9683 39.4052 24.014 39.2602 24.0597 39.1158 24.1072 38.9719 24.1564 38.828 24.2056 38.6848 24.2565 38.5422 24.3093 38.3996 24.362 38.2577 24.4165 38.1164 24.4727 37.9751 24.5287 37.8345 24.5866 37.6947 24.6463 37.5549 24.7059 37.4157 24.7672 37.2773 24.8301 37.139 24.8931 37.0014 24.9578 36.8646 25.0242 36.7278 25.0905 36.5919 25.1585 36.4567 25.2281 36.3216 25.2978 36.1874 25.3691 36.054 25.442 35.9205 25.5149 35.7881 25.5894 35.6564 25.6656 35.5249 25.7418 35.3943 25.8195 35.2646 25.8988 35.1349 25.9782 35.0062 26.0591 34.8784 26.1416 34.7507 26.224 34.624 26.308 34.4984 26.3936 34.3727 26.4792 34.2481 26.5662 34.1245 26.6548 34.001 26.7435 33.8785 26.8335 33.7572 26.9251 33.6358 27.0166 33.5156 27.1097 33.3965 27.2042 33.2774 27.2987 33.1595 27.3947 33.0427 27.4921 32.926 27.5894 32.8105 27.6882 32.6961 27.7884 32.5818 27.8886 32.4687 27.9902 32.3568 28.0932 32.245 28.1961 32.1344 28.3004 32.0251 28.4061 31.5695 28.8432 31.1399 29.306 30.7094 29.7674 30.3635 29.4185 30.07 28.9767 29.7564 28.5944 28.7646 27.3856 27.8203 26.1413 26.8408 24.923 24.7191 26.8891 22.7945 29.41 21.4718 31.9851 20.9307 33.0386 20.45 34.1552 20.0157 35.2575 19.9371 35.457 19.7506 36.1863 19.6075 36.2759L19.5828 36.256C19.2519 37.2227 19.1023 38.3246 18.9745 39.3366 18.3663 44.1517 19.0614 49.2368 21.2066 53.6134 23.3544 57.9955 26.9358 61.6854 31.1061 64.1797 32.2822 64.8833 33.4877 65.5059 34.7874 65.9496 34.8912 65.9851 35.0114 66.0046 35.0894 66.083 35.0198 66.9712 35.2253 67.7607 35.8111 68.4486 36.0874 68.7732 36.4112 69.0308 36.7662 69.2634 37.0961 69.4025 37.4042 69.5085 37.7601 69.557 38.3187 69.6332 38.9038 69.5789 39.4663 69.5725 40.3884 69.5619 41.3132 69.5573 42.2353 69.5678 42.2276 70.6574 42.1469 71.8034 42.2915 72.8843 42.5008 73.6249 42.8294 74.1882 43.4691 74.6364 42.283 74.7603 41.3415 75.0274 40.5586 75.9842 40.5148 76.0383 40.4723 76.0936 40.4312 76.1499 40.3901 76.2061 40.3504 76.2635 40.3122 76.3217 40.2739 76.3799 40.2371 76.4391 40.2018 76.4992 40.1665 76.5593 40.1326 76.6202 40.1004 76.682 40.0681 76.7438 40.0373 76.8064 40.0082 76.8697 39.979 76.9329 39.9515 76.9969 39.9254 77.0616 39.8994 77.1262 39.875 77.1915 39.8523 77.2574 39.8295 77.3233 39.8083 77.3896 39.7889 77.4565 39.7694 77.5235 39.7516 77.5909 39.7355 77.6587 39.7194 77.7265 39.705 77.7946 39.6922 77.8631 39.6795 77.9317 39.6685 78.0005 39.6592 78.0695 39.6498 78.1386 39.6423 78.208 39.6364 78.2774 39.6306 78.3468 39.6264 78.4164 39.624 78.486 39.6216 78.5556 39.6209 78.6253 39.6219 78.695 39.623 78.7647 39.6258 78.8343 39.6303 78.9039 39.6348 78.9735 39.641 79.0429 39.6489 79.1121 39.7117 79.6837 40.1802 80.5266 40.1933 80.8264Z" fill="#013C58" transform="matrix(1 0 0 1.01099 705 396)"/><path d="M29.8533 65.0898C30.0266 65.3636 30.0603 66.9507 30.0876 67.379 31.0609 67.3675 32.0329 67.4651 32.9946 67.6067 32.0385 67.759 31.0598 67.8213 30.0924 67.8362 30.073 68.6857 29.9743 69.5405 29.8506 70.3807 29.819 70.3917 29.8404 70.3881 29.7871 70.3656 29.7179 69.5217 29.6535 68.6776 29.5941 67.833 28.6848 67.8162 27.767 67.7682 26.8653 67.6473 27.6661 67.3435 28.7505 67.3856 29.605 67.3678 29.6458 66.6092 29.7368 65.8405 29.8533 65.0898Z" fill="#FCF7E2" transform="matrix(1 0 0 1.01099 705 396)"/><path d="M16.1539 51.0298C16.478 51.011 16.7748 50.9923 17.0861 51.1096 17.1326 51.1273 17.178 51.1472 17.2225 51.1694 17.2669 51.1916 17.3102 51.2159 17.3523 51.2424 17.3943 51.2689 17.4349 51.2975 17.4741 51.3279 17.5133 51.3584 17.551 51.3909 17.587 51.4251 17.623 51.4593 17.6572 51.4953 17.6896 51.533 17.7221 51.5706 17.7526 51.6098 17.7811 51.6505 17.8096 51.6912 17.8361 51.7331 17.8606 51.7764 17.8849 51.8197 17.9071 51.8642 17.9271 51.9097 18.0812 52.258 18.1074 52.684 17.9678 53.0415 17.7938 53.4872 17.4413 53.7086 17.025 53.8925 16.6681 53.9848 16.3454 53.9964 16.0043 53.8387 15.6183 53.6604 15.3092 53.3036 15.1739 52.9021 15.0414 52.5088 15.1081 52.0624 15.3015 51.7004 15.4929 51.3419 15.7718 51.1427 16.1539 51.0298Z" fill="#00537A" transform="matrix(1 0 0 1.01099 705 396)"/><path d="M71.098 21.2259C71.1639 21.2556 71.1979 21.2515 71.2279 21.32 71.2648 24.2773 71.2367 27.2359 71.2435 30.1935 70.7376 30.1929 70.2236 30.2118 69.7189 30.1777 69.7005 27.6973 69.7387 25.2194 69.7422 22.7391 67.5153 22.7913 65.2859 22.7218 63.0588 22.7603 62.9512 22.7046 62.8616 22.6164 62.769 22.5388 62.3294 22.1553 61.9235 21.719 61.5042 21.3123L63.2055 21.2577C65.8347 21.2252 68.4702 21.2959 71.098 21.2259Z" fill="url(#fill3)" transform="matrix(1 0 0 1.01099 705 396)"/><path d="M54.6635 12.3003C55.9898 12.5887 59.3584 13.4395 60.3974 14.194 61.9368 15.9353 63.5193 18.0441 63.3618 20.5042 63.3452 20.7644 63.3017 21.0142 63.2055 21.2577L61.5042 21.3123C61.9235 21.719 62.3294 22.1553 62.769 22.5388 62.8616 22.6164 62.9512 22.7046 63.0588 22.7603L63.1277 22.8376C63.5548 23.1577 63.9433 23.5343 64.3388 23.8923 64.189 24.2168 64.1282 24.6768 63.7646 24.8126 63.5009 25.1042 63.2279 25.3832 62.9487 25.6598 61.6135 26.9651 60.2002 28.2109 58.9738 29.6206 55.1791 25.6667 50.8117 23.2673 45.2457 23.1495 45.0937 23.1479 44.9417 23.1479 44.7896 23.1499 44.6376 23.1519 44.4856 23.1557 44.3337 23.1614 44.1818 23.167 44.03 23.1745 43.8782 23.1839 43.7265 23.1932 43.5748 23.2045 43.4234 23.2175 43.2719 23.2306 43.1207 23.2455 42.9695 23.2623 42.8184 23.279 42.6676 23.2976 42.5169 23.318 42.3662 23.3384 42.2159 23.3607 42.0657 23.3848 41.9156 23.4088 41.7658 23.4348 41.6164 23.4625 41.4669 23.4903 41.3178 23.5198 41.1691 23.5512 41.0202 23.5825 40.8719 23.6158 40.724 23.6507 40.5759 23.6858 40.4285 23.7226 40.2814 23.7611 40.1344 23.7997 39.9878 23.8401 39.8418 23.8822 39.6957 23.9243 39.5502 23.9683 39.4052 24.014 39.2602 24.0597 39.1158 24.1072 38.9719 24.1564 38.828 24.2056 38.6848 24.2565 38.5422 24.3093 38.3996 24.362 38.2577 24.4165 38.1164 24.4727 37.9751 24.5287 37.8345 24.5866 37.6947 24.6463 37.5549 24.7059 37.4157 24.7672 37.2773 24.8301 37.139 24.8931 37.0014 24.9578 36.8646 25.0242 36.7278 25.0905 36.5919 25.1585 36.4567 25.2281 36.3216 25.2978 36.1874 25.3691 36.054 25.442 35.9205 25.5149 35.7881 25.5894 35.6564 25.6656 35.5249 25.7418 35.3943 25.8195 35.2646 25.8988 35.1349 25.9782 35.0062 26.0591 34.8784 26.1416 34.7507 26.224 34.624 26.308 34.4984 26.3936 34.3727 26.4792 34.2481 26.5662 34.1245 26.6548 34.001 26.7435 33.8785 26.8335 33.7572 26.9251 33.6358 27.0166 33.5156 27.1097 33.3965 27.2042 33.2774 27.2987 33.1595 27.3947 33.0427 27.4921 32.926 27.5894 32.8105 27.6882 32.6961 27.7884 32.5818 27.8886 32.4687 27.9902 32.3568 28.0932 32.245 28.1961 32.1344 28.3004 32.0251 28.4061 31.5695 28.8432 31.1399 29.306 30.7094 29.7674 30.3635 29.4185 30.07 28.9767 29.7564 28.5944 28.7646 27.3856 27.8203 26.1413 26.8408 24.923 24.7191 26.8891 22.7945 29.41 21.4718 31.9851 20.9307 33.0386 20.45 34.1552 20.0157 35.2575 19.9371 35.457 19.7506 36.1863 19.6075 36.2759L19.5828 36.256C19.9153 34.1153 21.2392 31.3725 22.2277 29.4403 22.1424 29.2339 22.1233 28.9623 22.0874 28.7421 21.9077 27.6369 21.8357 26.5811 21.9976 25.4661 22.2967 23.4056 23.5149 20.1961 25.2186 18.9292 25.9822 18.5692 26.7775 17.8555 27.5175 17.3948 29.9712 15.8672 32.758 14.683 35.6331 14.2783 36.4149 14.1682 37.2003 14.0929 37.9906 14.1033 40.2052 14.1325 44.401 14.7525 46.1871 16.0996 46.2955 15.9834 46.4063 15.8693 46.5193 15.7575 46.6323 15.6456 46.7474 15.5361 46.8648 15.4288 46.9821 15.3216 47.1016 15.2167 47.2232 15.1142 47.3448 15.0117 47.4683 14.9117 47.5939 14.8141 47.7194 14.7166 47.8469 14.6216 47.9763 14.5291 48.1056 14.4367 48.2367 14.3468 48.3697 14.2596 48.5026 14.1724 48.6373 14.088 48.7736 14.0061 48.9098 13.9242 49.0477 13.8452 49.1872 13.7688 49.3267 13.6925 49.4676 13.6189 49.6101 13.5482 49.7525 13.4775 49.8962 13.4097 50.0414 13.3447 50.1865 13.2797 50.3328 13.2177 50.4804 13.1586 50.628 13.0994 50.7767 13.0434 50.9266 12.9902 51.0764 12.937 51.2272 12.8868 51.3791 12.8396 51.5309 12.7925 51.6836 12.7484 51.8372 12.7073 51.9908 12.6663 52.1452 12.6283 52.3004 12.5935 52.4555 12.5585 52.6112 12.5268 52.7676 12.4981 53.3987 12.3863 54.0284 12.3668 54.6635 12.3003Z" fill="#00537A" transform="matrix(1 0 0 1.01099 705 396)"/><path d="M53.1659 18.0005C53.0489 17.5335 53.0339 17.0959 53.2979 16.6656 53.5056 16.3269 53.864 16.1219 54.2482 16.047 54.6699 15.965 55.0888 16.0551 55.4374 16.3074 55.7655 16.5449 56.0003 16.9096 56.0492 17.3148 56.1035 17.7643 55.9083 18.2011 55.6235 18.5403 55.5171 18.6672 55.3997 18.7778 55.2681 18.8778 54.5756 18.5583 53.8832 18.2602 53.1659 18.0005Z" fill="#1C8AB6" transform="matrix(1 0 0 1.01099 705 396)"/><path d="M26.2237 24.1516C28.2387 22.134 30.4126 20.4155 32.9746 19.1431 39.3219 15.9905 46.4893 15.7542 53.1659 18.0005 53.8832 18.2602 54.5756 18.5583 55.2681 18.8778 57.7344 20.0071 59.556 21.121 61.6871 22.8256 61.9256 22.6321 62.4614 22.6173 62.769 22.5388 62.8616 22.6164 62.9512 22.7046 63.0588 22.7603L63.1277 22.8376C63.5548 23.1577 63.9433 23.5343 64.3388 23.8923 64.189 24.2168 64.1282 24.6768 63.7646 24.8126 63.5009 25.1042 63.2279 25.3832 62.9487 25.6598 62.1528 24.9315 61.4388 24.1123 60.595 23.4351 60.4678 23.334 60.3398 23.2342 60.2109 23.1356 60.082 23.0369 59.9522 22.9394 59.8214 22.8431 59.6906 22.7468 59.5591 22.6517 59.4265 22.5579 59.2941 22.4641 59.1607 22.3714 59.0266 22.28 58.8925 22.1886 58.7574 22.0984 58.6215 22.0095 58.4857 21.9205 58.349 21.8328 58.2116 21.7464 58.0742 21.6599 57.9359 21.5748 57.7969 21.4909 57.658 21.407 57.5181 21.3244 57.3776 21.2431 57.2371 21.1618 57.0958 21.0818 56.9538 21.0031 56.8119 20.9243 56.6691 20.8469 56.5257 20.7708 56.3823 20.6947 56.2382 20.62 56.0934 20.5464 55.9486 20.473 55.8032 20.4009 55.657 20.3301 55.511 20.2593 55.3642 20.1899 55.2167 20.1218 55.0694 20.0537 54.9213 19.9869 54.7728 19.9215 54.6242 19.8562 54.4749 19.7922 54.3251 19.7295 54.1753 19.6669 54.025 19.6057 53.8741 19.5457 53.7232 19.4859 53.5717 19.4274 53.4197 19.3704 53.2677 19.3132 53.1152 19.2575 52.9622 19.2032 52.8092 19.1489 52.6557 19.096 52.5017 19.0446 52.3478 18.9931 52.1933 18.943 52.0384 18.8944 51.8835 18.8458 51.7282 18.7986 51.5723 18.7528 51.4166 18.707 51.2604 18.6627 51.1038 18.6197 50.9472 18.5768 50.7902 18.5354 50.6329 18.4954 50.4755 18.4553 50.3178 18.4167 50.1598 18.3796 50.0017 18.3425 49.8433 18.3067 49.6846 18.2725 49.526 18.2383 49.3669 18.2056 49.2076 18.1743 49.0483 18.1429 48.8888 18.1131 48.7288 18.0848 48.569 18.0564 48.4089 18.0295 48.2485 18.004 48.0882 17.9785 47.9276 17.9546 47.7668 17.9321 47.606 17.9096 47.445 17.8887 47.2839 17.8691 47.1227 17.8496 46.9613 17.8316 46.7997 17.815 46.6382 17.7983 46.4766 17.7833 46.3148 17.7697 46.1353 17.7547 45.9556 17.7417 45.7758 17.7306 45.5959 17.7196 45.4159 17.7105 45.2359 17.7035 45.0559 17.6965 44.8758 17.6914 44.6956 17.6884 44.5154 17.6854 44.3352 17.6843 44.155 17.6853 43.9748 17.6862 43.7947 17.6892 43.6146 17.6941 43.4345 17.699 43.2545 17.7059 43.0745 17.7149 42.8945 17.7238 42.7147 17.7348 42.535 17.7477 42.3553 17.7606 42.1757 17.7755 41.9963 17.7925 41.8169 17.8094 41.6377 17.8283 41.4588 17.8492 41.2798 17.8701 41.101 17.8929 40.9226 17.9177 40.7442 17.9426 40.566 17.9695 40.3881 17.9983 40.2102 18.0271 40.0327 18.0578 39.8555 18.0905 39.6784 18.1233 39.5017 18.158 39.3252 18.1946 39.1487 18.2313 38.9728 18.2699 38.7972 18.3106 38.6217 18.3511 38.4466 18.3936 38.272 18.438 38.0974 18.4825 37.9232 18.5289 37.7496 18.5771 37.576 18.6255 37.403 18.6757 37.2306 18.7279 37.0581 18.7801 36.8863 18.8341 36.715 18.8901 36.5437 18.946 36.3731 19.0038 36.2031 19.0637 36.0331 19.1234 35.8638 19.185 35.6952 19.2486 35.5265 19.312 35.3587 19.3774 35.1915 19.4447 35.0243 19.5119 34.8579 19.5809 34.6923 19.6519 34.5267 19.7227 34.3618 19.7955 34.1977 19.8701 34.0337 19.9447 33.8706 20.0211 33.7082 20.0993 33.5459 20.1774 33.3844 20.2574 33.2239 20.3392 33.0634 20.421 32.9037 20.5046 32.745 20.5899 32.5863 20.6752 32.4286 20.7623 32.2718 20.8511 32.115 20.9399 31.9593 21.0305 31.8045 21.1227 31.6498 21.215 31.4961 21.309 31.3433 21.4047 31.1907 21.5004 31.039 21.5977 30.8885 21.6968 30.738 21.7959 30.5886 21.8966 30.4403 21.9989 30.2921 22.1013 30.1449 22.2053 29.999 22.3109 28.8881 23.103 27.8742 24.0153 26.8415 24.9048L26.8408 24.923C24.7191 26.8891 22.7945 29.41 21.4718 31.9851 20.9307 33.0386 20.45 34.1552 20.0157 35.2575 19.9371 35.457 19.7506 36.1863 19.6075 36.2759L19.5828 36.256C19.9153 34.1153 21.2392 31.3725 22.2277 29.4403 23.2737 27.4826 24.6841 25.7384 26.2237 24.1516Z" fill="#FFD35B" transform="matrix(1 0 0 1.01099 705 396)"/><path d="M62.769 22.5388C62.8616 22.6164 62.9512 22.7046 63.0588 22.7603L63.1277 22.8376C62.912 23.1237 63.079 23.577 62.9285 23.9019 62.5196 23.5375 62.1058 23.1788 61.6871 22.8256 61.9256 22.6321 62.4614 22.6173 62.769 22.5388Z" fill="#013C58" transform="matrix(1 0 0 1.01099 705 396)"/><path d="M63.1277 22.8376C63.5548 23.1577 63.9433 23.5343 64.3388 23.8923 64.189 24.2168 64.1282 24.6768 63.7646 24.8126 63.5216 24.477 63.2255 24.189 62.9285 23.9019 63.079 23.577 62.912 23.1237 63.1277 22.8376Z" fill="#00537A" transform="matrix(1 0 0 1.01099 705 396)"/><path d="M26.8415 24.9048C27.8742 24.0153 28.8881 23.103 29.999 22.3109 30.1449 22.2053 30.2921 22.1013 30.4403 21.9989 30.5886 21.8966 30.738 21.7959 30.8885 21.6968 31.039 21.5977 31.1907 21.5004 31.3433 21.4047 31.4961 21.309 31.6498 21.215 31.8045 21.1227 31.9593 21.0305 32.115 20.9399 32.2718 20.8511 32.4286 20.7623 32.5863 20.6752 32.745 20.5899 32.9037 20.5046 33.0634 20.421 33.2239 20.3392 33.3844 20.2574 33.5459 20.1774 33.7082 20.0993 33.8706 20.0211 34.0337 19.9447 34.1977 19.8701 34.3618 19.7955 34.5267 19.7227 34.6923 19.6519 34.8579 19.5809 35.0243 19.5119 35.1915 19.4447 35.3587 19.3774 35.5265 19.312 35.6952 19.2486 35.8638 19.185 36.0331 19.1234 36.2031 19.0637 36.3731 19.0038 36.5437 18.946 36.715 18.8901 36.8863 18.8341 37.0581 18.7801 37.2306 18.7279 37.403 18.6757 37.576 18.6255 37.7496 18.5772 37.9232 18.5289 38.0974 18.4825 38.272 18.438 38.4466 18.3936 38.6217 18.3511 38.7972 18.3106 38.9728 18.2699 39.1487 18.2313 39.3252 18.1946 39.5017 18.158 39.6784 18.1233 39.8555 18.0905 40.0327 18.0578 40.2102 18.0271 40.3881 17.9983 40.566 17.9695 40.7442 17.9426 40.9226 17.9177 41.101 17.8929 41.2798 17.8701 41.4588 17.8492 41.6377 17.8283 41.8169 17.8094 41.9963 17.7925 42.1757 17.7755 42.3553 17.7606 42.535 17.7477 42.7147 17.7348 42.8945 17.7238 43.0745 17.7149 43.2545 17.7059 43.4345 17.699 43.6146 17.6941 43.7947 17.6892 43.9748 17.6862 44.155 17.6853 44.3352 17.6843 44.5154 17.6854 44.6956 17.6884 44.8758 17.6914 45.0559 17.6965 45.2359 17.7035 45.4159 17.7105 45.5959 17.7196 45.7758 17.7306 45.9556 17.7417 46.1353 17.7547 46.3148 17.7697 46.4766 17.7833 46.6382 17.7983 46.7997 17.815 46.9613 17.8316 47.1227 17.8496 47.2839 17.8691 47.445 17.8887 47.606 17.9096 47.7668 17.9321 47.9276 17.9546 48.0882 17.9785 48.2485 18.004 48.4089 18.0295 48.569 18.0564 48.7288 18.0848 48.8888 18.1131 49.0483 18.1429 49.2076 18.1743 49.3669 18.2056 49.526 18.2383 49.6846 18.2725 49.8433 18.3067 50.0017 18.3425 50.1598 18.3796 50.3178 18.4167 50.4755 18.4553 50.6329 18.4954 50.7902 18.5354 50.9472 18.5768 51.1038 18.6197 51.2604 18.6627 51.4166 18.707 51.5723 18.7528 51.7282 18.7986 51.8835 18.8458 52.0384 18.8944 52.1933 18.943 52.3478 18.9931 52.5017 19.0446 52.6557 19.096 52.8092 19.1489 52.9622 19.2032 53.1152 19.2575 53.2677 19.3132 53.4197 19.3704 53.5717 19.4274 53.7232 19.4859 53.8741 19.5457 54.025 19.6057 54.1753 19.6669 54.3251 19.7295 54.4749 19.7922 54.6242 19.8562 54.7728 19.9215 54.9213 19.9869 55.0694 20.0537 55.2167 20.1218 55.3642 20.1899 55.511 20.2593 55.657 20.3301 55.8032 20.4009 55.9486 20.473 56.0934 20.5464 56.2382 20.62 56.3823 20.6947 56.5257 20.7708 56.6691 20.8469 56.8119 20.9243 56.9538 21.0031 57.0958 21.0818 57.2371 21.1618 57.3776 21.2431 57.5181 21.3244 57.658 21.407 57.7969 21.4909 57.9359 21.5748 58.0742 21.6599 58.2116 21.7464 58.349 21.8328 58.4857 21.9205 58.6216 22.0095 58.7574 22.0984 58.8925 22.1886 59.0266 22.28 59.1607 22.3714 59.2941 22.4641 59.4265 22.5579 59.5591 22.6517 59.6906 22.7468 59.8214 22.8431 59.9522 22.9394 60.082 23.0369 60.2109 23.1356 60.3398 23.2342 60.4678 23.334 60.595 23.4351 61.4388 24.1123 62.1528 24.9315 62.9487 25.6598 61.6135 26.9651 60.2002 28.2109 58.9738 29.6206 55.1791 25.6667 50.8117 23.2673 45.2457 23.1495 45.0937 23.1479 44.9417 23.1479 44.7896 23.1499 44.6376 23.1519 44.4856 23.1557 44.3337 23.1614 44.1818 23.167 44.03 23.1745 43.8782 23.1839 43.7265 23.1932 43.5748 23.2045 43.4234 23.2175 43.2719 23.2306 43.1207 23.2455 42.9695 23.2623 42.8184 23.279 42.6676 23.2976 42.5169 23.318 42.3662 23.3384 42.2159 23.3607 42.0657 23.3848 41.9156 23.4088 41.7658 23.4348 41.6164 23.4625 41.4669 23.4903 41.3178 23.5198 41.1691 23.5512 41.0202 23.5825 40.8719 23.6158 40.724 23.6507 40.5759 23.6858 40.4285 23.7226 40.2814 23.7611 40.1344 23.7997 39.9878 23.8401 39.8418 23.8822 39.6957 23.9243 39.5502 23.9683 39.4052 24.014 39.2602 24.0597 39.1158 24.1072 38.9719 24.1564 38.828 24.2056 38.6848 24.2565 38.5422 24.3093 38.3996 24.362 38.2577 24.4165 38.1164 24.4727 37.9751 24.5287 37.8345 24.5866 37.6947 24.6463 37.5549 24.7059 37.4157 24.7672 37.2773 24.8301 37.139 24.8931 37.0014 24.9578 36.8646 25.0242 36.7278 25.0905 36.5919 25.1585 36.4567 25.2281 36.3216 25.2978 36.1874 25.3691 36.054 25.442 35.9205 25.5149 35.7881 25.5894 35.6564 25.6656 35.5249 25.7418 35.3943 25.8195 35.2646 25.8988 35.1349 25.9782 35.0062 26.0591 34.8784 26.1416 34.7507 26.224 34.624 26.308 34.4984 26.3936 34.3727 26.4792 34.2481 26.5662 34.1245 26.6548 34.001 26.7435 33.8785 26.8335 33.7572 26.9251 33.6358 27.0166 33.5156 27.1097 33.3965 27.2042 33.2774 27.2987 33.1595 27.3947 33.0427 27.4921 32.926 27.5894 32.8105 27.6882 32.6961 27.7884 32.5818 27.8886 32.4687 27.9902 32.3568 28.0932 32.245 28.1961 32.1344 28.3004 32.0251 28.4061 31.5695 28.8432 31.1399 29.306 30.7094 29.7674 30.3635 29.4185 30.07 28.9767 29.7564 28.5944 28.7646 27.3856 27.8203 26.1413 26.8408 24.923L26.8415 24.9048Z" fill="#FFBA42" transform="matrix(1 0 0 1.01099 705 396)"/><path d="M63.0588 22.7603C65.2859 22.7218 67.5153 22.7913 69.7422 22.7391 69.7387 25.2194 69.7005 27.6973 69.7189 30.1777 69.5799 30.1649 69.4356 30.1684 69.2958 30.1655 69.2028 30.1591 69.1115 30.1583 69.0248 30.1204 68.8921 30.0624 67.9953 27.1647 67.8763 26.7905 67.4083 27.2163 66.963 27.7036 66.5369 28.172 65.8946 28.6444 65.0654 29.5633 64.4712 30.1434 63.188 31.3965 61.8795 32.6339 60.6199 33.9095 60.9388 34.7391 61.1951 35.5631 61.4136 36.4243 61.62 37.437 61.7958 38.438 61.8479 39.4717 61.8572 39.6895 61.8623 39.9074 61.8631 40.1253 61.8638 40.3433 61.8606 40.5612 61.853 40.7791 61.8455 40.997 61.8336 41.2146 61.8177 41.4319 61.8018 41.6493 61.7816 41.8663 61.7574 42.083 61.7331 42.2996 61.7046 42.5156 61.672 42.7312 61.6394 42.9468 61.6027 43.1615 61.5618 43.3756 61.5209 43.5897 61.4759 43.803 61.4268 44.0154 61.3777 44.2277 61.3245 44.4391 61.2673 44.6495 61.21 44.8598 61.1488 45.069 61.0834 45.2769 61.0181 45.4848 60.9489 45.6915 60.8756 45.8967 60.8024 46.1021 60.7252 46.3059 60.644 46.5083 60.563 46.7106 60.478 46.9112 60.3892 47.1102 60.3003 47.3093 60.2077 47.5066 60.1112 47.7021 60.0147 47.8976 59.9147 48.0912 59.8107 48.2828 59.7068 48.4744 59.5993 48.6639 59.4881 48.8514 59.3769 49.0389 59.2622 49.2243 59.1438 49.4073 56.9307 52.771 53.2321 55.3171 49.2719 56.1165 49.0636 56.1586 48.8448 56.2032 48.6323 56.2149L48.6548 56.6399 48.6194 56.8151C48.2812 57.0363 47.0118 56.8492 46.5401 56.9826 45.8677 57.0046 45.0947 57.0333 44.4407 56.8732 43.7227 56.7606 42.9972 56.676 42.2851 56.53L42.2844 56.9925C42.3473 57.7038 42.3135 58.4405 42.3101 59.155 42.3034 60.5817 42.2719 62.0077 42.2781 63.4345L40.4419 63.4208 39.3118 63.42C38.0384 63.4195 36.8921 63.4129 35.9344 64.3851 35.8924 64.4271 35.8518 64.4703 35.8125 64.5149 35.7732 64.5594 35.7354 64.6052 35.699 64.6521 35.6626 64.699 35.6277 64.747 35.5944 64.7961 35.561 64.8453 35.5292 64.8954 35.499 64.9465 35.4688 64.9977 35.4402 65.0497 35.4133 65.1026 35.3864 65.1554 35.361 65.2091 35.3375 65.2636 35.3139 65.3181 35.2921 65.3733 35.2719 65.4292 35.2519 65.4852 35.2335 65.5416 35.217 65.5986 35.1735 65.7481 35.1511 65.9442 35.0894 66.083 35.0114 66.0046 34.8912 65.9851 34.7874 65.9496 33.4877 65.5059 32.2822 64.8833 31.1061 64.1797 26.9358 61.6854 23.3544 57.9955 21.2066 53.6134 19.0614 49.2368 18.3663 44.1517 18.9745 39.3366 19.1023 38.3246 19.2519 37.2227 19.5828 36.256L19.6075 36.2759C19.7506 36.1863 19.9371 35.457 20.0157 35.2575 20.45 34.1552 20.9307 33.0386 21.4718 31.9851 22.7945 29.41 24.7191 26.8891 26.8408 24.923 27.8203 26.1413 28.7646 27.3856 29.7564 28.5944 30.07 28.9767 30.3635 29.4185 30.7094 29.7674 31.1399 29.306 31.5695 28.8432 32.0251 28.4061 32.1344 28.3004 32.245 28.1961 32.3568 28.0932 32.4687 27.9902 32.5818 27.8886 32.6961 27.7884 32.8105 27.6882 32.9261 27.5894 33.0428 27.4921 33.1595 27.3947 33.2774 27.2987 33.3965 27.2042 33.5156 27.1097 33.6358 27.0166 33.7572 26.9251 33.8785 26.8335 34.001 26.7435 34.1245 26.6548 34.2481 26.5662 34.3727 26.4792 34.4984 26.3936 34.624 26.308 34.7507 26.224 34.8784 26.1416 35.0062 26.0591 35.1349 25.9782 35.2646 25.8988 35.3943 25.8195 35.5249 25.7418 35.6564 25.6656 35.7881 25.5894 35.9205 25.5149 36.054 25.442 36.1874 25.3691 36.3216 25.2978 36.4567 25.2281 36.5919 25.1585 36.7278 25.0905 36.8646 25.0242 37.0014 24.9578 37.139 24.8931 37.2774 24.8301 37.4157 24.7672 37.5549 24.7059 37.6947 24.6463 37.8345 24.5866 37.9751 24.5287 38.1164 24.4727 38.2577 24.4165 38.3996 24.362 38.5422 24.3093 38.6849 24.2565 38.8281 24.2056 38.9719 24.1564 39.1158 24.1072 39.2602 24.0597 39.4052 24.014 39.5502 23.9683 39.6957 23.9243 39.8418 23.8822 39.9878 23.8401 40.1344 23.7997 40.2814 23.7611 40.4285 23.7226 40.5759 23.6858 40.724 23.6507 40.8719 23.6158 41.0202 23.5825 41.1691 23.5512 41.3178 23.5198 41.4669 23.4903 41.6164 23.4625 41.7658 23.4348 41.9156 23.4088 42.0657 23.3848 42.2159 23.3607 42.3662 23.3384 42.5169 23.318 42.6676 23.2976 42.8184 23.279 42.9695 23.2623 43.1207 23.2455 43.2719 23.2306 43.4234 23.2175 43.5748 23.2045 43.7265 23.1932 43.8782 23.1839 44.03 23.1745 44.1818 23.167 44.3337 23.1614 44.4856 23.1557 44.6376 23.1519 44.7896 23.1499 44.9417 23.1479 45.0937 23.1479 45.2457 23.1495 50.8117 23.2673 55.1791 25.6667 58.9738 29.6206 60.2002 28.2109 61.6135 26.9651 62.9487 25.6598 63.2279 25.3832 63.5009 25.1042 63.7646 24.8126 64.1282 24.6768 64.189 24.2168 64.3388 23.8923 63.9433 23.5343 63.5548 23.1577 63.1277 22.8376L63.0588 22.7603Z" fill="#FFD35B" transform="matrix(1 0 0 1.01099 705 396)"/><path d="M34.1409 29.5769C37.2613 26.3648 41.147 24.5666 45.6661 24.5025 49.6362 24.4463 53.798 25.9949 56.6467 28.786 57.3295 29.455 57.934 30.1801 58.5265 30.929 58.3493 31.2717 58.0942 31.5689 57.9284 31.9162 55.4341 28.7344 51.8726 26.4646 47.8237 25.9641 43.9809 25.4892 39.9896 26.4867 36.9288 28.8851 35.2064 30.2348 33.9767 31.7292 32.8428 33.5895 32.5376 33.2435 32.2295 32.9 31.9185 32.5591 32.0224 32.39 32.1285 32.2221 32.2368 32.0557 32.8591 31.2035 33.4494 30.3786 34.1409 29.5769Z" fill="#FCF7E2" transform="matrix(1 0 0 1.01099 705 396)"/><path d="M37.7934 47.4751C37.53 47.1799 37.2831 46.8716 37.0528 46.5499 36.8225 46.2283 36.6101 45.8952 36.4157 45.5508 34.9906 43.0153 34.5586 40.0718 35.3635 37.2609 36.1444 34.5338 38.1743 32.2377 40.6439 30.8841 43.1809 29.4936 46.3076 29.2683 49.0629 30.0783 49.1478 30.1024 49.2323 30.1275 49.3165 30.1537 49.4007 30.18 49.4846 30.2072 49.5683 30.2354 49.6518 30.2636 49.735 30.2929 49.8179 30.3232 49.9007 30.3535 49.9832 30.3848 50.0653 30.417 50.1473 30.4493 50.229 30.4827 50.3104 30.517 50.3916 30.5512 50.4724 30.5865 50.5529 30.6227 50.6333 30.659 50.7132 30.6963 50.7927 30.7345 50.8723 30.7727 50.9513 30.8119 51.0298 30.8521 51.1084 30.8922 51.1864 30.9333 51.264 30.9754 51.3416 31.0174 51.4185 31.0605 51.495 31.1044 51.5715 31.1484 51.6474 31.1932 51.7228 31.239 51.7982 31.2847 51.8731 31.3315 51.9473 31.3792 52.0215 31.4267 52.0952 31.4753 52.1683 31.5248 52.2413 31.5742 52.3138 31.6245 52.3856 31.6756 52.4574 31.7268 52.5287 31.7789 52.5992 31.8319 52.6698 31.8848 52.7397 31.9386 52.8089 31.9932 52.8782 32.0479 52.9467 32.1034 53.0146 32.1597 53.0826 32.216 53.1498 32.2732 53.2163 32.3311 53.2827 32.3891 53.3485 32.4478 53.4136 32.5074 53.4786 32.5671 53.5429 32.6274 53.6065 32.6885 53.6701 32.7496 53.7329 32.8116 53.795 32.8743 53.8571 32.9369 53.9183 33.0004 53.9789 33.0646 54.0394 33.1287 54.0992 33.1936 54.1581 33.2593 54.217 33.325 54.2751 33.3913 54.3324 33.4583 54.3898 33.5254 54.4462 33.5932 54.5019 33.6616 54.5576 33.7301 54.6124 33.7991 54.6663 33.8689 54.7203 33.9387 54.7734 34.0091 54.8256 34.0802 54.8779 34.1513 54.9293 34.223 54.9798 34.2953 55.0302 34.3676 55.0798 34.4406 55.1286 34.5141 55.1773 34.5876 55.2251 34.6618 55.2719 34.7365 55.3189 34.8113 55.3648 34.8865 55.4099 34.9623 55.455 35.0382 55.4991 35.1146 55.5423 35.1915 55.5168 35.1793 55.4908 35.1679 55.4656 35.155 55.1067 34.971 54.8115 34.5623 54.5079 34.2996 54.2925 34.1132 54.037 33.9549 53.7991 33.7996 51.2854 32.1582 48.1133 31.5486 45.2026 32.3464 45.1118 32.3716 45.0214 32.3978 44.9313 32.4251 44.8413 32.4525 44.7515 32.4809 44.6622 32.5105 44.5728 32.5401 44.4839 32.5708 44.3952 32.6025 44.3066 32.6343 44.2184 32.6672 44.1307 32.7011 44.0428 32.7351 43.9555 32.7701 43.8685 32.8063 43.7817 32.8425 43.6952 32.8796 43.6091 32.9178 43.5232 32.9562 43.4376 32.9954 43.3527 33.0359 43.2676 33.0762 43.1831 33.1177 43.099 33.1602 43.015 33.2027 42.9317 33.2462 42.8487 33.2907 42.7658 33.3353 42.6835 33.3809 42.6017 33.4275 42.5198 33.4741 42.4386 33.5217 42.358 33.5703 42.2774 33.6189 42.1974 33.6686 42.118 33.7191 42.0386 33.7697 41.9599 33.8214 41.8818 33.8739 41.8037 33.9264 41.7262 33.9799 41.6495 34.0344 41.5727 34.0888 41.4966 34.1443 41.4212 34.2006 41.3459 34.2569 41.2712 34.3142 41.1971 34.3724 41.1232 34.4306 41.0499 34.4898 40.9774 34.5498 40.9049 34.6098 40.8331 34.6708 40.7621 34.7325 40.6911 34.7943 40.6208 34.857 40.5514 34.9205 40.482 34.9841 40.4133 35.0485 40.3454 35.1137 40.2776 35.179 40.2106 35.245 40.1444 35.312 40.0781 35.3789 40.0128 35.4465 39.9483 35.5151 39.8837 35.5836 39.8201 35.653 39.7572 35.7231 39.6944 35.7932 39.6324 35.8641 39.5713 35.9356 39.5103 36.0073 39.4502 36.0796 39.3909 36.1528 39.3316 36.226 39.2732 36.2998 39.2158 36.3744 39.1583 36.449 39.1018 36.5242 39.0462 36.6002 38.9907 36.6762 38.9361 36.7528 38.8824 36.8302 38.8287 36.9075 38.776 36.9855 38.7243 37.0642 38.6725 37.1428 38.6218 37.222 38.572 37.3019 38.5222 37.3819 38.4734 37.4624 38.4257 37.5435 38.3779 37.6246 38.3312 37.7063 38.2854 37.7886 36.8323 40.3499 36.5423 43.2634 37.343 46.079 37.4758 46.5461 37.6859 47.0042 37.7934 47.4751Z" fill="#00537A" transform="matrix(1 0 0 1.01099 705 396)"/><path d="M30.7094 29.7674C31.1399 29.306 31.5695 28.8432 32.0251 28.4061 32.1344 28.3004 32.245 28.1961 32.3568 28.0932 32.4687 27.9902 32.5818 27.8886 32.6961 27.7884 32.8105 27.6882 32.9261 27.5894 33.0428 27.4921 33.1595 27.3947 33.2774 27.2987 33.3965 27.2042 33.5156 27.1097 33.6358 27.0166 33.7572 26.9251 33.8785 26.8335 34.001 26.7435 34.1245 26.6548 34.2481 26.5662 34.3727 26.4792 34.4984 26.3936 34.624 26.308 34.7507 26.224 34.8784 26.1416 35.0062 26.0591 35.1349 25.9782 35.2646 25.8988 35.3943 25.8195 35.5249 25.7418 35.6564 25.6656 35.7881 25.5894 35.9205 25.5149 36.054 25.442 36.1874 25.3691 36.3216 25.2978 36.4567 25.2281 36.5919 25.1585 36.7278 25.0905 36.8646 25.0242 37.0014 24.9578 37.139 24.8931 37.2774 24.8301 37.4157 24.7672 37.5549 24.7059 37.6947 24.6463 37.8345 24.5866 37.9751 24.5287 38.1164 24.4727 38.2577 24.4165 38.3996 24.362 38.5422 24.3093 38.6849 24.2565 38.8281 24.2056 38.9719 24.1564 39.1158 24.1072 39.2602 24.0597 39.4052 24.014 39.5502 23.9683 39.6957 23.9243 39.8418 23.8822 39.9878 23.8401 40.1344 23.7997 40.2814 23.7611 40.4285 23.7226 40.5759 23.6858 40.724 23.6507 40.8719 23.6158 41.0202 23.5825 41.1691 23.5512 41.3178 23.5198 41.4669 23.4903 41.6164 23.4625 41.7658 23.4348 41.9156 23.4088 42.0657 23.3848 42.2159 23.3607 42.3662 23.3384 42.5169 23.318 42.6676 23.2976 42.8184 23.279 42.9695 23.2623 43.1207 23.2455 43.2719 23.2306 43.4234 23.2175 43.5748 23.2045 43.7265 23.1932 43.8782 23.1839 44.03 23.1745 44.1818 23.167 44.3337 23.1614 44.4856 23.1557 44.6376 23.1519 44.7896 23.1499 44.9417 23.1479 45.0937 23.1479 45.2457 23.1495 50.8117 23.2673 55.1791 25.6667 58.9738 29.6206 60.2002 28.2109 61.6135 26.9651 62.9487 25.6598 63.2279 25.3832 63.5009 25.1042 63.7646 24.8126 64.1282 24.6768 64.189 24.2168 64.3388 23.8923L64.9337 24.4185C63.6206 25.914 62.1407 27.3086 60.7117 28.6952 60.0848 29.3036 58.9812 30.2097 58.5265 30.929 57.934 30.1801 57.3295 29.455 56.6467 28.786 53.798 25.9949 49.6362 24.4463 45.6661 24.5025 41.147 24.5666 37.2613 26.3648 34.1409 29.5769 33.6047 29.6219 33.1787 30.2196 32.8525 30.6052 32.5569 30.9548 32.2588 31.3017 31.9924 31.673 31.9751 31.6972 31.9549 31.7191 31.9363 31.7421 31.3117 32.397 30.8391 33.3252 30.4086 34.1157 28.5941 37.4473 27.4903 40.9118 27.5835 44.7444 27.6452 47.2809 28.0351 49.9143 29.1711 52.2069 29.4879 52.8311 29.8159 53.4492 30.1553 54.0615 30.3341 54.3826 30.5413 54.6978 30.6978 55.03 29.833 54.2602 29.1555 53.2185 28.4983 52.2737 26.9528 49.5818 25.9975 47.202 25.7696 44.0585 25.387 38.7783 27.2511 33.7366 30.7094 29.7674Z" fill="#013C58" transform="matrix(1 0 0 1.01099 705 396)"/><path d="M31.9185 32.5591C32.2295 32.9 32.5376 33.2435 32.8428 33.5895 31.641 35.6762 31.1002 38.648 31.2242 41.0486 31.2533 41.533 31.3075 42.0144 31.3871 42.4931 31.4665 42.9717 31.5708 43.4449 31.6999 43.9126 32.607 47.2889 35.4306 50.6896 38.4407 52.4259 41.6463 54.2751 45.9461 54.9125 49.5318 53.9401 49.6537 53.9063 49.7752 53.871 49.8963 53.8342 50.0173 53.7975 50.1379 53.7591 50.258 53.7194 50.3781 53.6797 50.4977 53.6385 50.6168 53.5958 50.7359 53.5532 50.8545 53.5091 50.9725 53.4635 51.0905 53.4179 51.2079 53.3709 51.3248 53.3225 51.4417 53.274 51.5579 53.2242 51.6736 53.1729 51.7892 53.1216 51.9043 53.0689 52.0186 53.0148 52.133 52.9607 52.2467 52.9052 52.3597 52.8483 52.4726 52.7914 52.5849 52.7332 52.6965 52.6736 52.8081 52.6139 52.9189 52.5529 53.029 52.4906 53.1391 52.4283 53.2483 52.3646 53.3569 52.2995 53.4654 52.2345 53.5732 52.1682 53.6801 52.1005 53.787 52.0329 53.893 51.9639 53.9983 51.8937 54.1034 51.8234 54.2078 51.7519 54.3113 51.6791 54.4147 51.6063 54.5173 51.5322 54.6189 51.4569 54.7205 51.3816 54.8213 51.305 54.9211 51.2272 55.0209 51.1494 55.1197 51.0705 55.2175 50.9903 55.3154 50.9101 55.4122 50.8287 55.5081 50.7461 55.604 50.6636 55.6987 50.5799 55.7925 50.495 55.8863 50.4101 55.9791 50.3241 56.0708 50.2369 56.1625 50.1497 56.2532 50.0615 56.3427 49.9721 56.4322 49.8828 56.5207 49.7923 56.6079 49.7007 56.6953 49.6093 56.7815 49.5166 56.8665 49.4229 56.9516 49.3293 57.0354 49.2347 57.1182 49.1389 57.201 49.0432 57.2826 48.9465 57.3629 48.8489 57.4433 48.7512 57.5225 48.6525 57.6005 48.5528 57.6784 48.4532 57.7551 48.3526 57.8306 48.2511 57.9061 48.1496 57.9804 48.0472 58.0534 47.9438 58.1264 47.8405 58.1981 47.7363 58.2685 47.6313 58.339 47.5262 58.4082 47.4202 58.476 47.3135 58.5438 47.2067 58.6104 47.099 58.6756 46.9907 58.7408 46.8823 58.8047 46.7731 58.8672 46.6631 59.958 44.7387 60.7752 42.1743 61.1306 39.9822 61.207 39.5113 61.2805 39.0326 61.3117 38.5567 61.3469 38.0202 61.1873 36.8437 61.4136 36.4243 61.62 37.437 61.7958 38.438 61.8479 39.4717 61.8572 39.6895 61.8623 39.9074 61.8631 40.1253 61.8638 40.3433 61.8606 40.5612 61.853 40.7791 61.8455 40.997 61.8336 41.2146 61.8177 41.4319 61.8018 41.6493 61.7816 41.8663 61.7574 42.083 61.7331 42.2996 61.7046 42.5156 61.672 42.7312 61.6394 42.9468 61.6027 43.1615 61.5618 43.3756 61.5209 43.5897 61.4759 43.803 61.4268 44.0154 61.3777 44.2277 61.3245 44.4391 61.2673 44.6495 61.21 44.8598 61.1488 45.069 61.0834 45.2769 61.0181 45.4848 60.9489 45.6915 60.8756 45.8967 60.8024 46.1021 60.7252 46.3059 60.644 46.5083 60.563 46.7106 60.478 46.9112 60.3892 47.1102 60.3003 47.3093 60.2077 47.5066 60.1112 47.7021 60.0147 47.8976 59.9147 48.0912 59.8107 48.2828 59.7068 48.4744 59.5993 48.6639 59.4881 48.8514 59.3769 49.0389 59.2622 49.2243 59.1438 49.4073 56.9307 52.771 53.2321 55.3171 49.2719 56.1165 49.0636 56.1586 48.8448 56.2032 48.6323 56.2149L48.6548 56.6399 48.6194 56.8151C48.2812 57.0363 47.0118 56.8492 46.5401 56.9826 45.8677 57.0046 45.0947 57.0333 44.4407 56.8732 43.7227 56.7606 42.9972 56.676 42.2851 56.53L42.2692 55.9864C41.7621 55.8276 41.2323 55.7374 40.7224 55.5803 39.0982 55.08 37.679 54.3025 36.2855 53.3396 35.6395 52.7864 34.9652 52.2826 34.3588 51.6825 34.2217 51.5456 34.087 51.4062 33.9549 51.2644 33.8227 51.1225 33.6932 50.9783 33.5663 50.8318 33.4395 50.6852 33.3154 50.5364 33.1939 50.3854 33.0724 50.2344 32.9537 50.0812 32.8378 49.9258 32.722 49.7704 32.6089 49.613 32.4988 49.4535 32.3886 49.294 32.2814 49.1326 32.1772 48.9692 32.0729 48.8058 31.9716 48.6406 31.8733 48.4735 31.7751 48.3064 31.6799 48.1376 31.5877 47.9671 31.4956 47.7965 31.4066 47.6244 31.3208 47.4506 31.2349 47.2768 31.1522 47.1016 31.0727 46.9248 30.9933 46.748 30.917 46.5699 30.844 46.3903 30.771 46.2107 30.7013 46.0299 30.6349 45.8478 30.5685 45.6657 30.5054 45.4825 30.4457 45.298 30.3859 45.1137 30.3296 44.9282 30.2766 44.7418 30.2236 44.5554 30.174 44.368 30.1278 44.1797 30.0816 43.9916 30.0389 43.8025 29.9996 43.6127 29.2729 40.1108 29.933 35.5809 31.9185 32.5591Z" fill="#FFBA42" transform="matrix(1 0 0 1.01099 705 396)"/><path d="M42.2692 55.9864C43.4544 56.4386 46.0791 56.394 47.3844 56.3181 47.7615 56.2962 48.2747 56.1456 48.6323 56.2149L48.6548 56.6399 48.6194 56.8151C48.2812 57.0363 47.0118 56.8492 46.5401 56.9826 45.8677 57.0046 45.0947 57.0333 44.4407 56.8732 43.7227 56.7606 42.9972 56.676 42.2851 56.53L42.2692 55.9864Z" fill="#FFD35B" transform="matrix(1 0 0 1.01099 705 396)"/><path d="M31.9363 31.7421C31.9549 31.7191 31.9751 31.6972 31.9924 31.673 32.2588 31.3017 32.5569 30.9548 32.8525 30.6052 33.1787 30.2196 33.6047 29.6219 34.1409 29.5769 33.4494 30.3786 32.8591 31.2035 32.2368 32.0557 32.1285 32.2221 32.0224 32.39 31.9185 32.5591 29.933 35.5809 29.2729 40.1108 29.9996 43.6127 30.0389 43.8025 30.0816 43.9916 30.1278 44.1797 30.174 44.368 30.2236 44.5554 30.2766 44.7418 30.3296 44.9282 30.3859 45.1137 30.4457 45.298 30.5054 45.4825 30.5685 45.6657 30.6349 45.8478 30.7013 46.0299 30.771 46.2107 30.844 46.3903 30.917 46.5699 30.9933 46.748 31.0727 46.9248 31.1522 47.1016 31.2349 47.2768 31.3208 47.4506 31.4066 47.6244 31.4956 47.7965 31.5877 47.9671 31.6799 48.1376 31.7751 48.3064 31.8733 48.4735 31.9716 48.6406 32.0729 48.8058 32.1772 48.9692 32.2814 49.1326 32.3886 49.294 32.4988 49.4535 32.6089 49.613 32.722 49.7704 32.8378 49.9258 32.9537 50.0812 33.0724 50.2344 33.1939 50.3854 33.3154 50.5364 33.4395 50.6852 33.5663 50.8318 33.6932 50.9783 33.8227 51.1225 33.9549 51.2644 34.087 51.4062 34.2217 51.5456 34.3588 51.6825 34.9652 52.2826 35.6395 52.7864 36.2855 53.3396 37.679 54.3025 39.0982 55.08 40.7224 55.5803 41.2323 55.7374 41.7621 55.8276 42.2692 55.9864L42.2851 56.53 42.2844 56.9925C42.3473 57.7038 42.3135 58.4405 42.3101 59.155 42.3034 60.5817 42.2719 62.0077 42.2781 63.4345L40.4419 63.4208 39.3118 63.42C39.4204 62.5715 39.634 61.7465 39.7232 60.889L39.7879 60.487C39.78 60.4613 39.7488 60.3921 39.7282 60.3774 39.7165 60.3692 38.1012 59.8975 37.8623 59.808 35.5969 58.9598 33.5646 57.6514 31.7537 56.0572 31.4072 55.7522 30.9589 55.4105 30.6978 55.03 30.5413 54.6978 30.3341 54.3826 30.1553 54.0615 29.8159 53.4492 29.4879 52.8311 29.1711 52.2069 28.0351 49.9143 27.6452 47.2809 27.5835 44.7444 27.4903 40.9118 28.5941 37.4473 30.4086 34.1157 30.8391 33.3252 31.3117 32.397 31.9363 31.7421Z" fill="#00537A" transform="matrix(1 0 0 1.01099 705 396)"/><path d="M39.7879 60.487C40.0846 61.0308 40.4265 61.5523 40.661 62.1265 40.5831 62.5482 40.4668 62.9929 40.4419 63.4208L39.3118 63.42C39.4204 62.5715 39.634 61.7465 39.7232 60.889L39.7879 60.487Z" fill="#013C58" transform="matrix(1 0 0 1.01099 705 396)"/><path d="M36.2855 53.3396C37.679 54.3025 39.0982 55.08 40.7224 55.5803 41.2323 55.7374 41.7621 55.8276 42.2692 55.9864L42.2851 56.53 42.2844 56.9925C42.2597 57.2066 42.2833 57.4382 42.2883 57.6543 40.3896 56.8711 38.6128 55.6319 37.0505 54.3131 36.7479 54.0576 36.3205 53.7537 36.2855 53.3396Z" fill="#013C58" transform="matrix(1 0 0 1.01099 705 396)"/><path d="M37.7934 47.4751C37.6859 47.0042 37.4758 46.5461 37.343 46.079 36.5423 43.2634 36.8323 40.3499 38.2854 37.7886 38.3312 37.7063 38.3779 37.6246 38.4257 37.5435 38.4734 37.4624 38.5222 37.3819 38.572 37.3019 38.6218 37.222 38.6725 37.1428 38.7243 37.0642 38.776 36.9855 38.8287 36.9075 38.8824 36.8302 38.9361 36.7528 38.9907 36.6762 39.0462 36.6002 39.1018 36.5242 39.1583 36.449 39.2158 36.3744 39.2732 36.2998 39.3316 36.226 39.3909 36.1528 39.4502 36.0796 39.5103 36.0073 39.5713 35.9356 39.6324 35.8641 39.6944 35.7932 39.7572 35.7231 39.8201 35.653 39.8837 35.5836 39.9483 35.5151 40.0128 35.4465 40.0781 35.3789 40.1444 35.312 40.2106 35.245 40.2776 35.179 40.3454 35.1137 40.4133 35.0485 40.482 34.9841 40.5514 34.9205 40.6208 34.857 40.6911 34.7943 40.7621 34.7325 40.8331 34.6708 40.9049 34.6098 40.9774 34.5498 41.0499 34.4898 41.1232 34.4307 41.1971 34.3725 41.2712 34.3143 41.3459 34.2569 41.4212 34.2006 41.4966 34.1443 41.5727 34.0888 41.6495 34.0344 41.7262 33.9799 41.8037 33.9264 41.8818 33.8739 41.9599 33.8214 42.0387 33.7697 42.1181 33.7191 42.1975 33.6686 42.2774 33.6189 42.358 33.5703 42.4386 33.5217 42.5198 33.4741 42.6017 33.4276 42.6835 33.3809 42.7658 33.3353 42.8487 33.2907 42.9317 33.2462 43.015 33.2027 43.099 33.1603 43.1831 33.1178 43.2676 33.0763 43.3527 33.0359 43.4376 32.9954 43.5232 32.9562 43.6091 32.9178 43.6952 32.8796 43.7817 32.8425 43.8685 32.8063 43.9555 32.7701 44.0428 32.7351 44.1307 32.7011 44.2184 32.6672 44.3066 32.6343 44.3952 32.6025 44.4839 32.5708 44.5728 32.5401 44.6622 32.5105 44.7515 32.4809 44.8413 32.4525 44.9313 32.4251 45.0214 32.3978 45.1118 32.3716 45.2026 32.3464 48.1133 31.5486 51.2854 32.1582 53.7991 33.7996 54.037 33.9549 54.2925 34.1132 54.5079 34.2996 54.8115 34.5623 55.1067 34.971 55.4656 35.155 55.4908 35.1679 55.5168 35.1793 55.5423 35.1915 55.5824 35.2645 55.6215 35.3379 55.6597 35.4119 55.6979 35.4857 55.7353 35.5601 55.7717 35.635 55.8081 35.7098 55.8436 35.7851 55.8782 35.8608 55.9128 35.9365 55.9464 36.0126 55.9792 36.0892 56.0119 36.1657 56.0436 36.2427 56.0745 36.3199 56.1053 36.3973 56.1353 36.475 56.1642 36.5529 56.1931 36.631 56.2211 36.7094 56.2481 36.7881 56.2751 36.8668 56.3012 36.9458 56.3263 37.0252 56.3514 37.1046 56.3755 37.1843 56.3987 37.2642 56.4218 37.3441 56.4439 37.4244 56.4652 37.5048 56.4863 37.5853 56.5065 37.6661 56.5258 37.747 56.545 37.828 56.5632 37.9093 56.5805 37.9907 56.5976 38.0721 56.6139 38.1537 56.6291 38.2356 56.6443 38.3174 56.6586 38.3994 56.6719 38.4816 56.6851 38.5638 56.6973 38.6461 56.7085 38.7285 56.7197 38.811 56.7299 38.8936 56.7391 38.9764 56.7482 39.0591 56.7564 39.1419 56.7636 39.2248 56.7708 39.3078 56.7769 39.3907 56.7821 39.4738 56.7873 39.5569 56.7913 39.6401 56.7944 39.7232 56.7976 39.8064 56.7997 39.8896 56.8008 39.9728 56.8018 40.056 56.8019 40.1392 56.8009 40.2225 56.8 40.3057 56.798 40.3889 56.795 40.4721 56.792 40.5552 56.788 40.6384 56.783 40.7215 56.7779 40.8046 56.7719 40.8876 56.7648 40.9706 56.7578 41.0535 56.7497 41.1362 56.7407 41.219 56.7315 41.3018 56.7215 41.3844 56.7104 41.4669 56.6992 41.5493 56.6871 41.6317 56.6741 41.7139 56.6609 41.7961 56.6468 41.8781 56.6317 41.9599 56.6166 42.0418 56.6005 42.1234 56.5833 42.2049 56.5663 42.2864 56.5481 42.3676 56.529 42.4486 56.5099 42.5296 56.4898 42.6104 56.4687 42.6909 56.4477 42.7714 56.4256 42.8517 56.4026 42.9317 56.3762 43.0233 56.3487 43.1147 56.3201 43.2057 56.2914 43.2967 56.2616 43.3873 56.2307 43.4776 56.1997 43.5678 56.1676 43.6577 56.1345 43.7471 56.1013 43.8365 56.067 43.9255 56.0316 44.0141 55.9961 44.1027 55.9595 44.1908 55.9219 44.2784 55.8843 44.3661 55.8455 44.4533 55.8057 44.5399 55.7658 44.6266 55.7249 44.7128 55.6828 44.7985 55.6408 44.8841 55.5977 44.9692 55.5536 45.0538 55.5094 45.1383 55.4642 45.2223 55.4179 45.3058 55.3717 45.3892 55.3244 45.472 55.276 45.5542 55.2277 45.6365 55.1782 45.7182 55.1278 45.7991 55.0774 45.8801 55.0261 45.9605 54.9736 46.0401 54.9212 46.1199 54.8677 46.1989 54.8133 46.2772 54.7589 46.3556 54.7036 46.4333 54.6471 46.5102 54.5907 46.5872 54.5334 46.6635 54.4751 46.7389 54.4169 46.8145 54.3576 46.8893 54.2974 46.9633 54.2372 47.0374 54.1761 47.1106 54.1142 47.1831 54.0521 47.2555 53.9892 47.3272 53.9254 47.3982 53.8615 47.469 53.7968 47.5392 53.7313 47.6085 53.6657 47.6777 53.5992 47.7462 53.5319 47.8138 53.4646 47.8814 53.3964 47.9482 53.3275 48.014 53.2585 48.0799 53.1887 48.145 53.1181 48.2091 53.0474 48.2732 52.9761 48.3365 52.9038 48.3988 52.8316 48.4611 52.7586 48.5225 52.6848 48.5831 52.6111 48.6436 52.5367 48.7032 52.4614 48.7618 52.3861 48.8204 52.3101 48.8781 52.2333 48.9348 52.1566 48.9915 52.0793 49.0473 52.0012 49.102 51.923 49.1568 51.8442 49.2106 51.7648 49.2634 51.6853 49.3162 51.6052 49.3679 51.5244 49.4187 51.4436 49.4694 51.3623 49.5192 51.2802 49.5679 51.1982 49.6166 51.1156 49.6643 51.0324 49.711 50.9492 49.7576 50.8653 49.8032 50.781 49.8478 48.2787 51.187 45.4433 51.4256 42.7324 50.5971 42.1385 50.4155 41.5519 50.2009 40.9978 49.9194 40.1034 49.4652 38.3872 48.2957 37.7934 47.4751Z" fill="url(#fill4)" transform="matrix(1 0 0 1.01099 705 396)"/><path d="M47.3536 43.8368C47.6071 43.838 47.8568 43.8824 48.0849 43.9956 48.4379 44.1708 48.6889 44.4759 48.7993 44.8539 48.8142 44.9039 48.8265 44.9545 48.8361 45.0058 48.8458 45.057 48.8529 45.1085 48.8574 45.1605 48.8619 45.2124 48.8637 45.2644 48.8629 45.3166 48.8621 45.3687 48.8587 45.4206 48.8526 45.4725 48.8465 45.5243 48.8378 45.5756 48.8265 45.6265 48.8153 45.6774 48.8014 45.7276 48.785 45.7771 48.7686 45.8266 48.7497 45.8751 48.7285 45.9227 48.7072 45.9703 48.6835 46.0167 48.6575 46.0618 48.3888 46.5315 48.0046 46.7204 47.5067 46.8576 47.1504 46.8448 46.8458 46.7855 46.5464 46.5784 46.1972 46.3368 45.9699 45.9466 45.9102 45.5285 45.8512 45.1161 45.959 44.6963 46.2248 44.3732 46.5219 44.0118 46.9027 43.8748 47.3536 43.8368Z" fill="#A8E8F9" transform="matrix(1 0 0 1.01099 705 396)"/><path d="M19.5828 36.256 19.6075 36.2759C19.7506 36.1863 19.9371 35.457 20.0157 35.2575 20.45 34.1552 20.9307 33.0386 21.4718 31.9851 22.7945 29.41 24.7191 26.8891 26.8408 24.923 27.8203 26.1413 28.7646 27.3856 29.7564 28.5944 30.07 28.9767 30.3635 29.4185 30.7094 29.7674 27.2511 33.7366 25.387 38.7783 25.7696 44.0585 25.9975 47.202 26.9528 49.5818 28.4983 52.2737 29.1555 53.2185 29.833 54.2602 30.6978 55.03 30.9589 55.4105 31.4072 55.7522 31.7537 56.0572 33.5646 57.6514 35.5969 58.9598 37.8623 59.808 38.1012 59.8975 39.7165 60.3692 39.7282 60.3774 39.7488 60.3921 39.78 60.4613 39.7879 60.487L39.7232 60.889C39.634 61.7465 39.4204 62.5715 39.3118 63.42 38.0384 63.4195 36.8921 63.4129 35.9344 64.3851 35.8924 64.4271 35.8518 64.4703 35.8125 64.5149 35.7732 64.5594 35.7354 64.6052 35.699 64.6521 35.6626 64.699 35.6277 64.747 35.5944 64.7961 35.561 64.8453 35.5292 64.8954 35.499 64.9465 35.4688 64.9977 35.4402 65.0497 35.4133 65.1026 35.3864 65.1554 35.361 65.2091 35.3375 65.2636 35.3139 65.3181 35.2921 65.3733 35.2719 65.4292 35.2519 65.4852 35.2335 65.5416 35.217 65.5986 35.1735 65.7481 35.1511 65.9442 35.0894 66.083 35.0114 66.0046 34.8912 65.9851 34.7874 65.9496 33.4877 65.5059 32.2822 64.8833 31.1061 64.1797 26.9358 61.6854 23.3544 57.9955 21.2066 53.6134 19.0614 49.2368 18.3663 44.1517 18.9745 39.3366 19.1023 38.3246 19.2519 37.2227 19.5828 36.256Z" fill="url(#fill5)" transform="matrix(1 0 0 1.01099 705 396)"/><path d="M28.4983 52.2737C29.1555 53.2185 29.833 54.2602 30.6978 55.03 30.9589 55.4105 31.4072 55.7522 31.7537 56.0572 33.5646 57.6514 35.5969 58.9598 37.8623 59.808 38.1012 59.8975 39.7165 60.3692 39.7282 60.3774 39.7488 60.3921 39.78 60.4613 39.7879 60.487L39.7232 60.889C39.167 60.584 38.0532 60.308 37.3801 60.0293 34.9601 59.0277 32.7575 57.6122 30.9455 55.713 30.4237 55.1661 28.4841 52.9096 28.4983 52.2737Z" fill="#FFBA42" transform="matrix(1 0 0 1.01099 705 396)"/></g></svg>