<svg width="1123" height="1037" xmlns="http://www.w3.org/2000/svg" xmlns:xlink="http://www.w3.org/1999/xlink" xml:space="preserve" overflow="hidden"><defs><linearGradient x1="3737.76" y1="3844.04" x2="2700.76" y2="3844.04" gradientUnits="userSpaceOnUse" spreadMethod="reflect" id="fill0"><stop offset="0" stop-color="#407EC9"/><stop offset="0.89" stop-color="#8031A7"/><stop offset="1" stop-color="#8031A7"/></linearGradient><linearGradient x1="3235.66" y1="4196.88" x2="2666.53" y2="4196.88" gradientUnits="userSpaceOnUse" spreadMethod="reflect" id="fill1"><stop offset="0" stop-color="#407EC9"/><stop offset="0.89" stop-color="#8031A7"/><stop offset="1" stop-color="#8031A7"/></linearGradient><linearGradient x1="3738.48" y1="3626.2" x2="2919.45" y2="3626.2" gradientUnits="userSpaceOnUse" spreadMethod="reflect" id="fill2"><stop offset="0" stop-color="#407EC9"/><stop offset="0.89" stop-color="#8031A7"/><stop offset="1" stop-color="#8031A7"/></linearGradient></defs><g transform="translate(-17 218)"><path d="M2924.93 3400.45 3026.43 3668.95 2951.7 3905.01 3105.62 3905.01 3105.62 4056.05 2700.76 4056.05ZM3537.02 3328.84 3737.76 3328.84 3737.76 3479.88 3537.02 3479.88ZM2961.72 3328.84 3164.72 3328.84 3537.02 4352.65 3537.02 3540.29 3737.76 3540.29 3737.76 4290.99 3538.79 4357.53 3539.43 4359.24 3317.51 4289.87Z" fill="url(#fill0)" fill-rule="evenodd" transform="matrix(1.04951 0 0 1 -2783.57 -3540.36)"/><path d="M2968.75 4179.94C2962.7 4179.94 2957.87 4182.33 2954.25 4187.14 2951.95 4190.13 2950.48 4194.59 2949.86 4200.51L2987.37 4200.51C2986.62 4193.15 2984.64 4187.88 2981.43 4184.7 2978.21 4181.53 2973.99 4179.94 2968.75 4179.94ZM3112.68 4157.39C3123.21 4157.39 3131.46 4160.53 3137.41 4166.79 3143.36 4173.06 3146.34 4182.74 3146.34 4195.83L3146.34 4258.97 3108.09 4258.97 3108.09 4204.35C3108.09 4198.11 3106.94 4193.7 3104.63 4191.11 3102.32 4188.52 3099.08 4187.23 3094.9 4187.23 3090.29 4187.23 3086.55 4188.98 3083.68 4192.47 3080.81 4195.96 3079.37 4202.23 3079.37 4211.26L3079.37 4258.97 3041.31 4258.97 3041.31 4159.64 3076.76 4159.64 3076.76 4175.82C3082.06 4169.21 3087.42 4164.49 3092.85 4161.65 3098.27 4158.81 3104.88 4157.39 3112.68 4157.39ZM2967.16 4157.39C2981.38 4157.39 2992.6 4159.55 3000.83 4163.85 3009.06 4168.15 3015.33 4174.39 3019.63 4182.55 3023.93 4190.72 3026.08 4201.35 3026.08 4214.45L3026.08 4218.75 2949.76 4218.75C2950.45 4224.86 2952.1 4229.41 2954.72 4232.41 2958.4 4236.71 2963.2 4238.86 2969.13 4238.86 2972.87 4238.86 2976.42 4237.92 2979.79 4236.05 2981.84 4234.86 2984.06 4232.78 2986.43 4229.78L3023.93 4233.25C3018.2 4243.23 3011.28 4250.38 3003.17 4254.71 2995.07 4259.04 2983.44 4261.21 2968.28 4261.21 2955.13 4261.21 2944.78 4259.36 2937.23 4255.64 2929.69 4251.94 2923.44 4246.05 2918.48 4237.97 2913.52 4229.9 2911.04 4220.4 2911.04 4209.49 2911.04 4193.96 2916.02 4181.4 2925.96 4171.8 2935.91 4162.19 2949.64 4157.39 2967.16 4157.39ZM3169.39 4119.51 3193.15 4119.51C3204.75 4135.04 3213.11 4149.91 3218.26 4164.13 3223.41 4178.34 3225.97 4193.34 3225.97 4209.12 3225.97 4224.33 3223.53 4238.87 3218.64 4252.74 3213.74 4266.62 3205.24 4282.13 3193.15 4299.28L3169.39 4299.28C3184.23 4269.16 3191.65 4239.86 3191.65 4211.36 3191.65 4196.58 3190.12 4182.68 3187.07 4169.64 3183.45 4154.31 3177.56 4137.6 3169.39 4119.51ZM2821.86 4119.51C2837.01 4119.51 2848.35 4120.89 2855.86 4123.63 2863.38 4126.38 2869.61 4130.63 2874.56 4136.39 2879.52 4142.16 2883.25 4149.47 2885.75 4158.33L2844.87 4165.62C2843.19 4160.45 2840.34 4156.49 2836.31 4153.75 2832.29 4151.01 2827.17 4149.63 2820.93 4149.63 2811.64 4149.63 2804.23 4152.85 2798.72 4159.31 2793.2 4165.77 2790.43 4175.97 2790.43 4189.94 2790.43 4204.78 2793.23 4215.38 2798.81 4221.74 2804.39 4228.1 2812.17 4231.28 2822.15 4231.28 2826.88 4231.28 2831.41 4230.6 2835.71 4229.22 2840.01 4227.85 2844.93 4225.51 2850.48 4222.21L2850.48 4209.3 2822.15 4209.3 2822.15 4180.77 2887.62 4180.77 2887.62 4239.23C2875.08 4247.78 2864 4253.59 2854.37 4256.67 2844.73 4259.76 2833.3 4261.3 2820.08 4261.3 2803.81 4261.3 2790.55 4258.53 2780.29 4252.98 2770.03 4247.43 2762.08 4239.17 2756.44 4228.19 2750.8 4217.22 2747.98 4204.63 2747.98 4190.41 2747.98 4175.44 2751.06 4162.43 2757.24 4151.36 2763.41 4140.29 2772.45 4131.89 2784.36 4126.16 2793.65 4121.72 2806.15 4119.51 2821.86 4119.51ZM2709.83 4119.51 2733.58 4119.51C2725.42 4137.6 2719.53 4154.31 2715.91 4169.64 2712.86 4182.68 2711.33 4196.58 2711.33 4211.36 2711.33 4239.86 2718.75 4269.16 2733.58 4299.28L2709.83 4299.28C2697.73 4282.13 2689.24 4266.62 2684.34 4252.74 2679.45 4238.87 2677.01 4224.33 2677.01 4209.12 2677.01 4193.34 2679.57 4178.34 2684.72 4164.13 2689.87 4149.91 2698.23 4135.04 2709.83 4119.51Z" fill="url(#fill1)" fill-rule="evenodd" transform="matrix(1.04951 0 0 1 -2783.57 -3540.36)"/><path d="M2919.45 3526.77 3021.73 3797.93 2919.45 3526.77ZM3536.21 3454.46 3738.48 3454.46 3738.48 3606.99 3536.21 3606.99 3536.21 3454.46Z" fill="url(#fill2)" fill-rule="evenodd" transform="matrix(1.04951 0 0 1 -2783.57 -3540.36)"/></g></svg>