<svg id="Layer_1" data-name="Layer 1" xmlns="http://www.w3.org/2000/svg" viewBox="0 0 150 150"><defs><style>.cls-1{fill:#6785fb;}</style></defs><path class="cls-1" d="M71.94,14.53A15.25,15.25,0,0,1,63,30a7.27,7.27,0,0,0-4.31,6.61,7.16,7.16,0,0,0,2.13,5.1A7.33,7.33,0,0,0,63,43.17,15.56,15.56,0,1,1,42.33,63.8a7.21,7.21,0,0,0-13.17,0,15.25,15.25,0,1,1,0-12.48,7.24,7.24,0,0,0,13.22,0,15.19,15.19,0,0,1,3.42-4.8l0,0a15.25,15.25,0,0,1,4.77-3.35,7.24,7.24,0,0,0,2.14-11.7A7.1,7.1,0,0,0,50.56,30,15.24,15.24,0,1,1,71.94,14.53Z"/><path class="cls-1" d="M13.71,77.24a15.24,15.24,0,0,1,15.42,8.9,7.24,7.24,0,0,0,13.22,0A15.56,15.56,0,1,1,63,106.85,7.21,7.21,0,0,0,63,120a15.24,15.24,0,1,1-12.48,0,7.22,7.22,0,0,0,2.18-11.71,7.12,7.12,0,0,0-2.18-1.5,15.42,15.42,0,0,1-4.8-3.42l0,0a15.25,15.25,0,0,1-3.35-4.77,7.24,7.24,0,0,0-11.7-2.14,7.1,7.1,0,0,0-1.47,2.14A15.24,15.24,0,1,1,13.71,77.24Z"/><path class="cls-1" d="M78.06,135.47A15.25,15.25,0,0,1,87,120.05a7.27,7.27,0,0,0,4.31-6.61,7.16,7.16,0,0,0-2.13-5.1A7.33,7.33,0,0,0,87,106.83,15.56,15.56,0,1,1,107.67,86.2a7.21,7.21,0,0,0,13.17,0,15.25,15.25,0,1,1,0,12.48,7.24,7.24,0,0,0-13.22,0,15.19,15.19,0,0,1-3.42,4.8l0,0a15.25,15.25,0,0,1-4.77,3.35,7.24,7.24,0,0,0-2.14,11.7A7.1,7.1,0,0,0,99.44,120a15.24,15.24,0,1,1-21.38,15.45Z"/><path class="cls-1" d="M136.29,72.76a15.24,15.24,0,0,1-15.42-8.9,7.24,7.24,0,0,0-13.22,0A15.56,15.56,0,1,1,87,43.15,7.21,7.21,0,0,0,87,30,15.24,15.24,0,1,1,99.5,30a7.22,7.22,0,0,0-2.18,11.71,7.12,7.12,0,0,0,2.18,1.5,15.42,15.42,0,0,1,4.8,3.42l0,0a15.25,15.25,0,0,1,3.35,4.77,7.24,7.24,0,0,0,11.7,2.14,7.1,7.1,0,0,0,1.47-2.14,15.24,15.24,0,1,1,15.45,21.38Z"/><circle class="cls-1" cx="123.02" cy="28.14" r="11.07"/><circle class="cls-1" cx="28.14" cy="28.14" r="11.07"/><circle class="cls-1" cx="26.98" cy="121.86" r="11.07"/><circle class="cls-1" cx="121.86" cy="121.86" r="11.07"/></svg>