<svg id="Layer_1" data-name="Layer 1" xmlns="http://www.w3.org/2000/svg" viewBox="0 0 158 46.86"><defs><style>.cls-1{fill:#6c80e7;}.cls-2{fill:#0e2038;}</style></defs><path class="cls-1" d="M.29,44.2V37H1.51v3H3.35l2.52-3H7.22v.29L4.43,40.59l2.79,3.32v.29H5.87l-2.52-3H1.51v3Z"/><path class="cls-1" d="M8.25,44.2V38.38h4.58a1.27,1.27,0,0,1,.66.19,1.35,1.35,0,0,1,.49.49,1.32,1.32,0,0,1,.18.67V44.2H13V39.77a.2.2,0,0,0-.06-.14.18.18,0,0,0-.12-.05H9.64a.17.17,0,0,0-.19.19V44.2Z"/><path class="cls-1" d="M15.73,44a1.47,1.47,0,0,1-.49-.5,1.27,1.27,0,0,1-.19-.66V39.73a1.33,1.33,0,0,1,.19-.67,1.44,1.44,0,0,1,.49-.49,1.33,1.33,0,0,1,.67-.19h3.22a1.21,1.21,0,0,1,.67.19A1.31,1.31,0,0,1,21,39.73v3.13a1.26,1.26,0,0,1-.18.66,1.38,1.38,0,0,1-.49.5,1.29,1.29,0,0,1-.67.18H16.4A1.32,1.32,0,0,1,15.73,44Zm.71-1h3.14a.21.21,0,0,0,.19-.19v-3a.2.2,0,0,0-.06-.14.19.19,0,0,0-.13-.05H16.44a.22.22,0,0,0-.14.05.24.24,0,0,0-.05.14v3a.19.19,0,0,0,.05.13A.18.18,0,0,0,16.44,43Z"/><path class="cls-1" d="M23.77,44.2l-2.29-5.82h1.28L24.25,42l1.59-3.65h1.29l1.68,3.67,1.39-3.67h1.28L29.29,44.2h-.95l-1.85-4.1-1.77,4.1Z"/><path class="cls-1" d="M33,44a1.47,1.47,0,0,1-.49-.5,1.27,1.27,0,0,1-.19-.66V36.47h1.21v6.35a.19.19,0,0,0,.05.13.18.18,0,0,0,.13.06h1.08V44.2H33.65A1.32,1.32,0,0,1,33,44Z"/><path class="cls-1" d="M36,44a1.47,1.47,0,0,1-.49-.5,1.18,1.18,0,0,1-.19-.66V39.73a1.24,1.24,0,0,1,.19-.67,1.44,1.44,0,0,1,.49-.49,1.3,1.3,0,0,1,.67-.19h3.22a1.21,1.21,0,0,1,.67.19,1.31,1.31,0,0,1,.67,1.16v2.16H36.55v.93a.15.15,0,0,0,.05.13.18.18,0,0,0,.14.06h4.52V44.2H36.7A1.29,1.29,0,0,1,36,44Zm.52-3.22h3.52v-1a.2.2,0,0,0-.06-.14.21.21,0,0,0-.13-.05H36.74a.22.22,0,0,0-.14.05.19.19,0,0,0-.05.14Z"/><path class="cls-1" d="M42.68,44a1.35,1.35,0,0,1-.49-.49,1.27,1.27,0,0,1-.18-.67V39.73a1.32,1.32,0,0,1,.18-.67,1.44,1.44,0,0,1,.49-.49,1.31,1.31,0,0,1,.68-.19h3.38v-1.9h1.19V44.2H43.36A1.3,1.3,0,0,1,42.68,44Zm.73-1h3.14a.18.18,0,0,0,.13-.06.16.16,0,0,0,.06-.13v-3a.2.2,0,0,0-.06-.14.21.21,0,0,0-.13-.05H43.41a.22.22,0,0,0-.14.05.19.19,0,0,0-.05.14v3a.15.15,0,0,0,.05.13A.18.18,0,0,0,43.41,43Z"/><path class="cls-1" d="M49.87,46.5V45.29h3.55a.16.16,0,0,0,.12,0,.18.18,0,0,0,.06-.14v-.9H50.23a1.3,1.3,0,0,1-.68-.18,1.33,1.33,0,0,1-.48-.49,1.19,1.19,0,0,1-.19-.67V39.73a1.24,1.24,0,0,1,.19-.67,1.35,1.35,0,0,1,.49-.49,1.3,1.3,0,0,1,.67-.19h3.23a1.3,1.3,0,0,1,.67.19,1.25,1.25,0,0,1,.48.49,1.32,1.32,0,0,1,.18.67v5.42a1.3,1.3,0,0,1-.18.68,1.19,1.19,0,0,1-.48.49,1.29,1.29,0,0,1-.67.18Zm.4-3.49h3.15a.17.17,0,0,0,.12-.06.16.16,0,0,0,.06-.13v-3a.2.2,0,0,0-.06-.14.21.21,0,0,0-.12-.05H50.27a.22.22,0,0,0-.14.05.19.19,0,0,0-.05.14v3a.15.15,0,0,0,.05.13A.18.18,0,0,0,50.27,43Z"/><path class="cls-1" d="M56.36,44a1.38,1.38,0,0,1-.49-.5,1.18,1.18,0,0,1-.19-.66V39.73a1.24,1.24,0,0,1,.19-.67,1.35,1.35,0,0,1,.49-.49,1.28,1.28,0,0,1,.67-.19h3.21a1.22,1.22,0,0,1,.68.19,1.31,1.31,0,0,1,.67,1.16v2.16H56.88v.93a.15.15,0,0,0,0,.13.18.18,0,0,0,.14.06h4.52V44.2H57A1.27,1.27,0,0,1,56.36,44Zm.52-3.22H60.4v-1a.2.2,0,0,0-.06-.14.22.22,0,0,0-.14-.05H57.07a.22.22,0,0,0-.14.05.19.19,0,0,0,0,.14Z"/><path class="cls-2" d="M66.57,44.2A1.12,1.12,0,0,1,66,44a1.29,1.29,0,0,1-.45-.45,1.12,1.12,0,0,1-.16-.6V40.88h5.09V39.6a.37.37,0,0,0-.11-.28.41.41,0,0,0-.28-.11h-4.7v-.83h4.7a1.18,1.18,0,0,1,.62.17,1.32,1.32,0,0,1,.44.44,1.19,1.19,0,0,1,.17.61v4.6Zm0-.82h3.88V41.7H66.18V43a.34.34,0,0,0,.12.27A.36.36,0,0,0,66.57,43.38Z"/><path class="cls-2" d="M72.93,44a1.19,1.19,0,0,1-.44-.45,1.12,1.12,0,0,1-.16-.6V36.48h.82v1.9h2.52v.83H73.15V43a.34.34,0,0,0,.12.27.36.36,0,0,0,.27.12h2.13v.82H73.54A1.16,1.16,0,0,1,72.93,44Z"/><path class="cls-2" d="M80.13,46.51v-.83h3.63a.38.38,0,0,0,.28-.12.41.41,0,0,0,.11-.28V44.2H80.27a1.12,1.12,0,0,1-.6-.16,1.21,1.21,0,0,1-.45-.45,1.12,1.12,0,0,1-.16-.6V38.4h.82V43a.34.34,0,0,0,.12.27.36.36,0,0,0,.27.12h3.49a.38.38,0,0,0,.28-.12.37.37,0,0,0,.11-.27V38.4H85v6.88a1.27,1.27,0,0,1-.16.62,1.24,1.24,0,0,1-.44.44,1.18,1.18,0,0,1-.62.17Z"/><path class="cls-2" d="M86.39,44a1.27,1.27,0,0,1-.44-.45,1.12,1.12,0,0,1-.16-.6V39.6A1.18,1.18,0,0,1,86,39a1.32,1.32,0,0,1,.44-.44,1.19,1.19,0,0,1,.61-.17h3.49a1.2,1.2,0,0,1,.62.17,1.32,1.32,0,0,1,.44.44,1.19,1.19,0,0,1,.17.61V43a1.13,1.13,0,0,1-.17.6,1.27,1.27,0,0,1-.44.45,1.19,1.19,0,0,1-.62.16H87A1.18,1.18,0,0,1,86.39,44Zm.61-.66h3.49a.38.38,0,0,0,.28-.12.37.37,0,0,0,.11-.27V39.6a.38.38,0,0,0-.39-.39H87a.37.37,0,0,0-.27.11.38.38,0,0,0-.12.28V43a.41.41,0,0,0,.39.39Z"/><path class="cls-2" d="M93.12,44a1.27,1.27,0,0,1-.44-.45,1.12,1.12,0,0,1-.16-.6V38.38h.82V43a.41.41,0,0,0,.39.39h3.49a.38.38,0,0,0,.28-.12.34.34,0,0,0,.12-.27V38.38h.82V43a1.12,1.12,0,0,1-.16.6,1.27,1.27,0,0,1-.44.45,1.19,1.19,0,0,1-.62.16H93.73A1.18,1.18,0,0,1,93.12,44Z"/><path class="cls-2" d="M99.48,44.2V39.6a1.18,1.18,0,0,1,.16-.61,1.32,1.32,0,0,1,.44-.44,1.19,1.19,0,0,1,.61-.17H104v.83h-3.27a.37.37,0,0,0-.27.11.38.38,0,0,0-.12.28v4.6Z"/><path class="cls-2" d="M107.35,44.2V37.69a1.2,1.2,0,0,1,1.21-1.21h2.13v.82h-2.13a.41.41,0,0,0-.39.39v.69h2.52v.83h-2.52v5Z"/><path class="cls-2" d="M111.42,37.3v-.82h.82v.82Zm0,6.9V38.38h.82V44.2Z"/><path class="cls-2" d="M113.38,44.2V38.38h4.71a1.19,1.19,0,0,1,.61.17,1.32,1.32,0,0,1,.44.44,1.18,1.18,0,0,1,.16.61v4.6h-.82V39.6a.38.38,0,0,0-.39-.39H114.6a.41.41,0,0,0-.28.11.38.38,0,0,0-.12.28v4.6Z"/><path class="cls-2" d="M121.3,46.5v-.83h3.63a.38.38,0,0,0,.28-.12.41.41,0,0,0,.11-.28V44.2h-3.88a1.18,1.18,0,0,1-.61-.16,1.27,1.27,0,0,1-.44-.45,1.12,1.12,0,0,1-.16-.6V39.6a1.18,1.18,0,0,1,.16-.61,1.32,1.32,0,0,1,.44-.44,1.19,1.19,0,0,1,.61-.17h3.49a1.2,1.2,0,0,1,1,.61,1.18,1.18,0,0,1,.16.61v5.67a1.17,1.17,0,0,1-.16.62,1.14,1.14,0,0,1-.43.44,1.2,1.2,0,0,1-.62.17Zm.14-3.12h3.49a.38.38,0,0,0,.28-.12.37.37,0,0,0,.11-.27V39.6a.38.38,0,0,0-.39-.39h-3.49a.37.37,0,0,0-.27.11.38.38,0,0,0-.12.28V43a.41.41,0,0,0,.39.39Z"/><path class="cls-2" d="M127.63,44a1.27,1.27,0,0,1-.44-.45A1.12,1.12,0,0,1,127,43V39.6a1.18,1.18,0,0,1,.16-.61,1.32,1.32,0,0,1,.44-.44,1.19,1.19,0,0,1,.61-.17h3.49a1.2,1.2,0,0,1,.62.17,1.32,1.32,0,0,1,.44.44,1.18,1.18,0,0,1,.16.61v2.1h-5.1V43a.41.41,0,0,0,.39.39H133v.82h-4.71A1.18,1.18,0,0,1,127.63,44Zm.22-3.16h4.27V39.6a.38.38,0,0,0-.39-.39h-3.49a.37.37,0,0,0-.27.11.38.38,0,0,0-.12.28Z"/><path class="cls-2" d="M133.93,44.2V39.6a1.18,1.18,0,0,1,.16-.61,1.32,1.32,0,0,1,.44-.44,1.19,1.19,0,0,1,.61-.17h3.27v.83h-3.27a.38.38,0,0,0-.39.39v4.6Z"/><path class="cls-2" d="M139.67,44a1.19,1.19,0,0,1-.44-.45,1.22,1.22,0,0,1-.16-.6V36.48h.82v1.9h2.52v.83h-2.52V43a.34.34,0,0,0,.12.27.38.38,0,0,0,.28.12h2.12v.82h-2.12A1.17,1.17,0,0,1,139.67,44Z"/><path class="cls-2" d="M143.22,37.3v-.82h.83v.82Zm0,6.9V38.38h.83V44.2Z"/><path class="cls-2" d="M145.08,46.51V38.38h4.71a1.17,1.17,0,0,1,.61.17,1.32,1.32,0,0,1,.44.44,1.19,1.19,0,0,1,.17.61V43a1.13,1.13,0,0,1-.17.6,1.27,1.27,0,0,1-.44.45,1.16,1.16,0,0,1-.61.16H145.9v2.31Zm1.22-3.13h3.49a.38.38,0,0,0,.28-.12.33.33,0,0,0,.11-.27V39.6a.37.37,0,0,0-.11-.28.41.41,0,0,0-.28-.11H146.3a.43.43,0,0,0-.28.11.38.38,0,0,0-.12.28V43a.34.34,0,0,0,.12.27A.39.39,0,0,0,146.3,43.38Z"/><path class="cls-2" d="M152.39,44a1.21,1.21,0,0,1-.45-.45,1.12,1.12,0,0,1-.16-.6v-.08h.82V43a.41.41,0,0,0,.39.39h3.49a.38.38,0,0,0,.28-.12.37.37,0,0,0,.11-.27V42.1a.41.41,0,0,0-.11-.28.38.38,0,0,0-.28-.12H153a1.12,1.12,0,0,1-.6-.16,1.27,1.27,0,0,1-.45-.44,1.18,1.18,0,0,1-.16-.61V39.6a1.18,1.18,0,0,1,.16-.61,1.27,1.27,0,0,1,.45-.44,1.13,1.13,0,0,1,.6-.17h3.49a1.2,1.2,0,0,1,.62.17,1.32,1.32,0,0,1,.44.44,1.19,1.19,0,0,1,.17.61v.08h-.84V39.6a.38.38,0,0,0-.39-.39H153a.37.37,0,0,0-.27.11.38.38,0,0,0-.12.28v.89a.38.38,0,0,0,.12.28.37.37,0,0,0,.27.11h3.49a1.2,1.2,0,0,1,.62.17,1.24,1.24,0,0,1,.44.44,1.14,1.14,0,0,1,.17.61V43a1.13,1.13,0,0,1-.17.6,1.27,1.27,0,0,1-.44.45,1.19,1.19,0,0,1-.62.16H153A1.12,1.12,0,0,1,152.39,44Z"/><path class="cls-2" d="M44,23.88A3.36,3.36,0,0,1,41,22.2a3.3,3.3,0,0,1-.45-1.7V7A3.36,3.36,0,0,1,41,5.24,3.42,3.42,0,0,1,42.25,4,3.36,3.36,0,0,1,44,3.57H57.5A3.35,3.35,0,0,1,60.89,7V20.5a3.36,3.36,0,0,1-1.68,2.93,3.34,3.34,0,0,1-1.71.45Zm0-2.28H57.5a1.05,1.05,0,0,0,.78-.33,1,1,0,0,0,.33-.77V7a1,1,0,0,0-.33-.77,1.05,1.05,0,0,0-.78-.33H44A1.11,1.11,0,0,0,42.86,7V20.5A1.11,1.11,0,0,0,44,21.6Z"/><path class="cls-2" d="M57.51,24.06H44a3.52,3.52,0,0,1-1.8-.48,3.47,3.47,0,0,1-1.29-1.29,3.54,3.54,0,0,1-.47-1.79V7a3.55,3.55,0,0,1,1.76-3.09A3.61,3.61,0,0,1,44,3.39H57.51a3.57,3.57,0,0,1,1.79.47,3.5,3.5,0,0,1,1.29,1.3A3.45,3.45,0,0,1,61.07,7V20.5a3.45,3.45,0,0,1-.48,1.79,3.4,3.4,0,0,1-1.29,1.29A3.48,3.48,0,0,1,57.51,24.06ZM44,3.74a3.22,3.22,0,0,0-1.62.43A3.19,3.19,0,0,0,40.75,7V20.5a3.19,3.19,0,0,0,1.59,2.78,3.22,3.22,0,0,0,1.62.43H57.51a3.18,3.18,0,0,0,1.61-.43,3.14,3.14,0,0,0,1.59-2.78V7a3.14,3.14,0,0,0-1.59-2.78,3.18,3.18,0,0,0-1.61-.43Zm13.55,18H44a1.28,1.28,0,0,1-1.28-1.27V7A1.3,1.3,0,0,1,44,5.67H57.51a1.25,1.25,0,0,1,.9.38,1.22,1.22,0,0,1,.37.9V20.5a1.22,1.22,0,0,1-.37.9A1.24,1.24,0,0,1,57.51,21.77ZM44,6a.88.88,0,0,0-.65.27A.85.85,0,0,0,43,7V20.5a.85.85,0,0,0,.27.65.88.88,0,0,0,.65.27H57.51a.92.92,0,0,0,.92-.92V7a.89.89,0,0,0-.27-.65A.91.91,0,0,0,57.51,6Z"/><path class="cls-2" d="M63.94,30.37V7.52H77.2A3.27,3.27,0,0,1,78.91,8a3.59,3.59,0,0,1,1.24,1.24,3.28,3.28,0,0,1,.47,1.71v9.54a3.28,3.28,0,0,1-.47,1.71,3.59,3.59,0,0,1-1.24,1.24,3.27,3.27,0,0,1-1.71.46h-11v6.49Zm3.44-8.8H77.2a1.11,1.11,0,0,0,1.1-1.1V10.93a1.09,1.09,0,0,0-1.1-1.1H67.38a1.14,1.14,0,0,0-.79.32,1.08,1.08,0,0,0-.34.78v9.54a1,1,0,0,0,.34.77A1.11,1.11,0,0,0,67.38,21.57Z"/><path class="cls-2" d="M66.43,30.55H63.76V7.34H77.2a3.41,3.41,0,0,1,1.8.49,3.68,3.68,0,0,1,1.3,1.3,3.43,3.43,0,0,1,.49,1.8v9.54a3.43,3.43,0,0,1-.49,1.8,3.76,3.76,0,0,1-1.3,1.3,3.5,3.5,0,0,1-1.8.49H66.43Zm-2.32-.35h2V23.71H77.2a3.13,3.13,0,0,0,1.62-.44A3.5,3.5,0,0,0,80,22.09a3.15,3.15,0,0,0,.44-1.62V10.93A3.15,3.15,0,0,0,80,9.31a3.42,3.42,0,0,0-1.18-1.18,3.13,3.13,0,0,0-1.62-.44H64.11ZM77.2,21.75H67.38a1.27,1.27,0,0,1-.91-.38,1.2,1.2,0,0,1-.39-.9V10.93a1.2,1.2,0,0,1,.39-.9,1.29,1.29,0,0,1,.91-.38H77.2a1.3,1.3,0,0,1,1.28,1.28v9.54a1.3,1.3,0,0,1-1.28,1.28ZM67.38,10a1,1,0,0,0-.67.27.88.88,0,0,0-.28.65v9.54a.88.88,0,0,0,.28.65,1,1,0,0,0,.67.27H77.2a.88.88,0,0,0,.65-.27.86.86,0,0,0,.28-.65V10.93a.86.86,0,0,0-.28-.65A.88.88,0,0,0,77.2,10Z"/><path class="cls-2" d="M84.3,23.42a3.59,3.59,0,0,1-1.24-1.24,3.28,3.28,0,0,1-.47-1.71V10.93a3.28,3.28,0,0,1,.47-1.71A3.59,3.59,0,0,1,84.3,8,3.27,3.27,0,0,1,86,7.52h9.82A3.29,3.29,0,0,1,97.56,8,3.59,3.59,0,0,1,98.8,9.22a3.28,3.28,0,0,1,.47,1.71v5.93H84.91v3.61a1,1,0,0,0,.32.77,1.05,1.05,0,0,0,.78.33H99.27v2.31H86A3.27,3.27,0,0,1,84.3,23.42Zm.61-8.88h12V10.93a1.11,1.11,0,0,0-1.1-1.1H86a1.08,1.08,0,0,0-.78.32,1.06,1.06,0,0,0-.32.78Z"/><path class="cls-2" d="M99.45,24.06H86a3.5,3.5,0,0,1-1.8-.49,3.68,3.68,0,0,1-1.3-1.3,3.43,3.43,0,0,1-.49-1.8V10.93a3.43,3.43,0,0,1,.49-1.8,3.68,3.68,0,0,1,1.3-1.3A3.41,3.41,0,0,1,86,7.34h9.82a3.43,3.43,0,0,1,1.82.49A3.68,3.68,0,0,1,99,9.13a3.44,3.44,0,0,1,.5,1.8V17H85.08v3.44a.89.89,0,0,0,.27.65.91.91,0,0,0,.66.27H99.45ZM86,7.69a3.13,3.13,0,0,0-1.62.44,3.42,3.42,0,0,0-1.18,1.18,3.15,3.15,0,0,0-.44,1.62v9.54a3.15,3.15,0,0,0,.44,1.62,3.42,3.42,0,0,0,1.18,1.18h0a3.13,3.13,0,0,0,1.62.44H99.09v-2H86a1.22,1.22,0,0,1-.9-.38,1.23,1.23,0,0,1-.38-.9V16.68H99.09V10.93a3.15,3.15,0,0,0-.44-1.62,3.42,3.42,0,0,0-1.18-1.18,3.17,3.17,0,0,0-1.64-.44Zm11.09,7H84.73V10.93A1.3,1.3,0,0,1,86,9.65h9.82a1.25,1.25,0,0,1,.9.38,1.22,1.22,0,0,1,.37.9Zm-12-.35H96.75V10.93a.89.89,0,0,0-.27-.65.91.91,0,0,0-.65-.27H86a.91.91,0,0,0-.66.27.89.89,0,0,0-.27.65Z"/><path class="cls-2" d="M102.2,23.88V7.52h13.27a3.21,3.21,0,0,1,1.7.46,3.62,3.62,0,0,1,1.25,1.24,3.27,3.27,0,0,1,.46,1.71v13h-2.31V10.93a1.11,1.11,0,0,0-1.1-1.1h-9.82a1.12,1.12,0,0,0-.79.32,1,1,0,0,0-.34.78v13Z"/><path class="cls-2" d="M119.06,24.06h-2.67V10.93a.89.89,0,0,0-.27-.65.91.91,0,0,0-.65-.27h-9.82a.94.94,0,0,0-.67.27.89.89,0,0,0-.29.65V24.06H102V7.34h13.44a3.37,3.37,0,0,1,1.79.49,3.79,3.79,0,0,1,1.31,1.3,3.53,3.53,0,0,1,.49,1.8Zm-2.32-.35h2V10.93a3.06,3.06,0,0,0-.44-1.62,3.42,3.42,0,0,0-1.18-1.18,3.09,3.09,0,0,0-1.61-.44H102.38v16h2V10.93a1.2,1.2,0,0,1,.39-.9,1.29,1.29,0,0,1,.92-.38h9.82a1.25,1.25,0,0,1,.9.38,1.22,1.22,0,0,1,.37.9Z"/><path class="cls-2" d="M121.84,23.88V21.57h2.32v2.31Z"/><path class="cls-2" d="M124.33,24.06h-2.66V21.39h2.66ZM122,23.71h2v-2h-2Z"/><path class="cls-2" d="M131.18,23.88a3.36,3.36,0,0,1-3.38-3.38v-.79h2.28v.79a1.13,1.13,0,0,0,1.1,1.1h13.55a1.11,1.11,0,0,0,1.1-1.1V16a1,1,0,0,0-.32-.76,1.09,1.09,0,0,0-.78-.31H131.18a3.21,3.21,0,0,1-1.7-.46,3.45,3.45,0,0,1-1.23-1.23,3.26,3.26,0,0,1-.45-1.69V7A3.33,3.33,0,0,1,129.48,4a3.3,3.3,0,0,1,1.7-.45h13.55a3.36,3.36,0,0,1,1.71.45,3.4,3.4,0,0,1,1.22,1.22A3.27,3.27,0,0,1,148.12,7v.79h-2.29V7a1.11,1.11,0,0,0-1.1-1.1H131.18a1.13,1.13,0,0,0-1.1,1.1V11.5a1,1,0,0,0,.33.76,1.09,1.09,0,0,0,.77.31h13.55a3.27,3.27,0,0,1,1.71.46,3.5,3.5,0,0,1,1.22,1.23,3.18,3.18,0,0,1,.46,1.69V20.5a3.21,3.21,0,0,1-.46,1.7,3.33,3.33,0,0,1-2.93,1.68Z"/><path class="cls-2" d="M144.73,24.06H131.18a3.55,3.55,0,0,1-3.56-3.56v-1h2.64v1a.89.89,0,0,0,.27.65.91.91,0,0,0,.65.27h13.55a.89.89,0,0,0,.65-.27.87.87,0,0,0,.27-.65V16a.8.8,0,0,0-.27-.63.87.87,0,0,0-.65-.26H131.18a3.46,3.46,0,0,1-1.79-.49,3.71,3.71,0,0,1-1.29-1.29,3.39,3.39,0,0,1-.48-1.78V7a3.45,3.45,0,0,1,.48-1.79,3.5,3.5,0,0,1,1.29-1.3,3.57,3.57,0,0,1,1.79-.47h13.55a3.5,3.5,0,0,1,3.09,1.77A3.54,3.54,0,0,1,148.29,7v1h-2.64V7a.85.85,0,0,0-.27-.65.89.89,0,0,0-.65-.27H131.18a.91.91,0,0,0-.65.27.89.89,0,0,0-.27.65V11.5a.83.83,0,0,0,.27.63.88.88,0,0,0,.65.26h13.55a3.5,3.5,0,0,1,1.8.49,3.79,3.79,0,0,1,1.29,1.29,3.48,3.48,0,0,1,.47,1.78V20.5a3.54,3.54,0,0,1-.47,1.79,3.47,3.47,0,0,1-1.29,1.29A3.52,3.52,0,0,1,144.73,24.06ZM128,19.88v.62a3.17,3.17,0,0,0,1.6,2.78,3.18,3.18,0,0,0,1.61.43h13.55a3.22,3.22,0,0,0,1.62-.43,3.19,3.19,0,0,0,1.59-2.78V16a3,3,0,0,0-.43-1.6,3.33,3.33,0,0,0-1.16-1.17,3.13,3.13,0,0,0-1.62-.44H131.18a1.25,1.25,0,0,1-.89-.36,1.17,1.17,0,0,1-.38-.88V7a1.22,1.22,0,0,1,.37-.9,1.25,1.25,0,0,1,.9-.38h13.55A1.3,1.3,0,0,1,146,7v.62h1.93V7a3.19,3.19,0,0,0-1.59-2.78,3.22,3.22,0,0,0-1.62-.43H131.18a3.18,3.18,0,0,0-1.61.43A3.17,3.17,0,0,0,128,7V11.5a3.14,3.14,0,0,0,.43,1.6,3.33,3.33,0,0,0,1.17,1.16,3,3,0,0,0,1.61.45h13.55a1.29,1.29,0,0,1,.9.35A1.21,1.21,0,0,1,146,16V20.5a1.25,1.25,0,0,1-.38.9,1.22,1.22,0,0,1-.9.37H131.18a1.24,1.24,0,0,1-.9-.37,1.22,1.22,0,0,1-.37-.9v-.62Z"/><path class="cls-2" d="M151.42,23.88V3.57h2.31V23.88Z"/><path class="cls-2" d="M153.91,24.06h-2.67V3.39h2.67Zm-2.32-.35h2v-20h-2Z"/><path class="cls-1" d="M16.41,3.42a3.41,3.41,0,0,1-2,3.46,1.62,1.62,0,0,0-.49,2.62,1.87,1.87,0,0,0,.49.34,3.48,3.48,0,1,1-4.64,4.62A1.62,1.62,0,0,0,7.15,14a1.78,1.78,0,0,0-.33.48,3.41,3.41,0,1,1,0-2.79,1.63,1.63,0,0,0,1.48,1,1.6,1.6,0,0,0,1.14-.48,1.5,1.5,0,0,0,.34-.48,3.3,3.3,0,0,1,.76-1.08h0a3.26,3.26,0,0,1,1.07-.76,1.62,1.62,0,0,0,.48-2.62,2,2,0,0,0-.48-.33,3.41,3.41,0,1,1,4.79-3.46Z"/><path class="cls-1" d="M3.36,17.47a3.42,3.42,0,0,1,3.46,2A1.61,1.61,0,0,0,9.44,20a1.67,1.67,0,0,0,.34-.48A3.48,3.48,0,1,1,14.4,24.1a1.63,1.63,0,0,0-.48,2.63,1.75,1.75,0,0,0,.48.32,3.42,3.42,0,1,1-2.8,0,1.62,1.62,0,0,0,1-1.48,1.59,1.59,0,0,0-.48-1.14,1.5,1.5,0,0,0-.48-.34,3.33,3.33,0,0,1-1.08-.77h0a3.37,3.37,0,0,1-.76-1.07,1.62,1.62,0,0,0-2.62-.48,2,2,0,0,0-.33.48,3.41,3.41,0,1,1-3.46-4.79Z"/><path class="cls-1" d="M17.78,30.52a3.42,3.42,0,0,1,2-3.46,1.61,1.61,0,0,0,.49-2.62,1.54,1.54,0,0,0-.49-.34,3.42,3.42,0,0,1-2-3.46,3.38,3.38,0,0,1,1-2.12,3.41,3.41,0,0,1,5.59,1A1.62,1.62,0,0,0,27,20a1.58,1.58,0,0,0,.33-.48,3.42,3.42,0,1,1,0,2.79,1.62,1.62,0,0,0-3,0,3.61,3.61,0,0,1-.77,1.08h0a3.53,3.53,0,0,1-1.07.76,1.62,1.62,0,0,0-.48,2.62,1.86,1.86,0,0,0,.48.33,3.41,3.41,0,1,1-4.79,3.46Z"/><path class="cls-1" d="M30.82,16.47a3.41,3.41,0,0,1-3.45-2,1.64,1.64,0,0,0-1.48-1,1.62,1.62,0,0,0-1.14.47,1.66,1.66,0,0,0-.34.49,3.49,3.49,0,1,1-4.62-4.64,1.6,1.6,0,0,0,.95-1.47,1.66,1.66,0,0,0-.47-1.15,2,2,0,0,0-.48-.33A3.41,3.41,0,0,1,21.57.37a3.44,3.44,0,0,1,3,3.05,3.44,3.44,0,0,1-2,3.46,1.63,1.63,0,0,0-1,1.48,1.59,1.59,0,0,0,.47,1.14,1.66,1.66,0,0,0,.49.34,3.29,3.29,0,0,1,1.08.77h0a3.23,3.23,0,0,1,.75,1.07,1.62,1.62,0,0,0,1.48,1,1.6,1.6,0,0,0,1.47-1,3.41,3.41,0,1,1,3.46,4.79Z"/><circle class="cls-1" cx="27.85" cy="6.47" r="2.48"/><circle class="cls-1" cx="6.6" cy="6.47" r="2.48"/><circle class="cls-1" cx="6.34" cy="27.47" r="2.48"/><circle class="cls-1" cx="27.59" cy="27.47" r="2.48"/></svg>