<svg width="512" height="512" viewBox="0 0 512 512" fill="none" xmlns="http://www.w3.org/2000/svg">
<path d="M247.841 94.4857C248.71 102.995 246.875 111.562 242.595 118.968C238.315 126.374 231.809 132.241 224.002 135.736C220.593 137.256 217.695 139.728 215.656 142.854C213.618 145.981 212.525 149.629 212.51 153.362C212.508 155.892 213.009 158.397 213.984 160.732C214.959 163.066 216.389 165.184 218.189 166.961C219.877 168.598 221.846 169.917 224.002 170.854C230.067 173.662 235.363 177.893 239.441 183.188C243.519 188.482 246.258 194.684 247.425 201.264C248.591 207.845 248.15 214.61 246.14 220.983C244.131 227.357 240.611 233.151 235.881 237.872C231.15 242.593 225.35 246.102 218.972 248.099C212.594 250.097 205.829 250.524 199.25 249.345C192.672 248.166 186.476 245.415 181.189 241.327C175.903 237.239 171.682 231.934 168.886 225.864C167.373 222.471 164.909 219.589 161.793 217.567C158.677 215.544 155.042 214.468 151.327 214.468C147.612 214.468 143.977 215.544 140.861 217.567C137.744 219.589 135.281 222.471 133.768 225.864C129.96 234.356 123.353 241.285 115.052 245.494C106.751 249.702 97.2574 250.936 88.1563 248.989C79.0551 247.042 70.8973 242.031 65.045 234.794C59.1927 227.557 56 218.532 56 209.225C56 199.918 59.1927 190.892 65.045 183.655C70.8973 176.418 79.0551 171.408 88.1563 169.461C97.2574 167.514 106.751 168.747 115.052 172.956C123.353 177.165 129.96 184.094 133.768 192.586C135.289 195.989 137.763 198.879 140.89 200.908C144.018 202.936 147.666 204.015 151.394 204.015C155.121 204.015 158.769 202.936 161.897 200.908C165.025 198.879 167.498 195.989 169.019 192.586C171.194 187.765 174.292 183.417 178.138 179.787C181.764 176.019 186.083 172.986 190.858 170.854C193.696 169.566 196.18 167.61 198.097 165.154C200.015 162.697 201.31 159.813 201.87 156.748C202.431 153.682 202.241 150.526 201.317 147.55C200.393 144.573 198.762 141.865 196.564 139.656C194.911 138.007 192.967 136.678 190.831 135.736C184.317 132.824 178.685 128.249 174.501 122.47C170.316 116.691 167.727 109.912 166.994 102.815C166.26 95.7182 167.408 88.5531 170.322 82.0404C173.236 75.5278 177.813 69.8971 183.594 65.7146C189.374 61.5321 196.154 58.9452 203.251 58.214C210.348 57.4828 217.513 58.633 224.025 61.5491C230.536 64.4652 236.166 69.0443 240.346 74.826C244.527 80.6077 247.112 87.3882 247.841 94.4857Z" fill="#6785FB"/>
<path d="M92.5705 261.701C101.047 260.848 109.577 262.68 116.955 266.939C124.333 271.197 130.187 277.667 133.688 285.433C135.209 288.837 137.682 291.727 140.81 293.755C143.938 295.783 147.586 296.862 151.313 296.862C155.041 296.862 158.689 295.783 161.817 293.755C164.944 291.727 167.418 288.837 168.939 285.433C171.768 279.394 176.011 274.125 181.308 270.074C186.606 266.023 192.802 263.308 199.372 262.161C205.941 261.013 212.691 261.466 219.048 263.481C225.406 265.496 231.184 269.014 235.893 273.736C240.602 278.459 244.103 284.247 246.1 290.611C248.096 296.974 248.53 303.725 247.363 310.291C246.196 316.857 243.464 323.046 239.397 328.331C235.33 333.617 230.05 337.845 224.002 340.656C220.624 342.176 217.758 344.639 215.747 347.75C213.735 350.86 212.666 354.485 212.666 358.189C212.666 361.892 213.735 365.517 215.747 368.627C217.758 371.738 220.624 374.201 224.002 375.721C232.487 379.529 239.408 386.131 243.612 394.427C247.816 402.723 249.047 412.21 247.1 421.303C245.153 430.397 240.145 438.548 232.913 444.396C225.682 450.243 216.663 453.433 207.363 453.433C198.063 453.433 189.044 450.243 181.813 444.396C174.581 438.548 169.573 430.397 167.626 421.303C165.679 412.21 166.91 402.723 171.114 394.427C175.317 386.131 182.239 379.529 190.724 375.721C193.584 374.455 196.092 372.511 198.032 370.057C199.972 367.604 201.285 364.715 201.858 361.64C202.43 358.565 202.245 355.397 201.318 352.41C200.391 349.423 198.75 346.707 196.537 344.496C194.866 342.811 192.895 341.455 190.724 340.496C185.911 338.308 181.565 335.211 177.925 331.377C174.157 327.751 171.124 323.432 168.992 318.658C167.704 315.82 165.749 313.336 163.292 311.418C160.835 309.5 157.951 308.206 154.886 307.645C151.82 307.084 148.664 307.274 145.688 308.198C142.712 309.122 140.003 310.753 137.794 312.951C136.148 314.596 134.819 316.531 133.874 318.658C130.971 325.176 126.402 330.815 120.628 335.008C114.853 339.2 108.077 341.798 100.98 342.54C93.8825 343.282 86.715 342.142 80.1982 339.235C73.6813 336.328 68.0448 331.757 63.8556 325.98C59.6664 320.203 57.0722 313.425 56.3338 306.328C55.5955 299.23 56.7392 292.063 59.6497 285.548C62.5603 279.033 67.1351 273.399 72.9141 269.213C78.6931 265.026 85.4725 262.436 92.5705 261.701Z" fill="#6785FB"/>
<path d="M264.159 416.971C263.318 408.483 265.168 399.946 269.446 392.567C273.724 385.188 280.214 379.341 287.998 375.854C291.407 374.334 294.305 371.863 296.343 368.736C298.382 365.609 299.475 361.961 299.49 358.228C299.492 355.698 298.99 353.193 298.015 350.859C297.04 348.524 295.611 346.407 293.811 344.629C292.134 342.945 290.164 341.58 287.998 340.603C281.933 337.795 276.636 333.564 272.558 328.269C268.48 322.975 265.742 316.773 264.575 310.193C263.409 303.612 263.849 296.847 265.859 290.473C267.869 284.1 271.389 278.306 276.119 273.585C280.849 268.864 286.65 265.355 293.028 263.358C299.405 261.36 306.171 260.933 312.749 262.112C319.328 263.291 325.524 266.042 330.81 270.13C336.097 274.218 340.318 279.523 343.114 285.593C344.627 288.986 347.09 291.868 350.207 293.89C353.323 295.913 356.958 296.989 360.673 296.989C364.388 296.989 368.023 295.913 371.139 293.89C374.255 291.868 376.719 288.986 378.232 285.593C382.04 277.101 388.646 270.172 396.947 265.963C405.249 261.754 414.742 260.521 423.843 262.468C432.945 264.415 441.102 269.426 446.955 276.662C452.807 283.899 456 292.925 456 302.232C456 311.539 452.807 320.565 446.955 327.802C441.102 335.038 432.945 340.049 423.843 341.996C414.742 343.943 405.249 342.71 396.947 338.501C388.646 334.292 382.04 327.363 378.232 318.871C376.711 315.468 374.237 312.577 371.11 310.549C367.982 308.521 364.334 307.442 360.606 307.442C356.879 307.442 353.231 308.521 350.103 310.549C346.975 312.577 344.502 315.468 342.981 318.871C340.806 323.692 337.708 328.04 333.861 331.67C330.235 335.438 325.917 338.471 321.142 340.603C318.304 341.891 315.82 343.846 313.902 346.303C311.985 348.759 310.69 351.644 310.129 354.709C309.569 357.775 309.758 360.931 310.683 363.907C311.607 366.883 313.237 369.592 315.436 371.801C317.089 373.45 319.032 374.779 321.169 375.721C327.685 378.632 333.32 383.209 337.506 388.991C341.691 394.772 344.28 401.554 345.013 408.654C345.745 415.753 344.594 422.921 341.676 429.435C338.758 435.948 334.176 441.579 328.391 445.759C322.606 449.94 315.822 452.523 308.722 453.249C301.621 453.975 294.455 452.817 287.944 449.894C281.432 446.97 275.806 442.383 271.631 436.594C267.456 430.805 264.879 424.019 264.159 416.918V416.971Z" fill="#6785FB"/>
<path d="M419.429 249.755C410.953 250.609 402.423 248.777 395.045 244.518C387.667 240.26 381.813 233.79 378.312 226.024C376.791 222.62 374.317 219.73 371.19 217.702C368.062 215.674 364.414 214.595 360.686 214.595C356.959 214.595 353.311 215.674 350.183 217.702C347.056 219.73 344.582 222.62 343.061 226.024C340.232 232.063 335.989 237.332 330.691 241.383C325.394 245.434 319.198 248.149 312.628 249.296C306.058 250.444 299.309 249.991 292.951 247.976C286.594 245.961 280.816 242.443 276.107 237.721C271.398 232.998 267.897 227.21 265.9 220.846C263.903 214.483 263.47 207.732 264.637 201.166C265.804 194.6 268.536 188.411 272.603 183.126C276.669 177.84 281.95 173.612 287.998 170.801C291.375 169.281 294.242 166.818 296.253 163.707C298.264 160.597 299.334 156.972 299.334 153.268C299.334 149.565 298.264 145.94 296.253 142.829C294.242 139.719 291.375 137.256 287.998 135.736C279.518 131.923 272.602 125.318 268.404 117.022C264.206 108.726 262.98 99.2419 264.93 90.1512C266.88 81.0604 271.888 72.9132 279.119 67.0687C286.35 61.2243 295.366 58.0361 304.663 58.0361C313.961 58.0361 322.977 61.2243 330.208 67.0687C337.439 72.9132 342.447 81.0604 344.397 90.1512C346.347 99.2419 345.121 108.726 340.923 117.022C336.725 125.318 329.809 131.923 321.329 135.736C318.469 137.002 315.961 138.946 314.021 141.4C312.081 143.853 310.768 146.742 310.195 149.817C309.623 152.892 309.808 156.06 310.735 159.047C311.662 162.034 313.303 164.75 315.516 166.961C317.187 168.646 319.158 170.002 321.329 170.961C326.142 173.149 330.488 176.246 334.128 180.08C337.896 183.706 340.929 188.025 343.061 192.799C344.349 195.637 346.305 198.121 348.761 200.039C351.218 201.957 354.102 203.251 357.168 203.812C360.233 204.373 363.389 204.183 366.365 203.259C369.342 202.335 372.05 200.704 374.259 198.506C375.905 196.86 377.234 194.926 378.179 192.799C381.091 186.283 385.667 180.648 391.449 176.462C397.23 172.277 404.012 169.688 411.112 168.955C418.211 168.223 425.379 169.374 431.893 172.292C438.407 175.21 444.037 179.792 448.218 185.577C452.398 191.362 454.981 198.146 455.707 205.246C456.433 212.347 455.276 219.513 452.352 226.024C449.428 232.536 444.841 238.162 439.052 242.337C433.264 246.512 426.477 249.089 419.376 249.809L419.429 249.755Z" fill="#6785FB"/>
<path d="M384.045 160.295C400.347 160.295 413.563 147.079 413.563 130.777C413.563 114.474 400.347 101.259 384.045 101.259C367.743 101.259 354.527 114.474 354.527 130.777C354.527 147.079 367.743 160.295 384.045 160.295Z" fill="#6785FB"/>
<path d="M131.048 160.295C147.351 160.295 160.566 147.079 160.566 130.777C160.566 114.474 147.351 101.259 131.048 101.259C114.746 101.259 101.53 114.474 101.53 130.777C101.53 147.079 114.746 160.295 131.048 160.295Z" fill="#6785FB"/>
<path d="M127.955 410.198C144.257 410.198 157.473 396.983 157.473 380.68C157.473 364.378 144.257 351.162 127.955 351.162C111.653 351.162 98.437 364.378 98.437 380.68C98.437 396.983 111.653 410.198 127.955 410.198Z" fill="#6785FB"/>
<path d="M380.952 410.198C397.254 410.198 410.47 396.983 410.47 380.68C410.47 364.378 397.254 351.162 380.952 351.162C364.649 351.162 351.434 364.378 351.434 380.68C351.434 396.983 364.649 410.198 380.952 410.198Z" fill="#6785FB"/>
</svg>
