<svg width="48" height="48" viewBox="0 0 48 48" fill="none" xmlns="http://www.w3.org/2000/svg">
<path d="M22.786 10.1925C22.8622 10.9371 22.7016 11.6867 22.3271 12.3347C21.9526 12.9827 21.3833 13.4961 20.7002 13.8019C20.4019 13.9349 20.1483 14.1512 19.9699 14.4247C19.7915 14.6983 19.6959 15.0176 19.6946 15.3442C19.6944 15.5655 19.7383 15.7847 19.8236 15.989C19.9089 16.1933 20.034 16.3786 20.1916 16.5341C20.3392 16.6773 20.5115 16.7927 20.7002 16.8747C21.2308 17.1204 21.6943 17.4906 22.0511 17.9539C22.408 18.4172 22.6476 18.9598 22.7496 19.5356C22.8517 20.1114 22.8132 20.7033 22.6373 21.261C22.4614 21.8187 22.1534 22.3257 21.7395 22.7388C21.3256 23.1519 20.8181 23.4589 20.2601 23.6337C19.702 23.8085 19.11 23.8459 18.5344 23.7427C17.9588 23.6395 17.4167 23.3988 16.9541 23.0411C16.4915 22.6834 16.1222 22.2192 15.8775 21.6881C15.7451 21.3912 15.5296 21.139 15.2569 20.9621C14.9842 20.7851 14.6662 20.6909 14.3411 20.6909C14.016 20.6909 13.698 20.7851 13.4253 20.9621C13.1526 21.139 12.9371 21.3912 12.8047 21.6881C12.4715 22.4312 11.8934 23.0374 11.1671 23.4057C10.4407 23.774 9.61002 23.8819 8.81367 23.7115C8.01732 23.5411 7.30352 23.1027 6.79144 22.4695C6.27936 21.8363 6 21.0466 6 20.2322C6 19.4178 6.27936 18.6281 6.79144 17.9948C7.30352 17.3616 8.01732 16.9232 8.81367 16.7528C9.61002 16.5824 10.4407 16.6904 11.1671 17.0586C11.8934 17.4269 12.4715 18.0332 12.8047 18.7763C12.9378 19.0741 13.1542 19.327 13.4279 19.5044C13.7016 19.6819 14.0208 19.7763 14.3469 19.7763C14.6731 19.7763 14.9923 19.6819 15.266 19.5044C15.5396 19.327 15.7561 19.0741 15.8892 18.7763C16.0795 18.3544 16.3506 17.974 16.6871 17.6563C17.0044 17.3267 17.3823 17.0613 17.8 16.8747C18.0484 16.762 18.2657 16.5909 18.4335 16.376C18.6013 16.161 18.7146 15.9086 18.7637 15.6404C18.8127 15.3722 18.7961 15.096 18.7153 14.8356C18.6344 14.5752 18.4917 14.3382 18.2993 14.1449C18.1547 14.0006 17.9846 13.8843 17.7977 13.8019C17.2278 13.5471 16.735 13.1468 16.3688 12.6411C16.0027 12.1355 15.7761 11.5423 15.712 10.9213C15.6478 10.3003 15.7482 9.6734 16.0032 9.10354C16.2582 8.53368 16.6587 8.041 17.1645 7.67503C17.6702 7.30906 18.2635 7.08271 18.8845 7.01872C19.5055 6.95474 20.1324 7.05539 20.7022 7.31055C21.2719 7.56571 21.7645 7.96638 22.1303 8.47228C22.4961 8.97818 22.7223 9.57147 22.786 10.1925Z" fill="#6785FB"/>
<path d="M9.20004 24.8238C9.94171 24.7491 10.6881 24.9094 11.3337 25.2821C11.9793 25.6547 12.4915 26.2208 12.7978 26.9003C12.9309 27.1981 13.1473 27.451 13.421 27.6285C13.6947 27.8059 14.0139 27.9004 14.34 27.9004C14.6662 27.9004 14.9854 27.8059 15.2591 27.6285C15.5328 27.451 15.7492 27.1981 15.8823 26.9003C16.1298 26.3719 16.5011 25.9109 16.9646 25.5564C17.4282 25.2019 17.9703 24.9644 18.5452 24.864C19.12 24.7635 19.7106 24.8032 20.2669 24.9795C20.8231 25.1558 21.3287 25.4636 21.7408 25.8769C22.1528 26.2901 22.4591 26.7966 22.6338 27.3533C22.8086 27.9101 22.8465 28.5008 22.7444 29.0754C22.6423 29.6499 22.4032 30.1914 22.0474 30.6539C21.6915 31.1164 21.2295 31.4864 20.7003 31.7323C20.4048 31.8653 20.1539 32.0809 19.9779 32.353C19.802 32.6251 19.7084 32.9423 19.7084 33.2664C19.7084 33.5905 19.802 33.9077 19.9779 34.1798C20.1539 34.452 20.4048 34.6675 20.7003 34.8005C21.4427 35.1337 22.0484 35.7114 22.4162 36.4373C22.784 37.1632 22.8917 37.9933 22.7213 38.789C22.551 39.5847 22.1128 40.2979 21.48 40.8095C20.8473 41.3212 20.0581 41.6003 19.2444 41.6003C18.4306 41.6003 17.6415 41.3212 17.0087 40.8095C16.3759 40.2979 15.9378 39.5847 15.7674 38.789C15.5971 37.9933 15.7048 37.1632 16.0726 36.4373C16.4404 35.7114 17.0461 35.1337 17.7885 34.8005C18.0387 34.6897 18.2582 34.5196 18.428 34.3049C18.5977 34.0903 18.7126 33.8375 18.7627 33.5684C18.8128 33.2994 18.7966 33.0222 18.7154 32.7608C18.6343 32.4994 18.4907 32.2617 18.2971 32.0683C18.1509 31.9209 17.9784 31.8022 17.7885 31.7183C17.3673 31.5268 16.9871 31.2559 16.6686 30.9204C16.3389 30.6031 16.0735 30.2252 15.8869 29.8075C15.7743 29.5591 15.6031 29.3418 15.3882 29.174C15.1732 29.0062 14.9209 28.8929 14.6526 28.8439C14.3844 28.7948 14.1082 28.8114 13.8478 28.8923C13.5874 28.9731 13.3504 29.1158 13.1571 29.3082C13.0131 29.4521 12.8968 29.6214 12.8141 29.8075C12.5601 30.3778 12.1603 30.8712 11.6551 31.2381C11.1498 31.6049 10.5568 31.8322 9.93584 31.8972C9.31484 31.9621 8.68769 31.8624 8.11747 31.608C7.54724 31.3536 7.05405 30.9536 6.68749 30.4482C6.32094 29.9427 6.09394 29.3496 6.02934 28.7286C5.96474 28.1075 6.0648 27.4804 6.31948 26.9104C6.57415 26.3403 6.97445 25.8473 7.48011 25.481C7.98578 25.1147 8.57897 24.8881 9.20004 24.8238Z" fill="#6785FB"/>
<path d="M24.2141 38.4099C24.1406 37.6672 24.3024 36.9202 24.6767 36.2745C25.0511 35.6289 25.6189 35.1173 26.3 34.8121C26.5983 34.6791 26.8519 34.4629 27.0303 34.1893C27.2086 33.9157 27.3042 33.5965 27.3056 33.2699C27.3057 33.0485 27.2619 32.8293 27.1766 32.625C27.0912 32.4208 26.9662 32.2355 26.8086 32.08C26.6619 31.9326 26.4896 31.8132 26.3 31.7276C25.7693 31.482 25.3059 31.1117 24.9491 30.6485C24.5922 30.1852 24.3526 29.6426 24.2505 29.0668C24.1485 28.491 24.187 27.899 24.3629 27.3413C24.5388 26.7836 24.8467 26.2767 25.2606 25.8636C25.6745 25.4505 26.1821 25.1435 26.7401 24.9687C27.2982 24.7939 27.8902 24.7565 28.4658 24.8597C29.0414 24.9629 29.5835 25.2035 30.0461 25.5613C30.5087 25.919 30.878 26.3832 31.1227 26.9143C31.2551 27.2112 31.4706 27.4633 31.7433 27.6403C32.0159 27.8173 32.334 27.9114 32.6591 27.9114C32.9841 27.9114 33.3022 27.8173 33.5749 27.6403C33.8476 27.4633 34.0631 27.2112 34.1955 26.9143C34.5287 26.1712 35.1068 25.5649 35.8331 25.1967C36.5595 24.8284 37.3902 24.7205 38.1865 24.8908C38.9829 25.0612 39.6967 25.4996 40.2087 26.1329C40.7208 26.7661 41.0002 27.5558 41.0002 28.3702C41.0002 29.1846 40.7208 29.9743 40.2087 30.6075C39.6967 31.2408 38.9829 31.6792 38.1865 31.8496C37.3902 32.0199 36.5595 31.912 35.8331 31.5437C35.1068 31.1755 34.5287 30.5692 34.1955 29.8261C34.0624 29.5283 33.846 29.2754 33.5723 29.098C33.2986 28.9205 32.9794 28.8261 32.6533 28.8261C32.3271 28.8261 32.0079 28.9205 31.7342 29.098C31.4605 29.2754 31.2441 29.5283 31.111 29.8261C30.9207 30.2479 30.6496 30.6284 30.3131 30.946C29.9958 31.2757 29.6179 31.5411 29.2001 31.7276C28.9518 31.8403 28.7345 32.0115 28.5667 32.2264C28.3989 32.4414 28.2856 32.6937 28.2365 32.962C28.1875 33.2302 28.2041 33.5063 28.2849 33.7668C28.3658 34.0272 28.5085 34.2642 28.7008 34.4575C28.8455 34.6017 29.0155 34.718 29.2025 34.8004C29.7727 35.0552 30.2657 35.4557 30.6319 35.9616C30.9982 36.4674 31.2247 37.0609 31.2888 37.6821C31.3529 38.3033 31.2522 38.9305 30.9969 39.5004C30.7416 40.0704 30.3406 40.5631 29.8345 40.9288C29.3283 41.2946 28.7347 41.5207 28.1134 41.5842C27.4921 41.6477 26.865 41.5464 26.2953 41.2906C25.7256 41.0348 25.2332 40.6334 24.8679 40.1269C24.5026 39.6204 24.2771 39.0266 24.2141 38.4052V38.4099Z" fill="#6785FB"/>
<path d="M37.8 23.7786C37.0584 23.8533 36.312 23.693 35.6664 23.3204C35.0208 22.9477 34.5086 22.3816 34.2023 21.7021C34.0692 21.4043 33.8527 21.1514 33.5791 20.9739C33.3054 20.7965 32.9862 20.7021 32.66 20.7021C32.3339 20.7021 32.0147 20.7965 31.741 20.9739C31.4673 21.1514 31.2509 21.4043 31.1178 21.7021C30.8703 22.2305 30.499 22.6915 30.0355 23.046C29.5719 23.4005 29.0298 23.638 28.4549 23.7385C27.8801 23.8389 27.2895 23.7993 26.7332 23.6229C26.1769 23.4466 25.6713 23.1388 25.2593 22.7256C24.8473 22.3123 24.5409 21.8059 24.3662 21.2491C24.1915 20.6923 24.1536 20.1016 24.2557 19.527C24.3578 18.9525 24.5969 18.411 24.9527 17.9485C25.3085 17.486 25.7706 17.1161 26.2998 16.8701C26.5953 16.7371 26.8462 16.5216 27.0221 16.2494C27.1981 15.9773 27.2917 15.6601 27.2917 15.336C27.2917 15.0119 27.1981 14.6947 27.0221 14.4226C26.8462 14.1504 26.5953 13.9349 26.2998 13.8019C25.5578 13.4683 24.9527 12.8903 24.5854 12.1645C24.218 11.4386 24.1107 10.6087 24.2813 9.81324C24.4519 9.0178 24.8901 8.30492 25.5229 7.79353C26.1556 7.28214 26.9445 7.00317 27.758 7.00317C28.5715 7.00317 29.3605 7.28214 29.9932 7.79353C30.6259 8.30492 31.0641 9.0178 31.2347 9.81324C31.4053 10.6087 31.298 11.4386 30.9307 12.1645C30.5634 12.8903 29.9582 13.4683 29.2163 13.8019C28.966 13.9127 28.7465 14.0828 28.5768 14.2975C28.407 14.5121 28.2921 14.7649 28.2421 15.034C28.192 15.303 28.2082 15.5803 28.2893 15.8416C28.3704 16.103 28.514 16.3407 28.7076 16.5341C28.8538 16.6815 29.0263 16.8002 29.2163 16.8841C29.6374 17.0756 30.0177 17.3465 30.3362 17.682C30.6659 17.9993 30.9312 18.3772 31.1178 18.7949C31.2305 19.0433 31.4016 19.2606 31.6166 19.4284C31.8315 19.5962 32.0839 19.7095 32.3521 19.7586C32.6204 19.8076 32.8965 19.791 33.1569 19.7102C33.4173 19.6293 33.6543 19.4866 33.8476 19.2942C33.9917 19.1503 34.1079 18.981 34.1906 18.7949C34.4454 18.2248 34.8459 17.7317 35.3517 17.3655C35.8576 16.9992 36.451 16.7727 37.0722 16.7086C37.6935 16.6446 38.3206 16.7452 38.8906 17.0005C39.4605 17.2559 39.9532 17.6568 40.319 18.163C40.6848 18.6692 40.9108 19.2628 40.9743 19.8841C41.0378 20.5054 40.9366 21.1324 40.6807 21.7021C40.4249 22.2719 40.0236 22.7642 39.517 23.1295C39.0105 23.4949 38.4167 23.7203 37.7954 23.7833L37.8 23.7786Z" fill="#6785FB"/>
<path d="M34.7039 15.9508C36.1304 15.9508 37.2868 14.7944 37.2868 13.368C37.2868 11.9415 36.1304 10.7852 34.7039 10.7852C33.2775 10.7852 32.1211 11.9415 32.1211 13.368C32.1211 14.7944 33.2775 15.9508 34.7039 15.9508Z" fill="#6785FB"/>
<path d="M12.5667 15.9508C13.9932 15.9508 15.1495 14.7944 15.1495 13.368C15.1495 11.9415 13.9932 10.7852 12.5667 10.7852C11.1403 10.7852 9.98389 11.9415 9.98389 13.368C9.98389 14.7944 11.1403 15.9508 12.5667 15.9508Z" fill="#6785FB"/>
<path d="M12.2962 37.8173C13.7227 37.8173 14.879 36.6609 14.879 35.2344C14.879 33.808 13.7227 32.6516 12.2962 32.6516C10.8698 32.6516 9.71338 33.808 9.71338 35.2344C9.71338 36.6609 10.8698 37.8173 12.2962 37.8173Z" fill="#6785FB"/>
<path d="M34.4334 37.8173C35.8599 37.8173 37.0162 36.6609 37.0162 35.2344C37.0162 33.808 35.8599 32.6516 34.4334 32.6516C33.007 32.6516 31.8506 33.808 31.8506 35.2344C31.8506 36.6609 33.007 37.8173 34.4334 37.8173Z" fill="#6785FB"/>
</svg>
