<svg width="150" height="149" viewBox="0 0 150 149" fill="none" xmlns="http://www.w3.org/2000/svg">
<path d="M71.9449 13.683C72.2712 16.8742 71.5828 20.087 69.9778 22.8644C68.3727 25.6418 65.9328 27.8424 63.0049 29.153C61.7264 29.7229 60.6396 30.6498 59.8751 31.8224C59.1105 32.9949 58.7007 34.3633 58.6949 35.763C58.6943 36.7119 58.8823 37.6513 59.248 38.5268C59.6136 39.4024 60.1497 40.1965 60.8249 40.863C61.4579 41.4769 62.1964 41.9714 63.0049 42.323C65.2793 43.376 67.2657 44.9628 68.795 46.9485C70.3244 48.9341 71.3515 51.2598 71.7889 53.7276C72.2263 56.1955 72.0611 58.7325 71.3073 61.1228C70.5536 63.513 69.2336 65.6859 67.4596 67.4564C65.6857 69.2269 63.5103 70.5427 61.1185 71.2919C58.7268 72.041 56.1895 72.2013 53.7225 71.7591C51.2554 71.3169 48.9318 70.2853 46.9491 68.7521C44.9664 67.2189 43.3835 65.2295 42.3349 62.953C41.7675 61.6806 40.8437 60.5999 39.6751 59.8414C38.5064 59.083 37.1431 58.6793 35.7499 58.6793C34.3567 58.6793 32.9934 59.083 31.8248 59.8414C30.6562 60.5999 29.7323 61.6806 29.1649 62.953C27.7367 66.1379 25.2592 68.7364 22.1461 70.3148C19.0329 71.8931 15.4725 72.3558 12.0594 71.6255C8.64623 70.8953 5.58687 69.0163 3.3921 66.3022C1.19734 63.5882 0 60.2034 0 56.713C0 53.2226 1.19734 49.8379 3.3921 47.1238C5.58687 44.4098 8.64623 42.5308 12.0594 41.8005C15.4725 41.0703 19.0329 41.533 22.1461 43.1113C25.2592 44.6897 27.7367 47.2882 29.1649 50.473C29.7353 51.7494 30.663 52.8333 31.8359 53.5938C33.0089 54.3544 34.377 54.7591 35.7749 54.7591C37.1729 54.7591 38.541 54.3544 39.7139 53.5938C40.8869 52.8333 41.8146 51.7494 42.3849 50.473C43.2006 48.6651 44.3625 47.0344 45.8049 45.673C47.1647 44.2601 48.7843 43.1226 50.5749 42.323C51.6392 41.8401 52.5708 41.1066 53.29 40.1854C54.0092 39.2641 54.4947 38.1824 54.705 37.0327C54.9152 35.8831 54.8441 34.6996 54.4975 33.5834C54.151 32.4672 53.5394 31.4515 52.7149 30.623C52.095 30.0047 51.3661 29.5063 50.5649 29.153C48.1222 28.061 46.01 26.3451 44.4407 24.1778C42.8715 22.0106 41.9005 19.4684 41.6254 16.8068C41.3503 14.1452 41.7808 11.4582 42.8736 9.01576C43.9665 6.57336 45.683 4.46172 47.8508 2.89318C50.0186 1.32463 52.5611 0.354476 55.2228 0.0802519C57.8844 -0.193972 60.5714 0.237404 63.0134 1.33101C65.4555 2.42461 67.5665 4.14189 69.1344 6.31017C70.7022 8.47845 71.6716 11.0213 71.9449 13.683Z" fill="#6785FB"/>
<path d="M13.7149 76.3931C16.8937 76.073 20.0926 76.7601 22.8597 78.3572C25.6267 79.9542 27.8219 82.3805 29.1349 85.2931C29.7052 86.5694 30.6329 87.6533 31.8059 88.4139C32.9788 89.1744 34.3469 89.5792 35.7449 89.5792C37.1429 89.5792 38.5109 89.1744 39.6839 88.4139C40.8568 87.6533 41.7845 86.5694 42.3549 85.2931C43.4158 83.0281 45.007 81.0523 46.9938 79.533C48.9805 78.0136 51.3042 76.9956 53.768 76.5652C56.2318 76.1348 58.763 76.3046 61.1472 77.0604C63.5314 77.8161 65.6983 79.1354 67.4643 80.9065C69.2303 82.6776 70.5433 84.8483 71.2921 87.2347C72.0409 89.6211 72.2034 92.1528 71.7658 94.6153C71.3282 97.0778 70.3035 99.3986 68.7784 101.381C67.2534 103.363 65.2729 104.949 63.0049 106.003C61.7382 106.573 60.6631 107.497 59.9089 108.663C59.1547 109.83 58.7535 111.189 58.7535 112.578C58.7535 113.967 59.1547 115.327 59.9089 116.493C60.6631 117.659 61.7382 118.583 63.0049 119.153C66.1869 120.581 68.7827 123.057 70.3592 126.168C71.9357 129.28 72.3973 132.837 71.6671 136.248C70.9369 139.658 69.059 142.715 66.3469 144.908C63.6348 147.101 60.2526 148.297 56.7649 148.297C53.2772 148.297 49.8949 147.101 47.1828 144.908C44.4707 142.715 42.5928 139.658 41.8626 136.248C41.1324 132.837 41.5941 129.28 43.1706 126.168C44.747 123.057 47.3429 120.581 50.5249 119.153C51.5974 118.678 52.5382 117.949 53.2657 117.029C53.9932 116.109 54.4856 115.026 54.7003 113.872C54.915 112.719 54.8455 111.531 54.4978 110.411C54.1501 109.291 53.5347 108.272 52.7049 107.443C52.0783 106.811 51.3389 106.302 50.5249 105.943C48.7199 105.122 47.0901 103.961 45.7249 102.523C44.3119 101.163 43.1745 99.5437 42.3749 97.7531C41.8919 96.6888 41.1585 95.7572 40.2372 95.038C39.3159 94.3188 38.2343 93.8333 37.0846 93.623C35.9349 93.4127 34.7514 93.4839 33.6352 93.8305C32.519 94.177 31.5033 94.7886 30.6749 95.6131C30.0575 96.23 29.5592 96.9554 29.2049 97.7531C28.116 100.198 26.4026 102.312 24.2371 103.885C22.0715 105.457 19.5301 106.431 16.8685 106.709C14.2069 106.988 11.5189 106.56 9.07496 105.47C6.63098 104.38 4.51716 102.665 2.9461 100.499C1.37504 98.3326 0.402141 95.7907 0.125255 93.1289C-0.151631 90.4672 0.277259 87.7795 1.36879 85.3361C2.46032 82.8927 4.176 80.7798 6.34327 79.2099C8.51054 77.64 11.053 76.6685 13.7149 76.3931Z" fill="#6785FB"/>
<path d="M78.0647 134.623C77.7494 131.44 78.443 128.238 80.0474 125.471C81.6517 122.704 84.0856 120.511 87.0047 119.203C88.2832 118.633 89.37 117.706 90.1346 116.534C90.8991 115.361 91.3089 113.993 91.3147 112.593C91.3153 111.644 91.1273 110.705 90.7616 109.829C90.396 108.954 89.86 108.159 89.1847 107.493C88.5559 106.861 87.8171 106.349 87.0047 105.983C84.7303 104.93 82.7439 103.343 81.2146 101.357C79.6852 99.3718 78.6581 97.0462 78.2207 94.5783C77.7833 92.1104 77.9485 89.5734 78.7023 87.1832C79.4561 84.7929 80.7761 82.62 82.55 80.8495C84.324 79.079 86.4994 77.7632 88.8911 77.0141C91.2829 76.2649 93.8202 76.1046 96.2872 76.5468C98.7542 76.989 101.078 78.0206 103.061 79.5538C105.043 81.087 106.626 83.0764 107.675 85.3529C108.242 86.6253 109.166 87.7061 110.335 88.4645C111.503 89.2229 112.867 89.6266 114.26 89.6266C115.653 89.6266 117.016 89.2229 118.185 88.4645C119.353 87.7061 120.277 86.6253 120.845 85.3529C122.273 82.168 124.75 79.5695 127.864 77.9912C130.977 76.4128 134.537 75.9501 137.95 76.6804C141.363 77.4106 144.423 79.2897 146.618 82.0037C148.812 84.7177 150.01 88.1025 150.01 91.5929C150.01 95.0833 148.812 98.4681 146.618 101.182C144.423 103.896 141.363 105.775 137.95 106.505C134.537 107.236 130.977 106.773 127.864 105.195C124.75 103.616 122.273 101.018 120.845 97.8329C120.274 96.5566 119.347 95.4727 118.174 94.7121C117.001 93.9515 115.633 93.5468 114.235 93.5468C112.837 93.5468 111.469 93.9515 110.296 94.7121C109.123 95.4727 108.195 96.5566 107.625 97.8329C106.809 99.6408 105.647 101.272 104.205 102.633C102.845 104.046 101.225 105.183 99.4347 105.983C98.3704 106.466 97.4389 107.199 96.7196 108.121C96.0004 109.042 95.515 110.123 95.3047 111.273C95.0944 112.423 95.1656 113.606 95.5121 114.723C95.8587 115.839 96.4703 116.854 97.2947 117.683C97.9146 118.301 98.6435 118.8 99.4447 119.153C101.889 120.245 104.002 121.961 105.571 124.129C107.141 126.298 108.112 128.841 108.387 131.504C108.661 134.166 108.23 136.854 107.135 139.297C106.041 141.74 104.323 143.851 102.153 145.419C99.9838 146.987 97.4396 147.956 94.7768 148.228C92.1139 148.5 89.4263 148.066 86.9845 146.97C84.5426 145.873 82.4326 144.153 80.8668 141.982C79.3009 139.811 78.3345 137.266 78.0647 134.603V134.623Z" fill="#6785FB"/>
<path d="M136.295 71.9131C133.116 72.2332 129.917 71.5461 127.15 69.949C124.383 68.352 122.188 65.9257 120.875 63.0131C120.304 61.7368 119.377 60.6529 118.204 59.8923C117.031 59.1318 115.663 58.727 114.265 58.727C112.867 58.727 111.499 59.1318 110.326 59.8923C109.153 60.6529 108.225 61.7368 107.655 63.0131C106.594 65.2781 105.003 67.2539 103.016 68.7733C101.029 70.2926 98.7055 71.3106 96.2417 71.741C93.7779 72.1714 91.2467 72.0016 88.8625 71.2459C86.4783 70.4901 84.3114 69.1708 82.5454 67.3997C80.7794 65.6286 79.4664 63.4579 78.7176 61.0715C77.9688 58.6851 77.8063 56.1534 78.2439 53.6909C78.6815 51.2284 79.7062 48.9076 81.2313 46.9253C82.7563 44.9429 84.7368 43.3574 87.0048 42.3031C88.2715 41.7332 89.3466 40.8094 90.1008 39.643C90.855 38.4766 91.2562 37.1171 91.2562 35.7281C91.2562 34.3391 90.855 32.9797 90.1008 31.8133C89.3466 30.6468 88.2715 29.7231 87.0048 29.1531C83.8247 27.7232 81.2311 25.246 79.6568 22.1349C78.0824 19.0238 77.6225 15.4669 78.3537 12.0576C79.0849 8.64835 80.9631 5.59293 83.6749 3.40112C86.3867 1.20932 89.768 0.0136719 93.2548 0.0136719C96.7416 0.0136719 100.123 1.20932 102.835 3.40112C105.546 5.59293 107.425 8.64835 108.156 12.0576C108.887 15.4669 108.427 19.0238 106.853 22.1349C105.278 25.246 102.685 27.7232 99.5048 29.1531C98.4322 29.6279 97.4915 30.3569 96.764 31.277C96.0365 32.1971 95.5441 33.2806 95.3294 34.4337C95.1147 35.5869 95.1842 36.775 95.5319 37.8952C95.8796 39.0155 96.495 40.0342 97.3248 40.8631C97.9514 41.495 98.6908 42.0038 99.5048 42.3631C101.31 43.1839 102.94 44.3451 104.305 45.7831C105.718 47.143 106.855 48.7625 107.655 50.5531C108.138 51.6174 108.871 52.549 109.792 53.2682C110.714 53.9874 111.795 54.4729 112.945 54.6832C114.095 54.8935 115.278 54.8223 116.394 54.4757C117.511 54.1292 118.526 53.5176 119.355 52.6931C119.972 52.0762 120.471 51.3508 120.825 50.5531C121.917 48.1093 123.633 45.9962 125.801 44.4265C127.97 42.8567 130.513 41.8857 133.175 41.6111C135.838 41.3366 138.526 41.7681 140.969 42.8624C143.412 43.9566 145.523 45.6749 147.091 47.8445C148.659 50.014 149.628 52.5582 149.9 55.2211C150.172 57.8839 149.738 60.5715 148.642 63.0134C147.545 65.4552 145.825 67.5652 143.654 69.1311C141.483 70.6969 138.938 71.6634 136.275 71.9331L136.295 71.9131Z" fill="#6785FB"/>
<path d="M123.025 38.3631C129.139 38.3631 134.095 33.4069 134.095 27.2931C134.095 21.1794 129.139 16.2231 123.025 16.2231C116.911 16.2231 111.955 21.1794 111.955 27.2931C111.955 33.4069 116.911 38.3631 123.025 38.3631Z" fill="#6785FB"/>
<path d="M28.1447 38.3631C34.2585 38.3631 39.2147 33.4069 39.2147 27.2931C39.2147 21.1794 34.2585 16.2231 28.1447 16.2231C22.0309 16.2231 17.0747 21.1794 17.0747 27.2931C17.0747 33.4069 22.0309 38.3631 28.1447 38.3631Z" fill="#6785FB"/>
<path d="M26.985 132.083C33.0988 132.083 38.055 127.127 38.055 121.013C38.055 114.899 33.0988 109.943 26.985 109.943C20.8712 109.943 15.915 114.899 15.915 121.013C15.915 127.127 20.8712 132.083 26.985 132.083Z" fill="#6785FB"/>
<path d="M121.865 132.083C127.979 132.083 132.935 127.127 132.935 121.013C132.935 114.899 127.979 109.943 121.865 109.943C115.751 109.943 110.795 114.899 110.795 121.013C110.795 127.127 115.751 132.083 121.865 132.083Z" fill="#6785FB"/>
</svg>
